<svg width="96" height="96" viewBox="0 0 96 96" fill="none" xmlns="http://www.w3.org/2000/svg">
<circle cx="48" cy="48" r="48" fill="#E2E2E2"/>
<path d="M24 20V75.79H72.15V20H24ZM68.97 72.87H28.37V24.52H68.97V72.87Z" fill="#FFD121" stroke="black" stroke-width="0.75" stroke-miterlimit="10"/>
<path d="M45.9501 65.78C40.4301 66.84 35.5001 65.3801 34.8401 62.5301C36.0601 61.4801 37.4701 60.5701 39.0201 59.8401C41.1901 58.8101 43.6501 58.1101 46.2701 57.8501V50.94C46.4401 50.97 46.6101 50.9801 46.7701 50.9801C47.1201 50.9801 47.4601 50.9301 47.7901 50.8201C49.5501 50.2701 50.9701 48.33 51.4901 45.8V57.9001C52.7201 58.0501 53.9201 58.2901 55.0601 58.6201C55.5601 61.5201 51.5001 64.72 45.9501 65.78Z" stroke="black" stroke-width="0.75" stroke-miterlimit="10"/>
<path d="M67.5101 72.73C67.5101 72.78 67.5101 72.82 67.5101 72.86H29.8301C29.8301 72.81 29.8301 72.77 29.8301 72.73C29.8301 68.79 31.7401 65.21 34.8501 62.53C35.5001 65.38 40.4401 66.84 45.9601 65.78C51.5101 64.72 55.5601 61.52 55.0801 58.62C57.1201 59.21 59.0001 60.07 60.6401 61.14C64.8301 63.89 67.5101 68.07 67.5101 72.73Z" stroke="black" stroke-width="0.75" stroke-miterlimit="10"/>
<path d="M60.63 42.1V61.15C58.99 60.07 57.11 59.21 55.07 58.63C53.93 58.3 52.73 58.06 51.5 57.91V45.81C51.64 45.12 51.72 44.4 51.72 43.64C51.72 42.79 51.63 41.98 51.45 41.22C50.78 38.35 48.95 36.29 46.78 36.29C44.62 36.29 42.79 38.35 42.11 41.22C41.93 41.98 41.83 42.79 41.83 43.64C41.83 46.01 42.58 48.12 43.76 49.46C44.47 50.27 45.33 50.81 46.27 50.95V57.86C43.65 58.12 41.19 58.82 39.02 59.85V42.11C39.02 41.81 39.04 41.51 39.07 41.22C39.62 36.74 44.22 33.24 49.82 33.24C55.42 33.24 60.03 36.74 60.57 41.22C60.61 41.5 60.63 41.79 60.63 42.1Z" fill="#FFD121" stroke="black" stroke-width="0.75" stroke-miterlimit="10"/>
</svg>
