<svg width="132" height="132" viewBox="0 0 132 132" fill="none" xmlns="http://www.w3.org/2000/svg">
<g filter="url(#filter0_d_505_1945)">
<rect x="11" y="11" width="106" height="106" rx="17" fill="url(#paint0_linear_505_1945)" shape-rendering="crispEdges"/>
<rect x="11.05" y="11.05" width="105.9" height="105.9" rx="16.95" stroke="#929292" stroke-width="0.1" shape-rendering="crispEdges"/>
</g>
<path d="M117 75L11 101.5L11.5096 105.067L12.0192 106.596L13.0385 108.125C13.0755 108.533 15.3871 112.752 19.1538 114.75C23.1698 116.88 28.6608 116.783 28.8365 116.788H101.712C102.028 116.788 104.621 116.45 107.317 115.26C109.337 114.368 111.332 112.929 112.923 111.183C114.355 109.611 115.373 107.902 115.981 106.087C116.906 103.324 116.994 100.66 117 100.487L117 100.481V75Z" fill="#EFECE0" stroke="#929292" stroke-width="0.1"/>
<path d="M95.3864 52.3476L84.7363 50.0923L84.7676 75.1201L95.3864 73.8358V52.3476Z" fill="#E98478" stroke="black" stroke-width="0.2"/>
<path d="M84.7679 75.0887V50.0923L84.4234 50.2489V75.8092L95.0735 74.4623V73.8358L84.7679 75.0887Z" fill="#B1937F" stroke="black" stroke-width="0.2"/>
<path d="M77.0308 49.5284L60.4292 45.6443L60.6484 78.5657L77.0308 75.8092V49.5284Z" fill="#88A4B3" stroke="black" stroke-width="0.2"/>
<path d="M60.4293 45.6443L59.8028 46.3021L60.1787 79.568L76.5297 76.5296V75.9032L60.6485 78.597L60.4293 45.6443Z" fill="#B1937F" stroke="black" stroke-width="0.2"/>
<path d="M52.7235 44.0781L20.5225 36.2158V84.4233L52.7235 79.1295V44.0781Z" fill="#FFE689" stroke="black" stroke-width="0.2"/>
<path d="M19.6455 37.1555L20.5225 36.2158V84.4233L52.0657 79.2862V80.2572L19.6455 86.0208V37.1555Z" fill="#B1937F" stroke="black" stroke-width="0.2"/>
<path d="M76.2788 69.046C76.9279 69.5004 76.6845 71.6425 76.4816 72.6567C76.1571 72.5269 75.9137 72.7649 75.8325 72.9001C75.7352 72.9326 75.4945 73.6168 75.3863 73.9549C74.6722 74.9286 74.7642 76.4703 74.8994 77.1194C74.9319 77.5413 75.3457 77.9172 75.5485 78.0525C75.4512 78.2147 75.5621 78.7422 75.6297 78.9856L75.3863 79.797L74.656 79.7564C74.0718 79.659 73.8176 78.9856 73.7635 78.661C73.9907 77.9145 73.3713 77.3222 73.0332 77.1194C72.9358 77.022 73.0738 75.9969 73.1549 75.4966C73.1874 72.5431 73.6823 70.3983 73.9257 69.6951C74.1854 68.689 75.6026 68.8431 76.2788 69.046Z" fill="#D99F91" stroke="black" stroke-width="0.2"/>
<path d="M87.9631 75.6994C87.9307 75.5696 85.5425 72.1022 84.3524 70.3848L83.1759 72.6161L85.6912 75.4965C86.0158 75.7237 85.9076 75.9969 85.8129 76.1051L83.3787 77.9307L82.1617 77.9713C81.9345 77.9713 81.4449 78.3229 81.2285 78.4987C80.9364 78.5312 80.7552 78.7016 80.7011 78.7827L80.8229 80.4866C81.115 80.6489 81.8912 80.5542 82.2428 80.4866L82.973 80.6489C82.9406 80.227 83.0677 80.0674 83.1353 80.0404C83.4274 80.0079 83.9332 79.2425 84.1496 78.8638L87.3951 77.0382C88.0443 76.6812 88.0443 75.9969 87.9631 75.6994Z" fill="#D99F91" stroke="black" stroke-width="0.2"/>
<path d="M81.2288 78.4987C81.0341 78.5311 80.7961 78.6745 80.7014 78.7421C77.1962 79.0342 75.9412 78.8638 75.7519 78.7421C75.9791 78.4824 75.7654 75.1449 75.6302 73.5086C75.7276 72.6323 76.2387 72.5755 76.4822 72.6566C76.7093 73.4031 77.9832 74.2118 78.5918 74.5228C79.4032 74.9123 80.174 74.6851 80.458 74.5228C80.9773 73.6465 81.8374 72.8324 82.2025 72.5349C82.5919 72.3402 82.4729 69.641 82.3648 68.3157C83.663 68.7701 84.231 69.8844 84.3527 70.3847L83.1356 72.6566C82.7137 73.1435 82.2295 73.9954 82.0402 74.3606C81.456 74.8474 81.8779 76.9976 82.1619 78.0118C81.9023 78.0443 81.4317 78.3499 81.2288 78.4987Z" fill="#AAB08F" stroke="black" stroke-width="0.2"/>
<path d="M81.3504 65.2325C81.5776 66.9526 82.1212 68.0047 82.3646 68.3158C82.5594 69.0947 82.4187 71.372 82.3241 72.4133C81.9021 72.673 80.8771 73.955 80.4173 74.5635C79.6708 74.8881 78.9162 74.6987 78.6322 74.5635C77.1068 74.3363 76.4279 73.9009 76.2792 73.7115C75.8572 73.2247 75.6436 72.7514 75.5895 72.5756C74.7456 72.2835 74.2642 71.3179 74.129 70.8717C74.0965 69.6059 75.1703 67.3421 75.7112 66.3684C75.7112 64.5184 76.3333 63.0552 76.6443 62.5549C77.1636 61.8084 78.9973 61.9734 79.8493 62.1492C80.6932 62.3764 81.2016 64.2994 81.3504 65.2325Z" fill="#1F1B18" stroke="black" stroke-width="0.2"/>
<path d="M78.7944 106.005C78.6321 106.07 78.1318 106.14 77.9019 106.167C76.3764 106.297 75.346 106.194 75.0214 106.127V98.9459C75.5407 96.8363 74.9673 88.5465 74.6157 84.6654C74.6806 81.9066 75.4001 79.5671 75.7517 78.7422C76.5631 79.0992 79.3894 78.8909 80.7012 78.7422L80.8229 80.4867C81.2448 80.649 81.9453 80.5543 82.2428 80.4867L82.9731 80.6084C83.2976 80.7058 83.6492 82.3529 83.7845 83.1643C84.0441 83.7809 83.9738 87.5052 83.9062 89.2903C83.7114 91.1403 83.9873 93.3879 84.1496 94.2804C85.0259 95.5137 85.0286 100.826 84.9204 103.327C83.4599 104.431 81.7425 103.949 81.0663 103.571L81.3503 98.9459C80.8635 91.7407 80.0115 87.0184 79.6464 85.5579C79.4841 85.136 79.2271 85.3821 79.119 85.5579L78.7944 90.8725C78.3076 91.4567 78.5916 101.204 78.7944 106.005Z" fill="#5D7E9C" stroke="black" stroke-width="0.2"/>
<path d="M77.1311 108.804C77.4557 108.35 77.9966 108.128 78.2265 108.074C78.2914 107.587 78.1995 107.06 78.1454 106.857C77.8533 106.5 77.8614 106.248 77.9019 106.167L75.5083 106.248V108.439C75.9627 108.861 76.7795 108.858 77.1311 108.804Z" fill="#2E1F1B" stroke="black" stroke-width="0.2"/>
<path d="M85.2453 104.179C85.3102 105.51 84.4339 105.843 83.9876 105.843C82.8841 105.68 82.8787 104.585 83.0139 104.058C83.9876 103.96 84.6908 103.53 84.9207 103.327C84.8233 104.041 85.0965 104.193 85.2453 104.179Z" fill="#2E1F1B" stroke="black" stroke-width="0.2"/>
<defs>
<filter id="filter0_d_505_1945" x="0" y="0" width="132" height="132" filterUnits="userSpaceOnUse" color-interpolation-filters="sRGB">
<feFlood flood-opacity="0" result="BackgroundImageFix"/>
<feColorMatrix in="SourceAlpha" type="matrix" values="0 0 0 0 0 0 0 0 0 0 0 0 0 0 0 0 0 0 127 0" result="hardAlpha"/>
<feMorphology radius="1" operator="erode" in="SourceAlpha" result="effect1_dropShadow_505_1945"/>
<feOffset dx="2" dy="2"/>
<feGaussianBlur stdDeviation="7"/>
<feComposite in2="hardAlpha" operator="out"/>
<feColorMatrix type="matrix" values="0 0 0 0 0 0 0 0 0 0 0 0 0 0 0 0 0 0 0.18 0"/>
<feBlend mode="normal" in2="BackgroundImageFix" result="effect1_dropShadow_505_1945"/>
<feBlend mode="normal" in="SourceGraphic" in2="effect1_dropShadow_505_1945" result="shape"/>
</filter>
<linearGradient id="paint0_linear_505_1945" x1="64" y1="11" x2="64" y2="126.366" gradientUnits="userSpaceOnUse">
<stop offset="0.315625" stop-color="#FFF3C2"/>
<stop offset="1" stop-color="#FFF3C2" stop-opacity="0.47"/>
</linearGradient>
</defs>
</svg>
