<svg width="132" height="132" viewBox="0 0 132 132" fill="none" xmlns="http://www.w3.org/2000/svg">
<g filter="url(#filter0_d_667_705)">
<rect x="11" y="11" width="106" height="106" rx="17" fill="#C6FFFC"/>
<rect x="11.05" y="11.05" width="105.9" height="105.9" rx="16.95" stroke="#929292" stroke-width="0.1"/>
</g>
<path d="M34.9227 82.8872C36.9568 82.342 45.4715 75.3909 49.4746 71.9836L74.4129 68.0651L93.1302 76.6403C95.526 77.3022 96.3626 80.2321 95.1856 82.4213C91.2967 89.655 78.6159 102.501 61.7003 103.672C49.6691 104.505 40.2399 101.112 34.5958 97.8615C31.5529 96.1092 30.3889 92.4638 31.4633 89.1207C32.4372 86.0901 33.6912 83.2173 34.9227 82.8872Z" fill="#E0E0E0" stroke="#7B7B7B" stroke-width="0.4"/>
<path d="M54.0791 60.6804C54.2504 58.7697 53.1157 57.6254 52.5269 57.2921L58.3611 55.2369L73.4013 69.79C73.3835 70.1788 72.106 73.1005 67.139 81.6768C50.6536 82.6988 46.1397 77.5479 45.9435 74.8446C46.4787 74.4003 48.4805 72.7672 52.2058 69.79C53.7901 69.2567 54.1148 67.6051 54.0791 66.846V60.6804Z" fill="#C7C7C7"/>
<path d="M50.5887 53.4107C50.7685 53.5938 51.5175 55.8721 52.1169 56.845C54.2746 58.848 53.8254 58.1601 53.9152 62.5674C49.5098 59.4191 50.3639 53.1818 50.5887 53.4107Z" fill="#CDCDCD" stroke="#7B7B7B" stroke-width="0.5"/>
<path d="M82.0496 37.6775C82.6571 41.14 81.7965 46.1651 81.2902 48.2449C81.2902 43.8605 79.446 43.6919 77.9273 42.1743C77.1028 41.2299 76.2819 40.769 75.9746 40.6566C75.6491 40.9189 74.7162 41.7471 73.588 42.9612C72.4489 42.2305 69.5199 44.3664 67.7299 45.4906C66.081 45.7155 63.1013 48.6571 61.8176 50.0998C60.1542 51.0366 56.5887 53.1801 55.6341 54.2593C53.5078 54.664 52.253 56.3016 51.8914 57.0698C50.662 55.1025 48.1054 50.3246 47.7148 46.9521C47.7691 46.1651 48.42 43.1298 49.7218 42.9612C49.4506 42.1743 48.4742 37.1716 51.8914 30.7637C55.3086 24.3558 64.5297 24.8617 67.0248 25.1428C78.9036 25.2552 81.2902 33.3494 82.0496 37.6775Z" fill="#E3E3E3" stroke="#7B7B7B" stroke-width="0.4"/>
<path d="M55.0876 58.5917C54.1015 58.5917 52.819 57.5878 52.301 57.0858C52.033 57.0858 51.9151 56.7735 53.5871 55.5241C55.2591 54.2748 58.0349 52.3636 59.3211 51.7873C61.804 49.6121 67.4987 45.4736 69.5565 44.5366C71.6818 43.0988 71.9822 43.0691 72.9086 42.9773L72.9325 42.975C74.0579 42.8634 74.3794 42.4172 76.3622 40.5767C77.4768 40.7551 79.9348 44.0718 81.0244 45.7079L81.2388 48.2735C81.7746 48.8312 80.5421 51.3969 80.3813 51.2853C80.2206 51.1738 79.7919 52.5123 79.8455 53.5163C80.2742 54.5425 77.2018 62.3844 75.612 66.177C75.0225 67.2553 73.8596 69.6889 73.3077 70.3043C72.5574 71.1409 69.3957 70.8063 66.6627 70.3043C56.7488 68.9657 56.4809 59.4841 55.0876 58.5917Z" fill="#DCDCDC" stroke="#7B7B7B" stroke-width="0.4"/>
<defs>
<filter id="filter0_d_667_705" x="0" y="0" width="132" height="132" filterUnits="userSpaceOnUse" color-interpolation-filters="sRGB">
<feFlood flood-opacity="0" result="BackgroundImageFix"/>
<feColorMatrix in="SourceAlpha" type="matrix" values="0 0 0 0 0 0 0 0 0 0 0 0 0 0 0 0 0 0 127 0" result="hardAlpha"/>
<feMorphology radius="1" operator="erode" in="SourceAlpha" result="effect1_dropShadow_667_705"/>
<feOffset dx="2" dy="2"/>
<feGaussianBlur stdDeviation="7"/>
<feComposite in2="hardAlpha" operator="out"/>
<feColorMatrix type="matrix" values="0 0 0 0 0 0 0 0 0 0 0 0 0 0 0 0 0 0 0.18 0"/>
<feBlend mode="normal" in2="BackgroundImageFix" result="effect1_dropShadow_667_705"/>
<feBlend mode="normal" in="SourceGraphic" in2="effect1_dropShadow_667_705" result="shape"/>
</filter>
</defs>
</svg>
