<svg width="132" height="132" viewBox="0 0 132 132" fill="none" xmlns="http://www.w3.org/2000/svg">
<g filter="url(#filter0_d_505_1833)">
<rect x="11" y="11" width="106" height="106" rx="17" fill="#FFF4C2"/>
<rect x="11.05" y="11.05" width="105.9" height="105.9" rx="16.95" stroke="#929292" stroke-width="0.1"/>
</g>
<path d="M95.2855 81.5573C93.6677 79.1129 93.3218 77.139 93.3511 76.4575L50.9919 86.5252C50.693 87.2463 49.3579 87.3825 48.7278 87.3606C47.4616 90.3853 49.2554 92.5776 50.3105 93.2957L95.2855 81.5573Z" fill="#E8E3DB" stroke="black" stroke-width="0.3"/>
<path d="M35.582 62.0372C35.5996 63.8485 36.5273 64.3746 36.9889 64.4113C36.3558 62.5648 37.1208 60.6817 37.5824 59.9709C37.3714 59.162 39.1065 57.9339 40.0004 57.421C39.9828 56.5945 38.9819 56.5491 38.4837 56.6297C37.1823 56.9462 36.3294 58.4175 36.0656 59.1136C35.6436 59.8874 35.5674 61.3851 35.582 62.0372Z" fill="#86572B" stroke="black" stroke-width="0.3"/>
<path d="M37.8023 70.5004C38.0134 73.5251 39.1652 74.0761 39.7148 73.9735C38.9586 71.2653 39.5755 69.0202 39.9785 68.2362C39.9961 66.9701 41.7298 65.9941 42.5944 65.6643C42.7878 64.6444 41.8104 64.5945 41.2975 64.6971C39.9434 64.6444 38.8135 66.3165 38.4178 67.1591C37.6968 68.7418 37.7071 70.0461 37.8023 70.5004Z" fill="#86572B" stroke="black" stroke-width="0.3"/>
<path d="M46.0456 74.3472L45.584 74.567C45.9709 73.4064 45.0271 73.3947 44.5069 73.5339C42.0977 74.0087 41.085 76.8238 40.8799 78.1721L39.6928 73.9076C38.9367 71.0763 39.5829 68.9177 40.0006 68.1923C40.0533 66.9789 41.7518 66.0014 42.5945 65.6644C42.8231 64.6796 41.8251 64.6092 41.2975 64.6971C39.6269 64.6268 38.4325 66.9393 38.0442 68.1043L37.011 64.4334C36.3604 62.71 37.1209 60.6964 37.5826 59.9051C37.4067 59.1489 39.136 57.9194 40.0226 57.3991C40.005 56.6606 39.1799 56.5638 38.7696 56.6078C37.0638 56.6957 36.0365 58.9159 35.7361 60.015L34.8788 56.7617C34.7733 56.7089 34.7176 55.2449 34.7029 54.5195C34.5271 52.2861 36.5494 50.3503 37.5826 49.6615C37.5298 49.1164 36.7399 49.024 36.3516 49.046C34.8568 48.9581 33.8383 51.3541 33.5159 52.5631L32.7685 49.3977C32.6102 46.0916 34.212 44.21 35.0327 43.6824C35.6657 43.6472 35.7214 42.9204 35.6701 42.5613L46.0456 74.3472Z" fill="#B17A3C" stroke="black" stroke-width="0.3"/>
<path d="M45.0785 73.4679C45.8347 73.591 45.716 74.2812 45.5621 74.611C41.7988 76.6157 42.0597 82.1141 42.6605 84.6127C40.9195 84.4193 40.6455 81.059 40.7261 79.403C41.1657 74.567 43.8109 73.4313 45.0785 73.4679Z" fill="#86572B" stroke="black" stroke-width="0.3"/>
<path d="M43.826 88.6574C43.8611 89.5191 44.7199 91.581 45.1449 92.5042C43.4918 85.6283 46.9474 83.3231 48.8818 83.03L46.0461 74.3691C41.7553 76.2508 42.0308 82.0115 42.7049 84.6567L43.826 88.6574Z" fill="#B17A3C" stroke="black" stroke-width="0.3"/>
<path d="M37.209 43.0669L50.8817 83.0081C49.809 83.5884 49.1012 83.2499 48.8814 83.0081L35.6922 42.6053C36.2725 43.1329 36.9452 43.1329 37.209 43.0669Z" fill="#92683E" stroke="black" stroke-width="0.3"/>
<path d="M95.285 81.5791C93.6144 78.9412 93.2993 77.0508 93.3506 76.4353L50.9694 86.547C50.8463 87.2152 49.4087 87.3677 48.7053 87.3603C47.4216 90.3499 49.2402 92.5627 50.31 93.2954L95.285 81.5791Z" stroke="black" stroke-width="0.3"/>
<path d="M48.7053 93.6913C49.2681 93.6562 50.0242 93.4129 50.332 93.2957C47.7469 91.4316 48.1704 88.5622 48.7053 87.3605C50.3935 87.3605 50.9182 86.8183 50.9695 86.5472L93.3506 76.4355C93.0693 75.6969 93.4752 74.0542 93.7683 73.446L53.5853 83.0521C52.284 83.2983 51.3725 83.7262 51.0794 83.9094C50.3056 84.7007 49.4087 84.5469 49.057 84.371C47.5623 84.3358 46.7929 86.3494 46.595 87.3605C46.1906 88.9784 46.5144 90.8923 46.7269 91.647C47.4304 93.2649 48.3389 93.684 48.7053 93.6913Z" fill="#DCD4CB" stroke="black" stroke-width="0.3"/>
<path d="M50.618 94.6585C51.7259 95.3971 52.7209 95.1714 53.08 94.9663L52.7722 94.043C52.2271 93.5506 50.9624 93.325 50.3982 93.2737C49.8706 93.5199 49.0499 93.6547 48.7056 93.6913C47.8087 93.6737 47.0129 92.3358 46.7272 91.669C45.8655 88.5388 46.8664 86.0856 47.4746 85.2503C48.1077 84.5117 48.7935 84.3563 49.0573 84.371C49.5145 84.6172 50.2003 84.4736 50.4861 84.371C51.4005 84.0193 51.1309 83.3305 50.8818 83.0301C49.7915 83.5752 49.1086 83.2572 48.9034 83.0301C47.7251 83.0828 46.3901 84.3856 45.8699 85.0304C44.7796 86.4021 44.7268 89.1191 44.8367 90.3061C44.6257 92.5395 46.0091 94.2116 46.7272 94.7684C47.2547 95.4367 48.3978 95.3546 48.9034 95.2301C49.7651 94.6146 50.4055 94.5926 50.618 94.6585Z" fill="#92683E" stroke="black" stroke-width="0.3"/>
<path d="M50.3759 93.2955C51.8531 93.4011 52.6034 93.8524 52.7939 94.0649L95.307 83.1179C95.9225 83.2762 96.6919 82.4658 96.9996 82.0408L93.3506 76.3694C93.2627 78.0401 94.6182 80.5387 95.307 81.5792L50.3759 93.2955Z" fill="#C09764" stroke="black" stroke-width="0.3"/>
<path d="M96.3187 83.8653L53.0802 94.9662L52.7725 94.0869L95.3075 83.1179C96.011 83.2234 96.729 82.4291 97.0001 82.0188C97.176 82.5464 96.6191 83.4696 96.3187 83.8653Z" fill="#AB8C63" stroke="black" stroke-width="0.3"/>
<path d="M53.5196 81.777C52.3941 82.0759 51.2921 82.7368 50.8817 83.0299C51.1631 83.3816 51.1309 83.7627 51.0796 83.9092C51.6423 83.5223 53.058 83.1618 53.6954 83.0299L97.5274 72.5226C98.1781 72.1884 98.0183 71.0791 97.8571 70.5662C97.7868 71.4103 97.3296 71.6799 97.1098 71.7092L53.5196 81.777Z" fill="#AB8C63" stroke="black" stroke-width="0.3"/>
<path d="M33.4717 54.4095C33.3135 55.9922 34.3144 56.593 34.8346 56.6956C34.3774 53.8116 35.0251 52.3139 35.4061 51.9255C35.7051 51.1518 36.9668 50.0937 37.5604 49.6614C37.4724 49.0811 36.6151 49.0093 36.1975 49.0459C35.1072 49.0986 34.2191 50.6506 33.9114 51.4199C33.331 52.8268 33.3765 53.9992 33.4717 54.4095Z" fill="#86572B" stroke="black" stroke-width="0.3"/>
<path d="M32.0211 47.9468C31.9508 49.0899 32.4901 49.405 32.7685 49.4196C32.5575 46.1311 34.1753 44.2246 35.0107 43.6824C35.6262 43.6648 35.7068 42.9569 35.6701 42.6052C35.037 42.0249 33.8529 42.847 33.34 43.3306C32.0739 44.1396 31.9332 46.7452 32.0211 47.9468Z" fill="#86572B" stroke="black" stroke-width="0.3"/>
<path d="M39.3634 41.7479C38.1676 41.8359 37.4143 42.6638 37.1872 43.0668L50.9039 83.008L51.7832 82.4805C51.8183 82.3574 52.9262 81.9456 53.4758 81.7551L96.956 71.7533C97.5364 71.6653 97.8133 70.9839 97.8793 70.6542L73.9849 36.9119C73.5101 36.0678 72.5268 35.9593 72.0945 36.0106L39.3634 41.7479Z" fill="#C09A65" stroke="black" stroke-width="0.3"/>
<path d="M54.3548 77.8204L93.1309 69.1375L71.8085 38.2309L41.7152 43.6604L54.3548 77.8204Z" fill="#D0AC7C" stroke="black" stroke-width="0.3"/>
<defs>
<filter id="filter0_d_505_1833" x="0" y="0" width="132" height="132" filterUnits="userSpaceOnUse" color-interpolation-filters="sRGB">
<feFlood flood-opacity="0" result="BackgroundImageFix"/>
<feColorMatrix in="SourceAlpha" type="matrix" values="0 0 0 0 0 0 0 0 0 0 0 0 0 0 0 0 0 0 127 0" result="hardAlpha"/>
<feMorphology radius="1" operator="erode" in="SourceAlpha" result="effect1_dropShadow_505_1833"/>
<feOffset dx="2" dy="2"/>
<feGaussianBlur stdDeviation="7"/>
<feComposite in2="hardAlpha" operator="out"/>
<feColorMatrix type="matrix" values="0 0 0 0 0 0 0 0 0 0 0 0 0 0 0 0 0 0 0.18 0"/>
<feBlend mode="normal" in2="BackgroundImageFix" result="effect1_dropShadow_505_1833"/>
<feBlend mode="normal" in="SourceGraphic" in2="effect1_dropShadow_505_1833" result="shape"/>
</filter>
</defs>
</svg>
