<svg width="93" height="93" viewBox="0 0 93 93" fill="none" xmlns="http://www.w3.org/2000/svg">
<circle cx="46.5" cy="46.5" r="46.5" fill="#E2E2E2"/>
<path d="M32.04 50.8199H22V71.1799H32.04V50.8199Z" stroke="black" stroke-width="0.75" stroke-miterlimit="10"/>
<path d="M32.04 34.12H22V50.81H32.04V34.12Z" stroke="black" stroke-width="0.75" stroke-miterlimit="10"/>
<path d="M44.1701 22H32.05V33.63H44.1701V22Z" stroke="black" stroke-width="0.75" stroke-miterlimit="10"/>
<path d="M44.1701 60.11H32.05V71.17H44.1701V60.11Z" stroke="black" stroke-width="0.75" stroke-miterlimit="10"/>
<path d="M44.1701 33.63H32.05V60.11H44.1701V33.63Z" stroke="black" stroke-width="0.75" stroke-miterlimit="10"/>
<path d="M32.04 39.17H22V50.82H32.04V39.17Z" fill="#FFD121" stroke="black" stroke-width="0.75" stroke-miterlimit="10"/>
<path d="M68.9201 46.79L55.4101 23.4L47.3901 28.03L44.8601 29.49L45.1201 29.95L57.7401 51.8L68.4501 70.34L79.0001 64.25L68.9201 46.79ZM68.4301 66.59L59.4401 51.03L48.0001 31.22L55.3401 26.98L67.2101 47.55L75.7601 62.36L68.4301 66.59Z" stroke="black" stroke-width="0.75" stroke-miterlimit="10"/>
<path d="M44.4301 33.6301H32.05V26.4301H44.16V33.1701L44.4301 33.6301Z" fill="#FFD121" stroke="black" stroke-width="0.75" stroke-miterlimit="10"/>
<path d="M44.1701 60.11H32.05V66.54H44.1701V60.11Z" fill="#FFD121" stroke="black" stroke-width="0.75" stroke-miterlimit="10"/>
<path d="M55.3266 26.9759L47.9924 31.2118L68.4215 66.5838L75.7557 62.348L55.3266 26.9759Z" fill="#FFD121" stroke="black" stroke-width="0.75" stroke-miterlimit="10"/>
</svg>
