<svg width="132" height="132" viewBox="0 0 132 132" fill="none" xmlns="http://www.w3.org/2000/svg">
<g filter="url(#filter0_d_505_1854)">
<rect x="11" y="11" width="106" height="106" rx="17" fill="#FFF4C2"/>
<rect x="11.05" y="11.05" width="105.9" height="105.9" rx="16.95" stroke="#929292" stroke-width="0.1"/>
</g>
<path d="M38.5609 97.9717H86.8817L84.5377 92.8036H40.5095L38.5609 97.9717Z" fill="#D1BA9C" stroke="black" stroke-width="0.2"/>
<path d="M97.2748 75.0399L97.7267 92.3801V92.6907H86.882H84.5097L84.538 92.8037H40.538L40.6227 92.5778H38.5329H26.9539L27.4905 75.3788L97.2748 75.0399Z" fill="#EBD4B7" stroke="black" stroke-width="0.2"/>
<path d="M89.7624 72.6393H86.8535L86.5428 62.19C88.2599 61.3315 89.1975 62.6795 89.4517 63.4609L89.7624 72.6393Z" fill="#B2E3FF" stroke="black" stroke-width="0.2"/>
<path d="M80.9509 63.0373C79.5502 60.5972 77.9574 61.9641 77.3361 62.9526L77.449 72.7523L81.1486 72.6958L80.9509 63.0373Z" fill="#B2E3FF" stroke="black" stroke-width="0.2"/>
<path d="M72.5915 72.7523H69.1178L68.9766 63.0373C70.3322 60.6424 71.9514 62.0394 72.5915 63.0373V72.7523Z" fill="#B2E3FF" stroke="black" stroke-width="0.2"/>
<path d="M60.5609 72.7241H64.1193V63.2633C62.5604 60.5973 61.0975 62.1525 60.5609 63.2633V72.7241Z" fill="#B2E3FF" stroke="black" stroke-width="0.2"/>
<path d="M51.862 63.2632V72.7241H55.5051L55.6463 63.2632C54.3811 60.7102 52.5963 62.1995 51.862 63.2632Z" fill="#B2E3FF" stroke="black" stroke-width="0.2"/>
<path d="M43.4184 63.0936V72.6109L46.9768 72.6674L47.2592 63.0936C46.0166 60.8117 44.1809 62.1428 43.4184 63.0936Z" fill="#B2E3FF" stroke="black" stroke-width="0.2"/>
<path d="M35.0591 63.4044L34.8897 72.6111H37.6856L38.0809 62.19C36.635 61.1056 35.4639 62.5478 35.0591 63.4044Z" fill="#B2E3FF" stroke="black" stroke-width="0.2"/>
<path d="M98.8845 41.7433C98.8167 42.0144 97.9525 42.8353 97.5289 43.2118L27.4904 43.1836C26.4963 42.6413 26.0219 41.828 25.9089 41.4891L62.5379 32L98.8845 41.7433Z" fill="#E3E3BD" stroke="black" stroke-width="0.2"/>
<path d="M59.7136 92.0409C60.188 92.0635 60.2314 92.5587 60.1937 92.8035H64.3169C64.2266 92.2612 64.6182 92.0692 64.8253 92.0409V80.6879C62.8823 76.3049 60.6079 78.8617 59.7136 80.6879V92.0409Z" fill="#D1BA9C" stroke="black" stroke-width="0.2"/>
<path d="M88.3222 80.6034V92.6907H92.8125V80.6034C90.2821 76.3107 88.7646 78.8148 88.3222 80.6034Z" fill="#D1BA9C" stroke="black" stroke-width="0.2"/>
<path d="M78.9462 91.9281C79.2399 92.0411 79.4827 92.5588 79.5675 92.8036H83.0129C82.9225 92.2388 83.3518 91.8904 83.5777 91.7869V80.6598C81.5896 76.2316 79.5298 78.7394 78.7485 80.5468L78.9462 91.9281Z" fill="#D1BA9C" stroke="black" stroke-width="0.2"/>
<path d="M36.3298 80.914L36.1886 92.6342H30.9357L31.2181 80.914C33.726 75.5143 35.6709 78.6641 36.3298 80.914Z" fill="#D1BA9C" stroke="black" stroke-width="0.2"/>
<path d="M89.452 63.4044L89.7627 72.611H86.8256L86.5149 62.2182C88.0738 61.2693 89.1225 62.6136 89.452 63.4044Z" stroke="black" stroke-width="0.2"/>
<path d="M80.9795 63.0655C79.4658 60.5577 77.9012 62.0206 77.3082 63.0655L77.4776 72.6958H81.149L80.9795 63.0655Z" stroke="black" stroke-width="0.2"/>
<path d="M68.9766 63.009L69.1178 72.7523H72.5633V63.009C70.914 60.6367 69.485 62.0206 68.9766 63.009Z" stroke="black" stroke-width="0.2"/>
<path d="M60.5609 63.235V72.7241H64.1193V63.235C62.5604 60.5916 61.0975 62.1336 60.5609 63.235Z" stroke="black" stroke-width="0.2"/>
<path d="M51.862 63.2633V72.7524H55.5051L55.6463 63.2633C54.3585 60.6425 52.5869 62.1713 51.862 63.2633Z" stroke="black" stroke-width="0.2"/>
<path d="M43.4184 63.0936V72.6392H46.9768L47.2875 63.0936C45.9545 60.7665 44.1527 62.124 43.4184 63.0936Z" stroke="black" stroke-width="0.2"/>
<path d="M35.0588 63.3479L34.9176 72.611H37.7135L38.1653 62.2182C36.6064 61.1112 35.4447 62.51 35.0588 63.3479Z" stroke="black" stroke-width="0.2"/>
<path d="M64.8536 83.9358H59.7419L59.7702 92.041C60.2446 92.1314 60.222 92.5682 60.1938 92.7753H64.317C64.2267 92.3461 64.6371 92.1069 64.8536 92.041V83.9358Z" fill="#827671" stroke="black" stroke-width="0.2"/>
<path d="M61.9163 84.3311H60.4195V89.3581H61.8316L61.9163 84.3311Z" fill="#B2E3FF" stroke="black" stroke-width="0.2"/>
<path d="M64.1478 84.3311H62.6793V89.3298H64.1478V84.3311Z" fill="#B2E3FF" stroke="black" stroke-width="0.2"/>
<path d="M93.0948 72.6393H86.8535C87.3957 72.8426 87.5878 73.383 87.616 73.6277H92.3888C92.3662 73.2211 92.8501 72.7993 93.0948 72.6393Z" fill="#EBEBEB" stroke="black" stroke-width="0.2"/>
<path d="M83.8598 72.6957L77.4491 72.7522V72.8369C77.9235 72.9499 78.1551 73.43 78.2116 73.6559H83.2103C83.2329 73.2492 83.6527 72.8463 83.8598 72.6957Z" fill="#EBEBEB" stroke="black" stroke-width="0.2"/>
<path d="M74.9073 72.7806H68.0447C68.6547 72.9161 68.939 73.4207 69.0049 73.6561H74.1448C74.0996 73.3623 74.6343 72.95 74.9073 72.7806Z" fill="#EBEBEB" stroke="black" stroke-width="0.2"/>
<path d="M65.8136 72.7806H58.9792C59.4989 73.1195 59.6853 73.5243 59.7135 73.6843H64.9664C64.9438 73.255 65.5218 72.903 65.8136 72.7806Z" fill="#EBEBEB" stroke="black" stroke-width="0.2"/>
<path d="M56.5504 72.7804L49.4619 72.7239C50.0041 72.8821 50.1961 73.43 50.2244 73.6841L55.8444 73.7124C55.7992 73.3509 56.2963 72.9405 56.5504 72.7804Z" fill="#EBEBEB" stroke="black" stroke-width="0.2"/>
<path d="M46.9768 72.6674L40.2554 72.5827L40.2272 72.6392C40.679 72.8425 40.8485 73.4205 40.8767 73.6841H46.2426C46.0844 73.3226 46.6662 72.8557 46.9768 72.6674Z" fill="#EBEBEB" stroke="black" stroke-width="0.2"/>
<path d="M37.6854 72.611H31.0487V72.7522C31.591 72.9329 31.6512 73.4676 31.6136 73.7124H36.9229C36.9003 73.1475 37.4219 72.7428 37.6854 72.611Z" fill="#EBEBEB" stroke="black" stroke-width="0.2"/>
<path d="M35.624 42.1668L89.0001 42.0821L62.651 35.05L35.624 42.1668Z" fill="#EBEBEB" stroke="black" stroke-width="0.2"/>
<path d="M29.6931 42.167L62.6507 33.5534V35.0502L35.6238 42.167H29.6931Z" fill="#EBD4B7" stroke="black" stroke-width="0.2"/>
<path d="M95.1845 42.0823L62.6505 33.5534V35.0502L88.9996 42.0823H95.1845Z" fill="#EBD4B7" stroke="black" stroke-width="0.2"/>
<path d="M96.6249 44.991C96.5119 45.1265 95.8247 45.2546 95.4952 45.3016L95.6647 44.1155H28.9022L29.0434 44.8498C28.8175 44.9401 28.3091 44.8874 28.0832 44.8498C27.6765 44.4431 27.5184 43.5695 27.4901 43.1835H97.5286L96.6249 44.991Z" fill="#DFDFCC" stroke="black" stroke-width="0.2"/>
<path d="M95.665 44.1154L95.2696 46.8831L29.4674 46.996L28.9025 44.1154H95.665Z" fill="#EBD4B7" stroke="black" stroke-width="0.2"/>
<path d="M31.698 50.7524C32.4887 49.8035 32.7429 48.8508 32.7711 48.4931H37.9958C38.0862 50.1424 38.4288 50.7807 38.5889 50.8936L38.1087 62.1901C36.595 61.1057 35.4447 62.529 35.0587 63.3763L34.8892 72.6112H31.0767L31.698 50.7524Z" fill="#EBD4B7" stroke="black" stroke-width="0.2"/>
<path d="M95.2976 46.8831L95.3823 48.4081L29.4671 48.4928V46.996L95.2976 46.8831Z" fill="#EBEBEB" stroke="black" stroke-width="0.2"/>
<path d="M31.0485 72.7524C31.6359 72.9331 31.6698 73.5055 31.6133 73.7691H27.3771C27.4901 73.2494 28.0643 72.8748 28.3373 72.7524L29.5517 50.7524C29.0772 50.3457 28.695 49.0109 28.5632 48.4931H32.7712C32.7938 49.1483 32.0558 50.3759 31.698 50.7524L31.0485 72.7524Z" fill="#EBEBEB" stroke="black" stroke-width="0.2"/>
<path d="M40.2271 72.6394C40.7468 72.9331 40.8767 73.4773 40.8767 73.7126H36.9229C36.9229 73.08 37.4313 72.7336 37.6854 72.6394L38.5892 50.8936C38.1825 50.3062 38.0432 48.9732 38.0243 48.4931H41.6957C41.8764 49.6002 41.1309 50.63 40.7355 50.8936L40.2271 72.6394Z" fill="#EBEBEB" stroke="black" stroke-width="0.2"/>
<path d="M49.4622 72.7242C49.9593 72.8823 50.1777 73.4114 50.2248 73.6561H46.2145C46.1467 73.1817 46.6946 72.8371 46.977 72.7242L47.683 50.7524C47.2538 50.0972 46.9017 48.8979 46.8076 48.4931H50.8461C50.8235 49.3065 50.1777 50.4135 49.8294 50.7524L49.4622 72.7242Z" fill="#EBEBEB" stroke="black" stroke-width="0.2"/>
<path d="M58.9794 72.8088C59.4313 73.0573 59.6572 73.496 59.7137 73.6843H55.8446C55.822 73.3228 56.3059 72.95 56.5506 72.8088L56.9743 50.5264C56.4546 50.3005 56.1929 48.9449 56.127 48.4648H60.0808C60.2164 48.7359 59.403 50.0651 58.9794 50.5264V72.8088Z" fill="#EBEBEB" stroke="black" stroke-width="0.2"/>
<path d="M68.0451 72.8087C68.5873 72.8087 68.9111 73.3735 69.0053 73.656H64.9385C65.0289 73.1363 65.5598 72.8746 65.814 72.8087L66.0117 50.611C65.5146 50.4077 65.1268 49.0107 64.995 48.4365H69.0335C68.9883 49.2272 68.3557 50.2816 68.0451 50.611V72.8087Z" fill="#EBEBEB" stroke="black" stroke-width="0.2"/>
<path d="M77.4491 72.837C78.014 72.9725 78.174 73.4394 78.1834 73.656H74.1449C74.1675 73.2493 74.6627 72.9405 74.9074 72.837V50.5546C74.3652 50.1253 74.1167 48.8789 74.0602 48.4365H78.1269C78.2625 48.9561 77.5244 50.1498 77.1385 50.5546L77.4491 72.837Z" fill="#EBEBEB" stroke="black" stroke-width="0.2"/>
<path d="M86.8533 72.6675C87.3052 72.6901 87.5688 73.317 87.6441 73.6277H83.2102C83.2328 73.1307 83.7091 72.7805 83.9445 72.6675V50.8934C83.0182 49.8316 82.9278 48.7471 83.0408 48.4082H87.1075C87.356 48.9053 86.6368 50.3192 86.2038 50.8934L86.8533 72.6675Z" fill="#EBEBEB" stroke="black" stroke-width="0.2"/>
<path d="M96.3427 72.6393C96.9076 72.8652 97.0864 73.3924 97.1053 73.6277H92.389C92.4342 73.1081 92.8785 72.7522 93.095 72.6393L92.9538 50.2721C92.1856 49.5943 92.0877 48.7471 92.1348 48.4082H96.0321C96.1902 49.0408 95.5896 49.9144 95.2696 50.2721V52.2208L96.3427 72.6393Z" fill="#EBEBEB" stroke="black" stroke-width="0.2"/>
<path d="M69.2589 92.1413C69.7108 92.1865 69.7296 92.6497 69.6825 92.8756H73.4669C73.3765 92.3334 73.8434 92.1225 74.0882 92.0848L73.9752 80.8165C71.7385 76.185 69.899 78.8867 69.2589 80.8165V92.1413Z" fill="#D1BA9C" stroke="black" stroke-width="0.2"/>
<path d="M50.3938 91.8873C50.8683 92.181 50.8551 92.6121 50.7892 92.791H54.9124C54.7317 92.2714 55.2137 91.972 55.4772 91.8873L55.5902 80.6472C53.4439 76.0157 51.2316 78.7174 50.3938 80.6472V91.8873Z" fill="#D1BA9C" stroke="black" stroke-width="0.2"/>
<path d="M40.5096 92.8036L40.3402 93.3119L84.7355 93.2272L84.5378 92.8036H40.5096Z" fill="#F8EAD8" stroke="black" stroke-width="0.2"/>
<path d="M40.8484 91.7585C41.1873 92.12 41.1968 92.6058 41.1591 92.8034H45.0846C45.1072 92.2612 45.5271 92.088 45.7342 92.0692L45.8754 81.3375C43.8194 75.3729 41.6674 78.8522 40.8484 81.3375V91.7585Z" fill="#D1BA9C" stroke="black" stroke-width="0.2"/>
<path d="M38.561 92.5776V97.9717H23V92.5776H38.561Z" fill="#EBD4B7" stroke="black" stroke-width="0.2"/>
<path d="M38.5609 92.5776V98L40.6225 92.5776H38.5609Z" fill="#D1BA9C" stroke="black" stroke-width="0.2"/>
<path d="M102.075 92.6906H86.8814V98H102.075V92.6906Z" fill="#EBD4B7" stroke="black" stroke-width="0.2"/>
<path d="M86.8819 92.6906V98L84.5096 92.6906H86.8819Z" fill="#D1BA9C" stroke="black" stroke-width="0.2"/>
<path d="M97.811 74.7575L97.2745 75.0399L27.4902 75.3505L26.9818 74.8987V73.7408L97.811 73.6278V74.7575Z" fill="#EBEBEB" stroke="black" stroke-width="0.2"/>
<path d="M92.2196 80.8858C92.2648 80.5243 91.6548 79.3043 91.3441 78.7394C91.6378 78.8298 92.4455 80.0385 92.8127 80.6316V92.6907H92.2196V80.8858Z" fill="#ECDAC3" stroke="black" stroke-width="0.2"/>
<path d="M31.7831 81.168C31.8283 80.8065 32.1785 79.5489 32.3479 78.9652C32.0994 79.1685 31.4913 80.349 31.2183 80.9139L30.9641 92.6058H31.7831V81.168Z" fill="#ECDAC3" stroke="black" stroke-width="0.2"/>
<path d="M43.4186 72.6112L40.2555 72.583L40.7356 50.8936C41.7297 50.148 41.79 48.9826 41.6958 48.4931H46.8075C47.0334 49.442 47.4853 50.3947 47.683 50.7524L47.2876 63.0374C45.9772 60.8459 44.1622 62.1619 43.4186 63.0939V72.6112Z" fill="#EBD4B7" stroke="black" stroke-width="0.2"/>
<path d="M51.8624 72.7241H49.4619L49.829 50.7523C50.6649 49.6905 50.8551 48.7849 50.8457 48.4648H56.1268C56.3075 49.843 56.7669 50.4323 56.974 50.5546L56.5504 72.7806H55.5055L55.6467 63.2632C54.4041 60.665 52.6061 62.1806 51.8624 63.2632V72.7241Z" fill="#EBD4B7" stroke="black" stroke-width="0.2"/>
<path d="M60.5608 72.7805H58.9792V50.5263C59.9282 49.3741 60.1089 48.653 60.0807 48.4365H64.9946C65.311 50.018 65.8042 50.5451 66.0113 50.611L65.8136 72.7805H64.1192V63.2632C62.5602 60.5972 61.0973 62.1523 60.5608 63.2632V72.7805Z" fill="#EBD4B7" stroke="black" stroke-width="0.2"/>
<path d="M69.1178 72.7805H68.0447V50.6393C68.8128 49.6 69.0237 48.7377 69.0331 48.4365H74.0601C74.3086 49.8598 74.7285 50.4416 74.9073 50.5546V72.7805H72.5633V63.009C70.8688 60.6593 69.4662 62.03 68.9766 63.009L69.1178 72.7805Z" fill="#EBD4B7" stroke="black" stroke-width="0.2"/>
<path d="M83.9163 72.724H81.1487L80.951 63.0372C79.4824 60.5746 77.9103 61.9735 77.3078 62.9807L77.1384 50.5546C77.9743 49.7186 78.1645 48.7942 78.1551 48.4365H82.9561C83.0013 49.7017 83.6151 50.6205 83.9163 50.9217V72.724Z" fill="#EBD4B7" stroke="black" stroke-width="0.2"/>
<path d="M93.0946 72.6393H89.7621L89.4514 63.4326C88.5929 61.467 87.1545 61.7852 86.5426 62.19L86.1754 50.8934C87.1244 49.6508 87.1921 48.7189 87.1074 48.4082H92.1061C92.1965 49.4927 92.7086 50.1027 92.9534 50.2721L93.0946 72.6393Z" fill="#EBD4B7" stroke="black" stroke-width="0.2"/>
<defs>
<filter id="filter0_d_505_1854" x="0" y="0" width="132" height="132" filterUnits="userSpaceOnUse" color-interpolation-filters="sRGB">
<feFlood flood-opacity="0" result="BackgroundImageFix"/>
<feColorMatrix in="SourceAlpha" type="matrix" values="0 0 0 0 0 0 0 0 0 0 0 0 0 0 0 0 0 0 127 0" result="hardAlpha"/>
<feMorphology radius="1" operator="erode" in="SourceAlpha" result="effect1_dropShadow_505_1854"/>
<feOffset dx="2" dy="2"/>
<feGaussianBlur stdDeviation="7"/>
<feComposite in2="hardAlpha" operator="out"/>
<feColorMatrix type="matrix" values="0 0 0 0 0 0 0 0 0 0 0 0 0 0 0 0 0 0 0.18 0"/>
<feBlend mode="normal" in2="BackgroundImageFix" result="effect1_dropShadow_505_1854"/>
<feBlend mode="normal" in="SourceGraphic" in2="effect1_dropShadow_505_1854" result="shape"/>
</filter>
</defs>
</svg>
