<svg width="132" height="132" viewBox="0 0 132 132" fill="none" xmlns="http://www.w3.org/2000/svg">
<g filter="url(#filter0_d_505_1799)">
<rect x="11" y="11" width="106" height="106" rx="17" fill="#FFF4C2"/>
<rect x="11.05" y="11.05" width="105.9" height="105.9" rx="16.95" stroke="#929292" stroke-width="0.1"/>
</g>
<path d="M32.2931 52.1815C39.4635 47.4542 47.6941 44.99 51.0915 44.2894V52.1419C51.1233 53.1572 52.0566 56.0549 52.5193 57.3769C54.8671 64.4204 59.1027 69.9621 60.927 71.8525C68.6685 79.6892 74.5698 80.2206 76.5527 79.5067C75.0933 86.4867 68.2507 92.1184 65.0119 94.0617C60.8556 95.0135 52.202 90.7038 48.3947 88.43C40.336 83.7979 36.259 74.6286 35.2279 70.6231L31.8172 58.9633C30.1356 55.5684 31.4338 53.0276 32.2931 52.1815Z" fill="#BDDBFF" stroke="black" stroke-width="0.5"/>
<path d="M54.2246 30.7258C51.8451 31.8998 51.1709 34.5199 51.1312 35.6832V52.3005C51.9879 58.4556 56.4323 66.0225 58.5475 69.0366C64.4805 77.1271 71.8069 79.6256 74.7284 79.8636C79.3606 79.6732 86.6526 72.5663 89.7196 69.0366C95.145 62.7546 96.9772 53.4373 97.2152 49.564V34.7711C96.8662 32.9309 96.2237 32.1536 95.9461 31.9949C80.717 25.4274 61.7863 28.4124 54.2246 30.7258Z" fill="#FC7C81" stroke="black" stroke-width="0.5"/>
<path d="M58.7061 69.1558L60.4116 76.4143L62.3948 75.8194L64.1004 74.8674L61.2049 72.2496L58.7061 69.1558Z" fill="#9BC9FF" stroke="black" stroke-width="0.5"/>
<path d="M65.1304 93.9426L62.3543 83.3139C64.7656 82.14 66.7697 78.7267 67.4703 77.1667C71.7535 79.9905 75.2832 79.9032 76.5126 79.5066C75.307 86.328 68.4222 91.9728 65.1304 93.9426Z" fill="#9BC9FF" stroke="black" stroke-width="0.5"/>
<path d="M42.208 67.8866C44.7462 63.6668 49.5582 64.4891 51.6469 65.4277C52.1862 65.047 52.4268 63.9735 52.4797 63.4844C45.4997 60.3751 41.428 64.4891 40.2647 66.9347C40.6454 67.5376 41.7189 67.8205 42.208 67.8866Z" fill="black" stroke="black" stroke-width="0.5"/>
<path d="M74.3321 61.9377V28.0687C84.0724 27.8149 92.3506 30.3954 95.2722 31.7173C96.6999 31.9077 97.1626 34.0969 97.2155 35.1677V47.6603C97.5327 51.1186 95.7613 57.324 94.8359 59.9944C92.7419 65.9908 88.9135 70.2925 87.261 71.6938C79.6147 79.118 75.4558 80.2073 74.3321 79.824V69.1556" stroke="black" stroke-width="0.5"/>
<path d="M55.387 77.2972C60.7946 76.6377 63.3473 75.5325 64.0999 74.8667L67.471 77.2066C65.7334 81.0235 63.4609 82.7925 62.2205 83.3629C61.9744 83.4762 61.7017 83.5016 61.4341 83.4589C59.6637 83.1771 57.1122 82.1927 54.6241 81.0666C52.7744 80.2293 53.3715 77.5431 55.387 77.2972Z" fill="white" stroke="black" stroke-width="0.5"/>
<path d="M69.89 47.9381C65.7971 44.8923 61.8656 46.669 60.4114 47.9381C59.0154 47.3988 58.8251 46.6294 58.9044 46.3121C64.1394 41.9655 69.3347 44.501 71.278 46.3121C71.5319 47.2957 70.4584 47.8059 69.89 47.9381Z" fill="black" stroke="black" stroke-width="0.5"/>
<path d="M79.1261 60.8932C75.9413 61.2416 72.7749 61.2995 70.0067 61.1708C67.9541 61.0754 66.4497 64.0042 68.0694 65.2685C70.865 67.4507 73.1996 68.6946 74.4532 69.1864C74.6099 69.2478 74.7707 69.2874 74.9336 69.2451C75.9296 68.9865 78.4752 67.1459 81.155 65.0005C82.8356 63.6551 81.2661 60.6591 79.1261 60.8932Z" fill="white" stroke="black" stroke-width="0.5"/>
<path d="M88.2918 48.0571C84.5479 44.7574 80.307 46.6822 78.6546 48.0571C77.4807 47.486 77.0814 46.7351 77.0285 46.431C82.676 41.8306 87.8423 44.5142 89.7195 46.431C89.4657 47.2242 88.6619 47.8455 88.2918 48.0571Z" fill="black" stroke="black" stroke-width="0.5"/>
<defs>
<filter id="filter0_d_505_1799" x="0" y="0" width="132" height="132" filterUnits="userSpaceOnUse" color-interpolation-filters="sRGB">
<feFlood flood-opacity="0" result="BackgroundImageFix"/>
<feColorMatrix in="SourceAlpha" type="matrix" values="0 0 0 0 0 0 0 0 0 0 0 0 0 0 0 0 0 0 127 0" result="hardAlpha"/>
<feMorphology radius="1" operator="erode" in="SourceAlpha" result="effect1_dropShadow_505_1799"/>
<feOffset dx="2" dy="2"/>
<feGaussianBlur stdDeviation="7"/>
<feComposite in2="hardAlpha" operator="out"/>
<feColorMatrix type="matrix" values="0 0 0 0 0 0 0 0 0 0 0 0 0 0 0 0 0 0 0.18 0"/>
<feBlend mode="normal" in2="BackgroundImageFix" result="effect1_dropShadow_505_1799"/>
<feBlend mode="normal" in="SourceGraphic" in2="effect1_dropShadow_505_1799" result="shape"/>
</filter>
</defs>
</svg>
