<svg width="96" height="96" viewBox="0 0 96 96" fill="none" xmlns="http://www.w3.org/2000/svg">
<circle cx="48" cy="48" r="48" fill="#E2E2E2"/>
<path d="M37.09 37.48C29.36 37.48 22.74 36.37 20 34.79V60.18C20 69.62 27.65 77.27 37.09 77.27C46.52 77.27 54.17 69.62 54.17 60.18V34.79C51.43 36.37 44.82 37.48 37.09 37.48ZM37.43 68.96C32.15 68.96 27.86 65.05 27.86 60.22C27.86 59.73 27.9 59.25 27.99 58.77C30.18 59.66 33.46 60.22 37.14 60.22C41.13 60.22 44.67 59.56 46.83 58.55C46.95 59.09 47.01 59.65 47.01 60.22C47 65.05 42.72 68.96 37.43 68.96Z" stroke="black" stroke-width="0.75" stroke-miterlimit="10"/>
<path d="M76.3299 24V49.39C76.3299 58.83 68.6799 66.48 59.2399 66.48C58.6299 66.48 58.0299 66.45 57.4299 66.39C57.6099 62.71 57.8399 59.04 58.0399 55.35C61.4499 55.55 64.4499 56.24 66.4699 57.16C66.5799 56.69 66.6499 56.21 66.6599 55.72C66.8599 51.18 63.2299 47.29 58.3999 46.66C58.5099 41.89 58.4299 37.1 57.9899 32.28C57.9899 32.04 57.2899 31.34 56.5799 31.57C51.8399 32.98 46.9599 32.41 42.1499 32.23V24.01C44.8899 25.59 51.5099 26.7 59.2399 26.7C66.9699 26.7 73.5899 25.58 76.3299 24Z" fill="#FFD121" stroke="black" stroke-width="0.75" stroke-miterlimit="10"/>
<path d="M47.0001 60.2201C47.0001 65.0501 42.7101 68.9601 37.4201 68.9601C32.1301 68.9601 27.8401 65.0501 27.8401 60.2201C27.8401 59.7301 27.8801 59.2501 27.9701 58.7801C30.1601 59.6601 33.4501 60.2201 37.1201 60.2201C41.1101 60.2201 44.6501 59.56 46.8101 58.55C46.9401 59.09 47.0001 59.6501 47.0001 60.2201Z" fill="#FFD121" stroke="black" stroke-width="0.75" stroke-miterlimit="10"/>
<path d="M26.6499 48.7299C27.3599 47.4299 28.7799 46.6799 30.2399 46.8099C31.6399 46.9399 32.8499 47.8699 33.3499 49.1999" stroke="black" stroke-width="0.75" stroke-miterlimit="10"/>
<path d="M41.6299 48.7299C42.1999 47.4299 43.3399 46.6799 44.5099 46.8099C45.6299 46.9399 46.6099 47.8699 47.0099 49.1999" stroke="black" stroke-width="0.75" stroke-miterlimit="10"/>
<path d="M69.36 36.3299C68.78 37.6299 67.64 38.3699 66.47 38.2299C65.35 38.0899 64.38 37.1499 63.99 35.8199" stroke="black" stroke-width="0.75" stroke-miterlimit="10"/>
</svg>
