<svg width="132" height="132" viewBox="0 0 132 132" fill="none" xmlns="http://www.w3.org/2000/svg">
<g filter="url(#filter0_d_569_1953)">
<rect x="11" y="11" width="106" height="106" rx="17" fill="#C6FFFC"/>
<rect x="11.05" y="11.05" width="105.9" height="105.9" rx="16.95" stroke="#929292" stroke-width="0.1"/>
</g>
<path d="M92.2526 83.9945L93.0997 77.3657C82.2694 62.8459 63.7826 61.6786 55.8906 62.9752C82.0025 54.1024 99.1332 68.2508 104.178 76.7161V83.9945H92.2526Z" fill="#6D5C41" stroke="#454545" stroke-width="0.4"/>
<path d="M43.3789 54.5386C39.9903 49.0749 36.2324 51.3693 34.7771 53.1995V45.3654L67.8157 52.396V58.5561L66.9685 57.2169C63.6842 54.003 62.016 56.2126 61.4947 57.7526V59.2926L60.9734 59.4265L60.3869 59.5605L60.3217 57.7526C57.8715 52.1817 54.913 54.6279 53.7401 56.5474L53.8052 61.0335L53.0884 61.2344L52.1761 61.5022V56.2126C49.5695 50.856 46.3547 53.0879 45.0731 54.8734L45.2035 63.7788L43.444 64.4484L43.3789 54.5386Z" fill="#B99A6B" stroke="#454545" stroke-width="0.4"/>
<path d="M87.1046 62.0379C82.6213 59.3596 72.2037 58.6901 67.7507 58.824L67.9462 52.5969L104.96 60.5649L104.699 73.8895L104.504 66.8589C103.617 61.663 101.919 63.578 101.18 65.185L101.115 70.6755L100.203 69.872L100.333 67.1937C99.7596 61.1407 97.8351 62.9753 96.9445 64.6493V67.4615L96.0322 66.8589V65.3858C95.563 59.9756 93.2736 61.7031 92.1875 63.2432L92.0572 64.4484L91.21 63.9797C90.8972 60.0158 88.3645 61.0113 87.1046 62.0379Z" fill="#B99A6B" stroke="#454545" stroke-width="0.4"/>
<path d="M104.178 76.6019C82.6473 49.3902 49.5479 62.7743 35.5591 72.9518L34.9727 67.8631C55.8254 58.7568 69.7055 57.9378 73.8761 58.7413C87.274 59.2769 99.6596 68.9017 104.178 73.6557V76.6019Z" fill="#B99A6B" stroke="#454545" stroke-width="0.4"/>
<path d="M28 83.933H36.7321L34.7771 66.3231V43.6914L34.321 42.6201L33.6042 40.4105L32.366 38.8705L30.6718 38L28.9123 38.8705L28 40.8792V83.933Z" fill="#B99A6B" stroke="#454545" stroke-width="0.4"/>
<path d="M109 84H104.113L104.504 60.0292L104.895 59.2257L105.351 58.2883L106.133 57.9535H106.784L107.24 58.69L107.762 59.2257V73.0859L109 84Z" fill="#B99A6B" stroke="#454545" stroke-width="0.4"/>
<path d="M34.9075 48.8472V45.3654L104.504 60.23V62.3727L34.9075 48.8472Z" fill="#B99A6B" stroke="#454545" stroke-width="0.4"/>
<path d="M36.6018 67.1934L34.9075 67.9299V52.9984C38.661 49.1952 42.51 52.3957 43.3137 54.4045V57.5515C40.6029 55.6231 37.2751 56.2802 36.6018 56.8828V67.1934Z" fill="#6D5C41" stroke="#454545" stroke-width="0.4"/>
<path d="M46.5064 56.5474L45.1023 56.8926L45.0728 54.8735C46.0963 53.8411 47.4968 52.5677 48.7872 52.8647C50.4312 53.2432 51.8965 55.4509 52.1757 56.1457V58.5562C51.3286 55.9448 46.924 56.1754 46.5064 56.5474Z" fill="#6D5C41" stroke="#454545" stroke-width="0.4"/>
<path d="M60.3214 57.7401L60.3866 59.6274C59.5961 59.7086 58.7494 58.3875 57.6851 57.6743C57.3742 57.466 57.0091 57.3632 56.6431 57.2857C55.8045 57.1083 54.9366 57.1228 54.1045 57.3283L53.8049 57.4023V56.5349C54.3308 55.9923 55.4341 54.4592 56.1509 54.5262C56.3464 54.4592 56.4023 54.4197 56.5419 54.3923C56.9514 54.3117 57.4938 54.2536 58.1058 54.7271C59.1461 55.5319 60.2412 57.536 60.3214 57.7401Z" fill="#6D5C41" stroke="#454545" stroke-width="0.4"/>
<path d="M63.9712 55.5428C61.7295 55.5964 61.3646 58.422 61.4949 59.3594L67.7508 58.6229C67.1252 56.7481 64.9269 55.5651 63.9712 55.5428Z" fill="#6D5C41" stroke="#454545" stroke-width="0.4"/>
<path d="M91.0796 63.7995L87.1697 61.9247C88.1602 60.9069 89.3201 60.965 89.7763 61.1212C90.8189 61.4426 91.0796 63.0407 91.0796 63.7995Z" fill="#6D5C41" stroke="#454545" stroke-width="0.4"/>
<path d="M95.9673 66.7916L92.0574 64.3812L92.2529 63.2429C93.0348 61.9573 94.0558 61.7252 94.4685 61.7698C95.876 61.9305 96.0542 65.1846 95.9673 66.7916Z" fill="#6D5C41" stroke="#454545" stroke-width="0.4"/>
<path d="M100.137 69.9388L96.9443 67.5283V64.6491C97.6221 63.2564 98.3997 62.9975 98.7038 63.0421C99.8507 63.1492 100.224 65.8543 100.268 67.1935L100.137 69.9388Z" fill="#6D5C41" stroke="#454545" stroke-width="0.4"/>
<path d="M101.18 65.1848V70.7423L103.477 72.9519L103.591 68.5997H104.308V66.2562C103.683 63.8993 103.135 63.3993 102.874 63.4439C102.353 63.2832 101.528 64.5376 101.18 65.1848Z" fill="#6D5C41"/>
<path d="M104.243 73.6885L103.477 72.9519M103.477 72.9519L101.18 70.7423V65.1848C101.528 64.5376 102.353 63.2832 102.874 63.4439C103.135 63.3993 103.683 63.8993 104.308 66.2562V68.5997H103.591L103.477 72.9519Z" stroke="#454545" stroke-width="0.4"/>
<path d="M22.4 71.7578L20.5 84H27H28V42.1686C25.112 41.5659 22.4 43.7704 22.4 46.7206V71.7578Z" fill="#B99A6B" stroke="#454545" stroke-width="0.4"/>
<defs>
<filter id="filter0_d_569_1953" x="0" y="0" width="132" height="132" filterUnits="userSpaceOnUse" color-interpolation-filters="sRGB">
<feFlood flood-opacity="0" result="BackgroundImageFix"/>
<feColorMatrix in="SourceAlpha" type="matrix" values="0 0 0 0 0 0 0 0 0 0 0 0 0 0 0 0 0 0 127 0" result="hardAlpha"/>
<feMorphology radius="1" operator="erode" in="SourceAlpha" result="effect1_dropShadow_569_1953"/>
<feOffset dx="2" dy="2"/>
<feGaussianBlur stdDeviation="7"/>
<feComposite in2="hardAlpha" operator="out"/>
<feColorMatrix type="matrix" values="0 0 0 0 0 0 0 0 0 0 0 0 0 0 0 0 0 0 0.18 0"/>
<feBlend mode="normal" in2="BackgroundImageFix" result="effect1_dropShadow_569_1953"/>
<feBlend mode="normal" in="SourceGraphic" in2="effect1_dropShadow_569_1953" result="shape"/>
</filter>
</defs>
</svg>
