<svg width="96" height="96" viewBox="0 0 96 96" fill="none" xmlns="http://www.w3.org/2000/svg">
<circle cx="48" cy="48" r="48" fill="#E2E2E2"/>
<path d="M86.23 53.97V60.34H78.91V66.78H72.65V60.34H23.78V66.78H16.89V60.34H10V53.97H16.89V29H23.78V53.97H72.65V29.62H78.91V53.97H86.23Z" fill="#3872B8" stroke="black" stroke-width="0.75" stroke-miterlimit="10"/>
<path d="M72.65 34.6899V38.7299C70.48 40.5199 68.07 42.0899 65.45 43.3699V53.9699H61.91V44.8799C58.42 46.1599 54.64 46.9799 50.7 47.2299V53.9699H47.16V47.3C42.65 47.19 38.35 46.3599 34.4 44.9099V53.9699H30.86V43.4099C28.3 42.1699 25.92 40.6499 23.78 38.8999V34.86C30.17 40.08 38.72 43.2599 48.12 43.2599C57.61 43.2699 66.24 39.9999 72.65 34.6899Z" stroke="black" stroke-width="0.75" stroke-miterlimit="10"/>
</svg>
