<svg width="106" height="106" viewBox="0 0 106 106" fill="none" xmlns="http://www.w3.org/2000/svg">
<rect x="0.05" y="0.05" width="105.9" height="105.9" rx="16.95" fill="#C6FFFC" stroke="#929292" stroke-width="0.1"/>
<path d="M81.2526 72.9946L82.0997 66.3658C71.2694 51.846 52.7826 50.6786 44.8906 51.9753C71.0025 43.1025 88.1332 57.2508 93.1777 65.7162V72.9946H81.2526Z" fill="#6D5C41" stroke="#454545" stroke-width="0.4"/>
<path d="M32.3789 43.5386C28.9903 38.0749 25.2324 40.3693 23.7771 42.1995V34.3654L56.8157 41.396V47.5561L55.9685 46.2169C52.6842 43.003 51.016 45.2126 50.4947 46.7526V48.2926L49.9734 48.4265L49.3869 48.5605L49.3217 46.7526C46.8715 41.1817 43.913 43.6279 42.7401 45.5474L42.8052 50.0335L42.0884 50.2344L41.1761 50.5022V45.2126C38.5695 39.856 35.3547 42.0879 34.0731 43.8734L34.2035 52.7788L32.444 53.4484L32.3789 43.5386Z" fill="#B99A6B" stroke="#454545" stroke-width="0.4"/>
<path d="M76.1046 51.038C71.6213 48.3597 61.2037 47.6901 56.7507 47.824L56.9462 41.5969L93.9598 49.5649L93.6991 62.8895L93.5036 55.8589C92.6174 50.663 90.9188 52.578 90.1802 54.185L90.1151 59.6755L89.2028 58.872L89.3331 56.1937C88.7596 50.1407 86.8351 51.9754 85.9445 53.6493V56.4615L85.0322 55.8589V54.3859C84.563 48.9757 82.2736 50.7032 81.1875 52.2432L81.0572 53.4484L80.21 52.9797C79.8972 49.0158 77.3645 50.0113 76.1046 51.038Z" fill="#B99A6B" stroke="#454545" stroke-width="0.4"/>
<path d="M93.1777 65.6019C71.6473 38.3903 38.5479 51.7743 24.5591 61.9518L23.9727 56.8631C44.8254 47.7568 58.7055 46.9378 62.8761 47.7413C76.274 48.2769 88.6596 57.9017 93.1777 62.6557V65.6019Z" fill="#B99A6B" stroke="#454545" stroke-width="0.4"/>
<path d="M17 72.933H25.7321L23.7771 55.3231V32.6914L23.321 31.6201L22.6042 29.4105L21.366 27.8705L19.6718 27L17.9123 27.8705L17 29.8792V72.933Z" fill="#B99A6B" stroke="#454545" stroke-width="0.4"/>
<path d="M97.9999 73.0001H93.1125L93.5035 49.0292L93.8945 48.2257L94.3507 47.2883L95.1327 46.9535H95.7843L96.2405 47.69L96.7618 48.2257V62.0859L97.9999 73.0001Z" fill="#B99A6B" stroke="#454545" stroke-width="0.4"/>
<path d="M23.9075 37.8472V34.3654L93.5035 49.23V51.3727L23.9075 37.8472Z" fill="#B99A6B" stroke="#454545" stroke-width="0.4"/>
<path d="M25.6018 56.1934L23.9075 56.9299V41.9984C27.661 38.1952 31.51 41.3958 32.3137 43.4045V46.5515C29.6029 44.6231 26.2751 45.2802 25.6018 45.8828V56.1934Z" fill="#6D5C41" stroke="#454545" stroke-width="0.4"/>
<path d="M35.5064 45.5474L34.1023 45.8926L34.0728 43.8735C35.0963 42.8411 36.4968 41.5677 37.7872 41.8647C39.4312 42.2432 40.8965 44.4509 41.1757 45.1457V47.5561C40.3286 44.9448 35.924 45.1754 35.5064 45.5474Z" fill="#6D5C41"/>
<path d="M34.2031 52.7789L34.1023 45.8926L35.5064 45.5474C35.924 45.1754 40.3286 44.9448 41.1757 47.5561V45.1457C40.8965 44.4509 39.4312 42.2432 37.7872 41.8647C36.4968 41.5677 35.0963 42.8411 34.0728 43.8735L34.2031 52.7789Z" stroke="#454545" stroke-width="0.4"/>
<path d="M49.3214 46.7402L49.3866 48.6274C48.5961 48.7086 47.7494 47.3875 46.6851 46.6743C46.3742 46.466 46.0091 46.3633 45.6431 46.2858C44.8045 46.1083 43.9366 46.1228 43.1045 46.3283L42.8049 46.4023V45.5349C43.3308 44.9924 44.4341 43.4593 45.1509 43.5262C45.3464 43.4593 45.4023 43.4197 45.5419 43.3923C45.9514 43.3118 46.4938 43.2536 47.1058 43.7271C48.1461 44.5319 49.2412 46.5361 49.3214 46.7402Z" fill="#6D5C41"/>
<path d="M42.8049 50.021V46.4023L43.1045 46.3283C43.9366 46.1228 44.8045 46.1083 45.6431 46.2858V46.2858C46.0091 46.3633 46.3742 46.466 46.6851 46.6743C47.7494 47.3875 48.5961 48.7086 49.3866 48.6274L49.3214 46.7402C49.2412 46.5361 48.1461 44.5319 47.1058 43.7271C46.4938 43.2536 45.9514 43.3118 45.5419 43.3923C45.4023 43.4197 45.3464 43.4593 45.1509 43.5262C44.4341 43.4593 43.3308 44.9924 42.8049 45.5349V50.021Z" stroke="#454545" stroke-width="0.4"/>
<path d="M52.9712 44.5428C50.7295 44.5964 50.3646 47.422 50.4949 48.3594L56.7508 47.6229C56.1252 45.7481 53.9269 44.5652 52.9712 44.5428Z" fill="#6D5C41" stroke="#454545" stroke-width="0.4"/>
<path d="M80.0796 52.7995L76.1697 50.9247C77.1602 49.9069 78.3201 49.965 78.7763 50.1212C79.8189 50.4426 80.0796 52.0406 80.0796 52.7995Z" fill="#6D5C41" stroke="#454545" stroke-width="0.4"/>
<path d="M84.9673 55.7917L81.0574 53.3812L81.2529 52.2429C82.0348 50.9573 83.0558 50.7252 83.4685 50.7698C84.876 50.9305 85.0542 54.1847 84.9673 55.7917Z" fill="#6D5C41" stroke="#454545" stroke-width="0.4"/>
<path d="M89.1374 58.9388L85.9443 56.5283V53.6491C86.6221 52.2564 87.3997 51.9975 87.7038 52.0421C88.8507 52.1492 89.2243 54.8543 89.2677 56.1935L89.1374 58.9388Z" fill="#6D5C41" stroke="#454545" stroke-width="0.4"/>
<path d="M90.1802 54.1849V59.7423L92.4772 61.9519L92.5913 57.5997H93.3081V55.2562C92.6825 52.8993 92.1351 52.3993 91.8745 52.444C91.3531 52.2833 90.5277 53.5376 90.1802 54.1849Z" fill="#6D5C41"/>
<path d="M93.2429 62.6885L92.4772 61.9519M92.4772 61.9519L90.1802 59.7423V54.1849C90.5277 53.5376 91.3531 52.2833 91.8745 52.444C92.1351 52.3993 92.6825 52.8993 93.3081 55.2562V57.5997H92.5913L92.4772 61.9519Z" stroke="#454545" stroke-width="0.4"/>
<path d="M11.4 60.7578L9.5 73H16H17V31.1686C14.112 30.5659 11.4 32.7704 11.4 35.7206V60.7578Z" fill="#B99A6B" stroke="#454545" stroke-width="0.4"/>
</svg>
