<svg width="96" height="96" viewBox="0 0 96 96" fill="none" xmlns="http://www.w3.org/2000/svg">
<circle cx="48" cy="48" r="48" fill="#E2E2E2"/>
<path d="M60.93 67.16H35.99V71.68H60.93V67.16Z" stroke="black" stroke-width="0.75" stroke-miterlimit="10"/>
<path d="M65.91 74.48H31V79.16H65.91V74.48Z" stroke="black" stroke-width="0.75" stroke-miterlimit="10"/>
<path d="M56.2499 63.57H41.4399C42.2499 49.16 43.0499 34.76 43.8499 20.34C43.8999 19.95 44.1499 18.43 45.4899 17.25C45.6999 17.07 46.98 16 48.7 16C51.14 16 53.1599 17.86 53.4899 20.29C53.4899 20.29 53.4899 20.3 53.4899 20.32C53.5499 20.7 53.5399 20.99 53.5399 21.01C53.5399 21.22 54.2399 32.33 56.2499 63.57Z" fill="#3872B8" stroke="black" stroke-width="0.75" stroke-miterlimit="10"/>
</svg>
