<svg width="132" height="132" viewBox="0 0 132 132" fill="none" xmlns="http://www.w3.org/2000/svg">
<g filter="url(#filter0_d_476_1632)">
<rect x="11" y="11" width="106" height="106" rx="17" fill="url(#paint0_linear_476_1632)" shape-rendering="crispEdges"/>
<rect x="11.05" y="11.05" width="105.9" height="105.9" rx="16.95" stroke="#929292" stroke-width="0.1" shape-rendering="crispEdges"/>
</g>
<path d="M11.05 100V80.3021L62.9413 78.9607L116.95 80.408V100C116.95 109.361 109.361 116.95 100 116.95H28C18.6388 116.95 11.05 109.361 11.05 100Z" fill="#EFECE0" stroke="#929292" stroke-width="0.1"/>
<path d="M59.5224 42.0914L67.4725 41.9501C68.49 44.9463 67.92 47.9096 67.5078 49.0167L68.3205 49.1581V50.3594L67.5078 51.1014L67.6491 54.3874L68.7091 57.6381L68.4971 58.0621L69.3098 64.3514C70.2426 64.6058 69.8869 64.9521 69.5925 65.0934L70.1931 65.8354C68.1579 65.6941 61.03 65.7765 57.7205 65.8354L58.2858 65.0934C57.6074 64.6129 58.3564 64.3985 58.8158 64.3514L59.6284 57.1434C59.4023 56.8325 59.7227 54.9881 59.9111 54.1047L59.6284 52.9741V49.1934L59.9111 48.8754L59.4164 48.2394L59.5224 42.0914Z" fill="#888888" stroke="#7B7B7B" stroke-width="0.3"/>
<path d="M46.8024 65.1994C46.3219 65.3407 46.4373 66.1063 46.5551 66.4714L50.5831 66.1887V64.1041C51.1202 64.1041 51.1602 62.5965 51.1131 61.8427C51.9894 61.3057 51.9258 58.9572 51.7844 57.8501C52.265 57.7935 52.55 57.0256 52.6324 56.6487C52.4063 55.4333 53.1036 52.7032 53.4804 51.4901L53.3038 55.6947C53.4734 56.147 53.4922 58.4272 53.4804 59.5107C53.0847 60.5566 53.3156 61.9487 53.4804 62.5141C53.65 62.7402 53.4569 64.3279 53.3391 65.0934C53.3108 65.4326 53.1389 65.8707 53.0564 66.0474L56.2718 65.8707V64.6694C55.876 64.1606 56.3189 62.8085 56.5898 62.1961L56.7664 58.7687L57.0138 57.6734C56.9855 57.3342 57.7087 57.0845 58.0738 57.0021C58.4412 57.3978 59.2633 57.2612 59.6284 57.1434C59.4023 56.5215 59.7227 54.9292 59.9111 54.2107L59.6284 53.0094V50.0061V49.2287L59.9111 48.8754L59.3458 48.2041L59.4871 42.0914H60.2998C59.791 41.6957 59.4518 38.8407 59.3458 37.4627C59.261 36.2755 57.4731 35.7196 56.5898 35.5901C54.9786 34.2898 55.4944 33.4936 55.9538 33.2581C58.0172 33.5125 57.9207 31.4325 57.6144 30.3607C57.5296 29.0605 55.5533 27.0159 54.5758 26.1561C53.8691 25.8734 52.9858 26.0383 52.6324 26.1561C51.0495 27.1737 50.1356 29.2654 49.8764 30.1841C49.1415 32.0497 50.7716 33.0107 51.6784 33.2581C52.696 34.6149 50.2651 35.4723 48.9224 35.7314C47.82 35.8162 47.2853 38.4521 47.1558 39.7594C46.9579 40.4661 46.1076 42.1267 45.7071 42.8687V43.7521C44.9439 43.7803 44.5882 44.4941 44.5058 44.8474H44.2231V46.4374C43.997 46.7483 44.0111 47.3679 44.0464 47.6387L43.1631 48.8754V50.1827C43.0783 50.8329 43.4811 50.5243 43.6931 50.2887V50.5361C43.6931 51.1579 43.9287 50.8894 44.0464 50.6774H44.2231C44.2231 51.1579 44.4822 51.0661 44.6118 50.9601C44.2011 49.7446 45.0531 49.0639 45.5304 48.8754C46.011 48.8754 46.72 48.1452 47.0144 47.7801C47.1558 48.0627 46.8378 49.0756 46.6611 49.5467C46.0958 49.6598 45.0593 52.5619 44.6118 53.9987C44.3574 54.6771 44.6471 54.8232 44.8238 54.8114C45.0782 54.1613 45.1653 54.941 45.1771 55.4121C44.9792 56.0905 46.6729 56.2601 47.5444 56.2601L48.4631 56.5074L48.6398 57.1434C48.1875 58.585 48.2158 60.877 48.2864 61.8427C47.7776 62.6342 48.0744 63.6801 48.2864 64.1041C48.1734 64.4433 47.25 64.9756 46.8024 65.1994Z" fill="#888888" stroke="black" stroke-width="0.2"/>
<path d="M82.3124 65.8708V66.8601C81.0122 66.5209 78.3315 66.2947 77.1538 66.2241C76.9276 66.0262 77.0596 65.3172 77.1538 64.9874C77.3516 64.2808 77.0713 63.3268 76.9064 62.9381C76.2563 62.288 75.6933 59.7227 75.4931 58.5214C75.4366 57.5886 75.0927 57.2141 74.9278 57.1434H72.7724V59.0161C73.0834 59.2987 73.0904 63.7036 73.0551 65.8708H71.1118C70.9422 65.6446 71.1824 65.0934 71.3238 64.8461C71.2955 64.3655 70.6996 63.3739 70.4051 62.9381C70.0094 62.5706 69.6278 59.2516 69.4864 57.6381H68.7444L67.6844 54.3874L67.5078 51.1014L68.3558 50.3594V49.1581L67.5078 49.0168C68.4971 46.5576 67.92 43.281 67.5078 41.9501H65.8471L66.3418 37.7807C66.5114 36.3957 67.5667 35.6725 68.0731 35.4841V34.7774L69.3804 33.6467L69.4864 30.0074C70.2779 27.4634 71.4887 27.7461 71.9951 28.2054C72.9844 27.103 74.0562 28.7825 74.4684 29.7601L74.5744 33.6467L75.7051 34.6007V35.4841L77.0124 36.0494L79.0264 41.9501C79.5918 42.2327 79.686 43.2692 79.6624 43.7521C80.7083 44.2326 81.0404 45.2008 81.0758 45.6248C81.1606 45.8792 81.7 47.4503 81.9591 48.2041C82.4962 48.6281 82.5598 49.3465 82.5244 49.6528C82.4962 50.2746 82.1593 49.9354 81.9944 49.6881C81.8814 49.9425 81.4527 50.2887 81.2524 50.4301C80.3762 50.4301 80.6989 50.1239 80.9698 49.9707C81.1676 49.3771 80.4398 49.1816 80.0511 49.1581C79.7967 49.1015 79.05 48.4043 78.7084 48.0627C78.454 48.6846 78.8144 49.4054 79.0264 49.6881C79.5635 49.8011 80.216 51.7845 80.4751 52.7621C80.4751 52.9882 80.1924 53.2332 80.0511 53.3274C80.2772 53.497 80.852 54.5287 81.1111 55.0234C80.885 55.3909 80.5929 55.5534 80.4751 55.5888V55.3414L78.4611 56.5074L78.5318 57.9561C78.984 58.2388 79.2384 61.7014 79.3091 63.3974L79.9451 63.4681V64.1747C79.4928 64.6553 81.3349 65.5056 82.3124 65.8708Z" fill="#888888" stroke="black" stroke-width="0.2"/>
<path d="M84.0085 67.7081L84 69.5C67.3509 65.9101 50.0211 67.9571 43.4373 69.4293C42.8155 67.6485 44.8591 66.5656 45.9545 66.5421C62.971 65.1005 76.0349 65.9414 80.4398 66.5421C82.6163 66.6834 83.7258 67.3783 84.0085 67.7081Z" fill="#AAAAAA" stroke="black" stroke-width="0.3"/>
<path d="M104.961 97.7127C106.205 98.4194 107.199 103.92 107.54 106.581C70.0306 109.267 34.2945 107.7 21.1151 106.581C20.6911 101.917 21.5391 98.7963 22.0338 97.7834C51.0637 100.271 89.4262 98.7492 104.961 97.7127Z" fill="#9EA5B4" stroke="black" stroke-width="0.3"/>
<path d="M90.3685 95.4867C97.7743 95.6281 103.183 97.0296 104.961 97.7127C102.912 99.1614 20.3378 99.7974 22.0691 97.7127C23.4542 96.045 32.5867 95.1805 36.9798 94.9567V96.2641C57.3601 97.4513 81.064 96.7587 90.3685 96.2641V95.4867Z" fill="#8991A3" stroke="black" stroke-width="0.3"/>
<path d="M87.2591 87.1834C89.4074 86.9855 90.2271 92.6365 90.3684 95.4867V96.2287C75.8394 97.2463 48.7222 96.6527 36.9798 96.2287L36.9091 94.9567C37.2483 88.0314 39.1705 86.8419 40.0891 87.1127L42.5271 70.2587C41.4812 69.5521 42.2562 68.975 42.7744 68.7747C58.4342 66.2025 77.0478 67.703 84.3971 68.7747C85.7539 69.3118 85.198 70.1527 84.7504 70.5061L87.2591 87.1834Z" fill="#B5A1A7" stroke="black" stroke-width="0.3"/>
<path d="M58.0384 57.0021C57.6144 57.0303 57.2258 57.3436 57.0844 57.4967C57.3106 56.7335 56.9902 54.5876 56.8018 53.6101L59.1691 54.5287C59.4235 54.557 59.5813 53.5512 59.6284 53.0447L59.9111 54.1401C59.5719 55.3555 59.5578 56.6487 59.5931 57.1434C58.7451 57.3978 58.2033 57.1552 58.0384 57.0021Z" fill="#5A5A5A" stroke="black" stroke-width="0.2"/>
<path d="M74.9278 57.1434H72.7724C72.6311 55.2213 72.7606 53.2567 72.8431 52.5147C74.5674 52.9387 74.9513 55.7772 74.9278 57.1434Z" fill="#5A5A5A" stroke="black" stroke-width="0.2"/>
<path d="M80.4751 55.3414L78.4611 56.5074C77.9241 55.6311 78.0489 53.1507 78.1785 52.0201C78.8286 52.1614 79.9805 54.2932 80.4751 55.3414Z" fill="#5A5A5A" stroke="black" stroke-width="0.2"/>
<path d="M48.4278 56.5074L47.5445 56.2601C46.9909 56.2837 45.7425 56.2106 45.1771 55.7301C45.1771 55.3119 45.1415 54.6823 45.0196 54.5953L44.8238 54.8114C44.9057 54.6148 44.9699 54.5598 45.0196 54.5953L45.8485 53.6808C45.8485 53.8692 45.9545 54.1684 46.3785 53.8574L48.3571 51.0308V52.3381C48.0862 52.5148 47.7211 53.596 48.4278 56.5074Z" fill="#5A5A5A" stroke="black" stroke-width="0.2"/>
<path d="M73.6205 32.4101C74.0445 28.8202 72.7136 28.1347 71.9951 28.2407C69.7691 28.2407 70.6171 32.3394 70.6171 32.4101C72.0305 33.5407 73.2082 32.8812 73.6205 32.4101Z" fill="#929292" stroke="black" stroke-width="0.2"/>
<path d="M54.9644 33.1874C56.2647 29.6823 54.6347 28.4763 53.6571 28.3114C51.3392 29.0746 51.8198 31.8801 52.3498 33.1874C53.3391 33.6962 54.5051 33.3994 54.9644 33.1874Z" fill="#929292" stroke="black" stroke-width="0.2"/>
<defs>
<filter id="filter0_d_476_1632" x="0" y="0" width="132" height="132" filterUnits="userSpaceOnUse" color-interpolation-filters="sRGB">
<feFlood flood-opacity="0" result="BackgroundImageFix"/>
<feColorMatrix in="SourceAlpha" type="matrix" values="0 0 0 0 0 0 0 0 0 0 0 0 0 0 0 0 0 0 127 0" result="hardAlpha"/>
<feMorphology radius="1" operator="erode" in="SourceAlpha" result="effect1_dropShadow_476_1632"/>
<feOffset dx="2" dy="2"/>
<feGaussianBlur stdDeviation="7"/>
<feComposite in2="hardAlpha" operator="out"/>
<feColorMatrix type="matrix" values="0 0 0 0 0 0 0 0 0 0 0 0 0 0 0 0 0 0 0.18 0"/>
<feBlend mode="normal" in2="BackgroundImageFix" result="effect1_dropShadow_476_1632"/>
<feBlend mode="normal" in="SourceGraphic" in2="effect1_dropShadow_476_1632" result="shape"/>
</filter>
<linearGradient id="paint0_linear_476_1632" x1="64" y1="11" x2="64" y2="138.907" gradientUnits="userSpaceOnUse">
<stop offset="0.336458" stop-color="#C6FFFC"/>
<stop offset="1" stop-color="#95DFFF" stop-opacity="0"/>
</linearGradient>
</defs>
</svg>
