<svg width="106" height="106" viewBox="0 0 106 106" fill="none" xmlns="http://www.w3.org/2000/svg">
<rect x="0.05" y="0.05" width="105.9" height="105.9" rx="16.95" fill="#C6FFFC" stroke="#929292" stroke-width="0.1"/>
<path d="M56.5443 48.5568V53.2096H49.8831C49.9635 46.9434 50.3183 44.1272 50.4856 43.5023C49.843 43.7701 49.2137 43.7924 48.9794 43.7701C48.5777 36.4596 49.3252 31.4409 49.7492 29.8453L46.3015 32.724C45.2825 33.4931 43.8343 33.7445 42.7476 33.7879C42.1288 33.8127 41.6431 33.3052 41.5902 32.6882C41.5847 32.6236 41.5845 32.5576 41.5899 32.4929C41.6414 31.8745 42.1768 31.4214 42.7924 31.3435C44.4431 31.1347 45.4181 30.3076 45.7325 29.8453C48.3835 26.9264 50.6307 25.5942 51.4229 25.293C51.9049 24.6235 51.6237 23.8536 51.4229 23.5523L51.5233 19.9038C51.4698 19.5021 51.7911 19.1339 51.9585 19H54.9376V22.749C54.7501 23.472 54.8595 24.3669 54.9376 24.7239C56.5443 25.2059 58.8651 27.5803 59.8247 28.7072C61.351 30.3943 62.8484 30.9499 63.4063 31.0169C65.1737 31.0704 65.5039 32.5789 65.4481 33.3265C62.4222 34.1566 59.1664 31.7756 57.9167 30.4813V45.1425C56.792 46.4011 56.5331 47.9431 56.5443 48.5568Z" fill="#FAF4E1" stroke="black" stroke-width="0.3"/>
<path d="M50.0504 31.4854C49.5416 32.744 49.6153 40.1773 49.7157 43.7366C50.0638 41.6746 50.2847 41.0029 50.3517 40.9248C50.8794 39.4252 51.9774 38.7826 52.4605 38.6487C54.0137 38.3541 54.4912 37.3878 54.5358 36.9415C53.6254 36.4327 51.367 38.3362 50.3517 39.3516C50.2178 39.1106 50.4075 37.9346 50.5191 37.3767C50.894 34.2436 50.7422 30.6709 50.6195 29.2762C50.2446 30.1867 50.0839 31.1284 50.0504 31.4854Z" fill="#EACDAD" stroke="black" stroke-width="0.3"/>
<path d="M62.469 75.5025V77.7117H43.9918V75.5025H62.469Z" fill="#D3AC85" stroke="black" stroke-width="0.3"/>
<path d="M60.6614 71.2515L62.3016 73.193H44.1592L45.9333 71.5863V61.4439H60.6614V71.2515Z" fill="#D3AC85" stroke="black" stroke-width="0.3"/>
<path d="M56.176 39.1843C53.3107 40.7642 51.1215 42.7436 50.3851 43.5358C51.5902 43.1609 54.3461 41.3265 55.5735 40.4562C56.0555 40.0278 56.176 39.4297 56.176 39.1843Z" fill="#EACDAD" stroke="black" stroke-width="0.3"/>
<path d="M53.1969 19.9037C52.581 20.0108 51.8245 20.6847 51.5233 21.0083L51.4229 23.5523C51.5835 23.82 51.6906 24.3333 51.7241 24.5565C52.7953 25.1991 54.2904 24.8242 54.9041 24.5565C54.7969 24.2619 54.8594 23.2287 54.9041 22.7489V21.4435C54.3953 20.4259 53.554 19.9929 53.1969 19.9037Z" fill="#FFDFBD" stroke="black" stroke-width="0.3"/>
<path d="M53.1969 49.6279C53.3576 51.2882 52.3936 52.7074 51.8915 53.2095H54.335C54.4957 52.1919 54.4466 51.0449 54.402 50.5986C54.4823 49.6346 53.8106 47.5191 53.4647 46.5818C53.4647 46.9032 53.2862 48.7464 53.1969 49.6279Z" fill="#EACDAD" stroke="black" stroke-width="0.3"/>
<path d="M46.2679 53.3434L47.8077 53.2095V58.0296H46.2679V53.3434Z" fill="#EEDCC8" stroke="black" stroke-width="0.3"/>
<path d="M60.2598 53.2095V58.0631H47.8077V53.2095H60.2598Z" fill="#F7F3E1" stroke="black" stroke-width="0.3"/>
<path d="M62.6698 59.8038H62.402H45.0964L44.8621 59.7034V58.0632H61.1635L62.6698 58.4983V59.8038Z" fill="#D3AC85" stroke="black" stroke-width="0.3"/>
<path d="M62.4021 59.8036L60.6614 61.4438H45.9333L45.0964 59.8036H62.4021Z" fill="#C7A27D" stroke="black" stroke-width="0.3"/>
<path d="M48.5776 71.218L49.4145 71.3184L49.4479 63.7535H57.2137L57.2807 71.218H59.0213V62.7158H48.5776V71.218Z" fill="#B38F72" stroke="black" stroke-width="0.3"/>
<path d="M57.2471 63.7535H49.4144V71.3185H57.2471V63.7535Z" fill="#D9E6E7" stroke="black" stroke-width="0.3"/>
<path d="M63.1719 75.5025H62.4689L43.7574 75.469V73.1929H63.1719V75.5025Z" fill="#D3AC85" stroke="black" stroke-width="0.3"/>
<path d="M45.4981 77.7117H43.9918V75.5025H45.4981V77.7117Z" fill="#B38F72" stroke="black" stroke-width="0.3"/>
<path d="M59.0882 76.1385H62.469V75.5025H47.0044V77.4439H59.0882V76.1385Z" fill="#B38F72" stroke="black" stroke-width="0.3"/>
<path d="M65.1469 77.7119V82.2308L41.1132 82.2643V77.7119H65.1469Z" fill="#D3AC85" stroke="black" stroke-width="0.3"/>
<path d="M67.6907 82.2642V84.8416L38.2678 84.8081V82.2642H67.6907Z" fill="#D3AC85" stroke="black" stroke-width="0.3"/>
<path d="M71.9754 84.8416V87.0843L34.3181 87.3186V84.8416H71.9754Z" fill="#D3AC85" stroke="black" stroke-width="0.3"/>
<path d="M76.4607 90.0795L30 90.7489V86.9999H76.4607V90.0795Z" fill="#D3AC85" stroke="black" stroke-width="0.3"/>
<path d="M50.6974 65.7516C51.0223 65.7207 51.4866 65.7863 51.764 65.9672C51.8923 66.0509 51.9868 66.058 52.1442 66.058C52.4058 66.058 52.6204 65.96 52.8609 65.8689C53.0922 65.7812 53.3435 65.7857 53.5872 65.7857C53.7615 65.7857 53.9425 65.772 54.1148 65.8046C54.2937 65.8384 54.4555 65.9268 54.6387 65.9483C54.812 65.9687 55.0503 65.9896 55.2212 65.9502C55.313 65.929 55.3703 65.843 55.4632 65.8197" stroke="#C0C0C0" stroke-width="0.3" stroke-linecap="round"/>
<path d="M50.9017 67.7941C51.0464 67.7073 51.1281 67.6039 51.3102 67.6314C51.5089 67.6614 51.7123 67.7238 51.9003 67.7922C52.2846 67.9319 52.6902 68.0248 53.0804 67.8205C53.3112 67.6998 53.5145 67.6919 53.7688 67.6919C53.9371 67.6919 53.9875 67.7672 54.1319 67.8394C54.2626 67.9048 54.4834 67.9808 54.6274 67.9945C54.9349 68.0238 55.2565 68.0664 55.5655 68.0664" stroke="#C0C0C0" stroke-width="0.3" stroke-linecap="round"/>
<path d="M50.6294 69.9047C50.8523 69.8743 51.0061 69.679 51.2308 69.6683C51.6227 69.6496 51.9661 69.7593 52.3334 69.8328C52.4963 69.8654 52.694 69.8366 52.861 69.8366C53.1205 69.8366 53.3983 69.8461 53.6251 69.6928C53.8743 69.5244 55.5995 69.8459 55.5995 69.6323" stroke="#C0C0C0" stroke-width="0.3" stroke-linecap="round"/>
</svg>
