<svg width="106" height="106" viewBox="0 0 106 106" fill="none" xmlns="http://www.w3.org/2000/svg">
<g clip-path="url(#clip0_667_709)">
<rect x="0.05" y="0.05" width="105.9" height="105.9" rx="16.95" fill="#C6FFFC" stroke="#929292" stroke-width="0.1"/>
<path d="M23.9227 71.8872C25.9568 71.342 34.4715 64.3909 38.4746 60.9836L63.4129 57.0651L82.1302 65.6403C84.526 66.3022 85.3626 69.2321 84.1856 71.4213C80.2967 78.655 67.6159 91.5009 50.7003 92.6723C38.6691 93.5054 29.2399 90.1116 23.5958 86.8615C20.5529 85.1092 19.3889 81.4638 20.4633 78.1207C21.4372 75.0901 22.6912 72.2173 23.9227 71.8872Z" fill="#E0E0E0" stroke="#7B7B7B" stroke-width="0.4"/>
<path d="M43.0791 49.6804C43.2504 47.7697 42.1157 46.6254 41.5269 46.2921L47.3611 44.2369L62.4013 58.79C62.3835 59.1788 61.106 62.1005 56.139 70.6768C39.6536 71.6988 35.1397 66.5479 34.9435 63.8446C35.4787 63.4003 37.4805 61.7672 41.2058 58.79C42.7901 58.2567 43.1148 56.6051 43.0791 55.846V49.6804Z" fill="#C7C7C7"/>
<path d="M39.5887 42.4107C39.7685 42.5938 40.5175 44.8721 41.1169 45.845C43.2746 47.848 42.8254 47.1601 42.9152 51.5674C38.5098 48.4191 39.3639 42.1818 39.5887 42.4107Z" fill="#CDCDCD" stroke="#7B7B7B" stroke-width="0.5"/>
<path d="M71.0496 26.6775C71.6571 30.14 70.7965 35.1651 70.2902 37.2449C70.2902 32.8605 68.446 32.6919 66.9273 31.1743C66.1028 30.2299 65.2819 29.769 64.9746 29.6566C64.6491 29.9189 63.7162 30.7471 62.588 31.9612C61.4489 31.2305 58.5199 33.3664 56.7299 34.4906C55.081 34.7155 52.1013 37.6571 50.8176 39.0998C49.1542 40.0366 45.5887 42.1801 44.6341 43.2593C42.5078 43.664 41.253 45.3016 40.8914 46.0698C39.662 44.1025 37.1054 39.3246 36.7148 35.9521C36.7691 35.1651 37.42 32.1298 38.7218 31.9612C38.4506 31.1743 37.4742 26.1716 40.8914 19.7637C44.3086 13.3558 53.5297 13.8617 56.0248 14.1428C67.9036 14.2552 70.2902 22.3494 71.0496 26.6775Z" fill="#E3E3E3" stroke="#7B7B7B" stroke-width="0.4"/>
<path d="M44.0876 47.5917C43.1015 47.5917 41.819 46.5878 41.301 46.0858C41.033 46.0858 40.9151 45.7735 42.5871 44.5241C44.2591 43.2748 47.0349 41.3636 48.3211 40.7873C50.804 38.6121 56.4987 34.4736 58.5565 33.5366C60.6818 32.0988 60.9822 32.0691 61.9086 31.9773L61.9325 31.975C63.0579 31.8634 63.3794 31.4172 65.3622 29.5767C66.4768 29.7551 68.9348 33.0718 70.0244 34.7079L70.2388 37.2735C70.7746 37.8312 69.5421 40.3969 69.3813 40.2853C69.2206 40.1738 68.7919 41.5123 68.8455 42.5163C69.2742 43.5425 66.2018 51.3844 64.612 55.177C64.0225 56.2553 62.8596 58.6889 62.3077 59.3043C61.5574 60.1409 58.3957 59.8063 55.6627 59.3043C45.7488 57.9657 45.4809 48.4841 44.0876 47.5917Z" fill="#DCDCDC" stroke="#7B7B7B" stroke-width="0.4"/>
</g>
<defs>
<clipPath id="clip0_667_709">
<rect width="106" height="106" fill="white"/>
</clipPath>
</defs>
</svg>
