<svg width="132" height="132" viewBox="0 0 132 132" fill="none" xmlns="http://www.w3.org/2000/svg">
<g filter="url(#filter0_d_569_1943)">
<rect x="11" y="11" width="106" height="106" rx="17" fill="#C6FFFC"/>
<rect x="11.05" y="11.05" width="105.9" height="105.9" rx="16.95" stroke="#929292" stroke-width="0.1"/>
</g>
<path d="M34.9227 82.8872C36.9568 82.342 45.4715 75.391 49.4746 71.9836L74.4129 68.0651L93.1302 76.6403C95.526 77.3022 96.3626 80.2321 95.1856 82.4213C91.2967 89.655 78.6159 102.501 61.7003 103.672C49.6691 104.505 40.2399 101.112 34.5958 97.8615C31.5529 96.1092 30.3889 92.4638 31.4633 89.1207C32.4372 86.0902 33.6912 83.2173 34.9227 82.8872Z" fill="#E0E0E0" stroke="#7B7B7B" stroke-width="0.4"/>
<path d="M54.0791 60.6804C54.2503 58.7697 53.1156 57.6254 52.5269 57.2922L58.361 55.237L73.4012 69.79C73.3834 70.1788 72.106 73.1005 67.1389 81.6768C50.6535 82.6988 46.1397 77.5479 45.9434 74.8446C46.4787 74.4003 48.4805 72.7672 52.2057 69.79C53.79 69.2567 54.1148 67.6052 54.0791 66.846V60.6804Z" fill="#C7C7C7"/>
<path d="M50.5887 53.4107C50.7685 53.5939 51.5175 55.8721 52.1169 56.845C54.2746 58.848 53.8254 58.1601 53.9152 62.5674C49.5098 59.4191 50.3639 53.1818 50.5887 53.4107Z" fill="#CDCDCD" stroke="#7B7B7B" stroke-width="0.5"/>
<path d="M82.0497 37.6775C82.6572 41.14 81.7966 46.1651 81.2903 48.2449C81.2903 43.8605 79.4461 43.6919 77.9273 42.1743C77.1029 41.2299 76.282 40.769 75.9746 40.6566C75.6492 40.9189 74.7162 41.7471 73.588 42.9612C72.4489 42.2305 69.5199 44.3664 67.73 45.4906C66.081 45.7155 63.1014 48.6571 61.8176 50.0998C60.1542 51.0366 56.5888 53.1801 55.6341 54.2593C53.5079 54.664 52.2531 56.3016 51.8915 57.0698C50.662 55.1025 48.1054 50.3246 47.7149 46.9521C47.7691 46.1651 48.4201 43.1298 49.7219 42.9612C49.4506 42.1743 48.4743 37.1716 51.8915 30.7637C55.3087 24.3558 64.5297 24.8617 67.0248 25.1428C78.9037 25.2552 81.2903 33.3494 82.0497 37.6775Z" fill="#E3E3E3" stroke="#7B7B7B" stroke-width="0.4"/>
<path d="M55.0876 58.5918C54.1016 58.5918 52.8191 57.5879 52.301 57.0859C52.0331 57.0859 51.9152 56.7736 53.5872 55.5242C55.2591 54.2749 58.035 52.3637 59.3211 51.7873C61.8041 49.6121 67.4987 45.4737 69.5565 44.5367C71.6819 43.0989 71.9823 43.0691 72.9087 42.9774L72.9326 42.975C74.058 42.8635 74.3795 42.4173 76.3623 40.5767C77.4769 40.7552 79.9348 44.0719 81.0245 45.7079L81.2388 48.2736C81.7747 48.8313 80.5422 51.3969 80.3814 51.2854C80.2206 51.1738 79.7919 52.5124 79.8455 53.5163C80.2742 54.5426 77.2018 62.3844 75.612 66.1771C75.0226 67.2554 73.8596 69.6889 73.3077 70.3044C72.5575 71.141 69.3958 70.8063 66.6627 70.3044C56.7489 68.9658 56.4809 59.4842 55.0876 58.5918Z" fill="#DCDCDC" stroke="#7B7B7B" stroke-width="0.4"/>
<defs>
<filter id="filter0_d_569_1943" x="0" y="0" width="132" height="132" filterUnits="userSpaceOnUse" color-interpolation-filters="sRGB">
<feFlood flood-opacity="0" result="BackgroundImageFix"/>
<feColorMatrix in="SourceAlpha" type="matrix" values="0 0 0 0 0 0 0 0 0 0 0 0 0 0 0 0 0 0 127 0" result="hardAlpha"/>
<feMorphology radius="1" operator="erode" in="SourceAlpha" result="effect1_dropShadow_569_1943"/>
<feOffset dx="2" dy="2"/>
<feGaussianBlur stdDeviation="7"/>
<feComposite in2="hardAlpha" operator="out"/>
<feColorMatrix type="matrix" values="0 0 0 0 0 0 0 0 0 0 0 0 0 0 0 0 0 0 0.18 0"/>
<feBlend mode="normal" in2="BackgroundImageFix" result="effect1_dropShadow_569_1943"/>
<feBlend mode="normal" in="SourceGraphic" in2="effect1_dropShadow_569_1943" result="shape"/>
</filter>
</defs>
</svg>
