<svg width="132" height="132" viewBox="0 0 132 132" fill="none" xmlns="http://www.w3.org/2000/svg">
<g filter="url(#filter0_d_569_1893)">
<rect x="11" y="11" width="106" height="106" rx="17" fill="#C6FFFC"/>
<rect x="11.05" y="11.05" width="105.9" height="105.9" rx="16.95" stroke="#929292" stroke-width="0.1"/>
</g>
<path d="M117 93.5001V99.9208C117 109.341 109.341 116.964 99.921 116.921L28.0499 116.587C18.8397 116.544 11.3387 109.174 11.1332 99.9661L11 94C11.1064 93.8321 14.7434 93.0785 19.5 93L20 94.5H36V93.0001C51.2574 92.9588 70.5494 93.4145 83 93.5001H94.5H117Z" fill="#F5F1DD" stroke="#929292" stroke-width="0.5"/>
<path d="M11 74.0561V93.8645C11.2118 93.6563 15.2928 93.598 20 93.5L19.5 95H35.6201V93.2507C51.1492 93.1999 70.5852 93.3108 83.2231 93.4229V87.0514C83.5142 82.5093 86.7616 81.1682 88.5 81C93.0117 81.1009 94.6034 84.8645 94.6842 86.7991V93.4229L117 93.8014V75.1285C112.1 75.9864 102.709 76.6215 98.6259 76.8318V75.1285H95.1087V74.5607L94.4417 74.4346V73.6145L94.6842 73.2991L94.4417 72.9206L94.3204 72.3528L94.2597 72.1636L93.8959 72.4159L93.6533 72.6682L93.3501 72.479L93.2288 72.1636L93.0469 71.722H92.7437L92.5011 71.8481L92.3799 72.5421L92.1373 73.0467H91.8947L91.6522 72.2897L91.4096 71.722L91.0458 71.8481L90.5606 71.722L90.8032 71.3435V69.6402V68.9463L91.0458 68.757L90.9245 68.5678L90.4394 68C90.3585 68.1682 90.1604 68.5173 90.0149 68.5678C89.8693 68.6182 89.9542 68.715 90.0149 68.757L90.1968 69.0724L90.0149 69.6402L89.7117 69.514L89.4691 69.9556H89.2872L89.1659 70.1449L88.8021 70.3972L88.3776 70.5864L88.6201 70.8388L89.1659 70.7126L89.2872 71.3435V71.722L88.8021 71.8481L88.6201 71.9743V72.5421L88.5595 73.0467L88.3776 72.7944L88.135 72.4159V71.8481L87.7105 71.9743L87.5286 72.1636L87.4073 72.6682H87.7105V73.0467C87.5892 73.0888 87.3224 73.1729 87.2254 73.1729C87.1284 73.1729 87.1041 73.0888 87.1041 73.0467L86.9222 72.479L86.8616 71.9743L86.5584 71.8481L86.3764 72.2897V72.7944L86.1945 73.2991L85.8913 73.0467V72.7944L85.5881 72.2897L85.3455 72.1636L84.9817 72.4159L84.8604 72.7944H84.6179L84.3753 73.1729L83.8295 73.0467H83.587L83.8295 74.0561L82.8593 72.7944L83.8295 74.5607V75.1285H82.9806V75.9486L79.7666 76.0748V78.472C60.8952 79.2794 28.9699 76.9579 15.3661 75.6963V74.8762L15.73 74.3715L12.8192 73.5514L11 74.0561Z" fill="#E8D090" stroke="#929292" stroke-width="0.4"/>
<path d="M97.7448 78.6539V79.8905L79.4899 80.6325L79.1331 79.3959L78.479 78.7158L98.2205 77.9119L97.7448 78.6539Z" fill="#EBEBEB" stroke="#929292" stroke-width="0.4"/>
<path d="M12 99.182L40.1257 100.171L42.9799 99.924L12 98.7492V99.182Z" fill="#9DBCC1" stroke="#929292" stroke-width="0.2"/>
<path d="M57.3102 104.685L97.7513 107.18L99 106.5L60.5807 104.129L74.1975 101.408L70.1541 101.284L54.8723 103.943L26.5682 102.459L24.3086 102.645L51.7802 104.376L24.7248 109.199L30.0764 109.693L57.3102 104.685Z" fill="#DACCD8" stroke="#929292" stroke-width="0.2"/>
<path d="M110.5 93.5L12 104L11.5 103L108.5 93.5H110.5Z" fill="#9DBCC1"/>
<path d="M97.5 117L66 116.5L15 110.5L13.5 108L83.3923 115.328L117 96.4234V99.8403L111.463 104.293L97.5 117Z" fill="#9DBCC1"/>
<path d="M110.5 93.5L12 104L11.5 103L108.5 93.5H110.5Z" stroke="#929292" stroke-width="0.2"/>
<path d="M97.5 117L66 116.5L15 110.5L13.5 108L83.3923 115.328L117 96.4234V99.8403L111.463 104.293L97.5 117Z" stroke="#929292" stroke-width="0.2"/>
<path d="M26.7529 26.3448V28.5708L29.4882 27.9525L31.3315 29.1272L31.4504 26.9632C31.7834 26.8148 31.9063 26.3655 31.9261 26.1593L30.499 24.1807L30.7963 23.8098C31.4147 23.6614 31.609 23.2945 31.6288 23.1296L30.7963 22.0167V21.5838L30.0233 19.7907H30.3206L31.4504 21.7693L31.7477 21.5838L31.4504 18.1831L31.0342 16.8847C30.5585 16.0932 30.1621 16.5549 30.0233 16.8847C30.1185 17.775 29.7062 17.6266 29.4882 17.4411V14.1023L30.499 13.6076V12.9275L29.4882 13.2985V12H28.8341V13.6076L27.8232 13.9168V14.4732L28.8341 14.2259V16.8847C28.5487 16.4395 28.3584 16.3694 28.2989 16.39C27.6329 16.2416 28.0214 17.0289 28.2989 17.4411L27.5259 16.5755V15.2152H27.8232V14.8442H27.5259V14.4732L27.2286 15.2152L27.0502 16.5755L28.0611 18.1831L28.2989 18.5541V19.2343C27.8232 19.3332 28.1007 21.1304 28.2989 22.0167V23.2533L27.8232 23.5006V23.8098L27.0502 24.6754C25.9085 25.2195 26.3763 26.0151 26.7529 26.3448Z" fill="#3D3D3D" stroke="#929292" stroke-width="0.4"/>
<path d="M29.4821 29.0653L23.1196 30.7348V29.56L29.601 27.9523L34.8337 31.3531V32.466L29.4821 29.0653Z" fill="#3D3D3D" stroke="#929292" stroke-width="0.5"/>
<path d="M23.1196 30.7348L26.2711 32.7752C28.1264 30.5493 30.8497 32.2599 31.9795 33.3935L34.7743 32.4042V31.4149L29.5416 27.9523L23.1196 29.4981V30.7348Z" fill="#3D3D3D"/>
<path d="M29.5416 27.9523L23.1196 29.4981V30.7348L26.2711 32.7752C28.1264 30.5493 30.8497 32.2599 31.9795 33.3935L34.7743 32.4042V31.4149L29.5416 27.9523ZM29.5416 27.9523V29.0653" stroke="#929292" stroke-width="0.4"/>
<path d="M116.5 94L117 94.5L86.8035 99.1819L110.47 99.8003L110.053 99.9858L85.6738 99.3935L76.8139 100.975L72.592 100.834L81.6303 99.4007L62.3645 98.811L64.3268 98.6255L82.7006 99.0383L116.5 94Z" fill="#DACCD8" stroke="#929292" stroke-width="0.2"/>
<path d="M98.934 88.547H98.1016V90.5256H98.934V88.547Z" fill="#D9D9D9" stroke="#929292" stroke-width="0.4"/>
<path d="M115.881 88.2996H114.929V90.4019H115.881V88.2996Z" fill="#D9D9D9" stroke="#929292" stroke-width="0.4"/>
<path d="M115.881 79.2723H115.048V81.0036H115.881V79.2723Z" fill="#D9D9D9" stroke="#929292" stroke-width="0.4"/>
<path d="M111.481 79.6435H110.648V81.3747H111.481V79.6435Z" fill="#D9D9D9" stroke="#929292" stroke-width="0.4"/>
<path d="M107.318 79.8906H106.486V81.6219H107.318V79.8906Z" fill="#D9D9D9" stroke="#929292" stroke-width="0.4"/>
<path d="M103.156 80.2617H102.323V81.8693H103.156V80.2617Z" fill="#D9D9D9" stroke="#929292" stroke-width="0.4"/>
<path d="M98.9936 80.3852H98.1611V81.9929H98.9936V80.3852Z" fill="#D9D9D9" stroke="#929292" stroke-width="0.4"/>
<path d="M115.881 82.9822H114.929V85.4555H115.881V82.9822Z" fill="#D9D9D9" stroke="#929292" stroke-width="0.4"/>
<path d="M111.481 83.477H110.648V85.7029H111.481V83.477Z" fill="#D9D9D9" stroke="#929292" stroke-width="0.4"/>
<path d="M107.318 83.6005H106.367V85.8265H107.318V83.6005Z" fill="#D9D9D9" stroke="#929292" stroke-width="0.4"/>
<path d="M103.156 83.8479H102.323V85.8265H103.156V83.8479Z" fill="#D9D9D9" stroke="#929292" stroke-width="0.4"/>
<path d="M99.1125 83.9715H98.28V85.9501H99.1125V83.9715Z" fill="#D9D9D9" stroke="#929292" stroke-width="0.4"/>
<path d="M103.037 88.4234H102.204V90.402H103.037V88.4234Z" fill="#D9D9D9" stroke="#929292" stroke-width="0.4"/>
<path d="M107.08 88.4234H106.248V90.402H107.08V88.4234Z" fill="#D9D9D9" stroke="#929292" stroke-width="0.4"/>
<path d="M111.362 88.4234H110.529V90.402H111.362V88.4234Z" fill="#D9D9D9" stroke="#929292" stroke-width="0.4"/>
<path d="M19.7896 89.289V94.7301H36.2012V89.5981L35.0714 87.3722V82.2402L36.2012 81.6219L35.2498 81.0654L35.0714 78.9632L32.455 78.5922C33.0259 77.9491 32.0586 77.2525 31.5036 76.9846L25.0222 76.6754C23.833 77.4669 23.8132 77.9533 23.9519 78.0975H21.2166V79.8288L19.7896 81.0654L21.2166 81.6219V87.1249L19.7896 89.289Z" fill="#3D3D3D" stroke="#929292" stroke-width="0.4"/>
<path d="M84.9009 87.3723V93.1845H94.5V86.5C93.9292 82.7901 91.4514 81.7267 90.5 81.5C85.0295 81.5989 84.5243 85.4349 84.9009 87.3723Z" fill="#968B6C"/>
<path d="M82.8792 93.1845H84.9009M84.9009 93.1845V87.3723C84.5243 85.4349 85.0295 81.5989 90.5 81.5C91.4514 81.7267 93.9292 82.7901 94.5 86.5V93.1845H84.9009Z" stroke="#929292" stroke-width="0.4"/>
<path d="M11.5 102L16.6977 102.397L19.1951 102.15L11.5 101.5V102Z" fill="#DACCD8" stroke="#929292" stroke-width="0.2"/>
<path d="M26.2711 32.899L25.2603 76.5875L31.3254 76.9584L31.9795 33.4293C29.4107 30.4614 27.0243 31.8684 26.2711 32.899Z" fill="#9E603C" stroke="#929292" stroke-width="0.4"/>
<path d="M106 102.5L46.9639 100.357L49.7586 100.11L107.5 102L106 102.5Z" fill="#9DBCC1" stroke="#929292" stroke-width="0.2"/>
<path d="M77.587 88.7325H76.814V90.5256H77.587V88.7325Z" fill="#D9D9D9" stroke="#929292" stroke-width="0.4"/>
<path d="M62.4838 81.1274H61.6514V82.735H62.4838V81.1274Z" fill="#D9D9D9" stroke="#929292" stroke-width="0.4"/>
<path d="M62.4244 84.7135H61.6514V86.5066H62.4244V84.7135Z" fill="#D9D9D9" stroke="#929292" stroke-width="0.4"/>
<path d="M66.5271 81.1274H65.6946V82.735H66.5271V81.1274Z" fill="#D9D9D9" stroke="#929292" stroke-width="0.4"/>
<path d="M66.4676 84.7135H65.6946V86.5066H66.4676V84.7135Z" fill="#D9D9D9" stroke="#929292" stroke-width="0.4"/>
<path d="M66.4676 88.7944H65.6946V90.5875H66.4676V88.7944Z" fill="#D9D9D9" stroke="#929292" stroke-width="0.4"/>
<path d="M70.2136 81.1274H69.3811V82.735H70.2136V81.1274Z" fill="#D9D9D9" stroke="#929292" stroke-width="0.4"/>
<path d="M70.1541 84.7135H69.3811V86.5066H70.1541V84.7135Z" fill="#D9D9D9" stroke="#929292" stroke-width="0.4"/>
<path d="M70.1541 88.7944H69.3811V90.5875H70.1541V88.7944Z" fill="#D9D9D9" stroke="#929292" stroke-width="0.4"/>
<path d="M73.9003 81.1274H73.0679V82.735H73.9003V81.1274Z" fill="#D9D9D9" stroke="#929292" stroke-width="0.4"/>
<path d="M73.8409 84.7135H73.0679V86.5066H73.8409V84.7135Z" fill="#D9D9D9" stroke="#929292" stroke-width="0.4"/>
<path d="M77.7058 81.1274H76.8733V82.735H77.7058V81.1274Z" fill="#D9D9D9" stroke="#929292" stroke-width="0.4"/>
<path d="M77.6463 84.7135H76.8733V86.5066H77.6463V84.7135Z" fill="#D9D9D9" stroke="#929292" stroke-width="0.4"/>
<path d="M73.8409 88.6708H73.0679V90.4639H73.8409V88.6708Z" fill="#D9D9D9" stroke="#929292" stroke-width="0.4"/>
<path d="M82.8792 87.0631V93.1844H84.9009L84.8414 87.0631C84.3181 82.3639 88.4686 81.354 90.6093 81.4365C85.0436 79.5568 83.1368 84.4044 82.8792 87.0631Z" fill="#D9C797" stroke="#929292" stroke-width="0.4"/>
<defs>
<filter id="filter0_d_569_1893" x="0" y="0" width="132" height="132" filterUnits="userSpaceOnUse" color-interpolation-filters="sRGB">
<feFlood flood-opacity="0" result="BackgroundImageFix"/>
<feColorMatrix in="SourceAlpha" type="matrix" values="0 0 0 0 0 0 0 0 0 0 0 0 0 0 0 0 0 0 127 0" result="hardAlpha"/>
<feMorphology radius="1" operator="erode" in="SourceAlpha" result="effect1_dropShadow_569_1893"/>
<feOffset dx="2" dy="2"/>
<feGaussianBlur stdDeviation="7"/>
<feComposite in2="hardAlpha" operator="out"/>
<feColorMatrix type="matrix" values="0 0 0 0 0 0 0 0 0 0 0 0 0 0 0 0 0 0 0.18 0"/>
<feBlend mode="normal" in2="BackgroundImageFix" result="effect1_dropShadow_569_1893"/>
<feBlend mode="normal" in="SourceGraphic" in2="effect1_dropShadow_569_1893" result="shape"/>
</filter>
</defs>
</svg>
