<svg width="106" height="106" viewBox="0 0 106 106" fill="none" xmlns="http://www.w3.org/2000/svg">
<rect x="0.05" y="0.05" width="105.9" height="105.9" rx="16.95" fill="#C6FFFC" stroke="#929292" stroke-width="0.1"/>
<path d="M0.05 66.05H105.95V89C105.95 98.3612 98.3612 105.95 89 105.95H17C7.63878 105.95 0.05 98.3612 0.05 89V66.05Z" fill="#F5F1DD" stroke="#929292" stroke-width="0.1"/>
<path d="M0.5 61V81C0.713861 80.7919 3.8289 80.598 8.58095 80.5L8.07619 82H24.3499V80.2507C40.0268 80.1999 59.6479 80.3108 72.4062 80.4229V74.0514C72.7 69.5093 75.9784 68.1682 77.7333 68C82.288 68.1009 83.8948 71.8645 83.9764 73.7991V80.4229L105.5 81V62.5C100.554 63.3579 92.0777 63.6215 87.9556 63.8318V62.1285H84.405V61.5607L83.7316 61.4346V60.6145L83.9764 60.2991L83.7316 59.9206L83.6091 59.3528L83.5479 59.1636L83.1806 59.4159L82.9357 59.6682L82.6296 59.479L82.5072 59.1636L82.3235 58.722H82.0175L81.7726 58.8481L81.6501 59.5421L81.4053 60.0467H81.1604L80.9155 59.2897L80.6707 58.722L80.3033 58.8481L79.8136 58.722L80.0585 58.3435V56.6402V55.9463L80.3033 55.757L80.1809 55.5678L79.6912 55C79.6095 55.1682 79.4096 55.5173 79.2626 55.5678C79.1157 55.6182 79.2014 55.715 79.2626 55.757L79.4463 56.0724L79.2626 56.6402L78.9565 56.514L78.7117 56.9556H78.528L78.4056 57.1449L78.0383 57.3972L77.6097 57.5864L77.8546 57.8388L78.4056 57.7126L78.528 58.3435V58.722L78.0383 58.8481L77.8546 58.9743V59.5421L77.7934 60.0467L77.6097 59.7944L77.3649 59.4159V58.8481L76.9363 58.9743L76.7527 59.1636L76.6302 59.6682H76.9363V60.0467C76.8139 60.0888 76.5445 60.1729 76.4466 60.1729C76.3486 60.1729 76.3242 60.0888 76.3242 60.0467L76.1405 59.479L76.0793 58.9743L75.7732 58.8481L75.5895 59.2897V59.7944L75.4059 60.2991L75.0998 60.0467V59.7944L74.7937 59.2897L74.5488 59.1636L74.1815 59.4159L74.0591 59.7944H73.8142L73.5693 60.1729L73.0184 60.0467H72.7735L73.0184 61.0561L72.0389 59.7944L73.0184 61.5607V62.1285H72.1613V62.9486L68.9167 63.0748V65.472C49.8656 66.2794 17.6362 63.9579 3.90295 62.6963V61.8762L4.27026 61.3715L1.33179 60.5514L0.5 61Z" fill="#E8D090" stroke="#929292" stroke-width="0.2"/>
<path d="M87.5935 65.742V66.9786L69.3385 67.7206L68.9817 66.4839L68.3276 65.8038L88.0692 65L87.5935 65.742Z" fill="#EBEBEB" stroke="#929292" stroke-width="0.4"/>
<path d="M88.7827 75.635H87.9502V77.6136H88.7827V75.635Z" fill="#D9D9D9" stroke="#929292" stroke-width="0.4"/>
<path d="M104.729 75.3877H103.778V77.49H104.729V75.3877Z" fill="#D9D9D9" stroke="#929292" stroke-width="0.4"/>
<path d="M104.729 66.3604H103.897V68.0916H104.729V66.3604Z" fill="#D9D9D9" stroke="#929292" stroke-width="0.4"/>
<path d="M101.329 66.7314H100.497V68.4627H101.329V66.7314Z" fill="#D9D9D9" stroke="#929292" stroke-width="0.4"/>
<path d="M97.1669 66.9786H96.3345V68.7099H97.1669V66.9786Z" fill="#D9D9D9" stroke="#929292" stroke-width="0.4"/>
<path d="M93.0046 67.3497H92.1721V68.9573H93.0046V67.3497Z" fill="#D9D9D9" stroke="#929292" stroke-width="0.4"/>
<path d="M88.8422 67.4733H88.0098V69.0809H88.8422V67.4733Z" fill="#D9D9D9" stroke="#929292" stroke-width="0.4"/>
<path d="M104.729 70.0702H103.778V72.5434H104.729V70.0702Z" fill="#D9D9D9" stroke="#929292" stroke-width="0.4"/>
<path d="M101.329 70.5649H100.497V72.7909H101.329V70.5649Z" fill="#D9D9D9" stroke="#929292" stroke-width="0.4"/>
<path d="M97.1667 70.6886H96.2153V72.9145H97.1667V70.6886Z" fill="#D9D9D9" stroke="#929292" stroke-width="0.4"/>
<path d="M93.0046 70.9359H92.1721V72.9145H93.0046V70.9359Z" fill="#D9D9D9" stroke="#929292" stroke-width="0.4"/>
<path d="M88.9611 71.0594H88.1287V73.038H88.9611V71.0594Z" fill="#D9D9D9" stroke="#929292" stroke-width="0.4"/>
<path d="M92.8855 75.5115H92.053V77.4901H92.8855V75.5115Z" fill="#D9D9D9" stroke="#929292" stroke-width="0.4"/>
<path d="M96.9289 75.5115H96.0964V77.4901H96.9289V75.5115Z" fill="#D9D9D9" stroke="#929292" stroke-width="0.4"/>
<path d="M101.21 75.5115H100.378V77.4901H101.21V75.5115Z" fill="#D9D9D9" stroke="#929292" stroke-width="0.4"/>
<path d="M74.7495 74.4603V80.2725H84.3486V73.588C83.7778 69.8781 81.3 68.8147 80.3486 68.588C74.8781 68.6869 74.3729 72.523 74.7495 74.4603Z" fill="#968B6C"/>
<path d="M72.7278 80.2725H74.7495M74.7495 80.2725V74.4603C74.3729 72.523 74.8781 68.6869 80.3486 68.588C81.3 68.8147 83.7778 69.8781 84.3486 73.588V80.2725H74.7495Z" stroke="#929292" stroke-width="0.4"/>
<path d="M67.4356 75.8204H66.6626V77.6135H67.4356V75.8204Z" fill="#D9D9D9" stroke="#929292" stroke-width="0.4"/>
<path d="M52.3325 68.2153H51.5V69.8229H52.3325V68.2153Z" fill="#D9D9D9" stroke="#929292" stroke-width="0.4"/>
<path d="M52.273 71.8015H51.5V73.5946H52.273V71.8015Z" fill="#D9D9D9" stroke="#929292" stroke-width="0.4"/>
<path d="M56.3757 68.2153H55.5432V69.8229H56.3757V68.2153Z" fill="#D9D9D9" stroke="#929292" stroke-width="0.4"/>
<path d="M56.3162 71.8015H55.5432V73.5946H56.3162V71.8015Z" fill="#D9D9D9" stroke="#929292" stroke-width="0.4"/>
<path d="M56.3162 75.8824H55.5432V77.6756H56.3162V75.8824Z" fill="#D9D9D9" stroke="#929292" stroke-width="0.4"/>
<path d="M60.0622 68.2153H59.2297V69.8229H60.0622V68.2153Z" fill="#D9D9D9" stroke="#929292" stroke-width="0.4"/>
<path d="M60.0027 71.8015H59.2297V73.5946H60.0027V71.8015Z" fill="#D9D9D9" stroke="#929292" stroke-width="0.4"/>
<path d="M60.0027 75.8824H59.2297V77.6756H60.0027V75.8824Z" fill="#D9D9D9" stroke="#929292" stroke-width="0.4"/>
<path d="M63.749 68.2153H62.9165V69.8229H63.749V68.2153Z" fill="#D9D9D9" stroke="#929292" stroke-width="0.4"/>
<path d="M63.6895 71.8015H62.9165V73.5946H63.6895V71.8015Z" fill="#D9D9D9" stroke="#929292" stroke-width="0.4"/>
<path d="M67.5544 68.2153H66.7219V69.8229H67.5544V68.2153Z" fill="#D9D9D9" stroke="#929292" stroke-width="0.4"/>
<path d="M67.4949 71.8015H66.7219V73.5946H67.4949V71.8015Z" fill="#D9D9D9" stroke="#929292" stroke-width="0.4"/>
<path d="M63.6895 75.7588H62.9165V77.5519H63.6895V75.7588Z" fill="#D9D9D9" stroke="#929292" stroke-width="0.4"/>
<path d="M72.7278 74.1511V80.2724H74.7495L74.69 74.1511C74.1668 69.4519 78.3172 68.442 80.4579 68.5244C74.8922 66.6448 72.9855 71.4923 72.7278 74.1511Z" fill="#D9C797" stroke="#929292" stroke-width="0.4"/>
<path d="M14.9633 17.3448V19.5708L17.6986 18.9525L19.5419 20.1272L19.6609 17.9632C19.9939 17.8148 20.1168 17.3655 20.1366 17.1593L18.7095 15.1807L19.0068 14.8098C19.6252 14.6614 19.8194 14.2945 19.8393 14.1296L19.0068 13.0167V12.5838L18.2338 10.7907H18.5311L19.6609 12.7693L19.9582 12.5838L19.6609 9.18312L19.2446 7.88467C18.7689 7.09323 18.3725 7.5549 18.2338 7.88467C18.3289 8.77503 17.9166 8.62664 17.6986 8.44115V5.10226L18.7095 4.60761V3.92747L17.6986 4.29846V3H17.0445V4.60761L16.0337 4.91677V5.47325L17.0445 5.22592V7.88467C16.7591 7.43948 16.5688 7.36941 16.5094 7.39002C15.8434 7.24162 16.2319 8.02894 16.5094 8.44115L15.7364 7.57551V6.21522H16.0337V5.84424H15.7364V5.47325L15.439 6.21522L15.2607 7.57551L16.2715 9.18312L16.5094 9.55411V10.2343C16.0337 10.3332 16.3112 12.1304 16.5094 13.0167V14.2533L16.0337 14.5006V14.8098L15.2607 15.6754C14.119 16.2195 14.5868 17.0151 14.9633 17.3448Z" fill="#3D3D3D" stroke="#929292" stroke-width="0.4"/>
<path d="M17.6926 20.0654L11.3301 21.7348V20.56L17.8115 18.9524L23.0442 22.3531V23.4661L17.6926 20.0654Z" fill="#3D3D3D" stroke="#929292" stroke-width="0.5"/>
<path d="M11.3301 21.7348L14.4816 23.7752C16.3368 21.5493 19.0602 23.26 20.19 24.3935L22.9847 23.4042V22.4149L17.752 18.9524L11.3301 20.4982V21.7348Z" fill="#3D3D3D"/>
<path d="M17.752 18.9524L11.3301 20.4982V21.7348L14.4816 23.7752C16.3368 21.5493 19.0602 23.26 20.19 24.3935L22.9847 23.4042V22.4149L17.752 18.9524ZM17.752 18.9524V20.0654" stroke="#929292" stroke-width="0.4"/>
<path d="M8 80.289V85.7301H24.4116V80.5981L23.2818 78.3722V73.2402L24.4116 72.6219L23.4602 72.0654L23.2818 69.9632L20.6655 69.5922C21.2363 68.9491 20.2691 68.2525 19.7141 67.9846L13.2327 67.6754C12.0434 68.4669 12.0236 68.9533 12.1624 69.0975H9.4271V70.8288L8 72.0654L9.4271 72.6219V78.1249L8 80.289Z" fill="#3D3D3D" stroke="#929292" stroke-width="0.4"/>
<path d="M14.4816 23.899L13.4707 67.5875L19.5359 67.9585L20.19 24.4293C17.6212 21.4614 15.2348 22.8685 14.4816 23.899Z" fill="#9E603C" stroke="#929292" stroke-width="0.4"/>
<path d="M1 88.1821L29.1257 89.1714L31.9799 88.9241L1 87.7493V88.1821Z" fill="#9DBCC1" stroke="#929292" stroke-width="0.2"/>
<path d="M46.3102 93.685L86.7513 96.1803L88 95.5001L49.5807 93.1285L63.1975 90.408L59.1541 90.2843L43.8723 92.943L15.5682 91.4591L13.3086 91.6446L40.7802 93.3759L13.7248 98.1987L19.0764 98.6933L46.3102 93.685Z" fill="#DACCD8" stroke="#929292" stroke-width="0.2"/>
<path d="M99.5 82.5L1 93V92L97.5 82.5H99.5Z" fill="#9DBCC1"/>
<path d="M86.5 105.5H55L4.5 99.5L2.5 97L72.3923 104.328L105.5 85.5V89L100.463 93.293L86.5 105.5Z" fill="#9DBCC1"/>
<path d="M99.5 82.5L1 93V92L97.5 82.5H99.5Z" stroke="#929292" stroke-width="0.2"/>
<path d="M86.5 105.5H55L4.5 99.5L2.5 97L72.3923 104.328L105.5 85.5V89L100.463 93.293L86.5 105.5Z" stroke="#929292" stroke-width="0.2"/>
<path d="M105.5 83V83.5L75.8035 88.182L99.4696 88.8003L99.0533 88.9858L74.6738 88.3935L65.8139 89.9751L61.592 89.8341L70.6303 88.4007L51.3645 87.811L53.3268 87.6255L71.7006 88.0383L105.5 83Z" fill="#DACCD8" stroke="#929292" stroke-width="0.2"/>
<path d="M0.5 90.9999L5.69769 91.3972L8.19511 91.1498L0.5 90.4999V90.9999Z" fill="#DACCD8" stroke="#929292" stroke-width="0.2"/>
<path d="M95 91.4999L35.9639 89.3568L38.7586 89.1095L96.5 90.9999L95 91.4999Z" fill="#9DBCC1" stroke="#929292" stroke-width="0.2"/>
</svg>
