<svg width="132" height="130" viewBox="0 0 132 130" fill="none" xmlns="http://www.w3.org/2000/svg">
<g filter="url(#filter0_d_505_1996)">
<rect x="11" y="11" width="106" height="104" rx="16" fill="#C6FFFC"/>
<rect x="11.05" y="11.05" width="105.9" height="103.9" rx="15.95" stroke="#929292" stroke-width="0.1"/>
</g>
<path d="M53.1195 50.5464C54.1688 51.727 53.666 54.3177 53.2834 55.4654C50.0041 53.1043 44.0466 53.9351 41.4778 54.6456C40.5596 50.0545 43.7187 48.4695 45.413 48.2509C47.5118 46.9391 47.8178 44.5343 47.7085 43.4958L47.3806 42.676L48.0365 42.1841V40.3805L47.7085 39.8885L48.2004 39.7246V37.9209H47.2166L46.7247 38.0849L46.2328 37.593L46.7247 37.1011L47.2166 37.2651H48.0365L48.3644 36.9371V36.4452L48.2004 36.1173L48.5284 35.7894H48.8563L49.1842 36.1173L49.0203 36.4452V36.9371L49.3482 37.2651H50.0041H50.496L50.8239 37.757L50.496 38.2489L50.0041 37.9209H48.8563L48.6923 39.7246H49.1842L49.3482 40.0525L48.5284 40.5444V42.1841L49.0203 43.0039L48.5284 43.6598C48.3972 46.2833 49.5668 47.8136 50.168 48.2509C51.0863 48.3821 52.5182 49.8359 53.1195 50.5464Z" fill="#FFB800" stroke="#7B7B7B" stroke-width="0.4"/>
<path d="M64.1389 49.2347C54.432 49.3659 54.0822 52.8967 55.1207 54.6456C54.3336 54.121 53.481 51.0384 53.153 49.5626C52.6283 42.0857 58.4 39.342 61.3514 38.9048C63.319 37.3307 63.5923 34.0951 63.483 32.674C62.7347 31.887 63.1712 31.253 63.483 31.0343V29.3947L62.8271 29.0667V28.4109L63.483 28.5748V26.6072L62.8271 25.9514H61.8433L61.3514 26.2793L60.6955 25.6234L61.3514 24.9675L61.8433 25.2955H62.8271L63.319 24.6396V24.1477L63.155 23.6558L63.319 23.3279L63.6469 22.9999H63.9749L64.4668 23.3279L64.6307 23.6558L64.3028 23.9837V24.6396L64.9587 25.2955L65.7785 25.1315L66.2704 24.9675L66.7623 25.2955L66.9263 25.6234L66.5983 26.1153L66.2704 26.2793L65.7785 25.9514H64.7947L64.4668 26.4433V28.5748L64.9587 28.4109L65.1226 28.7388L64.3028 29.3947V31.0343C65.0898 31.4279 64.74 32.2914 64.4668 32.674C64.0732 36.4781 66.1611 38.4129 67.2542 38.9048C76.6346 41.1865 75.3059 49.6238 73.3316 54.0361C73.2722 54.1925 73.2017 54.3418 73.1236 54.4817C73.1934 54.3383 73.2629 54.1896 73.3316 54.0361C74.0612 52.1142 73.1151 49.1134 64.1389 49.2347Z" fill="#FFB800"/>
<path d="M55.1207 54.6456C54.0822 52.8967 54.432 49.3659 64.1389 49.2347C73.8457 49.1035 74.162 52.6234 73.1236 54.4817C75.2005 50.2185 76.9611 41.2659 67.2542 38.9048C66.1611 38.4129 64.0732 36.4781 64.4668 32.674C64.74 32.2914 65.0898 31.4279 64.3028 31.0343V29.3947L65.1226 28.7388L64.9587 28.4109L64.4668 28.5748V26.4433L64.7947 25.9514H65.7785L66.2704 26.2793L66.5983 26.1153L66.9263 25.6234L66.7623 25.2955L66.2704 24.9675L65.7785 25.1315L64.9587 25.2955L64.3028 24.6396V23.9837L64.6307 23.6558L64.4668 23.3279L63.9749 22.9999H63.6469L63.319 23.3279L63.155 23.6558L63.319 24.1477V24.6396L62.8271 25.2955H61.8433L61.3514 24.9675L60.6955 25.6234L61.3514 26.2793L61.8433 25.9514H62.8271L63.483 26.6072V28.5748L62.8271 28.4109V29.0667L63.483 29.3947V31.0343C63.1712 31.253 62.7347 31.887 63.483 32.674C63.5923 34.0951 63.319 37.3307 61.3514 38.9048C58.4 39.342 52.6283 42.0857 53.153 49.5626C53.481 51.0384 54.3336 54.121 55.1207 54.6456Z" stroke="#7B7B7B" stroke-width="0.5"/>
<path d="M74.3909 46.2781C66.1624 41.0811 56.5262 43.5714 53.8194 46.2782C52.7368 47.9022 53.8195 52.2331 54.3609 52.7744C63.0225 47.5774 70.9624 50.0676 73.8496 52.233C74.2105 50.6089 74.824 47.1442 74.3909 46.2781Z" fill="#EAAA05"/>
<path d="M88.0445 67.9269C87.6022 64.1867 86.7177 56.7382 86.7177 56.8665C81.145 51.8652 76.1031 54.1414 74.2788 55.9047L73.6154 67.9269H88.0445Z" fill="#EDECEC" stroke="#7B7B7B" stroke-width="0.4"/>
<path d="M39.5099 67.599L41.4775 54.4947C48.2985 52.979 52.19 54.3894 53.2831 55.2841L54.2669 67.599H39.5099Z" fill="#EDECEC" stroke="#7B7B7B" stroke-width="0.4"/>
<path d="M86.3525 55.4654C86.6148 55.859 86.6804 56.5039 86.6804 56.7772C81.5646 52.0549 76.4051 53.8804 74.3829 55.9573C72.2513 51.6942 76.3505 49.2347 77.6623 48.4149C78.7116 47.759 78.974 45.1902 78.974 43.9877L78.4821 43.1679L78.81 42.512V40.8724L77.9902 40.3805V39.8886H78.4821V38.0849H77.4983L77.1704 38.4128L76.6785 38.2489L76.5145 37.757L77.0064 37.2651L77.4983 37.593H78.4821L78.3181 36.7732L78.1542 36.4452L78.3181 36.1173L78.81 35.7894L79.3019 35.9533L79.4659 36.4452L79.3019 36.7732V37.593H80.2857L80.7776 37.2651L81.1056 37.757V38.0849L80.7776 38.2489L80.4497 38.0849L79.4659 38.4128V40.2165L79.9578 39.8886V40.2165L79.6299 40.8724V42.512L80.1218 43.1679L79.7938 43.8238C79.4003 45.7914 81.3788 47.7043 82.4173 48.4149C88.1561 50.2185 86.0246 54.9735 86.3525 55.4654Z" fill="#FFB800" stroke="#7B7B7B" stroke-width="0.4"/>
<path d="M54.595 67.5991L55.2453 54.4818L54.759 53.0061L55.2453 51.6943L58.2023 50.0546L64.2691 49.2348L70.6638 50.0546L73.1275 51.6943L73.4513 53.0061L73.1275 54.4818L73.6152 67.5991H54.595Z" fill="#EDECEC" stroke="#7B7B7B" stroke-width="0.4"/>
<path d="M95.5869 81.9289L98.2104 104H30L32.4595 82.5877L32.1316 81.9289L32.4595 77.9758H33.9352C34.1976 76.6582 36.668 73.913 37.8704 72.7051V69.411L37.2146 67.5992H90.8319L89.8481 69.2462L90.176 72.5404C91.2254 72.6722 93.0181 75.9993 93.7833 77.6464H96.0788V81.27L95.5869 81.9289Z" fill="#EDECEC" stroke="#7B7B7B" stroke-width="0.4"/>
<path d="M53.18 54.8346C49.7153 53.1022 44.2195 53.7351 41.6932 54.2764C41.2504 53.1937 41.6307 52.2329 41.8112 51.6916C48.9474 50.0676 51.6905 51.5112 53.495 52.233C53.495 53.9653 53.3604 54.6541 53.18 54.8346Z" fill="#EAAA05"/>
<path d="M86.3005 56.4403C80.6705 51.6764 76.3094 53.7697 74.6854 55.5742C73.8192 54.275 73.9635 53.1459 74.144 52.6046C78.4748 50.0061 83.6374 51.5516 85.9832 52.6343C86.4163 52.6343 86.1637 54.4388 85.9832 55.3411C86.4163 56.2072 86.481 56.4403 86.3005 56.4403Z" fill="#EAAA05"/>
<path d="M91.5271 82.6859L93.4008 103.8H74.5122L73.9418 81.5502C73.8695 78.7293 75.6991 76.2109 78.4042 75.4078L80.083 74.9094C82.6216 74.1558 85.3637 74.5668 87.5697 76.0318C89.8311 77.5336 91.2872 79.9819 91.5271 82.6859Z" fill="#E9E9E9" stroke="#AEAEAE" stroke-width="0.4"/>
<path d="M53.9395 81.3667L53.3578 103.8H34.4805L36.2092 83.0664C36.4536 80.1359 38.0647 77.4921 40.5571 75.9316C42.8062 74.5235 45.5483 74.1393 48.0977 74.8751L49.4789 75.2738C52.179 76.0531 54.0124 78.5574 53.9395 81.3667Z" fill="#E9E9E9" stroke="#AEAEAE" stroke-width="0.4"/>
<path d="M75.383 103.8H52.8276V77.7849C52.8276 73.2359 55.3688 69.0282 59.3744 66.8683C62.4138 65.2295 66.1122 65.2365 69.1279 66.915L69.7865 67.2816C73.2412 69.2044 75.383 72.8479 75.383 76.8016V103.8Z" fill="#E9E9E9" stroke="#AEAEAE" stroke-width="0.4"/>
<defs>
<filter id="filter0_d_505_1996" x="0" y="0" width="132" height="130" filterUnits="userSpaceOnUse" color-interpolation-filters="sRGB">
<feFlood flood-opacity="0" result="BackgroundImageFix"/>
<feColorMatrix in="SourceAlpha" type="matrix" values="0 0 0 0 0 0 0 0 0 0 0 0 0 0 0 0 0 0 127 0" result="hardAlpha"/>
<feMorphology radius="1" operator="erode" in="SourceAlpha" result="effect1_dropShadow_505_1996"/>
<feOffset dx="2" dy="2"/>
<feGaussianBlur stdDeviation="7"/>
<feComposite in2="hardAlpha" operator="out"/>
<feColorMatrix type="matrix" values="0 0 0 0 0 0 0 0 0 0 0 0 0 0 0 0 0 0 0.18 0"/>
<feBlend mode="normal" in2="BackgroundImageFix" result="effect1_dropShadow_505_1996"/>
<feBlend mode="normal" in="SourceGraphic" in2="effect1_dropShadow_505_1996" result="shape"/>
</filter>
</defs>
</svg>
