<svg width="106" height="104" viewBox="0 0 106 104" fill="none" xmlns="http://www.w3.org/2000/svg">
<rect x="0.05" y="0.05" width="105.9" height="103.9" rx="16.95" fill="#C6FFFC" stroke="#929292" stroke-width="0.1"/>
<path d="M42.6924 37.8462C43.677 38.9538 43.2052 41.3846 42.8462 42.4615C39.7693 40.2462 34.1796 41.0256 31.7693 41.6923C30.9078 37.3846 33.8719 35.8974 35.4616 35.6923C37.4308 34.4615 37.718 32.2051 37.6155 31.2308L37.3078 30.4615L37.9232 30V28.3077L37.6155 27.8462L38.077 27.6923V26H37.1539L36.6924 26.1538L36.2308 25.6923L36.6924 25.2308L37.1539 25.3846H37.9232L38.2308 25.0769V24.6154L38.077 24.3077L38.3847 24H38.6924L39.0001 24.3077L38.8462 24.6154V25.0769L39.1539 25.3846H39.7693H40.2308L40.5385 25.8462L40.2308 26.3077L39.7693 26H38.6924L38.5385 27.6923H39.0001L39.1539 28L38.3847 28.4615V30L38.8462 30.7692L38.3847 31.3846C38.2616 33.8462 39.3591 35.2821 39.9232 35.6923C40.7847 35.8154 42.1283 37.1795 42.6924 37.8462Z" fill="#FFB800" stroke="#7B7B7B" stroke-width="0.3"/>
<path d="M53.0316 36.6154C43.9239 36.7385 43.5957 40.0513 44.57 41.6923C43.8316 41.2 43.0316 38.3077 42.7239 36.9231C42.2316 29.9077 47.6469 27.3333 50.4162 26.9231C52.2623 25.4462 52.5187 22.4103 52.4162 21.0769C51.7141 20.3385 52.1236 19.7436 52.4162 19.5385V18L51.8008 17.6923V17.0769L52.4162 17.2308V15.3846L51.8008 14.7692H50.8777L50.4162 15.0769L49.8008 14.4615L50.4162 13.8462L50.8777 14.1538H51.8008L52.2623 13.5385V13.0769L52.1085 12.6154L52.2623 12.3077L52.57 12H52.8777L53.3392 12.3077L53.4931 12.6154L53.1854 12.9231V13.5385L53.8008 14.1538L54.57 14L55.0316 13.8462L55.4931 14.1538L55.6469 14.4615L55.3392 14.9231L55.0316 15.0769L54.57 14.7692H53.6469L53.3392 15.2308V17.2308L53.8008 17.0769L53.9546 17.3846L53.1854 18V19.5385C53.9239 19.9077 53.5957 20.7179 53.3392 21.0769C52.97 24.6462 54.929 26.4615 55.9546 26.9231C64.756 29.064 63.5093 36.9805 61.6569 41.1204C61.6012 41.2672 61.535 41.4072 61.4617 41.5385C61.5272 41.4039 61.5924 41.2645 61.6569 41.1204C62.3415 39.3171 61.4538 36.5016 53.0316 36.6154Z" fill="#FFB800"/>
<path d="M44.57 41.6923C43.5957 40.0513 43.9239 36.7385 53.0316 36.6154C62.1393 36.4923 62.436 39.7949 61.4617 41.5385C63.4104 37.5385 65.0623 29.1385 55.9546 26.9231C54.929 26.4615 52.97 24.6462 53.3392 21.0769C53.5957 20.7179 53.9239 19.9077 53.1854 19.5385V18L53.9546 17.3846L53.8008 17.0769L53.3392 17.2308V15.2308L53.6469 14.7692H54.57L55.0316 15.0769L55.3392 14.9231L55.6469 14.4615L55.4931 14.1538L55.0316 13.8462L54.57 14L53.8008 14.1538L53.1854 13.5385V12.9231L53.4931 12.6154L53.3392 12.3077L52.8777 12H52.57L52.2623 12.3077L52.1085 12.6154L52.2623 13.0769V13.5385L51.8008 14.1538H50.8777L50.4162 13.8462L49.8008 14.4615L50.4162 15.0769L50.8777 14.7692H51.8008L52.4162 15.3846V17.2308L51.8008 17.0769V17.6923L52.4162 18V19.5385C52.1236 19.7436 51.7141 20.3385 52.4162 21.0769C52.5187 22.4103 52.2623 25.4462 50.4162 26.9231C47.6469 27.3333 42.2316 29.9077 42.7239 36.9231C43.0316 38.3077 43.8316 41.2 44.57 41.6923Z" stroke="#7B7B7B" stroke-width="0.3"/>
<path d="M62.6508 33.8413C54.9302 28.9651 45.8888 31.3017 43.3491 33.8414C42.3333 35.3651 43.3492 39.4287 43.8571 39.9366C51.9841 35.0604 59.4339 37.3969 62.1429 39.4286C62.4815 37.9048 63.0572 34.654 62.6508 33.8413Z" fill="#EAAA05"/>
<path d="M75.4616 54.1538C75.0466 50.6444 74.2167 43.6557 74.2167 43.776C68.9881 39.0835 64.2574 41.2192 62.5456 42.8736L61.9232 54.1538H75.4616Z" fill="#EDECEC" stroke="#7B7B7B" stroke-width="0.3"/>
<path d="M29.9229 53.8461L31.769 41.5507C38.169 40.1286 41.8203 41.4519 42.8459 42.2914L43.769 53.8461H29.9229Z" fill="#EDECEC" stroke="#7B7B7B" stroke-width="0.3"/>
<path d="M73.874 42.4615C74.1202 42.8308 74.1817 43.4359 74.1817 43.6923C69.3817 39.2615 64.5407 40.9744 62.6433 42.9231C60.6433 38.9231 64.4895 36.6154 65.7202 35.8462C66.7048 35.2308 66.951 32.8205 66.951 31.6923L66.4895 30.9231L66.7971 30.3077V28.7692L66.0279 28.3077V27.8462H66.4895V26.1538H65.5664L65.2587 26.4615L64.7971 26.3077L64.6433 25.8462L65.1048 25.3846L65.5664 25.6923H66.4895L66.3356 24.9231L66.1818 24.6154L66.3356 24.3077L66.7971 24L67.2587 24.1538L67.4125 24.6154L67.2587 24.9231V25.6923H68.1818L68.6433 25.3846L68.951 25.8462V26.1538L68.6433 26.3077L68.3356 26.1538L67.4125 26.4615V28.1538L67.8741 27.8462V28.1538L67.5664 28.7692V30.3077L68.0279 30.9231L67.7202 31.5385C67.351 33.3846 69.2074 35.1795 70.1817 35.8462C75.5663 37.5385 73.5663 42 73.874 42.4615Z" fill="#FFB800" stroke="#7B7B7B" stroke-width="0.3"/>
<path d="M44.0768 53.8463L44.687 41.5386L44.4303 40.7596C44.3011 40.3675 44.3088 39.9431 44.4524 39.556C44.6037 39.1477 44.8964 38.8071 45.2772 38.5959L46.5268 37.903C47.1445 37.5605 47.8206 37.3362 48.5205 37.2416L49.3892 37.1242C51.8881 36.7865 54.4206 36.7779 56.9217 37.0986L58.119 37.252C58.7996 37.3393 59.451 37.5825 60.0223 37.9627L60.8056 38.484C61.23 38.7665 61.5332 39.1977 61.6553 39.6927C61.7302 39.9961 61.7343 40.3127 61.6674 40.618L61.4654 41.5386L61.923 53.8463H44.0768Z" fill="#EDECEC" stroke="#7B7B7B" stroke-width="0.3"/>
<path d="M82.5856 67.6878L84.8671 86.8821C84.9378 87.477 84.4732 88.0001 83.8741 88.0001H22.1214C21.5239 88.0001 21.0598 87.4796 21.128 86.886L23.2739 68.204C23.2959 68.0119 23.2618 67.8174 23.1756 67.6443L23.1244 67.5414C23.043 67.3779 23.008 67.1952 23.0231 67.0131L23.2472 64.312C23.2814 63.8996 23.626 63.5824 24.0397 63.5824C24.4191 63.5824 24.7495 63.313 24.9179 62.9731C25.5203 61.7575 27.0898 59.9754 28.0966 58.9313C28.2801 58.7409 28.3846 58.4886 28.3846 58.2242V55.7216C28.3846 55.6056 28.3644 55.4904 28.3249 55.3813L28.2544 55.1866C28.0184 54.5347 28.5014 53.8463 29.1947 53.8463H76.5608C77.2288 53.8463 77.642 54.5743 77.2995 55.1479C77.2049 55.3062 77.1637 55.4907 77.182 55.6743L77.3825 57.6888C77.4287 58.1531 77.7959 58.566 78.1325 58.8892C78.9538 59.6777 79.9442 61.4376 80.57 62.6992C80.7429 63.0478 81.0951 63.2733 81.4842 63.2733H82C82.5523 63.2733 83 63.721 83 64.2733V66.3411C83 66.5568 82.9303 66.7666 82.8013 66.9394L82.7773 66.9716C82.624 67.1769 82.5553 67.4333 82.5856 67.6878Z" fill="#EDECEC" stroke="#7B7B7B" stroke-width="0.3"/>
<path d="M78.7668 67.9983L80.5285 87.8499H62.7279L62.1918 66.9371C62.1235 64.2733 63.8512 61.8952 66.4057 61.1368L67.9809 60.6691C70.3735 59.9588 72.9579 60.3463 75.0369 61.727C77.1683 63.1424 78.5407 65.4498 78.7668 67.9983Z" fill="#EDECEC" stroke="#7B7B7B" stroke-width="0.3"/>
<path d="M43.4995 66.7649L42.9527 87.8499H25.163L26.7884 68.3555C27.0187 65.5942 28.5369 63.1028 30.8855 61.6324C33.0048 60.3055 35.5887 59.9435 37.9911 60.6369L39.287 61.0109C41.8369 61.7469 43.5683 64.1118 43.4995 66.7649Z" fill="#EDECEC" stroke="#7B7B7B" stroke-width="0.3"/>
<path d="M63.6194 87.8502H42.3809V63.4032C42.3809 59.121 44.773 55.1604 48.5434 53.1274C51.4063 51.5837 54.8901 51.5902 57.731 53.1714L58.3489 53.5153C61.6023 55.3261 63.6194 58.7573 63.6194 62.4806V87.8502Z" fill="#EDECEC" stroke="#7B7B7B" stroke-width="0.3"/>
<path d="M37.1575 69.2306V87.8499H32.5345V69.2306C32.5345 67.954 33.5694 66.9191 34.846 66.9191C36.1226 66.9191 37.1575 67.954 37.1575 69.2306Z" fill="#B2E3FF" stroke="#7B7B7B" stroke-width="0.3"/>
<path d="M57.4655 64.7692V87.85H48.8424V64.7692C48.8424 62.388 50.7728 60.4577 53.154 60.4577C55.5352 60.4577 57.4655 62.388 57.4655 64.7692Z" fill="#B2E3FF" stroke="#7B7B7B" stroke-width="0.3"/>
<path d="M73.4655 69.2306V87.8499H68.8424V69.2306C68.8424 67.954 69.8774 66.9191 71.154 66.9191C72.4306 66.9191 73.4655 67.954 73.4655 69.2306Z" fill="#B2E3FF" stroke="#7B7B7B" stroke-width="0.3"/>
<path d="M42.7491 41.8696C39.4984 40.2442 34.3418 40.838 31.9714 41.3459C31.6767 40.6253 31.7706 39.9622 31.9105 39.4564C32.0037 39.1196 32.2912 38.8719 32.6331 38.7997C38.1748 37.6295 40.7572 38.4992 42.4188 39.1727C42.7978 39.3263 43.0474 39.6971 43.0363 40.1059C43.0052 41.2401 42.8926 41.7261 42.7491 41.8696Z" fill="#EAAA05"/>
<path d="M73.8252 43.3761C68.5427 38.9063 64.4508 40.8704 62.927 42.5635C62.2733 41.583 62.2331 40.7058 62.3304 40.1357C62.3706 39.9004 62.531 39.7075 62.7406 39.5932C66.735 37.4149 71.3842 38.8159 73.5275 39.8051C73.9339 39.8051 73.6968 41.4982 73.5275 42.3448C73.9339 43.1575 73.9946 43.3761 73.8252 43.3761Z" fill="#EAAA05"/>
</svg>
