<svg width="96" height="96" viewBox="0 0 96 96" fill="none" xmlns="http://www.w3.org/2000/svg">
<circle cx="48" cy="48" r="48" fill="#E2E2E2"/>
<path d="M61.48 40.77C58.33 41.37 55.9301 43.61 55.6201 46.36H40.64C40.14 43.71 37.68 41.61 34.54 41.12C36.02 39.36 37.86 37.9 39.95 36.83C41.15 36.22 42.42 35.74 43.76 35.4C41.93 34.05 40.7401 31.87 40.7401 29.42C40.7401 25.32 44.06 22 48.16 22C52.26 22 55.59 25.32 55.59 29.42C55.59 31.87 54.4 34.05 52.57 35.4C56.09 36.28 59.18 38.19 61.48 40.77Z" fill="#3872B8" stroke="black" stroke-width="0.75" stroke-miterlimit="10"/>
<path d="M62.83 68.9399H33V74.0099H62.83V68.9399Z" fill="#3872B8" stroke="black" stroke-width="0.75" stroke-miterlimit="10"/>
<path d="M61.47 48.55H34.53V66.07H61.47V48.55Z" stroke="black" stroke-width="0.75" stroke-miterlimit="10"/>
<path d="M57.08 52.79H39.29V62.64H57.08V52.79Z" stroke="black" stroke-width="0.75" stroke-miterlimit="10"/>
</svg>
