<svg width="50" height="50" viewBox="0 0 50 50" fill="none" xmlns="http://www.w3.org/2000/svg">
<rect x="0.25" y="0.25" width="49.5" height="49.5" rx="12.75" fill="#F7F7F6" stroke="#BABABA" stroke-width="0.5"/>
<path d="M14.8156 20.2119H35.1735C35.6303 20.2119 36 19.7285 36 19.1133C36 18.498 35.6303 18 35.1735 18H14.8156C14.3589 18 14 18.498 14 19.1133C14 19.7285 14.3589 20.2119 14.8156 20.2119ZM14.8156 26.5986H35.1735C35.6303 26.5986 36 26.1152 36 25.5C36 24.8701 35.6303 24.3721 35.1735 24.3721H14.8156C14.3589 24.3721 14 24.8701 14 25.5C14 26.1152 14.3589 26.5986 14.8156 26.5986ZM14.8156 33H35.1735C35.6303 33 36 32.502 36 31.8721C36 31.2568 35.6303 30.7734 35.1735 30.7734H14.8156C14.3589 30.7734 14 31.2568 14 31.8721C14 32.502 14.3589 33 14.8156 33Z" fill="#6C6C6C"/>
</svg>
