<svg width="50" height="50" viewBox="0 0 50 50" fill="none" xmlns="http://www.w3.org/2000/svg">
<rect x="0.25" y="0.25" width="49.5" height="49.5" rx="12.75" fill="#F7F7F6" stroke="#BABABA" stroke-width="0.5"/>
<path d="M25 12C20.0371 12 16 16.082 16 21.1C16 27.925 25 38 25 38C25 38 34 27.925 34 21.1C34 16.082 29.9629 12 25 12ZM26.1314 29.875H23.8814V27.6H26.1314V29.875ZM26.1314 26.144H23.8814C23.8814 22.452 27.25 22.738 27.25 20.45C27.25 19.202 26.2343 18.175 25 18.175C23.7657 18.175 22.75 19.202 22.75 20.45H20.5C20.5 17.941 22.5186 15.9 25 15.9C27.4814 15.9 29.5 17.941 29.5 20.45C29.5 23.297 26.1314 23.583 26.1314 26.144Z" fill="#6C6C6C"/>
</svg>
