<svg width="96" height="96" viewBox="0 0 96 96" fill="none" xmlns="http://www.w3.org/2000/svg">
<circle cx="48" cy="48" r="48" fill="#E2E2E2"/>
<path d="M67.48 46.18C66.68 46.18 65.92 46.4 65.26 46.77V39.39H29V47.38C29.21 48.92 29.67 51.07 30.78 53.41C31.02 53.91 34.51 60.99 40.95 64.01H52.9C58.36 61.47 61.6 56.12 62.39 54.8C62.73 54.25 63.02 53.7 63.29 53.16C64.05 54.79 65.63 55.91 67.48 55.91C70.05 55.91 72.13 53.73 72.13 51.04C72.13 48.35 70.05 46.18 67.48 46.18ZM66.83 53.26C65.55 53.26 64.43 52.7 63.88 51.89C64.38 50.7 64.73 49.58 64.98 48.61C65.51 48.34 66.15 48.18 66.83 48.18C68.67 48.18 70.16 49.32 70.16 50.72C70.16 52.12 68.67 53.26 66.83 53.26Z" fill="#53AF32" stroke="black" stroke-width="0.75" stroke-miterlimit="10"/>
<path d="M63.79 65.46H30.29V68.41H63.79V65.46Z" stroke="#010202" stroke-width="0.75" stroke-miterlimit="10"/>
<path d="M70.1599 50.7199C70.1599 52.1199 68.6699 53.2599 66.8299 53.2599C65.5499 53.2599 64.4299 52.6999 63.8799 51.8899C64.3799 50.6999 64.7299 49.5799 64.9799 48.6099C65.5099 48.3399 66.1499 48.1799 66.8299 48.1799C68.6699 48.1799 70.1599 49.3199 70.1599 50.7199Z" stroke="#010202" stroke-width="0.75" stroke-miterlimit="10"/>
<path d="M43.59 31.99C43.59 34.75 42.46 36.98 41.08 36.98C41.04 36.98 41.01 36.98 40.97 36.97C41.75 36.01 42.28 34.14 42.28 31.99C42.28 29.84 41.75 27.97 40.97 27.01C41 27 41.04 27 41.08 27C42.47 27 43.59 29.24 43.59 31.99Z" stroke="#010202" stroke-width="0.5" stroke-miterlimit="10"/>
<path d="M53.1801 31.99C53.1801 34.75 52.0501 36.98 50.6701 36.98C50.6301 36.98 50.6001 36.98 50.5601 36.97C51.3401 36.01 51.8701 34.14 51.8701 31.99C51.8701 29.84 51.3401 27.97 50.5601 27.01C50.5901 27 50.6301 27 50.6701 27C52.0501 27 53.1801 29.24 53.1801 31.99Z" stroke="#010202" stroke-width="0.5" stroke-miterlimit="10"/>
<path d="M48.11 31.99C48.11 34.75 46.98 36.98 45.6 36.98C45.56 36.98 45.53 36.98 45.49 36.97C46.27 36.01 46.8 34.14 46.8 31.99C46.8 29.84 46.27 27.97 45.49 27.01C45.52 27 45.56 27 45.6 27C46.99 27 48.11 29.24 48.11 31.99Z" stroke="#010202" stroke-width="0.5" stroke-miterlimit="10"/>
</svg>
