<svg width="132" height="132" viewBox="0 0 132 132" fill="none" xmlns="http://www.w3.org/2000/svg">
<g filter="url(#filter0_d_505_1385)">
<rect x="11" y="11" width="106" height="106" rx="17" fill="#B2E97C"/>
<rect x="11.05" y="11.05" width="105.9" height="105.9" rx="16.95" stroke="#929292" stroke-width="0.1"/>
</g>
<path d="M101.709 117.322H30.6569C30.0202 117.322 22.0318 117.662 17.1152 113.754C12.266 109.9 10.9936 102.354 11.0001 102.079L11 69L116.997 78.3936V101.524C117.075 102.21 115.743 108.873 111.901 112.735C107.949 116.708 101.99 117.362 101.709 117.322Z" fill="#EFECE0" stroke="#929292" stroke-width="0.1"/>
<path d="M42.9951 82.4646V80.9834L43.0939 76.3918C43.3703 76.4708 43.8344 76.4248 44.0319 76.3918L43.8838 82.4646C43.8443 82.5831 43.2749 82.514 42.9951 82.4646Z" fill="#606060" stroke="black" stroke-width="0.3"/>
<path d="M51.6841 81.9709L47.29 83.3533V80.9834L51.6841 81.9709Z" fill="#4D4D4D" stroke="black" stroke-width="0.3"/>
<path d="M45.9079 83.8964L44.8711 84.1433L45.1673 80.4404L45.7598 80.5885L45.9079 83.8964Z" fill="#4D4D4D" stroke="black" stroke-width="0.3"/>
<path d="M44.6239 86.76C44.5054 86.8785 44.0479 86.8093 43.834 86.76L43.9821 76.3918C44.2586 76.3918 44.7885 75.931 45.0189 75.7006L45.5126 75.8981L44.6239 86.76Z" fill="#8D5F38" stroke="black" stroke-width="0.3"/>
<path d="M36.626 82.7608L43.8343 84.4395L43.8837 82.4646C43.8047 82.6226 43.2583 82.5304 42.995 82.4646V80.9834L36.626 82.7608Z" fill="#4D4D4D" stroke="black" stroke-width="0.3"/>
<path d="M19.0493 62.3208L27.5413 64.6907V66.5668L19.0493 64.0489V62.3208Z" fill="#B5A286" stroke="black" stroke-width="0.3"/>
<path d="M48.426 62.2715L39.144 63.3576L44.6737 64.4438L48.0804 63.9501L48.426 62.2715Z" fill="#B5A286" stroke="black" stroke-width="0.3"/>
<path d="M28.8252 84.7851V86.6612L30.6026 86.7106C31.2345 86.7896 31.3596 86.5131 31.3432 86.365L31.3925 85.6738L31.1951 66.1065L28.8252 66.3746V84.7851Z" fill="#606060" stroke="black" stroke-width="0.3"/>
<path d="M28.825 88.7842L31.2936 87.9449V86.5625C31.1356 86.839 29.582 86.7435 28.825 86.6612V84.7851L21.666 86.8093L28.825 88.7842Z" fill="#4D4D4D" stroke="black" stroke-width="0.3"/>
<path d="M32.2319 87.6487L38.2059 85.7725L32.5775 84.3901L32.2319 87.6487Z" fill="#4D4D4D" stroke="black" stroke-width="0.3"/>
<path d="M47.0927 75.1081V74.1701L50.2526 58.6179C49.6601 58.4204 54.3833 58.1735 56.819 58.0748C58.004 57.7983 58.1356 58.3546 58.0533 58.6673V61.0371H57.8065C56.2661 61.4321 56.7038 64.4602 57.1153 65.9249L55.3379 72.5408C55.3379 72.8963 54.6796 73.5118 54.3504 73.7751L47.0927 75.1081Z" fill="#646989" stroke="black" stroke-width="0.3"/>
<path d="M34.7003 74.6638C34.2658 74.6243 34.1572 73.9233 34.1572 73.5777L34.3547 64.3945C34.2362 62.9725 35.2928 63.012 35.8359 63.2095C37.4158 62.933 42.2213 63.8843 44.4266 64.3945C46.4015 64.8684 47.6522 64.4603 48.0308 64.197L48.9195 59.7041C49.2354 58.5192 49.9398 58.4863 50.2525 58.6179L47.0433 74.1701H45.8584L45.0191 75.7006C44.3871 76.4116 43.7354 76.4906 43.4885 76.4412C42.3826 76.4412 37.1689 75.2563 34.7003 74.6638Z" fill="#757A98" stroke="black" stroke-width="0.3"/>
<path d="M34.1573 70.8622C32.9724 70.8622 32.4458 71.6192 32.3306 71.9977H34.1573V70.8622Z" fill="#757A98" stroke="black" stroke-width="0.3"/>
<path d="M34.1573 71.9977V73.5776H33.7129L31.9355 90.4135C31.58 90.4135 31.2279 90.2818 31.0962 90.216L32.2811 71.9977H34.1573Z" fill="#9E7450" stroke="black" stroke-width="0.3"/>
<path d="M54.3013 73.7751L57.4117 89.7717L57.9054 85.3775L56.2268 72.5408H55.3381C55.1406 73.1333 54.5646 73.6106 54.3013 73.7751Z" fill="#9E7450" stroke="black" stroke-width="0.3"/>
<path d="M83.6773 60.9384L109.104 62.6664L93.3542 66.6162L70.6925 64.5919L70.1987 63.0614L83.6773 60.9384Z" fill="#C2A984" stroke="black" stroke-width="0.3"/>
<path d="M70.6924 64.6413L93.3541 66.6162V68.6404L86.0964 68.1961C86.4124 65.8657 82.3771 66.7314 80.3199 67.4555L70.9886 66.7149L70.6924 64.6413Z" fill="#B5A286" stroke="black" stroke-width="0.3"/>
<path d="M109.104 64.4438L93.3545 68.6405V66.6162L109.104 62.6664V64.4438Z" fill="#B5A286" stroke="black" stroke-width="0.3"/>
<path d="M88.4666 90.5616L88.121 90.7097L87.2323 77.0831C87.3113 76.2141 86.4424 76.0298 85.998 76.0462V68.2356L90.7378 68.4825C90.3823 68.7589 89.0756 68.8873 88.4666 68.8379V90.5616Z" fill="#606060" stroke="black" stroke-width="0.3"/>
<path d="M85.5039 80.786L86.5407 91.3516L84.6152 90.7591V81.1316L85.5039 80.786Z" fill="#606060" stroke="black" stroke-width="0.3"/>
<path d="M88.4663 89.821L96.6127 91.4503L88.4663 90.5122V89.821Z" fill="#4D4D4D" stroke="black" stroke-width="0.3"/>
<path d="M96.662 91.4503L89.6512 95.4494L88.2194 93.1783L88.0713 90.7097L88.4663 90.5616L96.662 91.4503Z" fill="#4D4D4D" stroke="black" stroke-width="0.3"/>
<path d="M89.6021 95.4494L88.3678 95.1532L88.2197 93.1783L89.6021 95.4494Z" fill="#4D4D4D" stroke="black" stroke-width="0.3"/>
<path d="M83.7267 88.9817L76.2222 92.5365L84.566 90.8085V89.1792L83.7267 88.9817Z" fill="#4D4D4D" stroke="black" stroke-width="0.3"/>
<path d="M86.541 91.3516L84.6649 90.8085L76.1235 92.5365L86.936 94.857L86.541 91.3516Z" fill="#4D4D4D" stroke="black" stroke-width="0.3"/>
<path d="M70.0012 95.5482L69.4087 82.1684L70.9886 82.4152L71.1367 95.5482C70.8207 95.7062 70.248 95.614 70.0012 95.5482Z" fill="#8D5F38" stroke="black" stroke-width="0.3"/>
<path d="M72.3218 81.8228L72.7168 81.4278L69.1619 62.074C69.4779 61.679 61.7561 61.2182 57.8558 61.0372C56.9868 61.1162 56.7367 62.4525 56.7202 63.1108C56.5622 63.8612 58.6951 74.1207 59.7813 79.1567L60.1269 80.391L61.3118 80.9341L72.3218 82.6127V81.8228Z" fill="#646989" stroke="black" stroke-width="0.3"/>
<path d="M85.9979 79.4529V68.3936C86.2744 66.6162 84.994 66.5339 84.3193 66.7149C83.8058 66.4779 77.9832 68.0315 75.1361 68.8379C72.1737 69.9834 71.1698 68.0974 71.0382 67.0112C70.6037 62.7849 69.6393 61.9588 69.2114 62.074L72.7168 81.4278H74.198L74.9386 83.5508C75.2941 84.1038 76.4033 84.1433 76.9135 84.0939L85.4548 80.8353L85.9979 79.4529Z" fill="#757A98" stroke="black" stroke-width="0.3"/>
<path d="M87.2323 77.0831L86.0474 77.4287L86.0967 76.0462L86.6398 76.145C87.1928 76.2635 87.2652 76.8197 87.2323 77.0831Z" fill="#757A98" stroke="black" stroke-width="0.3"/>
<path d="M56.4239 102.707L57.1645 102.51L61.3117 80.9341L60.1268 80.391L59.7812 79.1567L58.5963 79.4035L55.9302 102.51L56.4239 102.707Z" fill="#9E7450" stroke="black" stroke-width="0.3"/>
<path d="M85.5044 80.8353L87.3805 99.4979C87.973 99.7349 88.4503 99.3992 88.6148 99.2017L87.2324 77.0831L86.0475 77.4287V79.5023L85.5044 80.8353Z" fill="#9E7450" stroke="black" stroke-width="0.3"/>
<path d="M74.1979 83.5508L73.9017 107.299H72.7168L72.3218 81.8228L72.7168 81.4278H74.1979L74.9385 83.5508H74.1979Z" fill="#9E7450" stroke="black" stroke-width="0.3"/>
<path d="M47.4383 93.9189H46.3521L45.5621 75.8488L45.019 75.7006L45.8584 74.1701H47.0927L47.4383 93.9189Z" fill="#9E7450" stroke="black" stroke-width="0.3"/>
<path d="M27.5415 66.5668L34.3548 65.6781V63.9007L27.5415 64.6907V66.5668Z" fill="#B5A286" stroke="black" stroke-width="0.3"/>
<path d="M48.9688 59.556L48.3763 62.2715L39.3413 63.3576C37.4059 63.1207 36.165 63.1272 35.7865 63.1602C34.6805 62.9232 34.3382 63.5551 34.3053 63.9007L27.5414 64.7401L19 62.2715L46.3521 59.3091L48.9688 59.556Z" fill="#C2A984" stroke="black" stroke-width="0.3"/>
<defs>
<filter id="filter0_d_505_1385" x="0" y="0" width="132" height="132" filterUnits="userSpaceOnUse" color-interpolation-filters="sRGB">
<feFlood flood-opacity="0" result="BackgroundImageFix"/>
<feColorMatrix in="SourceAlpha" type="matrix" values="0 0 0 0 0 0 0 0 0 0 0 0 0 0 0 0 0 0 127 0" result="hardAlpha"/>
<feMorphology radius="1" operator="erode" in="SourceAlpha" result="effect1_dropShadow_505_1385"/>
<feOffset dx="2" dy="2"/>
<feGaussianBlur stdDeviation="7"/>
<feComposite in2="hardAlpha" operator="out"/>
<feColorMatrix type="matrix" values="0 0 0 0 0 0 0 0 0 0 0 0 0 0 0 0 0 0 0.18 0"/>
<feBlend mode="normal" in2="BackgroundImageFix" result="effect1_dropShadow_505_1385"/>
<feBlend mode="normal" in="SourceGraphic" in2="effect1_dropShadow_505_1385" result="shape"/>
</filter>
</defs>
</svg>
