<svg width="108" height="107" viewBox="0 0 108 107" fill="none" xmlns="http://www.w3.org/2000/svg">
<rect x="1.05" y="0.05" width="105.9" height="105.9" rx="16.95" fill="url(#paint0_linear_740_853)" stroke="#929292" stroke-width="0.1"/>
<path d="M91.7093 106.322H20.6569C20.0202 106.322 12.0318 106.662 7.1152 102.754C2.26602 98.9002 0.99356 91.3537 1.0001 91.079L1 58L106.997 67.3936V90.5242C107.075 91.2099 105.743 97.873 101.901 101.735C97.9494 105.708 91.9898 106.362 91.7093 106.322Z" fill="#EFECE0" stroke="#929292" stroke-width="0.1"/>
<path d="M32.9951 71.4646V69.9834L33.0939 65.3918C33.3703 65.4708 33.8344 65.4248 34.0319 65.3918L33.8838 71.4646C33.8443 71.5831 33.2749 71.514 32.9951 71.4646Z" fill="#606060" stroke="black" stroke-width="0.3"/>
<path d="M41.6841 70.9708L37.29 72.3533V69.9834L41.6841 70.9708Z" fill="#4D4D4D" stroke="black" stroke-width="0.3"/>
<path d="M35.9079 72.8963L34.8711 73.1432L35.1673 69.4403L35.7598 69.5884L35.9079 72.8963Z" fill="#4D4D4D" stroke="black" stroke-width="0.3"/>
<path d="M34.6239 75.76C34.5054 75.8785 34.0479 75.8094 33.834 75.76L33.9821 65.3919C34.2586 65.3919 34.7885 64.9311 35.0189 64.7007L35.5126 64.8982L34.6239 75.76Z" fill="#8D5F38" stroke="black" stroke-width="0.3"/>
<path d="M26.626 71.7608L33.8343 73.4394L33.8837 71.4646C33.8047 71.6225 33.2583 71.5304 32.995 71.4646V69.9834L26.626 71.7608Z" fill="#4D4D4D" stroke="black" stroke-width="0.3"/>
<path d="M9.04932 51.3208L17.5413 53.6907V55.5668L9.04932 53.0488V51.3208Z" fill="#B5A286" stroke="black" stroke-width="0.3"/>
<path d="M38.426 51.2715L29.144 52.3577L34.6737 53.4439L38.0804 52.9501L38.426 51.2715Z" fill="#B5A286" stroke="black" stroke-width="0.3"/>
<path d="M18.8252 73.7851V75.6613L20.6026 75.7106C21.2345 75.7896 21.3596 75.5131 21.3432 75.365L21.3925 74.6738L21.1951 55.1066L18.8252 55.3746V73.7851Z" fill="#606060" stroke="black" stroke-width="0.3"/>
<path d="M18.825 77.7842L21.2936 76.9448V75.5624C21.1356 75.8389 19.582 75.7435 18.825 75.6612V73.785L11.666 75.8093L18.825 77.7842Z" fill="#4D4D4D" stroke="black" stroke-width="0.3"/>
<path d="M22.2319 76.6487L28.2059 74.7726L22.5775 73.3901L22.2319 76.6487Z" fill="#4D4D4D" stroke="black" stroke-width="0.3"/>
<path d="M37.0928 64.1081V63.1701L40.2526 47.6179C39.6601 47.4204 44.3834 47.1735 46.8191 47.0748C48.004 46.7983 48.1356 47.3546 48.0534 47.6673V50.0371H47.8065C46.2661 50.4321 46.7039 53.4602 47.1153 54.9249L45.3379 61.5408C45.3379 61.8963 44.6796 62.5118 44.3505 62.7751L37.0928 64.1081Z" fill="#646989" stroke="black" stroke-width="0.3"/>
<path d="M24.7003 63.6638C24.2658 63.6243 24.1572 62.9232 24.1572 62.5776L24.3547 53.3944C24.2362 51.9725 25.2928 52.012 25.8359 52.2095C27.4158 51.933 32.2213 52.8843 34.4266 53.3944C36.4015 53.8684 37.6522 53.4603 38.0308 53.197L38.9195 48.7041C39.2354 47.5192 39.9398 47.4863 40.2525 47.6179L37.0433 63.1701H35.8584L35.0191 64.7006C34.3871 65.4116 33.7354 65.4906 33.4885 65.4412C32.3826 65.4412 27.1689 64.2563 24.7003 63.6638Z" fill="#757A98" stroke="black" stroke-width="0.3"/>
<path d="M24.1573 59.8622C22.9724 59.8622 22.4458 60.6192 22.3306 60.9977H24.1573V59.8622Z" fill="#757A98" stroke="black" stroke-width="0.3"/>
<path d="M24.1573 60.9978V62.5777H23.7129L21.9355 79.4136C21.58 79.4136 21.2279 79.2819 21.0962 79.2161L22.2811 60.9978H24.1573Z" fill="#9E7450" stroke="black" stroke-width="0.3"/>
<path d="M44.3013 62.7751L47.4117 78.7716L47.9054 74.3775L46.2268 61.5408H45.3381C45.1406 62.1332 44.5646 62.6105 44.3013 62.7751Z" fill="#9E7450" stroke="black" stroke-width="0.3"/>
<path d="M73.6773 49.9385L99.1039 51.6665L83.3542 55.6163L60.6925 53.592L60.1987 52.0615L73.6773 49.9385Z" fill="#C2A984" stroke="black" stroke-width="0.3"/>
<path d="M60.6924 53.6414L83.3541 55.6162V57.6405L76.0964 57.1961C76.4124 54.8658 72.3771 55.7314 70.3199 56.4556L60.9886 55.715L60.6924 53.6414Z" fill="#B5A286" stroke="black" stroke-width="0.3"/>
<path d="M99.1042 53.4438L83.3545 57.6404V55.6161L99.1042 51.6664V53.4438Z" fill="#B5A286" stroke="black" stroke-width="0.3"/>
<path d="M78.4666 79.5616L78.121 79.7097L77.2323 66.0831C77.3113 65.2141 76.4424 65.0298 75.998 65.0462V57.2356L80.7378 57.4825C80.3823 57.7589 79.0756 57.8873 78.4666 57.8379V79.5616Z" fill="#606060" stroke="black" stroke-width="0.3"/>
<path d="M75.5039 69.786L76.5407 80.3516L74.6152 79.7592V70.1316L75.5039 69.786Z" fill="#606060" stroke="black" stroke-width="0.3"/>
<path d="M78.4663 78.821L86.6127 80.4503L78.4663 79.5123V78.821Z" fill="#4D4D4D" stroke="black" stroke-width="0.3"/>
<path d="M86.662 80.4503L79.6512 84.4495L78.2194 82.1784L78.0713 79.7098L78.4663 79.5616L86.662 80.4503Z" fill="#4D4D4D" stroke="black" stroke-width="0.3"/>
<path d="M79.6021 84.4495L78.3678 84.1532L78.2197 82.1783L79.6021 84.4495Z" fill="#4D4D4D" stroke="black" stroke-width="0.3"/>
<path d="M73.7267 77.9817L66.2222 81.5365L74.566 79.8085V78.1792L73.7267 77.9817Z" fill="#4D4D4D" stroke="black" stroke-width="0.3"/>
<path d="M76.541 80.3516L74.6649 79.8085L66.1235 81.5365L76.936 83.857L76.541 80.3516Z" fill="#4D4D4D" stroke="black" stroke-width="0.3"/>
<path d="M60.0012 84.5481L59.4087 71.1683L60.9886 71.4152L61.1367 84.5481C60.8207 84.7061 60.248 84.614 60.0012 84.5481Z" fill="#8D5F38" stroke="black" stroke-width="0.3"/>
<path d="M62.3218 70.8227L62.7168 70.4277L59.1619 51.0739C59.4779 50.6789 51.7561 50.2181 47.8558 50.0371C46.9868 50.1161 46.7367 51.4524 46.7202 52.1107C46.5622 52.8612 48.6951 63.1207 49.7813 68.1566L50.1269 69.3909L51.3118 69.934L62.3218 71.6127V70.8227Z" fill="#646989" stroke="black" stroke-width="0.3"/>
<path d="M75.9979 68.453V57.3936C76.2744 55.6163 74.994 55.534 74.3193 55.715C73.8058 55.478 67.9832 57.0316 65.1361 57.838C62.1737 58.9834 61.1698 57.0974 61.0382 56.0112C60.6037 51.785 59.6393 50.9588 59.2114 51.074L62.7168 70.4279H64.198L64.9386 72.5508C65.2941 73.1038 66.4033 73.1433 66.9135 73.0939L75.4548 69.8354L75.9979 68.453Z" fill="#757A98" stroke="black" stroke-width="0.3"/>
<path d="M77.2323 66.0831L76.0474 66.4287L76.0967 65.0463L76.6398 65.145C77.1928 65.2635 77.2652 65.8198 77.2323 66.0831Z" fill="#757A98" stroke="black" stroke-width="0.3"/>
<path d="M46.4239 91.7072L47.1645 91.5097L51.3117 69.9341L50.1268 69.391L49.7812 68.1567L48.5963 68.4036L45.9302 91.5097L46.4239 91.7072Z" fill="#9E7450" stroke="black" stroke-width="0.3"/>
<path d="M75.5044 69.8353L77.3805 88.4979C77.973 88.7349 78.4503 88.3991 78.6148 88.2017L77.2324 66.083L76.0475 66.4286V68.5022L75.5044 69.8353Z" fill="#9E7450" stroke="black" stroke-width="0.3"/>
<path d="M64.1979 72.5507L63.9017 96.2987H62.7168L62.3218 70.8227L62.7168 70.4277H64.1979L64.9385 72.5507H64.1979Z" fill="#9E7450" stroke="black" stroke-width="0.3"/>
<path d="M37.4383 82.919H36.3521L35.5621 64.8488L35.019 64.7007L35.8584 63.1702H37.0927L37.4383 82.919Z" fill="#9E7450" stroke="black" stroke-width="0.3"/>
<path d="M17.5415 55.5668L24.3548 54.6781V52.9008L17.5415 53.6907V55.5668Z" fill="#B5A286" stroke="black" stroke-width="0.3"/>
<path d="M38.9688 48.5559L38.3763 51.2714L29.3413 52.3576C27.4059 52.1206 26.165 52.1272 25.7865 52.1601C24.6805 51.9231 24.3382 52.5551 24.3053 52.9007L17.5414 53.74L9 51.2714L36.3521 48.3091L38.9688 48.5559Z" fill="#C2A984" stroke="black" stroke-width="0.3"/>
<defs>
<linearGradient id="paint0_linear_740_853" x1="54" y1="0" x2="54" y2="106" gradientUnits="userSpaceOnUse">
<stop offset="0.357292" stop-color="#D4FFAA"/>
<stop offset="1" stop-color="#CBFFD1"/>
</linearGradient>
</defs>
</svg>
