<svg width="96" height="96" viewBox="0 0 96 96" fill="none" xmlns="http://www.w3.org/2000/svg">
<circle cx="48" cy="48" r="48" fill="#E2E2E2"/>
<path d="M68.1299 41.12H28.4399V71.07H68.1299V41.12Z" fill="#53AF32" stroke="black" stroke-width="0.75" stroke-miterlimit="10"/>
<path d="M60.47 30.74H54.92C54.92 27.57 51.95 25 48.28 25C44.62 25 41.65 27.57 41.65 30.74H36.77L26.98 37.58V37.59H68.49L60.47 30.74ZM45.38 30.74C45.38 29.13 46.69 27.83 48.29 27.83C49.9 27.83 51.2 29.14 51.2 30.74H45.38Z" stroke="black" stroke-width="0.75" stroke-miterlimit="10"/>
<path d="M26.34 42.22V47.8H23.95L19 44.85V42.22H26.34Z" stroke="black" stroke-width="0.75" stroke-miterlimit="10"/>
<path d="M23.95 47.8L19 44.85" stroke="black" stroke-width="0.75" stroke-miterlimit="10"/>
<path d="M70.3401 42.0601V47.6401H72.7301L77.6801 44.6901V42.0601H70.3401Z" stroke="black" stroke-width="0.75" stroke-miterlimit="10"/>
</svg>
