<svg width="108" height="107" viewBox="0 0 108 107" fill="none" xmlns="http://www.w3.org/2000/svg">
<rect x="1.05" y="0.05" width="105.9" height="105.9" rx="16.95" fill="url(#paint0_linear_740_854)" stroke="#929292" stroke-width="0.1"/>
<path d="M91.7093 106.322H20.6569C20.0202 106.322 12.0318 106.662 7.1152 102.754C2.26602 98.9002 0.99356 91.3537 1.0001 91.079L1 58L106.997 67.3936V90.5242C107.075 91.2099 105.743 97.873 101.901 101.735C97.9494 105.708 91.9898 106.362 91.7093 106.322Z" fill="#EFECE0" stroke="#929292" stroke-width="0.1"/>
<path d="M34.1852 46.9605C34.3004 46.8452 34.4894 46.9125 34.5694 46.9605L34.7615 51.4751H34.1852V46.9605Z" fill="#C9A8A2" stroke="black" stroke-width="0.3"/>
<path d="M47.6325 46C47.9015 46.3074 48.1929 48.9457 48.3049 50.2264L34.7612 51.4271L34.5691 46.9605L47.6325 46Z" fill="#DBA7A2" stroke="black" stroke-width="0.3"/>
<path d="M41.6777 60.1681L41.5336 62.1852C40.9573 61.8778 39.3084 61.833 38.5559 61.849C37.557 61.5032 36.4427 60.2321 36.0105 59.6398C37.509 60.6003 40.413 60.3922 41.6777 60.1681Z" fill="#D4AAA2" stroke="black" stroke-width="0.3"/>
<path d="M35.9618 59.6397C36.8071 60.8308 38.043 61.6088 38.5553 61.849L34.473 61.7049C33.6661 61.5128 33.8486 59.7037 34.0407 58.8232L35.9618 59.6397Z" fill="#C9A8A2" stroke="black" stroke-width="0.3"/>
<path d="M55.6533 60.3601L55.3171 61.9931C52.1665 63.4915 45.9037 63.4499 43.1661 63.2418C43.0509 63.1265 42.8299 63.0336 42.7339 63.0016L42.926 59.9759L48.4491 59.2555C48.4876 59.8318 49.0095 60.072 49.2656 60.12C52.5315 60.1584 54.8848 60.2961 55.6533 60.3601Z" fill="#D4AAA2" stroke="black" stroke-width="0.3"/>
<path d="M47.8245 70.542H46.912L47.008 65.4031C47.0849 65.4799 47.7124 65.4351 48.0166 65.4031L47.8245 70.542Z" fill="#B9B8B8" stroke="black" stroke-width="0.3"/>
<path d="M55.3648 61.9451C51.369 63.5972 45.5673 63.498 43.1659 63.2418L44.1745 64.2024L44.0784 65.1629C47.0369 66.0082 52.6113 64.8107 55.0287 64.1063L55.3648 61.9451Z" fill="#C9A8A2" stroke="black" stroke-width="0.3"/>
<path d="M44.0787 79.9074C43.7713 80.0227 43.2462 79.9554 43.0221 79.9074L42.7339 65.7874C43.1181 65.8642 43.6944 65.8194 43.9346 65.7874L44.0787 79.9074Z" fill="#B9B8B8" stroke="black" stroke-width="0.3"/>
<path d="M34.6654 74.6723H33.6088L33.993 67.5162L35.1456 67.3241L34.6654 74.6723Z" fill="#B9B8B8" stroke="black" stroke-width="0.3"/>
<path d="M33.8008 47.0566C33.0708 46.8645 23.9552 47.6169 19.4886 48.0171C19.6039 48.0171 19.6968 48.0812 19.7288 48.1132L19.6808 54.4048C19.5655 56.7101 19.7928 58.7913 19.9209 59.5437C20.5356 62.6175 22.8346 63.7701 23.9072 63.9622C25.5593 64.1543 27.3811 65.259 28.0855 65.7873C29.9682 65.8641 31.3994 65.8833 31.8797 65.8833C32.1487 66.1907 32.312 60.8244 32.36 58.1029L23.2828 54.3087C22.6681 53.8092 23.0267 53.2361 23.2828 53.012C23.5902 52.3204 30.4229 51.7633 33.8008 51.5712V47.0566Z" fill="#DBA7A2" stroke="black" stroke-width="0.3"/>
<path d="M41.4371 63.9623C38.0944 65.5376 34.4091 65.9314 32.9843 65.9314C33.1379 65.9314 33.4645 61.0646 33.6086 58.6312L34.0409 58.8233L33.8968 60.5523C33.8968 61.5897 34.5692 61.785 34.9053 61.753L39.4679 61.8971C40.8896 61.8971 41.4371 62.1212 41.5331 62.2333L41.4371 63.9623Z" fill="#DBA7A2" stroke="black" stroke-width="0.3"/>
<path d="M43.0219 79.6671C42.9066 79.7824 42.3655 79.7151 42.1094 79.6671V75.6328L42.3975 69.1971L43.0219 79.6671Z" fill="#B9B8B8" stroke="black" stroke-width="0.3"/>
<path d="M44.0305 65.6911C43.9536 65.8064 43.0699 65.7392 42.6377 65.6911L42.7338 63.0496C42.9643 63.0112 43.8064 63.8341 44.1265 64.2023C44.2034 64.4328 44.0625 65.387 44.0305 65.6911Z" fill="#D4AAA2" stroke="black" stroke-width="0.3"/>
<path d="M41.3895 63.9622C38.2773 65.4222 34.4896 65.9153 32.9847 65.9793L32.6965 67.6603C36.7693 67.1992 40.1888 66.2194 41.3895 65.7872V63.9622Z" fill="#D4AAA2" stroke="black" stroke-width="0.3"/>
<path d="M31.9276 65.9795L28.0854 65.7874V67.7084H31.5914L31.9276 65.9795Z" fill="#D4AAA2" stroke="black" stroke-width="0.3"/>
<path d="M28.0858 67.9004L27.8937 67.9964C27.3174 68.1501 26.8851 68.0605 26.7411 67.9964L26.549 67.9484V66.8438C26.3184 66.498 25.4603 66.1874 25.0601 66.0753C23.6001 66.1906 22.6908 65.6431 22.4186 65.3549C21.3812 64.1638 20.4815 64.0262 20.1613 64.1062C20.1997 64.1446 20.1773 64.5384 20.1613 64.7306C20.1229 64.769 19.9852 64.8426 19.9212 64.8746C19.4985 64.9899 19.1047 64.9227 18.9606 64.8746C18.8838 64.8746 18.6244 64.7145 18.5764 64.6345C18.8838 64.5192 19.1207 61.7048 19.2008 60.312L19.3449 48.1131C19.4601 47.9978 19.649 48.0651 19.7291 48.1131C19.697 51.0748 19.6522 57.2575 19.7291 58.2949C19.8059 59.3323 20.2734 60.6482 20.4975 61.1765C20.8817 62.5597 22.9309 63.6099 23.9074 63.9621C25.6748 64.1926 27.4294 65.2749 28.0858 65.7872V67.9004Z" fill="#D4AAA2" stroke="black" stroke-width="0.3"/>
<path d="M19.2007 77.0736H18L18.9605 64.8746C19.1142 64.9899 19.6649 64.9227 19.9211 64.8746L19.2007 77.0736Z" fill="#CACACA" stroke="black" stroke-width="0.3"/>
<path d="M26.4046 52.2436C24.3683 52.3973 23.4749 52.8199 23.2828 53.012L37.0667 58.8714C38.4499 59.2556 40.4606 59.0955 41.2931 58.9674L79.3308 54.2608C79.5613 54.1071 79.683 53.8765 79.715 53.7805L63.5298 49.41C63.1456 48.9489 61.7688 48.9617 61.1284 49.0258L26.4046 52.2436Z" fill="#F2ECD7" stroke="black" stroke-width="0.3"/>
<path d="M37.1631 58.9193L23.2832 53.012C22.6684 53.5499 23.027 54.1006 23.2832 54.3087L37.1631 60.12C38.162 60.5427 40.6851 60.2961 41.8217 60.12L79.6193 55.2692C80.3109 54.6929 79.9715 54.0365 79.7153 53.7804C79.6769 54.0109 79.4432 54.1966 79.3311 54.2607L41.8217 58.9193C39.4396 59.2651 37.7234 59.0634 37.1631 58.9193Z" fill="#EAE1C2" stroke="black" stroke-width="0.3"/>
<path d="M30.0544 82.3567C29.3628 82.3951 29.0938 82.0205 29.0458 81.8284L32.1195 64.8747L32.3597 58.1509L33.5604 58.6312L33.1761 64.8747L30.0544 82.3567Z" fill="#CACACA" stroke="black" stroke-width="0.3"/>
<path d="M41.2452 90.1851C41.0531 90.3772 40.4608 90.2652 40.1886 90.1851C40.6529 80.1954 41.6006 60.216 41.6774 60.216C41.7543 60.216 42.4939 60.0239 42.9262 60.0239L41.2452 90.1851Z" fill="#CACACA" stroke="black" stroke-width="0.3"/>
<path d="M90.041 55.4614L89.5607 63.8182L89.4166 62.6655C88.6866 63.3187 88.2479 64.7947 88.1199 65.4511C88.043 67.0648 87.6716 68.717 87.4955 69.3413C86.8039 71.1856 85.7665 71.6467 85.3343 71.6467C84.3353 72.223 82.8048 72.8473 82.1645 73.0875C79.3981 74.1249 77.3297 74.032 76.6413 73.8559C74.8739 73.5101 74.5922 70.478 74.6722 69.0051C74.6722 66.5077 74.1279 65.1149 73.8557 64.7307C73.6636 64.6923 73.3274 65.163 73.1833 65.4031C73.2986 60.9846 74.256 57.9268 74.7202 56.9503C83.6341 57.3345 88.6482 56.1178 90.041 55.4614Z" fill="#DBA7A2" stroke="black" stroke-width="0.3"/>
<path d="M89.4165 62.6655C89.6855 64.0103 89.9769 71.2624 90.0889 74.7204C89.3589 74.9125 88.7602 74.8004 88.552 74.7204L88.6961 73.3756C88.7346 72.1461 87.4634 72.8633 86.8231 73.3756C85.9009 73.952 83.6533 74.6404 82.6447 74.9125C81.1846 75.5273 77.2976 75.5209 75.5366 75.4408C74.845 74.634 74.352 74.5603 74.1919 74.6243C74.3071 74.2401 73.5995 68.6369 73.2313 65.8834C73.1545 65.4223 73.6155 64.9228 73.8557 64.7307C74.5473 65.307 74.7202 68.685 74.7202 70.3019C74.797 72.4919 75.4566 73.2636 75.7768 73.3756C77.9284 75.0278 83.0449 72.9114 85.3342 71.6466C87.3322 71.3777 87.9277 68.2047 87.9757 66.6518C88.091 64.3465 88.9843 63.0337 89.4165 62.6655Z" fill="#D4AAA2" stroke="black" stroke-width="0.3"/>
<path d="M78.1784 82.7889C77.9863 82.9426 77.3619 82.853 77.0737 82.7889L77.4579 75.4888H78.5146L78.1784 82.7889Z" fill="#B9B8B8" stroke="black" stroke-width="0.3"/>
<path d="M62.8572 86.3431C62.2808 86.5736 61.7525 86.4391 61.5604 86.3431L61.8966 79.3791L63.5776 79.0909L62.8572 86.3431Z" fill="#B9B8B8" stroke="black" stroke-width="0.3"/>
<path d="M90.425 90.1371H89.5125L88.744 74.7683C89.0898 74.8836 89.6886 74.8163 89.9447 74.7683L90.425 90.1371Z" fill="#CACACA" stroke="black" stroke-width="0.3"/>
<path d="M54.405 70.0617C53.7134 70.0233 49.8264 70.3659 47.9694 70.542L54.5491 75.0565L54.405 70.0617Z" fill="#DBA7A2" stroke="black" stroke-width="0.3"/>
<path d="M57.2387 77.1697C57.2066 74.4962 56.6815 68.957 54.8373 68.1886C54.7528 68.3696 54.6048 68.7851 54.5369 69.2748C54.5239 69.4488 54.5119 69.6154 54.5011 69.7735C54.5011 69.6031 54.5147 69.435 54.5369 69.2748C54.7925 65.8556 55.4601 59.5746 56.3742 58.295C60.9528 58.5351 70.8304 58.5159 73.712 56.5179C73.5199 58.455 73.1549 63.1841 73.2318 66.6037C73.1037 66.1714 72.7035 65.8833 72.1271 68.1886C71.919 69.3573 71.5124 72.3093 71.5508 74.7684C69.7898 75.5688 64.462 77.1697 57.2387 77.1697Z" fill="#DBA7A2"/>
<path d="M57.2387 77.1697C57.2066 74.4962 56.6815 68.957 54.8373 68.1886C54.7252 68.4287 54.5011 69.0819 54.5011 69.7735C54.7252 66.5076 55.4136 59.6397 56.3742 58.295C60.9528 58.5351 70.8304 58.5159 73.712 56.5179C73.5199 58.455 73.1549 63.1841 73.2318 66.6037C73.1037 66.1714 72.7035 65.8833 72.1271 68.1886C71.919 69.3573 71.5124 72.3093 71.5508 74.7684C69.7898 75.5688 64.462 77.1697 57.2387 77.1697Z" stroke="black" stroke-width="0.3"/>
<path d="M74.384 77.2178C74.2688 77.3331 73.8557 77.3939 73.6636 77.4099L71.5504 74.7684C71.7425 67.4298 72.655 66.1075 73.0873 66.3636C73.6252 66.9015 74.1759 73.8239 74.384 77.2178Z" fill="#D4AAA2" stroke="black" stroke-width="0.3"/>
<path d="M57.2384 77.1697C57.0847 79.0908 56.5981 80.0514 56.3739 80.2915C55.9129 80.3683 55.3173 80.3235 55.0772 80.2915C54.9619 80.2915 54.741 80.0994 54.6449 80.0033L54.5489 72.6551C54.3184 69.8888 54.6449 68.5248 54.8371 68.1886C56.566 68.6881 57.1584 74.3841 57.2384 77.1697Z" fill="#D4AAA2" stroke="black" stroke-width="0.3"/>
<path d="M73.6636 77.4098L56.3738 80.2915C56.8733 79.9457 57.1582 78.0662 57.2383 77.1697C64.4232 77.1697 69.7734 75.5688 71.5504 74.7683C71.8578 74.9604 73.0873 76.6094 73.6636 77.4098Z" fill="#D5AAA2" stroke="black" stroke-width="0.3"/>
<path d="M46.8161 88.8884C46.0093 89.0421 45.5514 88.9524 45.4233 88.8884L46.2398 73.3275C46.5856 73.4428 47.3124 73.3755 47.6326 73.3275L46.8161 88.8884Z" fill="#CACACA" stroke="black" stroke-width="0.3"/>
<path d="M74.3843 77.2657C74.3074 77.3426 73.3277 77.4899 72.8474 77.5539L72.9915 93.6911C73.1836 94.0753 74.0001 93.9473 74.3843 93.8352V77.2657Z" fill="#CACACA" stroke="black" stroke-width="0.3"/>
<path d="M56.8056 97.1973C56.2293 97.5046 55.7971 97.3253 55.653 97.1973L55.0767 80.2916C55.4993 80.3685 56.1173 80.3236 56.3734 80.2916L56.8056 97.1973Z" fill="#CACACA" stroke="black" stroke-width="0.3"/>
<path d="M47.6328 73.3276L54.5968 78.3224V75.1526L47.969 70.542H46.24C45.7021 72.6552 46.0159 73.2796 46.24 73.3276C46.5858 73.4044 47.3126 73.3596 47.6328 73.3276Z" fill="#D4AAA2" stroke="black" stroke-width="0.3"/>
<path d="M28.0859 82.6928C27.5479 82.9234 27.0293 82.7889 26.8371 82.6928L26.7411 67.9965C27.1253 68.1501 27.6696 68.0605 27.8937 67.9965L28.0859 82.6928Z" fill="#CACACA" stroke="black" stroke-width="0.3"/>
<path d="M33.6089 74.4802C33.3015 74.5955 32.8085 74.5282 32.6003 74.4802L32.7444 67.6603L33.705 67.5162L33.6089 74.4802Z" fill="#B9B8B8" stroke="black" stroke-width="0.3"/>
<defs>
<linearGradient id="paint0_linear_740_854" x1="54" y1="0" x2="54" y2="127.5" gradientUnits="userSpaceOnUse">
<stop offset="0.33125" stop-color="#D4FFAA"/>
<stop offset="1" stop-color="#CBFFD1"/>
</linearGradient>
</defs>
</svg>
