<svg width="132" height="132" viewBox="0 0 132 132" fill="none" xmlns="http://www.w3.org/2000/svg">
<g filter="url(#filter0_d_505_1426)">
<rect x="11" y="11" width="106" height="106" rx="17" fill="#B2E97C"/>
<rect x="11.05" y="11.05" width="105.9" height="105.9" rx="16.95" stroke="#929292" stroke-width="0.1"/>
</g>
<path d="M101.709 117.322H30.6569C30.0202 117.322 22.0318 117.662 17.1152 113.754C12.266 109.9 10.9936 102.354 11.0001 102.079L11 69L116.997 78.3936V101.524C117.075 102.21 115.743 108.873 111.901 112.735C107.949 116.708 101.99 117.362 101.709 117.322Z" fill="#EFECE0" stroke="#929292" stroke-width="0.1"/>
<path d="M44.1851 57.9605C44.3004 57.8453 44.4893 57.9125 44.5694 57.9605L44.7615 62.4751H44.1851V57.9605Z" fill="#C9A8A2" stroke="black" stroke-width="0.3"/>
<path d="M57.6326 57C57.9015 57.3074 58.1929 59.9457 58.305 61.2264L44.7612 62.4271L44.5691 57.9605L57.6326 57Z" fill="#DBA7A2" stroke="black" stroke-width="0.3"/>
<path d="M51.6777 71.168L51.5336 73.1852C50.9573 72.8778 49.3083 72.833 48.5559 72.849C47.5569 72.5032 46.4427 71.2321 46.0105 70.6397C47.5089 71.6003 50.413 71.3922 51.6777 71.168Z" fill="#D4AAA2" stroke="black" stroke-width="0.3"/>
<path d="M45.9618 70.6397C46.807 71.8308 48.0429 72.6088 48.5552 72.849L44.4729 72.7049C43.666 72.5128 43.8486 70.7038 44.0407 69.8232L45.9618 70.6397Z" fill="#C9A8A2" stroke="black" stroke-width="0.3"/>
<path d="M65.6532 71.3602L65.317 72.9931C62.1664 74.4916 55.9036 74.4499 53.1661 74.2418C53.0508 74.1265 52.8299 74.0337 52.7338 74.0017L52.9259 70.9759L58.4491 70.2555C58.4875 70.8319 59.0094 71.072 59.2655 71.12C62.5314 71.1585 64.8848 71.2961 65.6532 71.3602Z" fill="#D4AAA2" stroke="black" stroke-width="0.3"/>
<path d="M57.8245 81.542H56.912L57.008 76.4031C57.0849 76.48 57.7124 76.4351 58.0166 76.4031L57.8245 81.542Z" fill="#B9B8B8" stroke="black" stroke-width="0.3"/>
<path d="M65.3649 72.945C61.369 74.5972 55.5673 74.4979 53.1659 74.2418L54.1745 75.2023L54.0784 76.1629C57.0369 77.0082 62.6113 75.8107 65.0287 75.1063L65.3649 72.945Z" fill="#C9A8A2" stroke="black" stroke-width="0.3"/>
<path d="M54.0786 90.9074C53.7712 91.0226 53.2461 90.9554 53.022 90.9074L52.7338 76.7873C53.118 76.8642 53.6944 76.8193 53.9345 76.7873L54.0786 90.9074Z" fill="#B9B8B8" stroke="black" stroke-width="0.3"/>
<path d="M44.6654 85.6722H43.6087L43.993 78.5162L45.1456 78.3241L44.6654 85.6722Z" fill="#B9B8B8" stroke="black" stroke-width="0.3"/>
<path d="M43.8008 58.0567C43.0708 57.8645 33.9552 58.617 29.4886 59.0172C29.6039 59.0172 29.6968 59.0812 29.7288 59.1133L29.6808 65.4048C29.5655 67.7102 29.7928 69.7913 29.9209 70.5438C30.5356 73.6175 32.8346 74.7702 33.9072 74.9623C35.5593 75.1544 37.3811 76.259 38.0855 76.7873C39.9682 76.8642 41.3994 76.8834 41.8797 76.8834C42.1487 77.1908 42.312 71.8245 42.36 69.103L33.2828 65.3088C32.6681 64.8093 33.0267 64.2362 33.2828 64.0121C33.5902 63.3205 40.4229 62.7633 43.8008 62.5712V58.0567Z" fill="#DBA7A2" stroke="black" stroke-width="0.3"/>
<path d="M51.4371 74.9623C48.0944 76.5376 44.4091 76.9314 42.9843 76.9314C43.138 76.9314 43.4646 72.0646 43.6086 69.6313L44.0409 69.8234L43.8968 71.5524C43.8968 72.5897 44.5692 72.7851 44.9054 72.753L49.468 72.8971C50.8896 72.8971 51.4371 73.1212 51.5332 73.2333L51.4371 74.9623Z" fill="#DBA7A2" stroke="black" stroke-width="0.3"/>
<path d="M53.0219 90.6671C52.9066 90.7823 52.3655 90.7151 52.1094 90.6671V86.6328L52.3975 80.1971L53.0219 90.6671Z" fill="#B9B8B8" stroke="black" stroke-width="0.3"/>
<path d="M54.0304 76.6911C53.9536 76.8064 53.0699 76.7391 52.6376 76.6911L52.7337 74.0496C52.9642 74.0112 53.8063 74.8341 54.1265 75.2023C54.2033 75.4328 54.0624 76.3869 54.0304 76.6911Z" fill="#D4AAA2" stroke="black" stroke-width="0.3"/>
<path d="M51.3894 74.9622C48.2773 76.4222 44.4895 76.9153 42.9847 76.9793L42.6965 78.6603C46.7692 78.1992 50.1888 77.2195 51.3894 76.7872V74.9622Z" fill="#D4AAA2" stroke="black" stroke-width="0.3"/>
<path d="M41.9276 76.9794L38.0854 76.7873V78.7084H41.5914L41.9276 76.9794Z" fill="#D4AAA2" stroke="black" stroke-width="0.3"/>
<path d="M38.0858 78.9004L37.8937 78.9964C37.3173 79.1501 36.8851 79.0605 36.741 78.9964L36.5489 78.9484V77.8438C36.3184 77.498 35.4603 77.1874 35.0601 77.0753C33.6 77.1906 32.6907 76.6431 32.4186 76.3549C31.3812 75.1638 30.4815 75.0262 30.1613 75.1062C30.1997 75.1446 30.1773 75.5385 30.1613 75.7306C30.1229 75.769 29.9852 75.8426 29.9212 75.8747C29.4985 75.9899 29.1047 75.9227 28.9606 75.8747C28.8838 75.8747 28.6244 75.7146 28.5764 75.6345C28.8838 75.5193 29.1207 72.7048 29.2007 71.3121L29.3448 59.1131C29.4601 58.9978 29.649 59.0651 29.729 59.1131C29.697 62.0748 29.6522 68.2575 29.729 69.2949C29.8059 70.3323 30.2733 71.6482 30.4975 72.1765C30.8817 73.5597 32.9309 74.6099 33.9074 74.9621C35.6748 75.1927 37.4294 76.2749 38.0858 76.7872V78.9004Z" fill="#D4AAA2" stroke="black" stroke-width="0.3"/>
<path d="M29.2007 88.0736H28L28.9605 75.8746C29.1142 75.9899 29.6649 75.9227 29.9211 75.8746L29.2007 88.0736Z" fill="#CACACA" stroke="black" stroke-width="0.3"/>
<path d="M36.4046 63.2436C34.3682 63.3973 33.4749 63.8199 33.2828 64.012L47.0667 69.8714C48.4499 70.2556 50.4606 70.0955 51.2931 69.9674L89.3308 65.2607C89.5613 65.107 89.683 64.8765 89.715 64.7805L73.5298 60.41C73.1455 59.9489 71.7688 59.9617 71.1284 60.0258L36.4046 63.2436Z" fill="#F2ECD7" stroke="black" stroke-width="0.3"/>
<path d="M47.1631 69.9193L33.2832 64.0119C32.6685 64.5499 33.0271 65.1006 33.2832 65.3087L47.1631 71.12C48.1621 71.5426 50.6851 71.2961 51.8218 71.12L89.6193 66.2692C90.3109 65.6929 89.9715 65.0365 89.7154 64.7804C89.677 65.0109 89.4432 65.1966 89.3312 65.2607L51.8218 69.9193C49.4396 70.2651 47.7234 70.0634 47.1631 69.9193Z" fill="#EAE1C2" stroke="black" stroke-width="0.3"/>
<path d="M40.0544 93.3567C39.3628 93.3951 39.0938 93.0205 39.0458 92.8284L42.1196 75.8747L42.3597 69.1509L43.5604 69.6311L43.1762 75.8747L40.0544 93.3567Z" fill="#CACACA" stroke="black" stroke-width="0.3"/>
<path d="M51.2452 101.185C51.0531 101.377 50.4608 101.265 50.1886 101.185C50.6529 91.1954 51.6006 71.216 51.6775 71.216C51.7543 71.216 52.4939 71.0239 52.9262 71.0239L51.2452 101.185Z" fill="#CACACA" stroke="black" stroke-width="0.3"/>
<path d="M100.041 66.4614L99.5607 74.8181L99.4166 73.6655C98.6866 74.3186 98.248 75.7947 98.1199 76.4511C98.043 78.0648 97.6716 79.7169 97.4955 80.3413C96.8039 82.1855 95.7665 82.6466 95.3343 82.6466C94.3353 83.2229 92.8049 83.8473 92.1645 84.0874C89.3981 85.1248 87.3297 85.032 86.6413 84.8559C84.8739 84.5101 84.5922 81.4779 84.6722 80.0051C84.6722 77.5077 84.1279 76.1149 83.8557 75.7306C83.6636 75.6922 83.3274 76.1629 83.1834 76.403C83.2986 71.9845 84.256 68.9268 84.7202 67.9502C93.6341 68.3344 98.6482 67.1177 100.041 66.4614Z" fill="#DBA7A2" stroke="black" stroke-width="0.3"/>
<path d="M99.4165 73.6655C99.6855 75.0103 99.9769 82.2624 100.089 85.7204C99.3589 85.9125 98.7602 85.8004 98.5521 85.7204L98.6961 84.3756C98.7346 83.1461 97.4634 83.8633 96.8231 84.3756C95.9009 84.9519 93.6533 85.6403 92.6447 85.9125C91.1847 86.5272 87.2976 86.5208 85.5366 86.4408C84.845 85.6339 84.352 85.5603 84.1919 85.6243C84.3071 85.2401 83.5995 79.6369 83.2313 76.8833C83.1545 76.4223 83.6155 75.9228 83.8557 75.7307C84.5473 76.307 84.7202 79.6849 84.7202 81.3019C84.797 83.4919 85.4566 84.2636 85.7768 84.3756C87.9284 86.0278 93.0449 83.9114 95.3342 82.6466C97.3322 82.3777 97.9277 79.2047 97.9757 77.6518C98.091 75.3465 98.9843 74.0337 99.4165 73.6655Z" fill="#D4AAA2" stroke="black" stroke-width="0.3"/>
<path d="M88.1784 93.7889C87.9862 93.9426 87.3619 93.853 87.0737 93.7889L87.4579 86.4888H88.5145L88.1784 93.7889Z" fill="#B9B8B8" stroke="black" stroke-width="0.3"/>
<path d="M72.8571 97.3431C72.2808 97.5736 71.7525 97.4391 71.5604 97.3431L71.8966 90.3791L73.5775 90.0909L72.8571 97.3431Z" fill="#B9B8B8" stroke="black" stroke-width="0.3"/>
<path d="M100.425 101.137H99.5125L98.744 85.7683C99.0898 85.8836 99.6886 85.8163 99.9447 85.7683L100.425 101.137Z" fill="#CACACA" stroke="black" stroke-width="0.3"/>
<path d="M64.405 81.0617C63.7134 81.0233 59.8264 81.3659 57.9693 81.542L64.5491 86.0565L64.405 81.0617Z" fill="#DBA7A2" stroke="black" stroke-width="0.3"/>
<path d="M67.2387 88.1697C67.2067 85.4962 66.6816 79.957 64.8373 79.1886C64.7529 79.3695 64.6048 79.7851 64.5369 80.2748C64.5239 80.4488 64.512 80.6154 64.5011 80.7735C64.5011 80.6031 64.5147 80.435 64.5369 80.2748C64.7925 76.8555 65.4601 70.5746 66.3742 69.2949C70.9528 69.5351 80.8304 69.5159 83.7121 67.5179C83.52 69.455 83.1549 74.1841 83.2318 77.6037C83.1037 77.1714 82.7035 76.8833 82.1272 79.1886C81.919 80.3573 81.5124 83.3093 81.5508 85.7683C79.7898 86.5688 74.462 88.1697 67.2387 88.1697Z" fill="#DBA7A2" stroke="black" stroke-width="0.3"/>
<path d="M84.384 88.2178C84.2688 88.3331 83.8557 88.3939 83.6636 88.4099L81.5504 85.7684C81.7425 78.4299 82.655 77.1075 83.0873 77.3636C83.6252 77.9016 84.1759 84.8239 84.384 88.2178Z" fill="#D4AAA2" stroke="black" stroke-width="0.3"/>
<path d="M67.2384 88.1697C67.0847 90.0908 66.598 91.0514 66.3739 91.2915C65.9128 91.3684 65.3173 91.3235 65.0772 91.2915C64.9619 91.2915 64.741 91.0994 64.6449 91.0034L64.5489 83.6552C64.3183 80.8888 64.6449 79.5248 64.837 79.1886C66.566 79.6881 67.1584 85.3842 67.2384 88.1697Z" fill="#D4AAA2" stroke="black" stroke-width="0.3"/>
<path d="M83.6636 88.4098L66.3737 91.2914C66.8732 90.9456 67.1582 89.0662 67.2382 88.1697C74.4231 88.1697 79.7734 86.5687 81.5504 85.7683C81.8578 85.9604 83.0873 87.6093 83.6636 88.4098Z" fill="#D5AAA2" stroke="black" stroke-width="0.3"/>
<path d="M56.8161 99.8884C56.0093 100.042 55.5514 99.9524 55.4233 99.8884L56.2398 84.3275C56.5856 84.4428 57.3124 84.3756 57.6326 84.3275L56.8161 99.8884Z" fill="#CACACA" stroke="black" stroke-width="0.3"/>
<path d="M84.3843 88.2658C84.3075 88.3426 83.3277 88.4899 82.8475 88.554L82.9916 104.691C83.1837 105.075 84.0001 104.947 84.3843 104.835V88.2658Z" fill="#CACACA" stroke="black" stroke-width="0.3"/>
<path d="M66.8057 108.197C66.2294 108.505 65.7971 108.325 65.653 108.197L65.0767 91.2916C65.4993 91.3684 66.1173 91.3236 66.3734 91.2916L66.8057 108.197Z" fill="#CACACA" stroke="black" stroke-width="0.3"/>
<path d="M57.6327 84.3276L64.5967 89.3225V86.1527L57.9689 81.542H56.24C55.702 83.6552 56.0158 84.2796 56.24 84.3276C56.5858 84.4045 57.3126 84.3596 57.6327 84.3276Z" fill="#D4AAA2" stroke="black" stroke-width="0.3"/>
<path d="M38.0859 93.6928C37.5479 93.9233 37.0293 93.7889 36.8371 93.6928L36.7411 78.9964C37.1253 79.1501 37.6696 79.0605 37.8937 78.9964L38.0859 93.6928Z" fill="#CACACA" stroke="black" stroke-width="0.3"/>
<path d="M43.6089 85.4802C43.3015 85.5955 42.8084 85.5282 42.6003 85.4802L42.7444 78.6603L43.7049 78.5162L43.6089 85.4802Z" fill="#B9B8B8" stroke="black" stroke-width="0.3"/>
<defs>
<filter id="filter0_d_505_1426" x="0" y="0" width="132" height="132" filterUnits="userSpaceOnUse" color-interpolation-filters="sRGB">
<feFlood flood-opacity="0" result="BackgroundImageFix"/>
<feColorMatrix in="SourceAlpha" type="matrix" values="0 0 0 0 0 0 0 0 0 0 0 0 0 0 0 0 0 0 127 0" result="hardAlpha"/>
<feMorphology radius="1" operator="erode" in="SourceAlpha" result="effect1_dropShadow_505_1426"/>
<feOffset dx="2" dy="2"/>
<feGaussianBlur stdDeviation="7"/>
<feComposite in2="hardAlpha" operator="out"/>
<feColorMatrix type="matrix" values="0 0 0 0 0 0 0 0 0 0 0 0 0 0 0 0 0 0 0.18 0"/>
<feBlend mode="normal" in2="BackgroundImageFix" result="effect1_dropShadow_505_1426"/>
<feBlend mode="normal" in="SourceGraphic" in2="effect1_dropShadow_505_1426" result="shape"/>
</filter>
</defs>
</svg>
