<svg width="132" height="132" viewBox="0 0 132 132" fill="none" xmlns="http://www.w3.org/2000/svg">
<g filter="url(#filter0_d_505_1331)">
<rect x="11" y="11" width="106" height="106" rx="17" fill="#B2E97C"/>
<rect x="11.05" y="11.05" width="105.9" height="105.9" rx="16.95" stroke="#929292" stroke-width="0.1"/>
</g>
<path d="M101.709 117.322H30.6569C30.0202 117.322 22.0318 117.662 17.1152 113.754C12.266 109.9 10.9936 102.354 11.0001 102.079L11 69L116.997 78.3936V101.524C117.075 102.21 115.743 108.873 111.901 112.735C107.949 116.708 101.99 117.362 101.709 117.322Z" fill="#EFECE0" stroke="#929292" stroke-width="0.1"/>
<path d="M95.9999 97H93.9999V106.791C94.5927 107.211 95.3917 107.19 95.9618 106.74L95.9999 106.709V97Z" fill="#A56B4C" stroke="black" stroke-width="0.3"/>
<path d="M88.0081 74.5378V79.6459L98.8232 84.2431C100.059 80.8105 102.686 77.2962 103.844 75.9681L91.4843 72.1881C88.7033 71.3708 88.0081 73.414 88.0081 74.5378Z" fill="#D6BBA6" stroke="black" stroke-width="0.3"/>
<path d="M108.962 72.8009C110.276 72.0654 111.183 72.7669 111.473 73.2096C110.392 72.8009 108.447 74.4015 107.611 75.2528C105.679 76.7239 104.617 78.6582 104.327 79.4414L103.458 80.8717C101.45 83.4053 100.111 87.7165 99.6923 89.5554C99.3833 93.4783 98.4048 96.0937 97.9541 96.911L97.1816 96.7066C98.2632 95.5624 98.6623 91.1899 98.7267 89.1467C98.8039 88.9015 98.2438 87.7505 97.9541 87.2057C99.8082 80.4222 102.975 76.6831 104.327 75.6615C106.336 74.0269 108.254 73.0734 108.962 72.8009Z" fill="#D6BBA6" stroke="black" stroke-width="0.3"/>
<path d="M105.39 91.3942L99.8855 97.1152L97.8577 96.8088C98.7074 96.5636 99.4349 91.8029 99.6924 89.4532C100.851 84.8764 103.265 80.8716 104.327 79.4414C105.254 76.9078 107.611 75.1165 108.673 74.5376C110.295 72.8213 111.151 72.9371 111.377 73.2095C112.458 73.5365 112.085 76.3425 111.763 77.7046C112.072 78.195 109.574 84.1067 108.287 87.0013C107.205 88.3089 105.905 90.4748 105.39 91.3942Z" fill="#CB9D90" stroke="black" stroke-width="0.3"/>
<path d="M77.1931 86.8992C77.0386 86.654 77 85.6392 77 85.1625C77 85.4894 77.9013 86.2522 78.3519 86.5927L96.699 96.6045C97.0852 96.768 98.9843 97.0132 99.8856 97.1153L93.8021 97.0132L78.2553 88.023C77.7725 87.6143 77.3863 87.2057 77.1931 86.8992Z" fill="#CB9D90" stroke="black" stroke-width="0.3"/>
<path d="M105.011 92.1154L103.37 93.8521L103.878 95.9277L104.875 99.353C105.2 100.471 106.459 101.021 107.5 100.5L105.878 94.9277L105.011 92.1154Z" fill="#A56B4C" stroke="black" stroke-width="0.3"/>
<path d="M87.5253 96.6045C86.5982 97.0132 85.9802 96.4343 85.7871 96.0937L85.9802 92.6202L87.6218 93.5397L87.5253 96.6045Z" fill="#A56B4C" stroke="black" stroke-width="0.3"/>
<path d="M78.2553 88.1251L77 97.0131L77.1312 97.077C77.6741 97.3413 78.3131 97.3174 78.8347 97.0131L80.09 89.2489L78.2553 88.1251Z" fill="#A56B4C" stroke="black" stroke-width="0.3"/>
<path d="M77.3861 80.2587C77.1543 80.9126 77.8689 84.6176 78.2551 86.3884L97.1816 96.7067C98.2631 95.5625 98.6622 91.19 98.7266 89.1468C98.0314 86.4497 95.4757 84.4814 94.2847 83.8344L82.9868 78.8285C80.9782 77.8477 79.5105 77.7388 79.0277 77.8069C77.7917 78.0521 77.4183 79.5436 77.3861 80.2587Z" fill="#D6AB9D" stroke="black" stroke-width="0.3"/>
<path d="M86.0767 79.4415L85.3042 79.8502L94.2846 83.8344C95.9069 84.7335 97.4068 86.3885 97.954 87.1036L98.9197 84.2431L88.008 79.6458C87.2355 78.992 86.3986 79.2372 86.0767 79.4415Z" fill="#D6BBA6" stroke="black" stroke-width="0.3"/>
<path d="M77 85.1719C77.1609 84.8995 77.5408 84 77.7725 84L77.774 84.0101C77.8674 84.6358 78.0997 86.1926 78.3215 86.4701L78.3519 86.5C78.3418 86.4929 78.3316 86.4828 78.3215 86.4701L77 85.1719Z" fill="#D6BBA6" stroke="black" stroke-width="0.3"/>
<path d="M56.4044 77.3851L56.3079 74.0138H56.8872L56.7907 77.3851C56.7134 77.5486 56.501 77.4532 56.4044 77.3851Z" fill="#655654" stroke="black" stroke-width="0.3"/>
<path d="M86.725 79.2239L86.6284 70.7445C87.7099 70.0089 88.3022 69.0078 88.4631 68.5991L87.9803 79.2239C87.7486 79.0604 87.0469 79.1558 86.725 79.2239Z" fill="#655654" stroke="black" stroke-width="0.3"/>
<path d="M39.6986 72.3791C39.8531 71.9705 39.4411 69.8932 39.2158 68.9056C39.5248 69.5595 41.7908 70.2678 42.8852 70.5402C42.0355 70.7037 41.5655 77.2147 41.4368 80.4498L41.1471 90.4616C40.7608 90.8703 40.3424 90.6319 40.1815 90.4616V79.6326C40.1042 73.9115 39.8274 72.4132 39.6986 72.3791Z" fill="#655654" stroke="black" stroke-width="0.3"/>
<path d="M37.0912 65.7386C36.8595 64.4309 37.1234 63.4229 37.2844 63.0824C36.8981 65.7795 41.8872 67.884 44.4301 68.5991C47.6746 69.9068 54.2795 71.1191 57.1764 71.5618C61.039 72.0521 67.1547 72.1066 69.7297 72.0726C73.9012 71.9908 77.1329 71.5618 78.2273 71.3574C80.3131 71.4392 84.2464 69.6888 85.9524 68.8034C87.4201 68.2313 87.8515 66.8624 87.8836 66.2494C88.0381 65.3504 87.0468 64.2402 86.5318 63.7975C87.536 64.4514 88.1733 65.5683 88.3665 66.0451C88.6755 66.6172 88.4952 68.0542 88.3665 68.7013C88.212 69.4368 86.8214 70.6423 86.1455 71.1531C83.7507 72.706 79.4826 73.7072 77.6479 74.0136C76.1801 74.504 68.8606 74.6947 65.3843 74.7288C57.4275 74.3201 53.1208 73.5369 51.962 73.1963C50.8805 73.4415 45.5244 71.5277 42.9816 70.5402C41.8228 70.1996 39.5053 69.4777 39.5053 69.3142C39.5053 69.1508 37.8959 66.8624 37.0912 65.7386Z" fill="#655654" stroke="black" stroke-width="0.3"/>
<path d="M52.3482 57.9744C43.6188 58.1379 39.0546 60.8349 37.8637 62.163C36.0096 63.9611 38.8937 66.2495 40.5674 67.1689C47.52 69.866 52.8632 70.9489 54.6657 71.1532C62.777 72.5426 71.2425 72.1408 74.4612 71.7662C80.3323 71.7662 85.212 69.3824 86.9179 68.1905C89.2355 65.9021 86.9823 63.9679 85.566 63.2868C85.257 62.7147 82.0898 61.482 80.5447 60.9371C79.386 60.0381 72.3368 58.8598 68.9571 58.3831C63.6268 57.6475 55.6635 57.8042 52.3482 57.9744Z" fill="#816E6E" stroke="black" stroke-width="0.3"/>
<path d="M42.3013 67.1891C42.2547 67.1891 42.01 67.0725 41.8934 67.0143L51.7413 66.2567C51.7879 66.2567 51.7219 66.3733 51.683 66.4315L42.3013 67.1891Z" fill="#A5928C" stroke="black" stroke-width="0.2"/>
<path d="M41.0778 66.3733C41.1245 66.2801 41.0196 65.9072 40.9613 65.7324C41.0196 65.4993 41.6023 66.3151 41.6023 66.3733C41.6023 66.42 41.2527 66.3928 41.0778 66.3733Z" fill="#A5928C" stroke="black" stroke-width="0.2"/>
<path d="M41.8936 67.0144C41.3809 65.8023 41.0584 65.6547 40.9613 65.7324V64.567L50.343 64.1008L50.5761 64.1591C50.716 64.1591 51.4113 64.9749 51.7415 65.3828C52.0679 65.8023 51.8775 66.1403 51.7415 66.2569L41.8936 67.0144Z" fill="#C3A8A1" stroke="black" stroke-width="0.2"/>
<path d="M40.9611 65.7324L38.9216 62.4692C40.2735 62.0496 45.7782 61.9836 48.3616 62.003L50.3428 64.1008L40.9611 64.5669V65.7324Z" fill="#BAA29A" stroke="black" stroke-width="0.2"/>
<path d="M81.8021 69.1891C81.8452 69.1891 82.0711 69.062 82.1786 68.9984L73.0884 68.172C73.0454 68.172 73.1064 68.2991 73.1422 68.3627L81.8021 69.1891Z" fill="#A5928C" stroke="black" stroke-width="0.2"/>
<path d="M82.9311 68.2992C82.888 68.1975 82.9848 67.7906 83.0386 67.5999C82.9848 67.3457 82.447 68.2356 82.447 68.2992C82.447 68.3501 82.7697 68.3204 82.9311 68.2992Z" fill="#A5928C" stroke="black" stroke-width="0.2"/>
<path d="M82.178 68.9986C82.6514 67.6763 82.949 67.5153 83.0386 67.6001V66.3287L74.3787 65.8201L74.1636 65.8837C74.0345 65.8837 73.3926 66.7737 73.0878 67.2187C72.7866 67.6763 72.9623 68.045 73.0878 68.1722L82.178 68.9986Z" fill="#C3A8A1" stroke="black" stroke-width="0.2"/>
<path d="M83.039 67.6L84.9216 64.0401C83.6737 63.5824 78.5925 63.5104 76.2079 63.5316L74.3791 65.8201L83.039 66.3286V67.6Z" fill="#BAA29A" stroke="black" stroke-width="0.2"/>
<path d="M57.1095 66.1133C57.6095 65.9467 57.3178 65.6272 57.1095 65.4883C56.8595 65.4049 56.4844 65.3841 56.3281 65.3841C56.5365 65.9675 56.0677 66.0786 55.8073 66.0613C55.2655 66.1446 55.3037 65.6445 55.3905 65.3841C55.1405 65.3424 54.9391 65.4015 54.8697 65.4362C54.2446 65.8112 54.3314 66.0439 54.4529 66.1133C55.8281 66.6134 56.7969 66.3217 57.1095 66.1133Z" fill="url(#paint0_linear_505_1331)" stroke="black" stroke-width="0.2"/>
<path d="M57.2655 56.1644C57.0571 56.095 56.4842 55.9665 55.8591 56.0081C55.3382 56.0255 54.3069 56.1019 54.3485 56.2686" stroke="black" stroke-width="0.2"/>
<path d="M55.9633 64.9154C55.9216 64.9987 56.1543 65.2627 56.2758 65.3842C56.6092 65.8842 56.1369 66.044 55.8591 66.0613C55.2757 66.103 55.3035 65.6273 55.3903 65.3842C55.557 65.4259 55.5987 65.089 55.5987 64.9154V62.4151C55.6403 62.1234 55.3382 61.8422 55.1819 61.738C54.8486 61.738 54.2443 60.8004 53.9839 60.3316C53.7755 59.7899 54.1402 57.3972 54.3485 56.2687C54.4319 56.477 55.3209 56.5291 55.7549 56.5291C56.4633 56.5708 57.0571 56.3034 57.2655 56.1645C57.7239 58.7898 57.6648 60.0364 57.578 60.3316C57.6197 60.8733 56.8314 61.4949 56.4321 61.738C55.9737 61.988 55.9285 62.2936 55.9633 62.4151V64.9154Z" fill="url(#paint1_linear_505_1331)" stroke="black" stroke-width="0.2"/>
<path d="M54.0882 65.8528C53.9632 66.3529 55.1821 66.5126 55.8071 66.53C56.9322 66.6133 57.4566 66.148 57.5782 65.9049C57.5365 65.4465 56.6926 65.3667 56.2759 65.384C56.4843 65.634 56.3627 65.8702 56.2759 65.957C55.9009 66.1237 55.5293 66.0264 55.3904 65.957C55.2654 65.7903 55.3383 65.5056 55.3904 65.384C54.7237 65.3424 54.2445 65.6792 54.0882 65.8528Z" fill="url(#paint2_linear_505_1331)" stroke="black" stroke-width="0.2"/>
<path d="M66.4908 67.5409C65.9526 67.3615 66.2666 67.0177 66.4908 66.8682C66.7599 66.7784 67.1636 66.756 67.3318 66.756C67.1075 67.3839 67.6121 67.5035 67.8924 67.4849C68.4754 67.5746 68.4343 67.0364 68.3409 66.756C68.61 66.7112 68.8268 66.7747 68.9015 66.8121C69.5743 67.2157 69.4808 67.4662 69.35 67.5409C67.87 68.0791 66.8272 67.7652 66.4908 67.5409Z" fill="url(#paint3_linear_505_1331)" stroke="black" stroke-width="0.2"/>
<path d="M66.3229 56.833C66.5472 56.7582 67.1638 56.6199 67.8366 56.6648C68.3972 56.6835 69.5072 56.7657 69.4624 56.9451" stroke="black" stroke-width="0.2"/>
<path d="M67.7243 66.2514C67.7692 66.3411 67.5188 66.6252 67.3879 66.756C67.0291 67.2942 67.5374 67.4661 67.8364 67.4848C68.4643 67.5296 68.4344 67.0176 68.341 66.756C68.1616 66.8008 68.1167 66.4383 68.1167 66.2514V63.5604C68.0719 63.2465 68.3971 62.9437 68.5652 62.8316C68.924 62.8316 69.5744 61.8225 69.8547 61.3179C70.0789 60.7349 69.6865 58.1598 69.4622 56.9451C69.3725 57.1693 68.4157 57.2254 67.9486 57.2254C67.1861 57.2702 66.547 56.9824 66.3227 56.8329C65.8294 59.6585 65.8929 61.0002 65.9864 61.3179C65.9415 61.901 66.7899 62.57 67.2198 62.8316C67.7131 63.1007 67.7617 63.4296 67.7243 63.5604V66.2514Z" fill="url(#paint4_linear_505_1331)" stroke="black" stroke-width="0.2"/>
<path d="M69.7425 67.2605C69.877 67.7987 68.5651 67.9706 67.8924 67.9893C66.6815 68.079 66.1171 67.5782 65.9863 67.3166C66.0311 66.8232 66.9393 66.7373 67.3878 66.756C67.1636 67.0251 67.2944 67.2792 67.3878 67.3726C67.7915 67.552 68.1914 67.4474 68.3409 67.3726C68.4754 67.1932 68.397 66.8868 68.3409 66.756C69.0585 66.7111 69.5743 67.0736 69.7425 67.2605Z" fill="url(#paint5_linear_505_1331)" stroke="black" stroke-width="0.2"/>
<path d="M28.6615 65.9842C27.8117 65.9025 27.1487 66.6312 26.9233 67.0058C27.6958 69.6211 27.889 71.7733 27.889 72.5225C29.5306 72.1139 37.3522 72.0117 37.4488 72.0117C37.526 72.0117 38.511 72.216 38.9938 72.3182C39.7663 72.3999 39.895 70.6496 39.8629 69.7642C40.0174 69.0286 38.3822 66.7334 37.5453 65.6777C37.3136 65.4325 31.5262 65.7799 28.6615 65.9842Z" fill="#D6BBA6" stroke="black" stroke-width="0.3"/>
<path d="M22.2883 71.2967C22.7518 71.9505 23.5115 74.2253 23.8333 75.2809C24.3741 73.3195 25.7324 72.761 26.344 72.7269C26.5757 72.6452 27.4706 72.5566 27.889 72.5226C28.1207 70.888 26.7624 66.5972 26.0543 64.6562C25.2045 62.5312 24.0908 62 23.6402 62C23.1767 62 22.1596 64.3838 21.7089 65.5756C21.3999 68.2727 21.9664 70.5134 22.2883 71.2967Z" fill="#D6BBA6" stroke="black" stroke-width="0.3"/>
<path d="M24.7021 81.1041L25.2815 81.2062C24.2772 78.7544 23.9618 76.8474 23.9296 76.2004C24.0068 75.2196 22.9961 72.7269 22.4811 71.6031C21.1292 68.7426 21.8052 65.6778 21.7086 65.5756C21.6314 65.4939 22.5133 63.6345 22.9639 62.7151C22.4232 63.5324 21.7086 64.7583 21.4189 65.2691C20.9554 65.596 20.9683 67.9253 21.0327 69.0491C21.1872 72.1548 23.5433 78.3798 24.7021 81.1041Z" fill="#CB9D90" stroke="black" stroke-width="0.3"/>
<path d="M24.0265 74.9744C23.4858 76.2003 24.6381 79.6397 25.2818 81.2062C30.0134 80.8657 39.5153 80.1846 39.6698 80.1846C39.8243 80.1846 40.1848 79.5035 40.3457 79.163C40.5002 78.9995 40.4745 75.9619 40.4423 74.4636C40.3651 72.6655 38.2857 72.0798 37.2557 72.0117C32.0799 72.0117 28.404 72.4204 27.2131 72.6247C24.9728 72.6247 24.1553 74.1912 24.0265 74.9744Z" fill="#D5AD99" stroke="black" stroke-width="0.3"/>
<path d="M24.7021 81.0019L24.7055 81.0199C24.7638 81.1734 25.5546 81.2756 25.9575 81.3084L39.8626 80.1846C40.0944 79.8577 40.5386 79.5716 40.7317 79.4695C40.9634 79.5512 40.8283 80.7295 40.7317 81.3084C40.6544 81.5536 30.85 82.2278 25.9575 82.5343L24.8953 82.0235L24.7055 81.0199C24.7033 81.014 24.7021 81.008 24.7021 81.0019Z" fill="#CB9D90" stroke="black" stroke-width="0.3"/>
<path d="M40.4656 95L39.2834 81.9215V81.5129L40.8285 81.2064L41.8175 95C41.2768 95.2452 40.691 95.1022 40.4656 95Z" fill="#A56B4C" stroke="black" stroke-width="0.3"/>
<path d="M25.9573 82.6365L23.8381 95.192H25.3832L27.792 82.943H27.4058V82.6365H25.9573Z" fill="#A56B4C" stroke="black" stroke-width="0.3"/>
<path d="M27.406 82.943V82.6365L39.2833 81.6149V81.9214L27.406 82.943Z" fill="#A56B4C" stroke="black" stroke-width="0.3"/>
<defs>
<filter id="filter0_d_505_1331" x="0" y="0" width="132" height="132" filterUnits="userSpaceOnUse" color-interpolation-filters="sRGB">
<feFlood flood-opacity="0" result="BackgroundImageFix"/>
<feColorMatrix in="SourceAlpha" type="matrix" values="0 0 0 0 0 0 0 0 0 0 0 0 0 0 0 0 0 0 127 0" result="hardAlpha"/>
<feMorphology radius="1" operator="erode" in="SourceAlpha" result="effect1_dropShadow_505_1331"/>
<feOffset dx="2" dy="2"/>
<feGaussianBlur stdDeviation="7"/>
<feComposite in2="hardAlpha" operator="out"/>
<feColorMatrix type="matrix" values="0 0 0 0 0 0 0 0 0 0 0 0 0 0 0 0 0 0 0.18 0"/>
<feBlend mode="normal" in2="BackgroundImageFix" result="effect1_dropShadow_505_1331"/>
<feBlend mode="normal" in="SourceGraphic" in2="effect1_dropShadow_505_1331" result="shape"/>
</filter>
<linearGradient id="paint0_linear_505_1331" x1="55.8761" y1="65.3698" x2="55.8761" y2="66.3894" gradientUnits="userSpaceOnUse">
<stop stop-color="#E9E9E9"/>
<stop offset="0.7375" stop-color="#E9E9E9" stop-opacity="0"/>
</linearGradient>
<linearGradient id="paint1_linear_505_1331" x1="55.7799" y1="56.1645" x2="55.7799" y2="66.0639" gradientUnits="userSpaceOnUse">
<stop stop-color="#E9E9E9"/>
<stop offset="0.7375" stop-color="#E9E9E9" stop-opacity="0"/>
</linearGradient>
<linearGradient id="paint2_linear_505_1331" x1="55.8287" y1="65.3805" x2="55.8287" y2="66.5398" gradientUnits="userSpaceOnUse">
<stop stop-color="#E9E9E9"/>
<stop offset="0.7375" stop-color="#E9E9E9" stop-opacity="0"/>
</linearGradient>
<linearGradient id="paint3_linear_505_1331" x1="67.8183" y1="66.7406" x2="67.8183" y2="67.8381" gradientUnits="userSpaceOnUse">
<stop stop-color="#E9E9E9"/>
<stop offset="0.648958" stop-color="white" stop-opacity="0"/>
</linearGradient>
<linearGradient id="paint4_linear_505_1331" x1="67.9216" y1="56.8329" x2="67.9216" y2="67.4876" gradientUnits="userSpaceOnUse">
<stop stop-color="#E9E9E9"/>
<stop offset="0.648958" stop-color="white" stop-opacity="0"/>
</linearGradient>
<linearGradient id="paint5_linear_505_1331" x1="67.8692" y1="66.7522" x2="67.8692" y2="67.9999" gradientUnits="userSpaceOnUse">
<stop stop-color="#E9E9E9"/>
<stop offset="0.648958" stop-color="white" stop-opacity="0"/>
</linearGradient>
</defs>
</svg>
