<svg width="96" height="96" viewBox="0 0 96 96" fill="none" xmlns="http://www.w3.org/2000/svg">
<circle cx="48" cy="48" r="48" fill="#E2E2E2"/>
<path d="M69.0999 41.62C69.0999 41.9 69.0899 42.18 69.0699 42.46H25.4499C25.4299 42.18 25.4199 41.9 25.4199 41.62C25.4199 32.78 33.8299 25.49 44.6599 24.48C44.8699 23.86 44.8599 23.2 44.6199 22.62C44.1699 21.51 43.0299 21.07 42.7899 20.98C42.7499 20.95 42.2699 20.57 42.3399 19.99C42.3899 19.52 42.7899 19.12 43.3199 19H51.2899C51.7499 19.09 52.0999 19.42 52.1999 19.84C52.2899 20.28 52.0799 20.73 51.6699 20.97C51.3299 21.2 50.5699 21.79 50.2399 22.8C50.0399 23.41 50.0499 23.99 50.1699 24.5C60.8499 25.63 69.0999 32.86 69.0999 41.62Z" fill="#53AF32" stroke="black" stroke-width="0.75" stroke-miterlimit="10"/>
<path d="M73.22 45.54L67.44 49.91H26.94L22 45.54H73.22Z" stroke="black" stroke-width="0.75" stroke-miterlimit="10"/>
<path d="M26.94 49.91L22 45.54" stroke="black" stroke-width="0.75" stroke-miterlimit="10"/>
<path d="M73.2199 45.54L67.4399 49.91" stroke="black" stroke-width="0.75" stroke-miterlimit="10"/>
<path d="M56.1 70.04L62.04 63.35C59.49 61.94 58.76 60.46 58.51 59.52C58.01 57.65 58.57 54.73 58.74 53.96C58.98 52.84 59.33 51.7 58.89 51.4C58.65 51.24 58.25 51.39 57.84 51.63C55.73 52.83 55.31 55.03 53.93 56.37C53.09 57.18 51.57 57.99 48.59 57.8C47.34 57.44 46.45 56.96 45.88 56.6C44.49 55.71 43.94 54.84 41.67 52.62C41 51.96 40.44 51.44 40.09 51.12C39.17 50.84 38.31 51.2 38.06 51.8C37.87 52.25 38.07 52.71 38.14 52.85C38.72 54.24 39.5 55.83 40.55 57.51C41.64 59.26 42.76 60.71 43.78 61.87C47.88 64.58 51.99 67.31 56.1 70.04Z" stroke="black" stroke-width="0.75" stroke-miterlimit="10"/>
<path d="M56.02 72.7001L61.81 77.2901L68.05 66.7601L64.44 63.8301L56.02 72.7001Z" fill="#53AF32" stroke="black" stroke-width="0.75" stroke-miterlimit="10"/>
</svg>
