<svg width="96" height="96" viewBox="0 0 96 96" fill="none" xmlns="http://www.w3.org/2000/svg">
<circle cx="48" cy="48" r="48" fill="#E2E2E2"/>
<path opacity="0.86" d="M58.4499 25.6738C58.4499 26.6438 53.3499 27.4338 47.0599 27.4338C40.7699 27.4338 35.6699 26.6438 35.6699 25.6738C35.6699 24.7038 40.7699 23.9238 47.0599 23.9238C49.2699 23.9238 51.3399 24.0238 53.0899 24.1938L52.7099 25.0838C52.8199 25.2038 53.0999 25.4838 53.5599 25.6038C54.2599 25.7838 54.8199 25.4338 54.9199 25.3738C55.0699 25.0838 55.2199 24.7838 55.3699 24.4938C57.2799 24.7938 58.4499 25.2138 58.4499 25.6738Z" fill="#E7345F" stroke="black" stroke-width="0.75" stroke-miterlimit="10"/>
<path d="M59.22 28.7536C59.23 28.1136 59.24 26.4436 58.45 25.6836C58.45 26.6536 53.35 27.4436 47.06 27.4436C40.77 27.4436 35.67 26.6536 35.67 25.6836C34.96 26.2236 34.92 27.1636 34.82 29.0336C34.75 30.4736 34.87 33.0536 35.99 36.2436C36.25 36.9636 36.57 37.6836 36.98 38.4436C37.65 39.6836 38.95 42.0736 41.59 43.9936C43.85 45.6436 45.29 45.6236 45.45 46.6236C45.74 48.3836 41.41 48.9236 38.3 53.1136C35.62 56.7436 35.33 61.0936 35.19 63.1836C35.05 65.2536 34.98 66.4436 35.28 67.4236H58.81C59.03 64.8136 58.95 62.6936 58.82 61.1736C58.75 60.3936 58.71 59.9036 58.59 59.2436C58.04 56.3636 56.65 54.3436 56.19 53.6736C52.99 49.0936 48.45 48.4336 48.75 46.6236C48.8 46.3236 48.92 46.3436 50.82 44.8636C53.55 42.7336 54.81 41.4736 55.82 40.2136C56.84 38.9336 57.38 37.6636 57.82 36.0336C58.23 36.1236 58.66 36.1736 59.11 36.1736C61.76 36.1736 63.91 34.5136 63.91 32.4536C63.9 30.4436 61.82 28.7936 59.22 28.7536ZM53.46 40.6036C52.39 41.6836 51.51 42.0236 49.51 43.7036C48.43 44.6036 47.61 45.4136 47.06 45.9636C46.58 45.3736 45.81 44.4936 44.71 43.6136C42.83 42.1136 41.74 41.9736 40.57 40.8836C39.73 40.1036 38.73 38.7336 38.31 36.1736H56C55.32 38.4036 54.3 39.7636 53.46 40.6036ZM58.82 34.4936C58.61 34.4936 58.4 34.4836 58.2 34.4536C58.31 33.9636 58.42 33.4436 58.54 32.8936C58.72 32.0336 58.9 31.1636 59.03 30.3636C60.75 30.4336 62.11 31.3236 62.11 32.4236C62.12 33.5636 60.64 34.4936 58.82 34.4936Z" stroke="black" stroke-width="0.75" stroke-miterlimit="10"/>
<path d="M62.12 71.9136V73.1636H32V71.9136H34.92V67.4336H58.82V71.9136H62.12Z" stroke="black" stroke-width="0.75" stroke-miterlimit="10"/>
<path opacity="0.86" d="M56.0001 36.1838C55.3201 38.4038 54.2901 39.7638 53.4601 40.6038C52.3901 41.6838 51.5101 42.0238 49.5101 43.7038C48.4301 44.6038 47.6101 45.4138 47.0601 45.9638C46.5801 45.3738 45.8101 44.4938 44.7101 43.6138C42.8301 42.1138 41.7401 41.9739 40.5701 40.8839C39.7301 40.1039 38.7301 38.7338 38.3101 36.1738H56.0001V36.1838Z" fill="#E7345F" stroke="black" stroke-width="0.75" stroke-miterlimit="10"/>
<path opacity="0.86" d="M56.0001 65.1038C50.1001 65.1038 44.2001 65.1038 38.3101 65.1038C38.9901 63.1738 40.0201 61.9937 40.8501 61.2637C41.9201 60.3237 42.8001 60.0238 44.8001 58.5638C45.8801 57.7838 46.7001 57.0838 47.2501 56.6038C47.7301 57.1138 48.5001 57.8837 49.6001 58.6437C51.4701 59.9537 52.5701 60.0737 53.7401 61.0137C54.5801 61.6937 55.5801 62.8838 56.0001 65.1038Z" fill="#E7345F" stroke="black" stroke-width="0.75" stroke-miterlimit="10"/>
<path d="M47.38 51.2238C47.739 51.2238 48.03 50.9328 48.03 50.5739C48.03 50.2149 47.739 49.9238 47.38 49.9238C47.021 49.9238 46.73 50.2149 46.73 50.5739C46.73 50.9328 47.021 51.2238 47.38 51.2238Z" stroke="black" stroke-width="0.75" stroke-miterlimit="10"/>
<path d="M47.38 54.4037C47.739 54.4037 48.03 54.1128 48.03 53.7538C48.03 53.3948 47.739 53.1038 47.38 53.1038C47.021 53.1038 46.73 53.3948 46.73 53.7538C46.73 54.1128 47.021 54.4037 47.38 54.4037Z" stroke="black" stroke-width="0.75" stroke-miterlimit="10"/>
<path d="M61.41 12.6537C59.39 16.5937 57.38 20.5337 55.37 24.4737C55.22 24.7637 55.07 25.0637 54.92 25.3537C54.82 25.4137 54.26 25.7637 53.56 25.5837C53.1 25.4637 52.82 25.1937 52.71 25.0637L53.09 24.1737L58.45 11.7937C59.07 10.9837 60.1 10.7937 60.76 11.2237C61.42 11.6837 61.41 12.5937 61.41 12.6537Z" stroke="black" stroke-width="0.75" stroke-miterlimit="10"/>
<path d="M49.91 16.8037C49.91 19.3037 48.89 21.3337 47.64 21.3337C47.61 21.3337 47.57 21.3337 47.54 21.3237C48.25 20.4537 48.73 18.7637 48.73 16.8037C48.73 14.8537 48.25 13.1537 47.54 12.2837C47.57 12.2737 47.61 12.2737 47.64 12.2737C48.89 12.2837 49.91 14.3037 49.91 16.8037Z" stroke="#010202" stroke-width="0.5" stroke-miterlimit="10"/>
<path d="M47.31 18.0638C47.31 19.7138 46.64 21.0537 45.81 21.0537C45.79 21.0537 45.77 21.0537 45.74 21.0537C46.21 20.4837 46.53 19.3638 46.53 18.0738C46.53 16.7838 46.21 15.6637 45.75 15.0937C45.77 15.0937 45.79 15.0937 45.81 15.0937C46.64 15.0737 47.31 16.4138 47.31 18.0638Z" stroke="#010202" stroke-width="0.5" stroke-miterlimit="10"/>
</svg>
