<svg width="132" height="132" viewBox="0 0 132 132" fill="none" xmlns="http://www.w3.org/2000/svg">
<g filter="url(#filter0_d_505_1680)">
<rect x="11" y="11" width="106" height="106" rx="17" fill="#FFB7C5"/>
<rect x="11.05" y="11.05" width="105.9" height="105.9" rx="16.95" stroke="#929292" stroke-width="0.1"/>
</g>
<path d="M101.709 117.581H30.6568C30.0202 117.581 22.0317 117.922 17.1151 114.014C12.2659 110.16 10.9935 102.613 11 102.338L11.0001 67L116.997 76.3936L116.997 101.784C117.075 102.469 115.743 109.132 111.901 112.995C107.949 116.967 101.99 117.621 101.709 117.581Z" fill="#EFECE0" stroke="#929292" stroke-width="0.1"/>
<path d="M82.5367 104.083C74.7059 110.09 57.6694 107.22 50.13 105.034C46.4046 100.168 46.8038 95.2135 47.469 93.3445C48.1532 86.35 54.6599 82.7006 57.8278 81.7503C61.7052 79.5455 65.779 79.2477 67.3312 79.3744C68.7757 77.6258 70.6574 78.8359 71.4177 79.6596C72.7102 78.063 79.559 79.8813 82.8219 80.99C88.9041 82.5866 89.2208 89.258 88.619 92.3942C88.619 98.2483 84.5642 102.626 82.5367 104.083Z" fill="#9D3C97" stroke="black" stroke-width="0.3"/>
<path d="M57.1632 59.5125C58.5317 58.8282 62.0417 58.9739 63.6256 59.1323C63.7776 60.5769 63.6889 63.5356 63.6256 64.8344C59.1399 66.355 40.4688 68.2557 31.694 69.0159C31.0097 64.8344 28.3044 62.0151 27.0373 61.1281C27.7975 60.1397 33.9431 60.3361 36.9209 60.5579C37.9092 59.7976 44.9354 59.9876 48.325 60.1777C48.7812 59.3414 54.4072 59.3858 57.1632 59.5125Z" fill="#A2A6C8" stroke="black" stroke-width="0.3"/>
<path d="M67.4271 61.8883C67.1229 62.1925 66.7935 64.3592 66.6668 65.4046L63.7207 64.8344V61.3181C64.1769 60.938 66.3817 61.5399 67.4271 61.8883Z" fill="#8B8FB7" stroke="black" stroke-width="0.3"/>
<path d="M22 64.7393C22.2534 63.3772 23.6156 60.7479 27.0368 61.128C27.467 61.466 28.6719 62.6323 30.1313 64.6445C30.1945 64.7129 30.2394 64.7771 30.268 64.8344C30.2222 64.7702 30.1767 64.707 30.1313 64.6445C29.7051 64.1826 28.4502 63.5327 25.8014 63.5989C24.7243 63.5039 22.4562 63.5989 22 64.7393Z" fill="#8B8FB7" stroke="black" stroke-width="0.3"/>
<path d="M66.3809 72.4373L46.0435 76.3337V75.4784L66.3809 71.5819V72.4373Z" fill="#8B8FB7" stroke="black" stroke-width="0.3"/>
<path d="M43.763 76.7136L40.8169 77.1888V73.8626L41.8623 74.8129L43.763 74.5278V76.7136Z" fill="#8B8FB7" stroke="black" stroke-width="0.3"/>
<path d="M39.2965 77.569L31.1235 78.9945L31.6937 73.1023L39.2965 72.152V77.569Z" fill="#8B8FB7" stroke="black" stroke-width="0.3"/>
<path d="M28.7477 80.61C29.2799 80.61 29.4129 79.7863 29.4129 79.3745L25.9917 79.7546C26.0677 80.2868 26.7837 80.7684 27.1321 80.8951V81.9404L28.7477 81.6553V80.61Z" fill="#414141" stroke="black" stroke-width="0.3"/>
<path d="M31.6935 73.0072C31.7696 73.7675 31.3451 77.3788 31.1233 79.0894L24.2808 79.9448C22.8363 78.5002 22.1584 69.2058 22 64.7392C22.8363 62.9906 27.1635 63.5671 29.2226 64.074C30.5151 64.226 31.4084 67.4319 31.6935 69.0158C31.9976 70.7644 31.8202 72.4053 31.6935 73.0072Z" fill="#A2A6C8" stroke="black" stroke-width="0.3"/>
<path d="M63.2447 64.9293C63.8529 64.7012 65.8423 65.1511 66.7609 65.4045L37.0151 69.2059V69.7761L39.2009 72.1519L31.6932 73.1023C31.843 72.0835 31.8895 71.2772 31.8792 70.6568C31.8666 69.8989 32.5166 68.9318 33.2713 68.8608C50.5559 67.2363 60.4202 65.574 63.2447 64.9293Z" fill="#B9BCDB" stroke="black" stroke-width="0.3"/>
<path d="M71.8932 61.0331C72.4254 62.0974 72.115 64.8978 71.8932 66.1649L68.472 65.3096C68.2439 65.2336 67.2365 65.3413 66.7614 65.4046C66.6853 64.1882 67.1732 62.4902 67.4266 61.7933C67.2746 61.0331 68.1869 60.4628 68.6621 60.2728C70.3347 60.1207 71.5131 60.7163 71.8932 61.0331Z" fill="#A2A6C8" stroke="black" stroke-width="0.3"/>
<path d="M66.3813 75.8585L67.0466 76.3336L67.1416 71.4869L66.3813 71.6769V75.8585Z" fill="#414141" stroke="black" stroke-width="0.3"/>
<path d="M67.9019 71.2969L67.1416 71.487V72.3423L67.9019 72.6274V71.2969Z" fill="#414141" stroke="black" stroke-width="0.3"/>
<path d="M67.8062 76.1434L67.0459 76.3335V73.8626L67.8062 74.1477V76.1434Z" fill="#414141" stroke="black" stroke-width="0.3"/>
<path d="M67.1416 73.7679L73.604 76.5239L75.4096 76.1438L67.1416 72.7225V73.7679Z" fill="#414141" stroke="black" stroke-width="0.3"/>
<path d="M68.0919 65.3096L37.0156 69.206L41.8624 74.1478L78.5457 67.7805L68.9472 65.4046C68.8712 65.3286 68.3454 65.3096 68.0919 65.3096Z" fill="#6F6F6F" stroke="black" stroke-width="0.3"/>
<path d="M69.7072 60.2726L69.6364 60.2567C68.0913 59.931 67.4562 61.2016 67.3313 61.8881C64.825 60.9298 63.903 61.1449 63.7338 61.3899C63.7301 61.405 63.7255 61.413 63.72 61.413C63.7239 61.4053 63.7285 61.3976 63.7338 61.3899C63.7807 61.1966 63.6838 59.8373 63.625 59.1321C64.0051 58.9801 64.7337 59.1321 65.0505 59.2272L69.6364 60.2567C69.6598 60.2616 69.6834 60.2669 69.7072 60.2726Z" fill="#A2A6C8" stroke="black" stroke-width="0.3"/>
<path d="M37.0156 69.7762L41.8624 74.813V74.1478L37.0156 69.206V69.7762Z" fill="#414141" stroke="black" stroke-width="0.3"/>
<path d="M78.6407 68.2556L41.8623 74.813V74.1477L78.6407 67.7804V68.2556Z" fill="#414141" stroke="black" stroke-width="0.3"/>
<path d="M75.5042 69.8715L46.0435 75.4786V73.958L75.5042 68.9212V69.8715Z" fill="#595959" stroke="black" stroke-width="0.3"/>
<path d="M77.1203 68.5404L76.265 68.7304L76.1699 79.2793L77.1203 79.4693V68.5404Z" fill="#595959" stroke="black" stroke-width="0.3"/>
<path d="M75.5039 68.9211L75.5989 79.1848L76.2642 79.2799V68.731L75.5039 68.9211Z" fill="#414141" stroke="black" stroke-width="0.3"/>
<path d="M46.0435 84.1263V85.8369L54.3115 83.366C55.5279 82.5297 57.1625 81.9405 57.8277 81.7504C60.1086 80.0778 65.1137 79.4696 67.3312 79.3746C68.7757 78.0061 70.2773 78.6143 70.8475 79.0895L75.5042 77.6639V76.4285L46.0435 84.1263Z" fill="#595959" stroke="black" stroke-width="0.3"/>
<path d="M75.5999 76.0484L46.1392 83.5561V84.1263L75.5999 76.4285V76.0484Z" fill="#414141" stroke="black" stroke-width="0.3"/>
<path d="M43.6681 82.6056V83.8411L40.9121 80.3248V78.8042L43.6681 82.6056Z" fill="#595959" stroke="black" stroke-width="0.3"/>
<path d="M40.9121 78.8047L43.7631 82.7011V81.6557L41.1972 78.3295H40.9121V78.8047Z" fill="#414141" stroke="black" stroke-width="0.3"/>
<path d="M40.8169 82.5111C40.3608 82.6632 39.6765 82.5745 39.3914 82.5111L39.2964 72.3424L40.8169 73.863V82.5111Z" fill="#595959" stroke="black" stroke-width="0.3"/>
<path d="M46.0431 90.4937L44.3325 90.9689L44.4276 74.2428L46.0431 73.9577V90.4937Z" fill="#595959" stroke="black" stroke-width="0.3"/>
<path d="M43.8579 74.4328V90.4936L44.3331 90.9688V74.2427L43.8579 74.4328Z" fill="#414141" stroke="black" stroke-width="0.3"/>
<path d="M88.6196 93.4396L88.7147 91.5389C91.6037 93.2116 96.3174 93.7564 98.3132 93.8198C104.11 93.3446 107.151 87.8326 107.436 88.1177C107.665 88.3458 107.785 88.7196 107.817 88.878C107.208 91.0828 102.368 93.7881 100.024 94.8651C96.6786 95.0172 91.0272 93.9782 88.6196 93.4396Z" fill="#4E4E4E" stroke="black" stroke-width="0.3"/>
<path d="M98.1229 93.8198C94.3975 94.0479 90.3617 92.3943 88.8095 91.5389C89.0376 87.5095 87.7641 84.6648 87.0988 83.7461C86.1105 81.7694 80.9216 80.2615 78.4507 79.7547C77.9945 79.3745 78.8308 78.5192 79.306 78.1391C84.4759 73.1213 89.5697 72.5004 91.4704 72.8171C93.143 69.548 94.955 71.2649 95.652 72.532C100.138 71.8478 103.286 74.0209 104.3 75.193C107.341 76.4855 108.292 82.7007 108.387 85.6468C107.17 90.9687 101.037 93.3129 98.1229 93.8198Z" fill="#FBAB79" stroke="black" stroke-width="0.3"/>
<path d="M65.4309 83.0809C64.7467 83.6131 62.0414 83.9363 60.7742 84.0313C60.3181 84.5635 61.9146 84.5065 62.7699 84.4114C63.8343 84.7628 66.0645 83.6708 67.0465 83.0809C67.0465 82.3207 69.264 83.3977 70.3727 84.0313C72.1213 83.8032 70.6578 82.6691 69.7075 82.1306C68.1869 81.3703 66.2229 82.4474 65.4309 83.0809Z" fill="#7D386B" stroke="black" stroke-width="0.3"/>
<path d="M67.521 101.423C58.7778 101.803 50.2564 97.7164 47.0886 95.6256C46.7844 99.1989 48.9892 103.387 50.1297 105.034C55.2235 106.403 61.4388 107.315 63.9097 107.6C72.1207 108.512 78.9251 106.206 81.301 104.939C86.3948 101.746 88.1752 96.3859 88.4286 94.1051C84.7793 98.9708 72.9696 101.011 67.521 101.423Z" fill="#99327E" stroke="black" stroke-width="0.3"/>
<path d="M71.7027 108.74C82.1185 109.272 86.1163 102.5 86.8132 99.0467C85.5967 101.86 82.3782 104.21 80.921 105.034C76.2073 108.075 67.2994 107.948 63.4347 107.505C57.4285 106.821 52.0622 105.572 50.1298 105.034C48.8374 103.513 47.8807 101.042 47.5639 99.997C46.1954 104.787 51.7454 106.871 54.6915 107.315C61.61 109.139 68.915 109.025 71.7027 108.74Z" fill="#4E4E4E" stroke="black" stroke-width="0.3"/>
<path d="M75.5046 75.7636V76.0487L67.1416 72.6275V72.3424L75.5046 75.7636Z" fill="#414141" stroke="black" stroke-width="0.3"/>
<path d="M71.5132 72.2472C71.4371 72.8554 70.5311 73.3243 70.0877 73.4826L67.9019 72.6273V71.2969L71.5132 70.7266V72.2472Z" fill="#A2A6C8" stroke="black" stroke-width="0.3"/>
<defs>
<filter id="filter0_d_505_1680" x="0" y="0" width="132" height="132" filterUnits="userSpaceOnUse" color-interpolation-filters="sRGB">
<feFlood flood-opacity="0" result="BackgroundImageFix"/>
<feColorMatrix in="SourceAlpha" type="matrix" values="0 0 0 0 0 0 0 0 0 0 0 0 0 0 0 0 0 0 127 0" result="hardAlpha"/>
<feMorphology radius="1" operator="erode" in="SourceAlpha" result="effect1_dropShadow_505_1680"/>
<feOffset dx="2" dy="2"/>
<feGaussianBlur stdDeviation="7"/>
<feComposite in2="hardAlpha" operator="out"/>
<feColorMatrix type="matrix" values="0 0 0 0 0 0 0 0 0 0 0 0 0 0 0 0 0 0 0.18 0"/>
<feBlend mode="normal" in2="BackgroundImageFix" result="effect1_dropShadow_505_1680"/>
<feBlend mode="normal" in="SourceGraphic" in2="effect1_dropShadow_505_1680" result="shape"/>
</filter>
</defs>
</svg>
