<svg width="96" height="96" viewBox="0 0 96 96" fill="none" xmlns="http://www.w3.org/2000/svg">
<circle cx="48" cy="48" r="48" fill="#E2E2E2"/>
<path opacity="0.86" d="M71.57 55.9399H24.99V74.1099H71.57V55.9399Z" fill="#E83560" stroke="black" stroke-width="0.75" stroke-miterlimit="10"/>
<path d="M74.66 52.1499H22V55.9399H74.66V52.1499Z" stroke="black" stroke-width="0.75" stroke-miterlimit="10"/>
<path d="M44.2601 51.9201V52.1501H30.8401L32.5801 41.6001H41.9201L44.2601 51.9201Z" stroke="black" stroke-width="0.75" stroke-miterlimit="10"/>
<path d="M66.0201 51.9201V52.1501H52.6001L54.3301 41.6001H63.6801L66.0201 51.9201Z" stroke="black" stroke-width="0.75" stroke-miterlimit="10"/>
<path opacity="0.86" d="M45.9399 32.25L40.3499 32.3199L34.39 32.39L28.6799 32.46C28.9899 29.24 32.7399 26.7 37.3199 26.7C37.3799 26.7 37.4299 26.7 37.4799 26.7C41.8899 26.75 45.4999 29.16 45.9399 32.25Z" fill="#E7345F" stroke="black" stroke-width="0.75" stroke-miterlimit="10"/>
<path d="M40.3599 32.52C40.3599 34.07 39.0199 35.32 37.3699 35.32C35.7199 35.32 34.3799 34.07 34.3799 32.52C34.3799 32.48 34.3799 32.44 34.3799 32.4L40.3399 32.3101C40.3599 32.3801 40.3599 32.45 40.3599 32.52Z" stroke="black" stroke-width="0.75" stroke-miterlimit="10"/>
<path opacity="0.86" d="M67.8799 31.9799L62.2399 32.0499L56.36 32.1199L50.7 32.1899C51.18 29.0999 54.8499 26.6899 59.3099 26.6899C63.6599 26.6899 67.2699 28.9899 67.8799 31.9799Z" fill="#E7345F" stroke="black" stroke-width="0.75" stroke-miterlimit="10"/>
<path d="M62.3 32.57C62.3 34.09 60.9601 35.32 59.3101 35.32C57.6601 35.32 56.3201 34.09 56.3201 32.57C56.3201 32.42 56.3301 32.2701 56.3601 32.1301L62.2401 32.04C62.2801 32.22 62.3 32.4 62.3 32.57Z" stroke="black" stroke-width="0.75" stroke-miterlimit="10"/>
<path d="M37.4801 26.7L37.3201 21" stroke="black" stroke-width="0.75" stroke-miterlimit="10"/>
<path d="M59.3101 26.69V21" stroke="black" stroke-width="0.75" stroke-miterlimit="10"/>
</svg>
