<svg width="132" height="132" viewBox="0 0 132 132" fill="none" xmlns="http://www.w3.org/2000/svg">
<g filter="url(#filter0_d_505_1720)">
<rect x="11" y="11" width="106" height="106" rx="17" fill="#FFB7C5"/>
<rect x="11.05" y="11.05" width="105.9" height="105.9" rx="16.95" stroke="#929292" stroke-width="0.1"/>
</g>
<path d="M101.709 117.322H30.6569C30.0202 117.322 22.0318 117.662 17.1152 113.754C12.266 109.9 10.9936 102.354 11.0001 102.079L11 69L116.997 78.3936V101.524C117.075 102.21 115.743 108.873 111.901 112.735C107.949 116.708 101.99 117.362 101.709 117.322Z" fill="#EFECE0" stroke="#929292" stroke-width="0.1"/>
<path d="M64.5111 87.7571L65.2679 87.579C66.6212 87.6502 69.5711 84.819 70.8769 83.3945C71.1974 83.0028 71.3962 79.0468 71.4556 77.1178C71.4556 76.4412 71.3665 76.0346 71.322 75.9159C71.1796 75.5242 70.4911 75.5153 70.1646 75.5598L64.9118 77.7856C64.2351 77.9636 63.6505 78.8984 63.4427 79.3436L63.3092 86.199C63.2024 86.8757 64.1105 87.5196 64.5111 87.7571Z" fill="#BFBFBF" stroke="black" stroke-width="0.2"/>
<path d="M42.0308 77.1181L37.1786 79.4774C35.6116 79.9403 34.6857 79.1954 34.4186 78.7651C34.3474 78.4802 34.5076 75.2632 34.5967 73.6903C34.4898 73.0493 35.027 72.5329 35.3089 72.3549C36.1636 71.5358 40.2947 70.7968 42.2533 70.5297C43.1437 70.2804 43.3069 71.1084 43.2772 71.5536L42.8321 75.649C42.654 76.575 42.2237 77.0142 42.0308 77.1181Z" fill="#E4E4E4" stroke="black" stroke-width="0.2"/>
<path d="M106.756 63.9412L91.2205 70.2625L23.4676 61.5374L45.859 59L106.756 63.9412Z" fill="#C7B898" stroke="black" stroke-width="0.2"/>
<path d="M44.7018 65.1431L46.3044 66.8347C45.8771 67.725 46.6309 67.9772 47.0612 67.9921L47.2837 70.0843L41.6748 64.7424L44.7018 65.1431Z" fill="#A7A082" stroke="black" stroke-width="0.2"/>
<path d="M41.6747 64.7425L47.2837 70.0844L47.3282 70.6186H46.9721L46.1263 70.1289L40.6954 64.5645L41.6747 64.7425Z" fill="#8F8A74" stroke="black" stroke-width="0.2"/>
<path d="M50.6223 65.9445L49.7765 67.0574L48.352 66.8793L49.1087 65.7219L50.6223 65.9445Z" fill="#A7A082" stroke="black" stroke-width="0.2"/>
<path d="M50.6223 65.9443L49.732 67.0572L51.1565 67.2353L51.9133 66.1224L50.6223 65.9443Z" fill="#8F8A74" stroke="black" stroke-width="0.2"/>
<path d="M43.9004 73.1559L45.1023 73.423L47.0165 70.6185L46.0816 70.1733L43.9004 73.1559Z" fill="#A7A082" stroke="black" stroke-width="0.2"/>
<path d="M47.4172 72.7554L46.794 73.8238L45.1024 73.4231L47.0611 70.6187H47.2837L47.4172 72.7554Z" fill="#8F8A74" stroke="black" stroke-width="0.2"/>
<path d="M42.0309 80.6345L39.9387 81.1687L43.3219 76.0939L46.3934 74.5359L42.0309 80.6345Z" fill="#8F8A74" stroke="black" stroke-width="0.2"/>
<path d="M39.9386 81.1688L38.5586 80.6346L40.7399 77.7411L42.0308 77.1179C42.2801 77.0466 42.5205 76.643 42.6095 76.4501L43.3218 76.094L39.9386 81.1688Z" fill="#A7A082" stroke="black" stroke-width="0.2"/>
<path d="M23.4676 62.2496L91.2205 71.4198V70.2624L23.4676 61.5374V62.2496Z" fill="#A89C83" stroke="black" stroke-width="0.2"/>
<path d="M97.2746 85.4869L96.1172 86.3772L87.036 70.8857L89.2172 71.1974L97.2746 85.4869Z" fill="#A7A082" stroke="black" stroke-width="0.2"/>
<path d="M96.1175 86.4217L93.5801 85.8875L90.8202 81.3469L91.4879 79.5663L90.5976 78.1863L88.817 78.0083L84.2764 70.4851L86.9918 70.8857L96.1175 86.4217Z" fill="#8F8A74" stroke="black" stroke-width="0.2"/>
<path d="M90.0634 72.7998L91.5324 75.4708L93.2685 70.5295L91.1763 71.4644L90.375 71.3308L90.0634 72.7998Z" fill="#A7A082" stroke="black" stroke-width="0.2"/>
<path d="M91.5322 75.5154L92.3335 76.8509L94.6038 69.9509L93.3129 70.5296L91.5322 75.5154Z" fill="#8F8A74" stroke="black" stroke-width="0.2"/>
<path d="M86.7247 92.921L84.8551 94.1674L90.6421 78.1863L91.4879 79.5663L86.7247 92.921Z" fill="#8F8A74" stroke="black" stroke-width="0.2"/>
<path d="M24.8038 76.45C25.5516 77.3047 26.6289 76.8952 27.0741 76.5836C25.614 76.3699 25.0412 75.812 24.9373 75.5597L25.2489 70.7965C25.2489 69.5501 25.1005 68.9714 25.0264 68.8378L24.6702 66.6121H24.5367V67.903C24.5723 68.0811 24.7889 69.372 24.8928 69.9953C24.5723 70.2445 24.2547 70.9004 24.136 71.1972L23.869 74.7584C23.7265 75.4351 24.4328 76.1681 24.8038 76.45Z" fill="#BFBFBF" stroke="black" stroke-width="0.2"/>
<path d="M23.3342 64.2529L31.9257 65.5884C31.4983 65.1254 31.985 64.5942 32.2818 64.3864L23.3342 63.1845C22.7287 63.5406 23.0819 64.0451 23.3342 64.2529Z" fill="#636363" stroke="black" stroke-width="0.2"/>
<path d="M34.1514 69.016C34.6856 70.8678 34.9378 72.2211 34.9972 72.6663C34.5342 72.8443 34.5372 73.6604 34.5965 74.0462L34.4185 77.474C34.4185 78.0438 34.3888 78.483 34.374 78.6314L34.1514 78.0081V72.1321L33.3056 69.105L32.3707 65.8999C32.0146 65.7218 31.8069 65.3508 31.7475 65.1876C32.0324 63.9768 32.6378 64.416 32.9049 64.787L34.1514 69.016Z" fill="#636363" stroke="black" stroke-width="0.2"/>
<path d="M31.481 65.5439C31.8727 65.5083 32.119 65.7368 32.1932 65.8555L32.1487 66.7903C32.0063 67.1108 31.11 67.1613 30.6797 67.1464L27.7862 66.7458L24.1359 65.9445C24.0291 65.5172 23.9133 64.7278 23.8688 64.3865L31.481 65.5439Z" fill="#757575" stroke="black" stroke-width="0.2"/>
<path d="M26.4058 76.4057L33.4393 78.4979C33.2612 77.8213 33.4244 74.0612 33.5283 72.2657L32.9051 69.5948C32.7982 68.7045 32.2967 68.1258 32.0593 67.9477C31.5607 67.9477 30.8722 67.7993 30.5903 67.7251C26.9578 67.2265 25.1297 66.8051 24.6697 66.6567L25.0703 68.927C25.4264 69.3544 25.1297 73.1709 24.9368 75.0257C24.545 75.7735 25.7529 76.2573 26.4058 76.4057Z" fill="#757575" stroke="black" stroke-width="0.2"/>
<path d="M42.5204 74.1799C42.5916 75.4263 42.2533 76.0941 42.0752 76.2721L41.4966 76.7618L40.7398 77.2515L39.2263 77.9192L37.6682 78.5424L36.0211 79.0321C35.1308 79.2458 34.9379 78.1121 34.9527 77.5186L35.3089 73.6012C35.4869 72.4972 37.1637 72.0431 37.9798 71.9541L42.654 72.8889L42.5204 74.1799Z" fill="#757575" stroke="black" stroke-width="0.2"/>
<path d="M34.9971 77.1179C34.8191 78.1151 35.19 78.7502 35.3978 78.9431L35.9319 79.6108C34.9704 79.5396 34.5223 78.9876 34.4184 78.7205V77.0734L34.5965 73.2451C34.8814 72.426 36.1397 71.8354 36.7332 71.6425C38.4782 71.1439 40.9325 70.7225 41.9415 70.5741C42.2264 70.5029 42.5648 70.4851 42.6983 70.4851C42.5915 70.5207 42.5648 70.7374 42.5648 70.8412C42.2086 70.77 38.6177 71.7612 36.8668 72.2657C35.9764 72.3013 35.4571 73.1709 35.3087 73.6012L34.9971 77.1179Z" fill="#BFBFBF" stroke="black" stroke-width="0.2"/>
<path d="M36.2883 79.0321C37.8167 78.5424 41.0871 77.3405 41.9418 76.4502C42.0902 76.2721 42.3959 75.7914 42.4315 75.2928C42.5799 73.987 42.8232 71.2775 42.6095 70.8857C42.5947 70.767 42.6006 70.5296 42.7431 70.5296C43.025 70.4554 43.482 71.0193 43.0547 73.8683C43.0102 74.818 42.7698 76.7796 42.1644 77.0289L37.4012 79.3882C37.1786 79.4921 36.591 79.682 36.0212 79.6108C36.0027 79.6085 35.9851 79.6063 35.9683 79.6042C35.9712 79.6064 35.9739 79.6086 35.9767 79.6108C35.7614 79.5821 35.471 79.5423 35.9683 79.6042C35.7582 79.438 35.3628 79.0836 35.398 78.9431C35.5315 79.0024 35.8966 79.1033 36.2883 79.0321Z" fill="#B4B4B4" stroke="black" stroke-width="0.2"/>
<path d="M33.6173 78.9431C34.1871 80.3676 36.3179 80.2786 37.3566 80.1896C37.9054 80.2941 37.3377 79.4097 36.7918 79.5287C36.5842 79.574 36.3976 79.6016 36.2437 79.6109C35.5671 79.6465 35.1011 79.418 34.9528 79.2992C34.2405 78.9075 34.1218 78.0973 34.1515 77.7412V72.1322L32.5489 66.3007C32.5133 65.8733 32.2967 65.8258 32.1928 65.8555C32.2284 66.0336 32.1779 66.5232 32.1483 66.7458C31.9702 67.1376 31.0651 67.1761 30.6347 67.1465L26.9399 66.6123C26.3701 66.4342 24.8625 66.0929 24.18 65.9445C24.0019 66.4075 24.7883 66.731 25.2038 66.8349L31.8367 67.9478C32.5845 67.6272 33.276 70.7226 33.5283 72.3103L33.3947 76.6283C33.2879 78.0528 33.4986 78.7651 33.6173 78.9431Z" fill="#BFBFBF" stroke="black" stroke-width="0.2"/>
<path d="M36.8225 85.0863L35.6651 84.9527L36.6444 83.5728C36.7156 83.7152 36.7928 84.6411 36.8225 85.0863Z" fill="#B4B4B4" stroke="black" stroke-width="0.2"/>
<path d="M36.1992 83.1721L35.6205 84.1069V84.9973L36.5998 83.5282C36.671 83.2433 36.3624 83.1721 36.1992 83.1721Z" fill="#B4B4B4" stroke="black" stroke-width="0.2"/>
<path d="M24.4474 89.5377C24.0912 89.6445 23.6164 89.5822 23.4235 89.5377L23.8241 87.7125C23.9666 87.1427 24.477 86.8816 24.7144 86.8222L34.3298 84.9971V86.5106L24.8925 87.5345C24.6432 87.5345 24.4919 87.6532 24.4474 87.7125V89.5377Z" fill="#BFBFBF" stroke="black" stroke-width="0.2"/>
<path d="M35.1752 85.3532V86.5552L33.7952 90.7396C33.7952 91.4519 33.7062 92.9357 33.6617 93.5886C33.4124 93.7311 32.9346 93.648 32.7268 93.5886C32.62 93.2325 32.9791 91.4222 33.172 90.5616L34.6855 85.4423C34.7567 85.1218 35.0416 85.2494 35.1752 85.3532Z" fill="#BFBFBF" stroke="black" stroke-width="0.2"/>
<path d="M47.595 69.9509C47.6306 69.7728 47.2537 68.5709 47.0608 67.9922C47.4881 71.3398 47.5059 73.8979 47.4614 74.7586C47.3902 75.1503 46.9866 75.6934 46.7937 75.916C46.6512 76.094 46.5563 79.6108 46.5266 81.3469C46.6334 82.2372 47.6691 82.994 48.1737 83.2611C48.5298 83.724 50.162 83.4243 50.9336 83.2165C48.9393 82.7892 48.144 82.0888 47.9956 81.792C47.8888 81.6496 48.0401 79.4772 48.1291 78.4089C48.4497 74.2778 47.9956 71.5238 47.7285 70.6631C47.3724 70.3782 47.4911 70.0696 47.595 69.9509Z" fill="#BFBFBF" stroke="black" stroke-width="0.2"/>
<path d="M47.061 67.9921L60.5047 69.9508C60.1486 68.5263 60.9202 68.5263 61.3505 68.7044C61.03 68.3838 60.5047 68.3334 60.2822 68.3482L47.6842 66.7902C46.7227 66.1492 46.3042 66.7308 46.2152 67.1018C46.0372 67.7428 46.7049 67.9624 47.061 67.9921Z" fill="#636363" stroke="black" stroke-width="0.2"/>
<path d="M49.4207 82.7714L61.7961 86.2882L61.7516 77.7857L60.3271 72.889C52.3142 72.0343 48.5898 71.0193 47.7291 70.6187C48.4058 72.9335 48.3672 75.5599 48.2633 76.5838C48.2633 77.8658 48.1446 78.3941 48.0853 78.4979L47.9072 80.9908C47.7291 82.0236 48.842 82.6082 49.4207 82.7714Z" fill="#757575" stroke="black" stroke-width="0.2"/>
<path d="M65.3568 77.5632C64.4665 77.7768 63.7097 78.7799 63.4426 79.2548V77.7412L63.3091 77.207L65.3568 77.5632Z" fill="#757575" stroke="black" stroke-width="0.2"/>
<path d="M67.6723 85.2642C66.8532 85.9764 65.313 86.6887 64.6452 86.9558C64.0042 86.6353 64.0517 85.6055 64.1556 85.1306L64.2446 80.4565C64.209 80.1716 64.4672 79.5662 64.6007 79.2991C64.7432 78.6937 66.1143 78.0675 66.782 77.8301L70.7884 78.7204L70.6549 81.6584C70.5124 82.8336 70.2987 83.2462 70.2097 83.3055L67.6723 85.2642Z" fill="#757575" stroke="black" stroke-width="0.2"/>
<path d="M70.6988 75.916L65.446 78.4534C64.9474 78.5602 64.4666 79.5366 64.2886 80.0115L64.155 85.1753C63.9413 86.0656 64.3628 86.7927 64.6002 87.0449C65.0987 87.864 67.093 86.3772 68.0279 85.5314C69.2031 84.7479 70.0608 83.6024 70.3427 83.1276C70.6632 82.807 70.8324 78.7205 70.8769 76.7173C71.0193 76.3256 70.8175 76.0199 70.6988 75.916Z" stroke="black" stroke-width="0.2"/>
<path d="M70.6988 83.4837C67.4581 87.223 65.4311 87.7423 64.8227 87.5346C64.7871 87.4634 64.8376 87.3565 64.8673 87.312C65.6507 87.6681 68.4582 85.2643 69.764 84.0179C70.2625 83.4837 70.4169 82.994 70.4317 82.8159C70.7166 81.9969 70.8769 78.3495 70.9214 76.6283C71.0994 76.3434 70.8472 76.0347 70.6988 75.916C71.0193 75.8448 71.1885 76.0644 71.233 76.1831L71.0104 81.3914C71.0104 81.9968 70.8027 83.0385 70.6988 83.4837Z" fill="#B4B4B4" stroke="black" stroke-width="0.2"/>
<path d="M62.1073 87.045C60.4335 87.3299 57.0028 85.4276 55.4745 84.5076C60.6383 86.1814 61.8847 86.6146 61.8847 86.5553L62.1073 87.045Z" fill="#757575" stroke="black" stroke-width="0.2"/>
<path d="M62.8645 85.9319C63.2562 87.0359 64.0961 87.6086 64.467 87.757C64.1821 87.8995 63.2206 87.8164 62.7755 87.757C62.2769 87.3653 61.9148 86.6441 61.7961 86.3325V77.9191L60.3716 72.8443C53.6765 72.2033 49.0943 71.0637 47.6401 70.574C47.3908 70.1822 47.5362 69.9953 47.6401 69.9508C57.7897 72.23 60.2084 71.8501 60.149 71.3753L60.1045 69.9062L60.9948 70.1288L62.8645 77.9636V85.9319Z" fill="#BFBFBF" stroke="black" stroke-width="0.2"/>
<path d="M63.3094 86.0211C63.2382 86.8402 64.1107 87.5198 64.5559 87.7572C63.5231 87.3655 63.0275 86.4069 62.9088 85.9766L62.8643 77.7857L60.9946 70.04C60.1043 70.1468 60.4159 69.1645 60.594 68.7045C61.4487 68.3484 61.6327 69.0309 61.6178 69.4167L63.443 77.7857C63.443 78.1774 63.3539 83.4392 63.3094 86.0211Z" fill="#636363"/>
<path d="M62.8197 87.7572C63.2056 87.8165 64.0929 87.8996 64.5559 87.7572M64.5559 87.7572C64.1107 87.5198 63.2382 86.8402 63.3094 86.0211C63.3539 83.4392 63.443 78.1774 63.443 77.7857L61.6178 69.4167C61.6327 69.0309 61.4487 68.3484 60.594 68.7045C60.4159 69.1645 60.1043 70.1468 60.9946 70.04L62.8643 77.7857L62.9088 85.9766C63.0275 86.4069 63.5231 87.3655 64.5559 87.7572Z" stroke="black" stroke-width="0.2"/>
<path d="M59.6593 93.4105L60.0154 95.1021C60.0154 93.6776 60.3419 93.4402 60.5051 93.4995C60.8256 93.4283 61.0541 94.3898 61.1283 94.8795L60.9503 87.6235C60.4873 87.5878 59.8967 87.3712 59.6593 87.2673V93.4105Z" fill="#BFBFBF" stroke="black" stroke-width="0.2"/>
<path d="M58.5906 92.7874C58.9112 92.9298 59.4661 92.8467 59.7035 92.7874C59.0981 91.5409 58.9468 90.8435 58.9468 90.6506C58.8043 90.7575 58.65 92.1197 58.5906 92.7874Z" fill="#B4B4B4" stroke="black" stroke-width="0.2"/>
<path d="M58.8576 90.9622L59.6589 92.9209V91.4073L59.2137 90.1609C58.8576 90.1609 58.8279 90.6951 58.8576 90.9622Z" fill="#B4B4B4" stroke="black" stroke-width="0.2"/>
<path d="M48.1294 96.5713L60.0596 95.3248L59.659 93.4106L48.3075 95.6809C46.9186 95.6097 46.4824 97.9661 46.4378 99.1532C46.8652 99.4025 47.3875 99.257 47.5952 99.1532V97.15C47.6665 96.7582 47.981 96.6009 48.1294 96.5713Z" fill="#BFBFBF" stroke="black" stroke-width="0.2"/>
<path d="M62.3748 101.78L61.1729 95.1913C61.0364 94.4434 60.8489 93.841 60.7722 93.6333C60.6298 93.384 60.3271 93.5294 60.1935 93.6333L60.06 95.3248L61.618 101.869L61.3064 105.43C61.9118 105.893 62.5083 105.623 62.7309 105.43C62.6241 103.685 62.449 102.269 62.3748 101.78Z" fill="#BFBFBF" stroke="black" stroke-width="0.2"/>
<path d="M73.8152 97.506C73.3166 97.7553 72.8359 97.6099 72.6578 97.506L72.7914 95.5473C72.6845 95.298 72.5094 95.206 72.4352 95.1912H61.1728V93.3215L72.6578 94.3009C73.4769 94.4077 73.7707 96.4821 73.8152 97.506Z" fill="#BFBFBF" stroke="black" stroke-width="0.2"/>
<path d="M62.8197 87.7572C59.8282 88.0065 56.7507 85.6501 55.5191 84.5076C59.5789 86.8224 61.6178 87.2379 62.1965 87.0895L62.8197 87.7572Z" fill="#BFBFBF" stroke="black" stroke-width="0.2"/>
<path d="M71.0995 82.6378L71.1048 82.6336C71.1786 82.5182 71.3387 80.0852 71.4111 78.854L73.4588 79.2992C74.8121 79.4772 75.0317 79.9372 74.9724 80.145C74.6875 81.0709 74.1414 80.6791 73.904 80.3675L71.1048 82.6336C71.103 82.6364 71.1012 82.6378 71.0995 82.6378Z" fill="#757575" stroke="black" stroke-width="0.2"/>
<path d="M60.1488 71.2418C60.22 71.4911 59.852 71.6425 59.6591 71.687C58.7332 71.9007 55.6527 71.4792 54.2282 71.2418C53.6584 71.2418 49.5689 70.3812 47.5953 69.9509C47.6666 69.844 47.2689 68.6006 47.0612 67.9922L60.1042 69.9064L60.1488 71.2418Z" fill="#757575" stroke="black" stroke-width="0.2"/>
<path d="M46.3045 88.5583C46.0908 88.6652 45.6219 88.6028 45.4142 88.5583V86.9112C45.4142 86.7688 45.1471 86.6442 45.0135 86.5996L35.5317 86.4661L35.6652 84.9971L45.2361 85.8429C46.0819 86.0209 46.3045 88.4693 46.3045 88.5583Z" fill="#BFBFBF" stroke="black" stroke-width="0.2"/>
<path d="M35.4871 86.4662L35.22 86.5552L35.1309 85.3533C34.9529 85.104 34.76 85.2791 34.6858 85.3978L34.3297 86.5107V84.9971L34.5522 79.9224C34.6591 80.0648 35.4574 80.1301 35.8432 80.234L35.5761 84.0623L35.7096 84.9971L35.4871 86.4662Z" fill="#BFBFBF" stroke="black" stroke-width="0.2"/>
<path d="M42.6096 76.4502L42.6183 76.4457C42.7344 76.3338 43.0737 74.1357 43.2328 73.0225L45.1915 73.4676C46.7584 73.7525 47.1502 73.9721 47.1502 74.0463C47.6487 73.8326 47.536 74.5508 47.4173 74.9366H46.8831C46.2777 74.9366 46.3934 74.6102 46.5269 74.447L42.6183 76.4457C42.6152 76.4487 42.6123 76.4502 42.6096 76.4502Z" fill="#757575" stroke="black" stroke-width="0.2"/>
<path d="M84.8103 94.2119L82.0503 93.3661L88.2825 77.1179L88.8167 78.0082L90.6418 78.1863L84.8103 94.2119Z" fill="#A7A082" stroke="black" stroke-width="0.2"/>
<path d="M106.757 64.6979L91.2208 71.4198V70.2624L106.757 63.9412V64.6979Z" fill="#A89C83" stroke="black" stroke-width="0.2"/>
<path d="M64.6758 62.8657C64.7651 62.8211 64.9857 62.8471 65.0849 62.8657L75.6284 64.0372V64.093L68.8412 65.6178C68.618 65.6476 68.4383 65.6302 68.3763 65.6178L58.0001 63.8884L64.6758 62.8657Z" fill="#525558" stroke="black" stroke-width="0.2"/>
<path d="M75.74 64.4278L75.4983 64.4092C75.647 64.2753 75.647 64.1055 75.6285 64.0373L65.0849 62.8658L66.9816 55.8368C67.0263 55.6731 67.1614 55.595 67.2234 55.5765L77.302 55C77.7037 55.0149 77.7545 55.1302 77.7297 55.186L75.74 64.4278Z" fill="#525558" stroke="black" stroke-width="0.2"/>
<path d="M65.3453 64.1859L63.2068 64.5392C63.1027 64.5564 63.0023 64.5464 62.9651 64.5392L60.399 64.1487C60.2204 64.1338 60.3494 64.0929 60.4361 64.0743L62.5374 63.7582C62.6564 63.7433 62.7358 63.752 62.7606 63.7582L65.3081 64.0929C65.442 64.0929 65.3887 64.1549 65.3453 64.1859Z" fill="#424242" stroke="black" stroke-width="0.2"/>
<path d="M71.0168 64.8367L73.8991 64.1673L64.3783 63.033L61.4031 63.4792L71.0168 64.8367Z" fill="#424242" stroke="black" stroke-width="0.2"/>
<path d="M75.4056 62.9772L76.9862 55.7437L67.2795 56.1156L65.6803 61.9545C65.6654 62.0289 65.6865 62.0722 65.6989 62.0846L75.4056 62.9772Z" fill="#86B5E7" stroke="black" stroke-width="0.2"/>
<path d="M75.6282 64.093L68.8596 65.6178C68.8596 65.7071 69.0145 65.9216 69.1943 65.9711L72.4113 65.3203L75.3679 64.5207C75.6208 64.3719 75.6468 64.1736 75.6282 64.093Z" fill="#424242" stroke="black" stroke-width="0.2"/>
<path d="M68.2275 65.5806C68.4804 65.655 68.7544 65.6364 68.8598 65.6178C68.8598 65.8112 69.0457 65.9215 69.1387 65.9525C68.9751 66.0418 68.1531 66.0145 67.7626 65.9897L58.6324 64.2975C58.2307 64.1785 58.0435 63.9752 58.0001 63.8884L68.2275 65.5806Z" fill="#424242" stroke="black" stroke-width="0.2"/>
<defs>
<filter id="filter0_d_505_1720" x="0" y="0" width="132" height="132" filterUnits="userSpaceOnUse" color-interpolation-filters="sRGB">
<feFlood flood-opacity="0" result="BackgroundImageFix"/>
<feColorMatrix in="SourceAlpha" type="matrix" values="0 0 0 0 0 0 0 0 0 0 0 0 0 0 0 0 0 0 127 0" result="hardAlpha"/>
<feMorphology radius="1" operator="erode" in="SourceAlpha" result="effect1_dropShadow_505_1720"/>
<feOffset dx="2" dy="2"/>
<feGaussianBlur stdDeviation="7"/>
<feComposite in2="hardAlpha" operator="out"/>
<feColorMatrix type="matrix" values="0 0 0 0 0 0 0 0 0 0 0 0 0 0 0 0 0 0 0.18 0"/>
<feBlend mode="normal" in2="BackgroundImageFix" result="effect1_dropShadow_505_1720"/>
<feBlend mode="normal" in="SourceGraphic" in2="effect1_dropShadow_505_1720" result="shape"/>
</filter>
</defs>
</svg>
