<svg width="132" height="132" viewBox="0 0 132 132" fill="none" xmlns="http://www.w3.org/2000/svg">
<g filter="url(#filter0_d_505_1628)">
<rect x="11" y="11" width="106" height="106" rx="17" fill="#FFB7C5"/>
<rect x="11.05" y="11.05" width="105.9" height="105.9" rx="16.95" stroke="#929292" stroke-width="0.1"/>
</g>
<path d="M29.1551 93.356L28.4756 92.6086L76.92 96.9571L83.5106 93.2201L82.6953 94.3752L76.5124 97.8404L29.1551 93.356Z" fill="#383838" stroke="black" stroke-width="0.5"/>
<path d="M28.0001 92.5406V91.7932L76.8522 96.2096L84.0543 92.065V92.8803L76.8522 96.957L28.0001 92.5406Z" fill="#515151" stroke="black" stroke-width="0.5"/>
<path d="M91.1204 92.8804C86.3915 92.2825 84.5751 94.4432 84.258 95.5982C85.0734 97.5007 88.4479 96.9798 90.0333 96.4815C95.4689 94.9052 97.5525 95.5982 97.9149 96.1418C98.0236 95.9787 98.0055 95.7115 97.9828 95.5982C96.4609 94.5655 94.7668 93.7637 94.11 93.4919C94.0556 93.2202 93.8155 93.0616 93.7023 93.0163C92.6152 93.0707 91.5281 92.9484 91.1204 92.8804Z" fill="#303030" stroke="black" stroke-width="0.5"/>
<path d="M96.8956 97.6364L97.9148 96.1416C96.3385 94.6196 91.4147 95.9604 89.1499 96.821C85.8342 97.3646 84.5071 96.2322 84.2579 95.598C84.1492 96.1959 85.1186 97.7949 85.6168 98.5196C86.9214 98.9545 90.0559 98.9273 91.46 98.8594C93.6886 98.0984 96.0123 97.7269 96.8956 97.6364Z" fill="#292929" stroke="black" stroke-width="0.5"/>
<path d="M84.1902 86.5616V86.0181L73.1832 89.0756L47.3643 87.1052L49.0629 88.6679L73.5229 90.2306L83.7146 87.1052L84.1902 86.5616Z" fill="#464646" stroke="black" stroke-width="0.5"/>
<path d="M59.7984 84.4551L63.8071 84.591V85.6781L73.4552 86.2896L74.95 85.8819V85.4063L84.2584 86.0178L73.2514 89.0753L47.2966 87.1049L59.7984 84.4551Z" fill="#727272" stroke="black" stroke-width="0.5"/>
<path d="M68.2908 76.0301L65.8448 75.9622C65.4643 78.9517 67.181 79.8803 68.0869 79.9709C68.9023 80.0252 69.6044 79.6765 69.8535 79.4953C68.2772 79.0604 68.1549 77.004 68.2908 76.0301Z" stroke="black" stroke-width="0.5"/>
<path d="M67.9513 79.9709C65.7771 79.4817 65.6412 77.0946 65.845 75.9622L71.5523 76.166C71.661 79.373 69.1969 80.0388 67.9513 79.9709Z" stroke="black" stroke-width="0.5"/>
<path d="M74.9492 85.882L73.3865 86.2897L73.7941 76.2339H75.153L74.9492 85.882Z" fill="#3D3D3D" stroke="black" stroke-width="0.5"/>
<path d="M63.7386 85.6782L64.2142 75.9622L73.7943 76.2339L73.3867 86.2897C68.6034 86.1267 64.9616 85.8141 63.7386 85.6782Z" fill="#4A4A4A" stroke="black" stroke-width="0.5"/>
<path d="M92.9553 71.5459H92.3438V76.4379C92.2895 76.601 92.0494 76.7323 91.9362 76.7776H92.3438C92.6156 76.832 92.7741 76.6191 92.8194 76.5058L92.9553 71.5459Z" fill="#989898" stroke="black" stroke-width="0.5"/>
<path d="M37.0369 74.739L37.1728 70.8662L92.3437 71.5457V76.3697C92.3437 76.6415 91.9813 76.7547 91.8002 76.7774L37.4446 75.0108C37.0641 75.0108 37.0143 74.8296 37.0369 74.739Z" fill="#474747" stroke="black" stroke-width="0.5"/>
<path d="M92.9549 71.5457H92.3434L93.4305 33.4968C93.4848 33.2794 93.3172 33.0892 93.2266 33.0212C93.6615 32.9669 93.9967 33.4968 94.1099 33.7686L92.9549 71.5457Z" fill="#989898" stroke="black" stroke-width="0.5"/>
<path d="M37.7837 70.8663H37.1722L38.8709 39.5439C38.7621 39.0003 39.2332 38.8192 39.4824 38.7965L92.9547 33.0212C93.3352 32.9125 93.4303 33.2477 93.4303 33.4289L92.3432 71.5457H91.5958L92.6829 33.8366L39.5503 39.6118L37.7837 70.8663Z" fill="#1E1B1D" stroke="black" stroke-width="0.5"/>
<path d="M28.0001 91.7933L37.3764 88.5999L83.9864 92.0651L76.8522 96.2776L28.0001 91.7933Z" fill="#656565" stroke="black" stroke-width="0.5"/>
<path d="M91.5961 71.4779L92.6152 33.8367L39.5506 39.612L37.784 70.8664L91.5961 71.4779Z" fill="#53BAF5" stroke="black" stroke-width="0.5"/>
<defs>
<filter id="filter0_d_505_1628" x="0" y="0" width="132" height="132" filterUnits="userSpaceOnUse" color-interpolation-filters="sRGB">
<feFlood flood-opacity="0" result="BackgroundImageFix"/>
<feColorMatrix in="SourceAlpha" type="matrix" values="0 0 0 0 0 0 0 0 0 0 0 0 0 0 0 0 0 0 127 0" result="hardAlpha"/>
<feMorphology radius="1" operator="erode" in="SourceAlpha" result="effect1_dropShadow_505_1628"/>
<feOffset dx="2" dy="2"/>
<feGaussianBlur stdDeviation="7"/>
<feComposite in2="hardAlpha" operator="out"/>
<feColorMatrix type="matrix" values="0 0 0 0 0 0 0 0 0 0 0 0 0 0 0 0 0 0 0.18 0"/>
<feBlend mode="normal" in2="BackgroundImageFix" result="effect1_dropShadow_505_1628"/>
<feBlend mode="normal" in="SourceGraphic" in2="effect1_dropShadow_505_1628" result="shape"/>
</filter>
</defs>
</svg>
