<svg width="96" height="96" viewBox="0 0 96 96" fill="none" xmlns="http://www.w3.org/2000/svg">
<circle cx="48" cy="48" r="48" fill="#E2E2E2"/>
<path opacity="0.86" d="M74.6516 50.8799C73.4216 47.4799 72.0416 45.2299 70.6816 43.0099C68.6116 39.6299 67.6316 38.9 67.2216 38.61C63.8116 36.24 59.5416 37.11 58.9816 37.24C54.6116 38.2 53.9116 40.0699 50.4716 41.1899C43.2316 43.5399 39.5316 36.3 32.5516 38.15C27.0116 39.62 23.9116 45.6 22.2216 48.93C19.9316 53.45 19.4916 57.5099 19.1816 60.3199C18.9816 62.1299 18.8016 65.03 19.4816 68.52C20.0316 71.34 20.4716 73.3899 22.2116 74.4399C24.5116 75.8299 27.4716 74.52 27.8716 74.34C29.7916 73.46 30.0816 72.29 32.3816 69.8899C33.7116 68.51 35.6916 66.45 38.1516 65.34C40.6116 64.22 41.4316 64.9999 48.1416 64.9399C55.0016 64.8799 55.9616 64.0499 58.3516 65.1899C60.5216 66.2299 60.0816 67.0899 63.9716 70.5099C66.9816 73.1499 70.1516 75.9199 72.6316 75.0699C73.6116 74.7299 74.3716 73.86 75.2216 71.9C79.0516 63.07 75.4516 53.0999 74.6516 50.8799ZM40.9416 54.0699H36.8216V58.54H33.0716V54.0699H29.1216V50.3199H33.0716V45.85H36.8216V50.3199H40.9416V54.0699ZM59.3616 58.15C57.7616 58.15 56.4716 56.8499 56.4716 55.2599C56.4716 53.6599 57.7616 52.37 59.3616 52.37C60.9616 52.37 62.2516 53.6599 62.2516 55.2599C62.2516 56.8499 60.9616 58.15 59.3616 58.15ZM59.3616 49.78C57.7616 49.78 56.4716 48.4899 56.4716 46.8899C56.4716 45.2899 57.7616 43.9999 59.3616 43.9999C60.9616 43.9999 62.2516 45.2899 62.2516 46.8899C62.2516 48.4899 60.9616 49.78 59.3616 49.78ZM67.0116 53.8C65.4116 53.8 64.1216 52.51 64.1216 50.91C64.1216 49.31 65.4116 48.02 67.0116 48.02C68.6116 48.02 69.9016 49.31 69.9016 50.91C69.9016 52.51 68.6116 53.8 67.0116 53.8Z" fill="#E7345F" stroke="black" stroke-width="0.75" stroke-miterlimit="10"/>
<path d="M46.2417 39.95C47.4317 39.95 48.6217 39.95 49.8117 39.95C50.8417 38.54 52.0517 36.3801 51.8517 33.8701C51.5317 29.8001 47.7917 28.3901 47.2517 24.6801C46.9717 22.7701 47.5017 19.92 51.3417 16C50.0617 16 48.7917 16 47.5117 16C44.1917 20.09 43.8717 23.02 44.1917 24.94C44.8117 28.68 48.1117 30.19 48.2817 34.13C48.3917 36.6 47.1917 38.66 46.2417 39.95Z" stroke="black" stroke-width="0.75" stroke-miterlimit="10"/>
</svg>
