<svg width="132" height="132" viewBox="0 0 132 132" fill="none" xmlns="http://www.w3.org/2000/svg">
<g filter="url(#filter0_d_505_1607)">
<rect x="11" y="11" width="106" height="106" rx="17" fill="#FFB7C5"/>
<rect x="11.05" y="11.05" width="105.9" height="105.9" rx="16.95" stroke="#929292" stroke-width="0.1"/>
</g>
<path d="M62.345 75.9591L52.0995 94.4514C50.0878 98.0824 44.5113 101.338 41.846 98.1561C40.0555 96.0184 41.2424 93.997 42.528 91.5225L52.9235 71.5144C54.4017 73.0782 59.7072 75.7792 62.345 75.9591Z" fill="#3D3E3A" stroke="black" stroke-width="0.5"/>
<path d="M55.7191 47.2793L48.0558 62.7171C53.101 75.3102 65.5836 76.5406 71.1943 75.5817L80.143 59.5458C66.6407 62.2235 58.2345 52.4838 55.7191 47.2793Z" fill="#3D3E3A" stroke="black" stroke-width="0.5"/>
<path d="M64.9334 67.4856C65.7799 66.5336 64.8673 65.7869 64.3053 65.5326C63.5893 65.0831 62.9042 65.6178 62.6512 65.9414C61.9888 66.5928 62.6578 67.5381 63.075 67.9293C63.6882 68.5646 64.5694 67.8982 64.9334 67.4856Z" fill="#F0F0F0" stroke="black" stroke-width="0.5"/>
<path d="M67.3245 62.8633C68.1709 61.9113 67.2584 61.1646 66.6963 60.9103C65.9804 60.4608 65.2953 60.9955 65.0422 61.3191C64.3799 61.9705 65.0488 62.9158 65.4661 63.307C66.0792 63.9423 66.9605 63.2759 67.3245 62.8633Z" fill="#F0F0F0" stroke="black" stroke-width="0.5"/>
<path d="M58.6299 64.0637C59.3345 63.0687 58.4177 62.1658 57.8712 61.8387C56.9592 61.4228 56.4529 62.1512 56.3138 62.5674C55.9632 63.4683 56.6317 64.181 57.0097 64.4248C57.5957 65.0983 58.334 64.4647 58.6299 64.0637Z" fill="#F0F0F0" stroke="black" stroke-width="0.5"/>
<path d="M60.7888 59.5069C61.4933 58.5119 60.5766 57.6089 60.0301 57.2819C59.118 56.8659 58.6118 57.5943 58.4727 58.0105C58.1221 58.9114 58.7905 59.6241 59.1686 59.8679C59.7546 60.5414 60.4929 59.9078 60.7888 59.5069Z" fill="#F0F0F0" stroke="black" stroke-width="0.5"/>
<path d="M80.2962 32.1465C85.4648 35.0307 84.4082 41.1989 83.2338 43.9225C82.5262 45.4899 81.7687 46.093 81.4784 46.1987C71.4768 45.1497 66.9447 40.217 65.9289 37.8817C65.7446 36.8032 66.4597 36.0671 66.8403 35.8338C70.7509 28.4042 77.4403 30.28 80.2962 32.1465Z" fill="#D8D8D8" stroke="black" stroke-width="0.5"/>
<path d="M81.7376 47.9624C81.6619 48.1099 81.257 48.1847 81.064 48.2037C71.1986 47.165 66.0642 42.1194 64.7302 39.7264C63.8241 36.7866 65.8137 35.8971 66.9218 35.8198C65.8776 36.402 65.8153 37.3825 65.9147 37.8C68.7242 43.6102 77.2703 45.8526 81.1922 46.2476C82.0755 46.2985 82.9165 44.6914 83.2266 43.8816C83.4235 44.0498 83.5074 44.7867 83.5248 45.1341C83.5647 45.5646 82.3499 47.199 81.7376 47.9624Z" fill="#F0F0F0" stroke="black" stroke-width="0.5"/>
<path d="M49.1984 97.3895C43.3567 97.8496 42.0997 94.9485 41.7357 93.1466L41.6396 93.6117C43.7744 98.4271 46.887 98.3715 48.8271 97.9138L49.1984 97.3895Z" fill="#F8F8F8" stroke="black" stroke-width="0.5"/>
<path d="M43.0467 97.8273C41.5882 96.86 41.4541 95.2328 41.2286 94.1165L41.4212 95.0317C41.9951 96.3261 42.5314 97.2203 43.0467 97.8273C43.9424 98.4213 45.3376 98.7664 47.5602 98.5913L47.1124 98.6678C45.6938 99.0025 44.4484 99.4783 43.0467 97.8273Z" fill="#F8F8F8"/>
<path d="M41.2286 94.1165C41.5926 95.9184 41.7185 99.0515 47.5602 98.5913L47.1124 98.6678C45.1724 99.1255 43.5561 99.8472 41.4212 95.0317L41.2286 94.1165Z" stroke="black" stroke-width="0.5"/>
<path d="M69.1039 76.5066C55.3561 76.918 49.3387 68.8694 47.7843 64.0771C47.6333 63.6114 47.7158 63.1104 47.9672 62.6904C52.9087 75.2675 65.4565 76.5345 71.1127 75.5959C70.5847 76.1458 69.866 76.4838 69.1039 76.5066Z" fill="#F0F0F0" stroke="black" stroke-width="0.5"/>
<path d="M77.4186 51.476C81.8531 54.7883 81.1512 58.3085 80.1095 59.5938C66.415 61.9343 58.0843 52.3415 55.6308 47.2526C56.3452 43.363 61.4354 43.7377 63.8911 44.4112C59.5694 43.3334 57.7154 44.9341 57.3286 45.8692C59.5543 55.5466 70.7606 58.4445 76.0855 58.6837C82.9166 58.8954 79.7295 53.9262 77.4186 51.476Z" fill="#F0F0F0" stroke="black" stroke-width="0.5"/>
<path d="M74.142 54.9371C74.3331 53.6935 75.3873 52.8742 75.8904 52.62C69.4093 52.6849 65.0965 48.5921 63.7503 46.5376C64.2335 47.3968 63.4909 48.6282 63.0591 49.1365C64.3809 53.7209 70.9984 54.9137 74.142 54.9371Z" fill="#3D3E3A" stroke="black" stroke-width="0.5"/>
<path d="M81.016 48.17C80.8009 48.8795 77.4591 51.4689 75.8151 52.6749C69.7047 52.7438 65.2574 48.6347 63.7975 46.5716C63.5618 43.618 64.321 40.7776 64.73 39.7266C68.2929 45.8117 77.0719 47.891 81.016 48.17Z" fill="#D8D8D8" stroke="black" stroke-width="0.5"/>
<path d="M53.6574 59.5732C54.1228 58.7537 53.6325 57.9516 53.3292 57.6531C52.587 57.4435 52.1684 58.1598 52.0519 58.5441C51.7602 59.1995 52.1072 59.8522 52.3172 60.0966C52.8275 60.9176 53.4233 60.0898 53.6574 59.5732Z" fill="#F0F0F0" stroke="black" stroke-width="0.5"/>
<path d="M55.8809 55.0408C56.3464 54.2212 55.8561 53.4192 55.5528 53.1206C54.8106 52.9111 54.392 53.6273 54.2754 54.0117C53.9838 54.667 54.3308 55.3197 54.5408 55.5641C55.0511 56.3852 55.6469 55.5573 55.8809 55.0408Z" fill="#F0F0F0" stroke="black" stroke-width="0.5"/>
<path d="M75.7749 52.6819C75.971 52.6484 76.9526 51.864 77.4189 51.4759C81.2245 55.6358 80.3041 57.6965 79.3681 58.2068C75.4167 59.6895 68.876 57.4211 66.0996 56.1015C59.8077 53.1403 57.6308 48.0461 57.3288 45.8691C58.7801 43.5355 62.2222 43.9116 63.7619 44.3913C63.6839 45.3128 63.7582 46.256 63.8051 46.6124C64.1361 47.565 63.4457 48.6921 63.0592 49.1366C64.2493 53.5417 70.9436 54.8391 74.142 54.9372C74.1976 53.885 75.2538 52.9952 75.7749 52.6819Z" fill="#252525" stroke="black" stroke-width="0.5"/>
<defs>
<filter id="filter0_d_505_1607" x="0" y="0" width="132" height="132" filterUnits="userSpaceOnUse" color-interpolation-filters="sRGB">
<feFlood flood-opacity="0" result="BackgroundImageFix"/>
<feColorMatrix in="SourceAlpha" type="matrix" values="0 0 0 0 0 0 0 0 0 0 0 0 0 0 0 0 0 0 127 0" result="hardAlpha"/>
<feMorphology radius="1" operator="erode" in="SourceAlpha" result="effect1_dropShadow_505_1607"/>
<feOffset dx="2" dy="2"/>
<feGaussianBlur stdDeviation="7"/>
<feComposite in2="hardAlpha" operator="out"/>
<feColorMatrix type="matrix" values="0 0 0 0 0 0 0 0 0 0 0 0 0 0 0 0 0 0 0.18 0"/>
<feBlend mode="normal" in2="BackgroundImageFix" result="effect1_dropShadow_505_1607"/>
<feBlend mode="normal" in="SourceGraphic" in2="effect1_dropShadow_505_1607" result="shape"/>
</filter>
</defs>
</svg>
