<svg width="96" height="96" viewBox="0 0 96 96" fill="none" xmlns="http://www.w3.org/2000/svg">
<circle cx="48" cy="48" r="48" fill="#E2E2E2"/>
<path opacity="0.86" d="M57.95 30.72V45.23C57.95 51.14 53.1601 55.94 47.2401 55.94C41.7601 55.94 37.24 51.82 36.61 46.5H43.14V42.91H36.53V39.41H43.14V35.82H36.53V32.32H43.14V28.73H36.72C37.04 27.03 37.7501 25.47 38.7701 24.16C40.72 21.63 43.7901 20 47.2401 20C50.6901 20 53.76 21.63 55.71 24.16C57.12 25.99 57.95 28.26 57.95 30.72Z" fill="#E8335F" stroke="black" stroke-width="0.75" stroke-miterlimit="10"/>
<path d="M49.54 62.1099V71.6799H57.95V75.21H36.74V71.6799H44.99V61.9999C37.06 60.5499 31 52.66 31 43.14C31 41.51 31.18 39.9399 31.51 38.4299H34.11C34.04 38.7599 33.98 39.0899 33.93 39.4299C33.77 40.4299 33.69 41.4599 33.69 42.5099C33.69 42.8499 33.7 43.1999 33.72 43.5399C33.77 44.5599 33.9 45.55 34.1 46.52C34.56 48.77 35.4 50.8399 36.53 52.6099C37.61 54.3099 38.96 55.7399 40.49 56.8199C42.51 58.2499 44.87 59.0699 47.38 59.0699C49.89 59.0699 52.25 58.2499 54.27 56.8199C55.67 55.8399 56.92 54.5499 57.94 53.0499C59.9 50.1899 61.07 46.5199 61.07 42.5099C61.07 41.0999 60.93 39.7299 60.65 38.4299H63.73C64.06 39.9399 64.24 41.51 64.24 43.14C64.25 52.94 57.82 61.0199 49.54 62.1099Z" stroke="black" stroke-width="0.75" stroke-miterlimit="10"/>
</svg>
