<svg width="96" height="96" viewBox="0 0 96 96" fill="none" xmlns="http://www.w3.org/2000/svg">
<rect width="96" height="96" rx="48" fill="#D9D9D9"/>
<path opacity="0.86" d="M63.62 47.02C62.73 44.39 60.22 43.3501 59.78 43.1801C59.29 40.4201 58.05 37.9501 56.3 36.0001C55.86 35.5101 53.55 33.0901 49.71 32.0101C49.71 32.0101 44.27 30.5001 37.83 33.4401C37.67 33.5201 37.5 33.59 37.5 33.59C37.3 33.36 37.09 33.14 36.9 32.91C36.41 32.36 35.93 31.81 35.44 31.27C34.25 31.04 31.85 30.76 29.04 31.64C25.78 32.65 23.81 34.66 23 35.58C24.21 36.28 25.43 36.9701 26.67 37.6701C27.74 38.2701 28.8 38.8701 29.85 39.4401C29.89 39.4601 29.92 39.4801 29.96 39.5001C29.15 40.4101 23.05 47.5601 24.84 57.2501C26.1 64.0801 30.56 68.13 31.98 69.33C31.96 69.38 31.94 69.4301 31.92 69.4801C31.6 70.2801 30.62 73.23 32.17 76.28C33.47 78.84 35.75 79.8701 36.38 80.1201C36.25 79.1001 36.16 77.2501 36.92 75.1801C37.35 74.0201 37.91 73.1301 38.38 72.5101C38.9 72.1601 39.51 71.82 40.21 71.52C42.55 70.53 44.73 70.5501 46.07 70.6901C45.74 70.1201 43.94 67.0501 40.22 66.1801C38.49 65.7701 36.98 65.9901 36.02 66.2301C35.83 66.2801 35.64 66.34 35.45 66.39C35.09 65.35 33.77 61.2201 35.63 56.5001C37.58 51.5701 41.64 49.4601 42.59 49.0001C42.9 51.1601 43.2 53.3301 43.5 55.4901C44.18 55.4101 46.04 55.1001 47.71 53.5701C49.64 51.8101 50.01 49.6101 50.1 48.9901C51.29 49.1801 53.21 49.49 55.59 49.9C61.05 50.85 62.81 51.26 63.64 50.27C64.41 49.37 63.85 47.71 63.62 47.02ZM54.33 41.6201C53.75 41.6201 53.27 41.15 53.27 40.58C53.27 40 53.74 39.52 54.33 39.52C54.91 39.52 55.39 39.99 55.39 40.58C55.39 41.15 54.91 41.6201 54.33 41.6201Z" fill="#E7345F" stroke="black" stroke-width="0.75" stroke-miterlimit="10"/>
<path d="M55.39 40.58C55.39 41.15 54.92 41.6201 54.33 41.6201C53.75 41.6201 53.27 41.15 53.27 40.58C53.27 40 53.74 39.52 54.33 39.52C54.91 39.52 55.39 39.99 55.39 40.58Z" stroke="black" stroke-width="0.75" stroke-miterlimit="10"/>
<path d="M55.39 40.58C55.39 41.15 54.92 41.6201 54.33 41.6201C53.75 41.6201 53.27 41.15 53.27 40.58C53.27 40 53.74 39.52 54.33 39.52C54.91 39.52 55.39 39.99 55.39 40.58Z" stroke="black" stroke-width="0.75" stroke-miterlimit="10"/>
<path d="M67.28 41.1401C68.3956 41.1401 69.3 40.2357 69.3 39.1201C69.3 38.0045 68.3956 37.1001 67.28 37.1001C66.1644 37.1001 65.26 38.0045 65.26 39.1201C65.26 40.2357 66.1644 41.1401 67.28 41.1401Z" stroke="black" stroke-width="0.75" stroke-miterlimit="10"/>
<path d="M62.9 31.8599C64.2034 31.8599 65.26 30.8033 65.26 29.4999C65.26 28.1965 64.2034 27.1399 62.9 27.1399C61.5966 27.1399 60.54 28.1965 60.54 29.4999C60.54 30.8033 61.5966 31.8599 62.9 31.8599Z" stroke="black" stroke-width="0.75" stroke-miterlimit="10"/>
<path d="M70.19 25.82C71.7972 25.82 73.1 24.5171 73.1 22.91C73.1 21.3028 71.7972 20 70.19 20C68.5829 20 67.28 21.3028 67.28 22.91C67.28 24.5171 68.5829 25.82 70.19 25.82Z" stroke="black" stroke-width="0.75" stroke-miterlimit="10"/>
</svg>
