<svg width="132" height="132" viewBox="0 0 132 132" fill="none" xmlns="http://www.w3.org/2000/svg">
<g filter="url(#filter0_d_505_1599)">
<rect x="11" y="11" width="106" height="106" rx="17" fill="#FFB7C5"/>
<rect x="11.05" y="11.05" width="105.9" height="105.9" rx="16.95" stroke="#929292" stroke-width="0.1"/>
</g>
<path d="M57.5159 56.462C56.8539 56.5971 54.9536 54.4819 54.0862 53.4074L54.4185 51.9224L56.8791 54.9522C57.1301 55.1955 57.4082 56.0601 57.5159 56.462Z" fill="#283B5F" stroke="black" stroke-width="0.5"/>
<path d="M85.4721 88.178C86.5444 93.6004 90.5674 98.4765 92.4449 100.237C90.3509 97.6912 89.5014 94.6981 89.3384 93.5197C89.9109 92.0755 87.3746 86.7021 87.4787 86.882C87.5619 87.026 88.0262 86.6261 88.248 86.4081C88.156 85.7316 87.2844 85.0935 86.8601 84.859C86.7418 79.7111 85.9145 77.8164 85.5157 77.5125C84.5 75.5517 82.9781 71.9494 82.3441 70.3934C80.1125 63.8651 78.7826 56.6877 78.3965 53.915C78.7652 50.6851 83.0086 50.0776 85.0841 50.1775C83.6749 45.7659 75.1265 44.9008 71.0284 45.0197C56.9668 34.7553 49.0258 33.4326 46.813 34.0542C41.3471 34.3928 39.5728 36.4389 39.3688 37.4196L36.9918 37.8707C36.3609 37.8283 36.1799 38.3448 36.1682 38.6083C35.1489 39.4159 36.6635 39.9244 36.5496 40.1189C36.4584 40.2745 38.2367 40.6592 39.1373 40.8321C40.5355 41.194 43.0663 42.526 44.1569 43.1467C44.4734 43.4897 46.2378 44.0049 47.0805 44.2196C47.0782 44.5968 48.6851 45.5646 49.4888 46.0013L49.4448 44.6145C50.4769 43.9345 51.2281 44.1976 51.4747 44.4141C51.7596 45.9555 52.9311 47.4377 53.4812 47.9862L54.7813 50.3538C54.9502 50.2646 54.601 51.1542 54.4727 51.6585C54.3504 51.9917 66.2912 65.8104 72.2096 72.6298C78.5281 84.0608 83.684 87.7582 85.4721 88.178Z" fill="#41619A" stroke="black" stroke-width="0.5"/>
<ellipse cx="46.4664" cy="37.8973" rx="0.599324" ry="0.488077" transform="rotate(20.1507 46.4664 37.8973)" fill="black"/>
<path d="M36.1452 38.6176C36.2192 38.6448 36.2933 38.672 36.3673 38.6992C36.5035 38.7491 36.642 38.7563 36.7816 38.7917C36.9761 38.8411 37.177 38.8662 37.3729 38.9109C37.4455 38.9274 37.5344 38.9352 37.6097 38.9264C37.7151 38.9142 37.8146 38.9475 37.9149 38.9697C38.0442 38.9983 38.1926 39.012 38.3264 39.0018C38.4063 38.9957 38.4871 38.9883 38.5677 38.9859C38.6538 38.9834 38.7378 39.0035 38.8231 39.0043C38.9239 39.0054 39.0261 39.0093 39.1276 39.009C39.1747 39.0089 39.2114 38.9939 39.2564 38.9803C39.3109 38.9639 39.3656 38.9719 39.4201 38.9604C39.5035 38.9429 39.5875 38.9296 39.6718 38.9193C39.7821 38.9059 39.8883 38.9476 39.9969 38.9534C40.0573 38.9567 40.1136 38.9564 40.1735 38.9647C40.2223 38.9715 40.2743 38.9514 40.3237 38.9491C40.4769 38.9422 40.6266 38.9637 40.7787 38.9648C40.8751 38.9655 40.9666 38.9806 41.0629 38.9713C41.1124 38.9665 41.1628 38.9779 41.2119 38.9638C41.2581 38.9507 41.3036 38.9385 41.3504 38.9281C41.5441 38.8854 41.7415 38.9007 41.9349 38.8697C42.0118 38.8574 42.0886 38.8563 42.1652 38.8578C42.2376 38.8592 42.2873 38.8184 42.3557 38.7988C42.4103 38.7832 42.4812 38.7632 42.5369 38.757C42.5921 38.7508 42.6445 38.728 42.6994 38.7208C42.8305 38.7036 42.9731 38.6582 43.0997 38.5988C43.2609 38.5231 43.4422 38.4723 43.6102 38.426C43.784 38.3782 43.9757 38.3393 44.1463 38.3908C44.2585 38.4247 44.3675 38.4714 44.4776 38.5118" stroke="black" stroke-width="0.5" stroke-linecap="round"/>
<path d="M49.4891 46.0015L49.4451 44.6147C50.4349 43.957 51.2255 44.244 51.4971 44.4697C51.4613 45.4018 52.7005 47.1011 53.3246 47.8343L54.8038 50.4094L54.3965 51.8669L54.0559 53.4907L53.6584 54.5737C53.8794 54.806 53.7976 55.1604 53.729 55.3086C54.0952 56.3504 53.8791 57.7583 53.7253 58.3321C52.2083 57.7376 50.6498 54.6985 50.0602 53.2533C49.6285 52.1118 49.4996 47.9431 49.4891 46.0015Z" fill="#2D4675" stroke="black" stroke-width="0.5"/>
<defs>
<filter id="filter0_d_505_1599" x="0" y="0" width="132" height="132" filterUnits="userSpaceOnUse" color-interpolation-filters="sRGB">
<feFlood flood-opacity="0" result="BackgroundImageFix"/>
<feColorMatrix in="SourceAlpha" type="matrix" values="0 0 0 0 0 0 0 0 0 0 0 0 0 0 0 0 0 0 127 0" result="hardAlpha"/>
<feMorphology radius="1" operator="erode" in="SourceAlpha" result="effect1_dropShadow_505_1599"/>
<feOffset dx="2" dy="2"/>
<feGaussianBlur stdDeviation="7"/>
<feComposite in2="hardAlpha" operator="out"/>
<feColorMatrix type="matrix" values="0 0 0 0 0 0 0 0 0 0 0 0 0 0 0 0 0 0 0.18 0"/>
<feBlend mode="normal" in2="BackgroundImageFix" result="effect1_dropShadow_505_1599"/>
<feBlend mode="normal" in="SourceGraphic" in2="effect1_dropShadow_505_1599" result="shape"/>
</filter>
</defs>
</svg>
