<svg width="96" height="96" viewBox="0 0 96 96" fill="none" xmlns="http://www.w3.org/2000/svg">
<circle cx="48" cy="48" r="48" fill="#E2E2E2"/>
<path d="M70.4562 27.1845C65.7862 19.2945 56.0062 14.9846 45.6462 16.2046C44.0662 16.3446 34.5462 17.3546 29.0362 25.1646C27.9062 26.7646 25.0762 30.7546 25.3262 35.8246C25.4962 39.1946 26.8562 39.6546 26.5662 42.6746C26.0962 47.6046 22.0762 50.8046 23.1962 52.2146C23.8562 53.0346 25.6362 52.4846 26.2262 53.6746C26.4462 54.1146 26.4462 54.6746 26.4562 55.1346C26.4562 56.2546 26.0962 56.5346 26.3362 57.0446C26.6562 57.7246 27.4662 57.5746 27.6362 58.1646C27.7962 58.7246 27.1162 58.9846 27.1262 59.8546C27.1362 60.5946 27.6562 61.1646 27.7962 61.3246C28.3762 61.9646 28.7862 61.7646 29.0362 62.2046C29.4362 62.9146 28.4962 63.6545 28.4762 65.1245C28.4762 65.2445 28.4662 66.2345 28.9162 66.9445C29.4262 67.7445 30.5962 68.3046 34.9862 68.1546C39.8862 67.9846 40.4362 67.2145 41.7162 67.9345C43.2062 68.7645 43.2562 70.2345 44.8662 73.9945C45.9662 76.5745 47.0962 78.5846 47.8962 79.8946C49.1562 76.9146 52.2862 70.8045 59.0062 66.6945C61.2062 65.3545 63.3462 64.5045 65.1862 63.9445C64.7562 61.9545 64.3862 58.9346 65.2962 55.5846C66.9062 49.6146 70.9962 48.3546 72.9262 43.4646C75.6362 36.5946 71.5462 29.0245 70.4562 27.1845ZM68.1062 39.5346C66.9062 41.8846 64.2762 43.3046 61.5862 43.7346C60.3562 43.9346 59.1162 43.9145 57.9962 43.6845C53.2562 42.7045 53.2762 38.3946 48.2362 37.3946C45.2062 36.8046 44.5562 38.2245 39.3062 37.7445C39.2862 37.7345 39.2662 37.7346 39.2462 37.7346C36.1962 37.4446 34.1962 37.2246 32.8562 35.6046C31.2562 33.6746 31.4162 30.7945 32.1762 28.8645C32.8062 27.2745 33.9362 26.1446 35.3262 25.1646C36.3462 24.4346 37.5462 23.7846 38.8762 23.2346C43.4062 21.3446 49.4762 20.6646 55.6362 22.5746C57.2562 23.0846 59.3562 23.7546 61.4362 25.0746C62.6962 25.8746 63.9462 26.9145 65.0662 28.3045C65.9162 29.3445 70.4462 34.9146 68.1062 39.5346Z" stroke="black" stroke-width="0.75" stroke-miterlimit="10"/>
<path d="M61.5862 33.6647V43.7347C60.3562 43.9347 59.1162 43.9146 57.9962 43.6846C53.2562 42.7046 53.2762 38.3947 48.2362 37.3947C45.2062 36.8047 44.5562 38.2246 39.3062 37.7446V33.6647C39.5462 33.8847 41.1162 35.3047 43.2962 35.0447C45.2962 34.8047 47.0062 33.2447 47.5562 31.1047C47.6062 28.8847 46.2262 26.8847 44.2062 26.2047C42.4462 25.5947 40.4562 26.0846 39.0862 27.4346L38.8762 23.2347C43.4062 21.3447 49.4762 20.6647 55.6362 22.5747C57.2562 23.0847 59.3562 23.7547 61.4362 25.0747C61.4862 25.9547 61.5362 26.8247 61.5862 27.7047C60.1962 26.2147 58.0162 25.7847 56.2062 26.6247C54.4862 27.4147 53.4162 29.1947 53.5062 31.1047C53.5662 31.4147 53.9962 33.4547 55.8662 34.4747C57.6162 35.4447 59.9262 35.1347 61.5862 33.6647Z" fill="#E83660" stroke="black" stroke-width="0.75" stroke-miterlimit="10"/>
</svg>
