<svg width="132" height="132" viewBox="0 0 132 132" fill="none" xmlns="http://www.w3.org/2000/svg">
<g filter="url(#filter0_d_505_1479)">
<rect x="11" y="11" width="106" height="106" rx="17" fill="#FFB7C5"/>
<rect x="11.05" y="11.05" width="105.9" height="105.9" rx="16.95" stroke="#929292" stroke-width="0.1"/>
</g>
<path d="M86.7779 69.6277C90.1237 66.308 90.6766 62.663 90.5349 61.2555L90.1804 58.5618C91.2579 57.63 92.1889 55.5041 92.5197 54.5577C92.9734 50.9467 91.1492 49.3159 90.1804 48.9519C87.7419 47.9036 86.7543 50.7477 86.5652 52.3008C85.828 54.1063 82.9973 53.4414 81.6741 52.8833C80.5399 51.7767 78.7914 51.4029 78.0589 51.3544C72.3312 48.1511 67.9694 47.7871 66.5044 48.0055C65.2001 48.2967 64.0234 49.3402 63.598 49.8255C62.8608 49.8255 62.6293 50.5536 62.6056 50.9176C62.3221 51.9659 63.1491 54.315 63.598 55.3585C64.1084 55.3003 64.6141 57.3727 64.8031 58.4162C65.3135 58.2997 66.15 59.0472 66.5044 59.4354C66.3343 59.319 65.4883 59.3869 65.0867 59.4354C65.0299 59.5519 65.5829 59.9693 65.8664 60.1635C65.9231 59.7558 66.9297 59.6538 67.4259 59.6538C68.6735 60.0615 68.9382 61.571 68.9145 62.2747C68.631 65.2451 68.7964 67.4437 68.9145 68.1717C68.9712 68.6376 70.0251 68.8027 70.5449 68.8269L71.4664 69.6277L71.6082 70.283C71.6082 70.2247 71.939 70.2587 72.1044 70.283C72.1611 70.05 72.7897 69.9918 73.0968 69.9918C73.267 70.3995 75.7669 70.647 76.9956 70.7198C76.0882 72.8747 75.1053 73.4135 74.7272 73.4135C75.1809 73.5299 75.3888 74.2386 75.4361 74.5783C75.6062 76.2673 78.0589 76.2528 79.2639 76.0343C81.0219 76.5585 85.0057 71.9817 86.7779 69.6277Z" fill="#EDD1CC" stroke="black" stroke-width="0.3"/>
<path d="M57.8559 45.239L11.8088 43.8059L11.8088 83.3375L56.6509 77.272C57.3314 77.3884 57.6433 76.7866 57.7142 76.4711L58.2104 45.8942C58.2671 45.4283 57.9977 45.2633 57.8559 45.239Z" fill="#869DC0" stroke="black" stroke-width="0.3"/>
<path d="M91.3292 116H100.579C100.654 116 103.989 115.844 106.263 114.5C109.153 112.793 111.131 109.67 111.29 108C103.634 108.175 95.3313 107.849 91.6688 107.703C90.7047 108.344 90.9984 113.015 91.3292 116Z" fill="#EDD1CC"/>
<path d="M111.29 108C103.634 108.175 95.3313 107.849 91.6688 107.703C90.7047 108.344 90.9984 113.015 91.3292 116H100.579C100.654 116 103.989 115.844 106.263 114.5C109.153 112.793 111.131 109.67 111.29 108ZM111.29 108C111.431 107.854 110.099 107.476 111.29 108Z" stroke="black" stroke-width="0.3"/>
<path d="M80.7526 83.1689C80.1855 82.0623 81.8867 79.7957 82.8083 78.8008C82.9784 79.6744 82.5956 82.271 82.3829 83.4601C81.9293 83.5766 81.107 83.3145 80.7526 83.1689Z" fill="#414658" stroke="black" stroke-width="0.3"/>
<path d="M104.074 74.724L99.8916 69.7734C100.062 70.7635 99.1119 72.0788 98.6157 72.6127C95.8236 72.7874 92.2068 78.3156 90.7473 81.0578C85.7002 84.2028 81.981 83.7757 80.7523 83.169C80.1853 81.8877 81.8393 79.7231 82.7372 78.8009C82.9073 77.2284 82.3827 75.4763 82.0992 74.7968C80.7949 76.3693 77.7751 76.18 76.4283 75.8888C75.1807 78.4515 73.2148 79.5289 72.3878 79.7473L73.8055 81.2034C73.5786 79.4561 74.4671 79.1649 74.9397 79.2377C75.6769 79.4707 76.4755 80.9364 76.7827 81.6402C76.8961 81.1743 77.9641 82.3682 78.484 83.0234C78.8809 82.9652 79.1692 83.436 79.2637 83.6787C79.4906 83.7369 80.9177 86.0811 81.603 87.246C83.3043 88.7603 83.5878 89.6727 83.5169 89.9396C83.1766 90.6386 83.2334 96.2977 83.3042 99.0399C84.4384 101.894 84.722 103.238 84.722 103.554C84.2116 103.903 87.6754 111.511 89.5657 116H91.1961C90.3454 110.176 91.1726 108.48 91.5979 107.631C91.5979 108.097 104.366 108.121 111.29 108C111.429 107.857 112.247 106.326 112.75 104.5C113.268 102.622 112.985 100.451 113.237 100.574V88.7748V87.246C113.464 85.9064 112.339 83.0962 111.748 81.8586C111.011 80.985 106.815 76.8595 104.57 74.724H104.074Z" fill="#404761" stroke="black" stroke-width="0.3"/>
<path d="M99.8915 69.7734L98.4029 69.1182L99.4662 71.2294C99.7498 71.1712 99.8679 70.2345 99.8915 69.7734Z" stroke="black" stroke-width="0.3"/>
<path d="M72.3879 79.6743C73.5787 80.082 75.5777 77.3204 76.4284 75.8886C75.8612 75.6557 75.5305 75.1121 75.436 74.8694C75.3793 73.4133 74.5618 73.3405 74.1601 73.4861C72.7991 72.7872 72.6951 71.836 72.8132 71.4477C71.7358 70.9817 71.4664 70.3799 71.4664 70.1372C71.6932 69.7878 70.9938 69.1665 70.6158 68.8996C69.4816 68.7249 69.1035 68.4871 69.0563 68.39C68.7727 68.157 68.7963 67.4678 68.8436 67.1523C68.6735 67.2106 64.5195 66.8854 62.4638 66.7155C62.237 66.4826 60.9988 62.3474 60.4081 60.3089C59.3874 58.154 59.5102 55.4797 59.6993 54.412C59.8127 54.3537 59.9355 51.1844 59.9828 49.607C60.3231 48.5004 60.2191 46.6707 60.1246 45.8941C58.9904 44.5546 58.8959 42.3753 58.9904 41.4532C59.0471 38.9488 60.4317 37.1093 61.117 36.5026C59.5291 35.4543 59.2739 32.4742 59.3448 31.1153C58.9479 29.8922 56.6748 29.8291 55.5878 29.9504C54.2835 29.0185 52.2089 28.6885 51.3347 28.64C50.6542 28.1158 49.917 28.5672 49.6334 28.8584C49.2364 29.4408 48.2866 29.732 47.8612 29.8048C47.124 30.1543 46.4671 30.727 46.2308 30.9697C45.9473 31.5521 45.8764 32.5228 45.8764 32.9353C45.763 32.9936 46.0654 34.173 46.2308 34.7554C46.3442 35.1048 46.6561 34.8524 46.7979 34.6826C46.7412 35.032 47.1051 35.5562 47.2941 35.7746C47.4642 35.9493 47.8376 35.4106 48.003 35.1194C48.1164 35.5271 48.5228 36.0173 48.7118 36.2114C49.0521 36.3279 49.7042 35.3378 49.9878 34.8282C49.7609 34.6534 50.3186 33.542 50.6258 33.0081C50.8526 33.2411 51.7127 32.7654 52.1144 32.4985C52.568 32.9644 54.1937 32.8382 54.9498 32.7169C54.8931 32.9499 54.1228 33.1052 53.7448 33.1537C52.9508 33.212 52.3743 33.8575 52.1852 34.173C52.1285 34.9301 53.2958 35.4591 53.8865 35.629C54.0566 36.0367 54.8553 36.1871 55.2334 36.2114C55.5736 35.9784 56.5093 38.4925 56.9346 39.7787C57.1615 39.6622 57.3127 43.3703 57.3599 45.2389C58.0972 45.0642 58.2342 45.6029 58.2106 45.8941L57.7144 76.3982C57.7711 76.6894 57.3599 77.102 57.1473 77.2719C57.1473 77.5048 61.0697 78.3396 63.0309 78.7279C66.6035 76.5147 70.7575 78.4367 72.3879 79.6743Z" fill="#EDD1CC" stroke="black" stroke-width="0.3"/>
<path d="M58.9903 42.8365C58.6501 43.4771 61.3532 48.151 62.7473 50.4079C62.9174 49.8837 63.3853 49.8012 63.5979 49.8255C64.3919 48.8354 65.63 48.2481 66.1498 48.0782C66.7736 47.7288 69.1507 48.0782 70.2613 48.2966C72.9833 48.6461 76.5465 50.4807 77.9879 51.3543C79.8593 51.5873 81.225 52.4706 81.674 52.8832C82.6947 53.3491 83.8951 53.4656 84.3676 53.4656C86.2957 53.7568 86.825 51.9853 86.8487 51.0631C87.3023 49.3741 88.3609 48.8548 88.8335 48.8062C89.5707 48.3986 90.8419 49.3159 91.3854 49.8255C92.2927 50.9903 92.4723 51.961 92.4487 52.3008C92.7322 52.4755 92.5668 54.0723 92.4487 54.8488C92.1651 55.2565 96.2057 64.3859 98.2614 68.8997C98.715 69.4238 99.6318 69.7005 100.034 69.7733C100.374 70.4139 102.869 73.3406 104.074 74.7238H104.57C105.081 73.8502 103.885 72.9038 103.223 72.5398C103.904 71.0255 102.515 69.6277 101.735 69.1181C102.075 67.7203 100.459 66.3516 99.6082 65.842C100.232 64.5024 98.4504 62.6629 97.4816 61.9106C97.7652 60.6876 96.4656 59.1199 95.7803 58.4889C98.0487 57.3823 96.1584 55.8438 94.9297 55.2128C96.1206 52.7084 94.8116 49.9953 94.0082 48.9519C94.7454 43.5936 91.9525 39.5846 90.4639 38.2499C88.7626 34.6389 84.6039 32.1831 82.7373 31.4065C79.1646 29.6593 75.1524 28.9312 73.5929 28.7856C72.3453 28.145 68.6781 30.7513 67.0005 32.1345C66.5468 32.0181 63.2671 34.7069 61.684 36.0659C59.1321 37.8131 58.8249 41.3076 58.9903 42.8365Z" fill="#303030" stroke="black" stroke-width="0.3"/>
<path d="M89.4715 56.2321C89.3581 55.9991 88.8572 56.038 88.6209 56.0865C89.0746 55.3876 88.6209 53.951 88.3374 53.32C88.9612 52.9706 88.3137 52.1552 87.912 51.7912C87.912 51.6164 88.5737 51.5728 88.9045 51.5728C89.585 51.6892 90.5585 52.3493 90.9602 52.6648C91.8108 53.0142 91.2201 53.9752 90.8184 54.412C90.1946 54.2373 89.6606 55.5526 89.4715 56.2321Z" fill="#E0BAB4" stroke="black" stroke-width="0.3"/>
<path d="M72.0333 70.2831L71.6079 70.2103C71.2677 70.4433 72.3168 71.1325 72.8839 71.448C72.7138 71.448 72.7658 71.8848 72.813 72.1032C72.7563 72.4526 73.64 73.1224 74.089 73.4136C74.1457 73.4719 74.3961 73.3408 74.5143 73.268C74.5143 73.3845 74.7506 73.4136 74.8687 73.4136C75.6626 73.2972 76.6173 71.5693 76.9953 70.72C73.7062 70.487 73.0257 70.1375 73.0966 69.9919C72.4728 69.8754 72.1278 70.1375 72.0333 70.2831Z" fill="#D797A4" stroke="black" stroke-width="0.3"/>
<path d="M68.2763 58.0522C68.2196 58.3434 68.678 58.7074 68.9143 58.853C71.2961 56.6398 72.3168 55.9895 72.5295 55.9409C72.5862 55.7662 75.0105 55.3343 76.2156 55.1401C75.3649 54.9071 73.0729 55.043 72.0333 55.1401C71.1259 55.2566 69.1506 57.13 68.2763 58.0522Z" fill="#5E3430" stroke="black" stroke-width="0.3"/>
<path d="M66.3624 59.4355H65.0864C64.8501 59.1443 64.4768 58.5327 64.8738 58.4162C65.2707 58.2998 66.0316 59.0472 66.3624 59.4355Z" fill="#5E3430" stroke="black" stroke-width="0.3"/>
<path d="M90.7473 81.0577C86.8343 83.6204 83.635 83.7757 82.5244 83.533C82.7513 83.4165 84.1312 80.8636 84.7928 79.6017C86.3807 76.0489 85.6907 72.8796 85.1472 71.739C87.7559 68.8269 89.3532 66.0605 89.8257 65.0412C90.7898 64.5171 90.4637 60.5032 90.1802 58.5618C90.7473 58.6346 92.9447 53.8297 92.5194 54.7761C92.1792 55.5333 96.9616 66.0605 99.3954 71.2294C99.6789 71.2877 99.0882 72.1273 98.7574 72.5399C95.3549 73.297 91.9996 78.5339 90.7473 81.0577Z" fill="#EDD1CC" stroke="black" stroke-width="0.3"/>
<path d="M82.4538 83.533C83.2477 77.8835 82.5956 75.3063 82.1703 74.7239L85.0766 71.739C87.1748 75.8159 84.2023 81.3004 82.4538 83.533Z" fill="#E0BAB4" stroke="black" stroke-width="0.3"/>
<path d="M63.4459 78.6689C63.3479 78.7144 63.2565 78.7586 63.1725 78.8009C63.2528 78.7475 63.3446 78.7038 63.4459 78.6689C64.7541 78.0624 67.2228 77.2415 68.489 78.0001C69.5286 78.1457 72.0616 79.0193 73.8763 81.349C74.9869 82.7808 77.2505 86.2122 77.4206 88.4836C76.6882 87.8041 75.1098 86.4451 74.6561 86.4451C74.0181 85.159 72.6713 82.5866 72.3877 82.5866C71.8915 81.9497 70.3037 80.4173 67.9219 79.3833C66.8389 78.9607 64.5607 78.2851 63.4459 78.6689Z" fill="#8D919F"/>
<path d="M63.1725 78.8009C64.3776 78.1942 67.1279 77.1847 68.489 78.0001C69.5286 78.1457 72.0616 79.0193 73.8763 81.349C74.9869 82.7808 77.2505 86.2122 77.4206 88.4836C76.6882 87.8041 75.1098 86.4451 74.6561 86.4451C74.0181 85.159 72.6713 82.5866 72.3877 82.5866C71.8915 81.9497 70.3037 80.4173 67.9219 79.3833C66.7404 78.9222 64.1365 78.1602 63.1725 78.8009Z" stroke="black" stroke-width="0.3"/>
<path d="M59.5574 84.4066C59.4393 84.6979 59.1321 85.3385 58.8485 85.5715C58.8313 85.5857 58.8157 85.5987 58.8016 85.6105L58.8485 85.6443C58.7376 85.7127 58.5849 85.7939 58.8016 85.6105L48.4282 78.1457L46.7978 83.0234C45.8527 83.4359 43.7072 83.766 42.6864 81.7858L44.175 76.544C44.1987 76.3256 44.4019 75.8014 45.0257 75.452L44.175 74.7968L43.6788 76.2528C42.8755 76.5683 41.0844 76.8352 40.3472 75.3792L41.1978 72.5399L40.4181 72.0303L39.4965 75.5976L39.0003 76.2528C38.2206 76.3013 36.5335 76.1363 36.0231 75.088L37.2991 70.7926L37.7244 70.1374L36.1649 68.9726L35.456 72.2487C35.0543 72.2972 34.1801 72.2924 33.8965 71.8847L34.251 68.3174L34.6763 67.6621L32.9041 65.9877V64.6772L59.5574 84.4066Z" fill="#757B91" stroke="black" stroke-width="0.3"/>
<path d="M61.684 86.5179C61.1736 84.0717 63.2199 81.81 64.3068 80.9849C63.7964 80.8102 62.4874 81.8343 61.8967 82.3681C61.046 83.067 60.4081 84.3095 60.1954 84.8434C59.8552 85.3093 59.9119 87.6099 59.9827 88.7019C59.6425 89.4591 60.9752 92.2692 61.684 93.5797C62.9883 95.8511 65.4883 97.0499 66.5752 97.3654C66.9154 96.8412 66.906 95.9336 66.8587 95.5453C65.9514 95.3124 64.1178 93.2642 63.3144 92.2692C62.0101 90.3473 61.684 87.6342 61.684 86.5179Z" fill="#757B90" stroke="black" stroke-width="0.3"/>
<path d="M60.1952 80.6209C61.1404 79.6987 63.5694 78.0291 65.7244 78.728C67.1421 78.8979 70.5588 80.0385 72.8839 83.2418C73.2147 83.7028 74.0323 84.9745 74.6561 86.3723C74.0653 85.9112 72.8414 85.0036 72.6712 85.0618C72.5295 84.5522 71.8915 83.5184 70.4738 83.4602C69.1269 82.1983 65.8094 79.9948 63.3142 81.2761C62.1328 81.9799 59.8125 84.028 59.9826 86.5907C59.7936 87.9011 59.9542 91.2355 62.1092 94.0893C62.8417 95.0357 64.7603 97.0159 66.575 97.3654C66.575 97.8265 66.7877 98.9379 67.6383 99.6951C65.9607 99.1612 62.2368 97.4673 60.7623 94.9629C59.6754 93.2885 57.6292 89.1242 58.1395 85.8626L58.2104 85.353C58.3995 85.4501 58.8059 85.6297 58.9193 85.5714C59.2973 84.9648 60.0676 83.6495 60.1244 83.2418C60.1293 83.2063 60.1339 83.1758 60.1382 83.1496C59.8823 82.7428 59.4129 82.0769 59.2028 82.0769V81.7857C59.3057 81.5916 59.6483 81.0868 60.1952 80.6209Z" fill="#8D919F" stroke="black" stroke-width="0.3"/>
<path d="M38.0786 64.7501L37.228 64.0949C37.2847 64.0949 37.2989 62.6874 37.2989 61.9836C37.072 60.9935 36.2592 60.4548 35.8812 60.3092C34.5768 59.7268 33.5419 60.4548 33.1875 60.8916C33.4143 60.1345 34.1799 59.751 34.5343 59.654C36.2356 58.8968 37.5115 59.9694 37.9369 60.6004C38.9009 61.5323 38.4331 63.7552 38.0786 64.7501Z" fill="#424D5C" stroke="black" stroke-width="0.3"/>
<path d="M45.0963 75.452L44.1748 74.7968L43.6786 76.2528C43.2816 76.4858 42.4735 76.544 42.1191 76.544C41.2685 76.544 40.5832 75.7675 40.3469 75.3792L41.1976 72.5399L40.4178 72.0303L39.4963 75.452C39.553 75.5685 39.1891 76.0344 39.0001 76.2528V77.272L44.1748 76.544C44.1748 76.0781 44.7891 75.6218 45.0963 75.452Z" fill="#EFC5A1" stroke="black" stroke-width="0.3"/>
<path d="M54.0281 68.4629L44.6711 69.4093L52.3977 75.0151L54.0281 74.5783V68.4629Z" fill="#EFC5A1" stroke="black" stroke-width="0.3"/>
<path d="M11.9737 67.6585V48.8027L32.4785 48.6609L32.6203 60.8189C32.1666 62.7991 32.6203 63.8765 32.9038 64.1678V66.3518L11.9737 67.6585Z" fill="#EFC39B" stroke="black" stroke-width="0.3"/>
<path d="M16.4584 38.1772C16.6853 38.2355 16.6474 41.4533 16.6002 43.055L45.9471 44.875L46.3016 34.9011C46.1882 34.8429 46.018 33.9547 45.9471 33.5179C45.7203 32.7025 45.9944 31.625 46.1598 31.1882C46.1031 30.897 47.2704 30.1447 47.8611 29.805L15.4312 25.0111C13.5628 24.7349 11.8522 26.1016 11.7091 27.9849H11.4964C11.6098 27.9849 11.6854 28.2761 11.709 28.4217C11.8224 28.1888 13.7884 28.7129 14.7571 29.0042C14.984 28.4217 15.9858 34.8769 16.4584 38.1772Z" fill="#F0C5A4" stroke="black" stroke-width="0.3"/>
<path d="M67.1422 32.1347C66.0647 32.3677 62.6763 35.1439 61.1168 36.5028C59.4723 35.2215 59.2502 32.3774 59.3447 31.1155L67.1422 32.1347Z" fill="#F0C5A4" stroke="black" stroke-width="0.3"/>
<path d="M57.2892 45.239L51.6892 45.0206L51.6892 41.3805C51.7459 41.1475 51.4765 39.7788 51.3348 39.1236C51.2781 38.7159 50.4132 35.9931 49.9879 34.6826C49.8745 34.5662 50.3187 33.5178 50.555 33.0082C50.952 33.1247 51.7128 32.6685 52.0436 32.4258C52.6674 33.0664 54.2884 32.8869 55.0209 32.717C54.794 33.0664 54.123 33.1538 53.8158 33.1538C52.8517 33.212 52.3272 33.8576 52.1854 34.173C52.2421 35.1631 53.3905 35.5563 53.9576 35.6291C54.071 35.9785 54.7609 36.1144 55.0917 36.1387C55.829 36.3717 56.6276 38.6625 56.9348 39.7788C57.1616 39.7788 57.2656 41.6231 57.2892 42.5453V45.239Z" fill="#FFDA97" stroke="black" stroke-width="0.3"/>
<path d="M16.6 43.9285L11.8462 43.805V28.3835C11.7775 28.3878 11.73 28.4 11.7089 28.4217C11.6852 28.3003 11.8222 27.9923 11.7088 27.9341H11.8462V28.3835C12.3319 28.3535 13.8789 28.7187 14.6861 28.9313C15.2532 29.2807 16.0566 35.1923 16.3874 38.1044C16.7276 38.4538 16.6709 42.1328 16.6 43.9285Z" fill="#FDDB91" stroke="black" stroke-width="0.3"/>
<path d="M33.0457 61.1827C32.4219 61.5322 32.5967 63.1241 32.7621 63.8764C32.989 63.294 33.7073 62.9543 34.0381 62.8572L34.6052 63.0756H35.314C35.8811 63.3668 37.0437 63.9783 37.1571 64.0948C37.2705 64.2113 37.2989 62.7844 37.2989 62.0564C37.072 60.7168 35.8811 60.1878 35.314 60.0907C33.8963 59.916 33.2111 60.7459 33.0457 61.1827Z" fill="#333333" stroke="black" stroke-width="0.3"/>
<path d="M46.3015 34.901L45.9471 44.8749L51.6889 45.0205V41.5988C51.6889 41.1911 51.5471 40.3127 51.4762 39.9244C51.5897 39.6332 50.5311 36.3085 49.9876 34.6826C49.6474 35.731 49.0425 36.1387 48.7826 36.2115C48.499 36.3862 48.1446 35.5077 48.0028 35.0466C47.776 35.629 47.483 35.7747 47.3648 35.7747C47.138 36.0076 46.8923 35.1437 46.7977 34.6826C46.6276 34.9738 46.3961 34.9496 46.3015 34.901Z" fill="#FDCA84" stroke="black" stroke-width="0.3"/>
<path d="M32.8332 71.0837L12.9141 72.7582L13.4812 79.9656L33.3294 77.8543L32.8332 71.0837Z" fill="#EDC39F" stroke="black" stroke-width="0.3"/>
<path d="M54.737 48.9519H38.2914L38.0787 60.3819C38.9861 62.1291 38.4568 64.022 38.0787 64.75L39.5673 65.7692L54.3117 64.0948L54.737 48.9519Z" fill="#EFC39B" stroke="black" stroke-width="0.3"/>
<path d="M60.1955 80.6937L59.2031 81.7858L59.274 82.1498L60.1955 83.0962C60.0774 83.4602 59.7985 84.2173 59.6284 84.3338C59.5883 84.3613 59.5606 84.3812 59.5422 84.3953L59.5575 84.4066C59.5214 84.4252 59.4825 84.4409 59.5422 84.3953L32.9042 64.6772V64.1676L32.6916 63.9492C32.8334 63.658 33.287 63.0319 33.9675 62.8572L34.6055 63.0756H35.3144C36.1414 63.4881 38.1357 64.6044 39.4967 65.7693L60.1955 80.6937Z" fill="#8D919F" stroke="black" stroke-width="0.3"/>
<path d="M48.0086 35.032C47.9835 34.9869 47.9948 34.9046 47.9998 34.8544C48.0074 34.7772 48.0086 34.7028 48.0086 34.625C48.0086 34.546 48.0086 34.4669 48.0086 34.3879C48.0086 34.2566 48.0086 34.1253 48.0086 33.994C48.0086 33.7669 48.0199 33.533 48.0199 33.3033C48.0199 33.1683 48.0086 33.0366 48.0086 32.9028C48.0086 32.8216 48.0086 32.7404 48.0086 32.6592C48.0086 32.6238 48.0102 32.5943 48.0174 32.5607C48.0264 32.5194 48.0434 32.4924 48.054 32.4545C48.0952 32.3066 48.2544 32.1751 48.3404 32.0527C48.3995 31.9687 48.4534 31.8877 48.5354 31.8253C48.594 31.7807 48.6617 31.7296 48.7076 31.673C48.7717 31.5941 48.8255 31.5115 48.912 31.4566C48.9688 31.4206 49.0308 31.3567 49.0817 31.3102C49.1695 31.23 49.2228 31.1004 49.312 31.0199C49.36 30.9766 49.3889 30.9073 49.4357 30.8592C49.4827 30.8109 49.5043 30.7457 49.558 30.7005C49.6138 30.6536 49.6742 30.596 49.7322 30.5534C49.8611 30.4589 49.9875 30.3377 50.1031 30.2268C50.1658 30.1668 50.2164 30.0936 50.2798 30.0351C50.3333 29.9856 50.391 29.9383 50.4495 29.8945C50.5745 29.8007 50.6584 29.6236 50.7454 29.4947C50.8128 29.3947 50.9778 29.3379 51.0804 29.288C51.1659 29.2464 51.2533 29.1977 51.3472 29.1655" stroke="black" stroke-width="0.3" stroke-linecap="round"/>
<path d="M46.8163 34.5655C46.7721 34.5343 46.7936 34.4197 46.7936 34.3666C46.7936 34.2705 46.7936 34.1744 46.7936 34.0783C46.7936 33.9612 46.7936 33.8442 46.7936 33.7271C46.7936 33.6744 46.7936 33.6217 46.7936 33.569C46.7936 33.5027 46.7623 33.4414 46.7437 33.3779C46.7235 33.3088 46.7205 33.2555 46.68 33.1932C46.6468 33.1421 46.6346 33.0691 46.6346 33.0092C46.6346 32.8735 46.6346 32.7379 46.6346 32.6023C46.6346 32.507 46.6705 32.423 46.7002 32.3353C46.7131 32.2971 46.7164 32.2597 46.7362 32.2226C46.7528 32.1913 46.7833 32.1434 46.7917 32.1105C46.8175 32.009 46.8821 31.8802 46.9551 31.8053C47.0034 31.7557 47.0483 31.699 47.1065 31.6608C47.1883 31.607 47.2326 31.5297 47.2875 31.4515C47.4049 31.2847 47.4934 31.0993 47.6232 30.9423C47.6977 30.8521 47.7741 30.7617 47.8459 30.6701C47.9149 30.5821 47.9981 30.5112 48.0717 30.4278C48.2779 30.1943 48.5577 30.0931 48.7809 29.8894C48.8263 29.8479 48.894 29.8378 48.9398 29.7954C48.9809 29.7574 49.0069 29.729 49.042 29.6853C49.1403 29.5627 49.2244 29.4217 49.2982 29.2822C49.3269 29.2279 49.3618 29.1564 49.4061 29.1138C49.4493 29.0721 49.4991 29.0328 49.5354 28.9848C49.5824 28.9228 49.6616 28.8274 49.7461 28.8274" stroke="black" stroke-width="0.3" stroke-linecap="round"/>
<path d="M68.2055 62.7115C68.1487 63.6433 68.5599 65.0897 68.7725 65.6964L68.9143 62.7115C69.0278 61.4302 68.489 60.4303 68.2055 60.0906C67.5249 59.2752 66.4097 59.7509 65.9371 60.0906C67.3548 59.9741 68.0401 61.7893 68.2055 62.7115Z" fill="#E0BAB3" stroke="black" stroke-width="0.3"/>
<path d="M84.7221 103.554C84.155 103.728 87.5095 111.438 89.4235 116H76.8766C76.0259 111.923 74.7271 108.868 74.0182 107.121C73.7347 105.781 72.9549 104.864 72.6005 104.573C70.0486 103.641 68.1819 100.884 67.5675 99.6222C66.8303 99.0398 66.5988 97.8265 66.5751 97.2926C66.9154 96.8849 66.9059 96.0064 66.8587 95.6181C66.802 94.1621 67.6857 93.1671 68.1346 92.8516C68.4182 91.745 68.7726 91.7111 68.9144 91.8324C68.9144 90.9005 69.3397 90.0852 69.5524 89.7939C69.2121 89.4445 69.3161 88.3379 69.4106 87.8283C68.6734 87.0711 68.9144 86.1053 69.1271 85.717C69.1271 84.4939 70.025 83.7028 70.4739 83.4602C71.8916 83.5184 72.5296 84.6007 72.6714 85.1346C72.7848 84.9599 74.0419 85.9354 74.6562 86.445C74.8263 86.2703 76.5701 87.7312 77.4208 88.4835C77.4208 86.5033 75.1051 82.9991 73.9473 81.4945C73.4369 80.3879 74.16 79.5288 74.5853 79.2376C75.2091 78.8299 76.3102 80.6209 76.7828 81.5673C77.0096 81.3926 78.0115 82.4652 78.4841 83.0233C78.7676 82.7904 79.4528 83.7999 79.76 84.3338C80.5539 86.0228 81.6976 87.3672 82.1701 87.8283C83.1909 88.6437 83.4934 89.527 83.517 89.8667C83.2901 89.8085 83.2334 94.793 83.2334 97.2926C83.0066 98.1662 83.2334 99.0641 83.3752 99.4038C84.2826 101.559 84.6512 103.068 84.7221 103.554Z" fill="#EDD1CC" stroke="black" stroke-width="0.3"/>
<path d="M64.6611 89.9396C64.5477 89.299 67.1185 84.3339 68.4181 81.9314C68.8718 82.1061 69.9776 83.0234 70.4738 83.4602C69.3964 84.2174 69.127 85.2803 69.127 85.7171C68.6166 86.7072 69.1034 87.5372 69.4105 87.8284C69.127 89.0515 69.3869 89.6484 69.5523 89.794C68.9852 90.5512 68.8907 91.4685 68.9143 91.8325C68.6308 91.5413 68.2291 92.4392 68.0637 92.9245C67.1564 93.4487 66.8823 94.8902 66.8586 95.5454C66.9295 95.8852 66.972 96.7248 66.5751 97.3655C66.5751 97.8751 66.7736 99.0399 67.5675 99.6223C68.4181 101.661 70.5684 103.287 71.5371 103.845C72.728 104.311 73.5456 105.689 73.8055 106.32C74.1458 106.32 76.1816 112.36 77.2448 116.073L65.5486 116C65.0949 113.787 65.5354 110.106 65.7244 107.849C65.2708 106.975 65.3464 101.467 65.4409 98.8215C65.7244 99.1127 66.9768 99.4767 67.5675 99.6223C66.7736 99.0399 66.5751 97.8751 66.5751 97.3655C66.972 96.7248 66.9295 95.8852 66.8586 95.5454C66.4617 95.6037 64.9447 94.0651 64.2358 93.2885C64.1224 92.5896 64.4721 90.7647 64.6611 89.9396Z" fill="#414658"/>
<path d="M66.8586 95.5454C66.4617 95.6037 64.9447 94.0651 64.2358 93.2885C64.1224 92.5896 64.4721 90.7647 64.6611 89.9396C64.5477 89.299 67.1185 84.3339 68.4181 81.9314C68.8718 82.1061 69.9776 83.0234 70.4738 83.4602C69.3964 84.2174 69.127 85.2803 69.127 85.7171C68.6166 86.7072 69.1034 87.5372 69.4105 87.8284C69.127 89.0515 69.3869 89.6484 69.5523 89.794C68.9852 90.5512 68.8907 91.4685 68.9143 91.8325C68.6308 91.5413 68.2291 92.4392 68.0637 92.9245C67.1564 93.4487 66.8823 94.8902 66.8586 95.5454ZM66.8586 95.5454C66.9295 95.8852 66.972 96.7248 66.5751 97.3655C66.5751 97.8751 66.7736 99.0399 67.5675 99.6223M67.5675 99.6223C66.9768 99.4767 65.7244 99.1127 65.4409 98.8215C65.3464 101.467 65.2708 106.975 65.7244 107.849C65.5354 110.106 65.0949 113.787 65.5486 116L77.2448 116.073C76.1816 112.36 74.1457 106.32 73.8055 106.32C73.5456 105.689 72.728 104.311 71.5371 103.845C70.5684 103.287 68.4181 101.661 67.5675 99.6223Z" stroke="black" stroke-width="0.3"/>
<defs>
<filter id="filter0_d_505_1479" x="0" y="0" width="132" height="132" filterUnits="userSpaceOnUse" color-interpolation-filters="sRGB">
<feFlood flood-opacity="0" result="BackgroundImageFix"/>
<feColorMatrix in="SourceAlpha" type="matrix" values="0 0 0 0 0 0 0 0 0 0 0 0 0 0 0 0 0 0 127 0" result="hardAlpha"/>
<feMorphology radius="1" operator="erode" in="SourceAlpha" result="effect1_dropShadow_505_1479"/>
<feOffset dx="2" dy="2"/>
<feGaussianBlur stdDeviation="7"/>
<feComposite in2="hardAlpha" operator="out"/>
<feColorMatrix type="matrix" values="0 0 0 0 0 0 0 0 0 0 0 0 0 0 0 0 0 0 0.18 0"/>
<feBlend mode="normal" in2="BackgroundImageFix" result="effect1_dropShadow_505_1479"/>
<feBlend mode="normal" in="SourceGraphic" in2="effect1_dropShadow_505_1479" result="shape"/>
</filter>
</defs>
</svg>
