<svg width="96" height="96" viewBox="0 0 96 96" fill="none" xmlns="http://www.w3.org/2000/svg">
<circle cx="48" cy="48" r="48" fill="#E2E2E2"/>
<path opacity="0.86" d="M77.4318 28.53H19.3418L48.3918 15L77.4318 28.53Z" fill="#E7345F" stroke="black" stroke-width="0.75" stroke-miterlimit="10"/>
<path d="M29.292 28.53V46.73C28.332 46.46 27.402 46.23 26.502 46.01V28.52H29.292V28.53Z" stroke="black" stroke-width="0.75" stroke-miterlimit="10"/>
<path d="M29.292 57.49V63.83C28.432 63.52 27.592 63.32 26.502 63.11V56.22C27.402 56.65 28.332 57.08 29.292 57.49Z" stroke="black" stroke-width="0.75" stroke-miterlimit="10"/>
<path d="M29.292 75.2199V79.1099H26.502V73.9299C27.402 74.3699 28.332 74.7999 29.292 75.2199Z" stroke="black" stroke-width="0.75" stroke-miterlimit="10"/>
<path d="M70.3818 28.53V78.79H67.5918V46.02H68.0518V43.58H67.5918V37.6H68.0518V34.86H67.5918V28.53H70.3818Z" stroke="black" stroke-width="0.75" stroke-miterlimit="10"/>
<path d="M68.062 34.8599H48.772V37.5999H68.062V34.8599Z" stroke="black" stroke-width="0.75" stroke-miterlimit="10"/>
<path d="M54.8817 37.6001H53.5317V43.5801H54.8817V37.6001Z" stroke="black" stroke-width="0.75" stroke-miterlimit="10"/>
<path d="M60.1818 37.6001H58.8418V43.5801H60.1818V37.6001Z" stroke="black" stroke-width="0.75" stroke-miterlimit="10"/>
<path d="M65.5119 37.6001H64.1619V43.5801H65.5119V37.6001Z" stroke="black" stroke-width="0.75" stroke-miterlimit="10"/>
<path d="M56.8918 46.02H55.3518V73.67H56.8918V46.02Z" stroke="black" stroke-width="0.75" stroke-miterlimit="10"/>
<path d="M63.582 46.02H62.042V73.67H63.582V46.02Z" stroke="black" stroke-width="0.75" stroke-miterlimit="10"/>
<path d="M62.0418 47.75H56.8918V51.29H62.0418V47.75Z" stroke="black" stroke-width="0.75" stroke-miterlimit="10"/>
<path d="M62.0418 56.9099H56.8918V60.7299H62.0418V56.9099Z" stroke="black" stroke-width="0.75" stroke-miterlimit="10"/>
<path d="M62.0418 66.8501H56.8918V70.6901H62.0418V66.8501Z" stroke="black" stroke-width="0.75" stroke-miterlimit="10"/>
<path d="M68.062 43.5801H48.772V46.0201H68.062V43.5801Z" stroke="black" stroke-width="0.75" stroke-miterlimit="10"/>
<path opacity="0.86" d="M53.202 37.6001C53.312 37.6401 53.422 37.6901 53.532 37.7501V43.5801H48.772V46.0201H51.122C47.142 47.3701 42.892 48.6701 38.382 49.8801C36.942 49.2801 35.422 48.6901 33.832 48.1401C32.272 47.6001 30.762 47.1301 29.292 46.7301V43.1501C31.552 42.3401 33.942 41.5501 36.442 40.8101C41.182 39.4101 45.642 38.3701 49.742 37.6001H53.202Z" fill="#E7345F" stroke="black" stroke-width="0.75" stroke-miterlimit="10"/>
<path d="M49.5219 58.96C49.0519 61.35 46.0819 63.1901 43.0419 62.1901C39.3619 61.2501 35.1719 59.94 30.6819 58.09C30.2119 57.89 29.7419 57.7001 29.2819 57.5001C28.3219 57.0801 27.3919 56.66 26.4919 56.23C24.0319 55.06 21.7919 53.8601 19.7819 52.6901C18.5419 51.3201 18.2319 49.37 18.9919 47.79C19.7819 46.15 21.6119 45.1801 23.5019 45.3701C23.7619 45.4001 24.0219 45.45 24.2719 45.52C24.9919 45.67 25.7319 45.83 26.4919 46.01C27.3919 46.22 28.3219 46.46 29.2819 46.73C30.7419 47.13 32.2619 47.6 33.8219 48.14C35.4119 48.69 36.9319 49.28 38.3719 49.88C41.5419 51.21 44.3419 52.6301 46.7519 54.0001C47.4719 54.3701 48.0819 54.8701 48.5419 55.4401C49.3819 56.4901 49.7619 57.78 49.5219 58.96Z" stroke="black" stroke-width="0.75" stroke-miterlimit="10"/>
<path d="M51.5719 77.5C50.3119 79.68 48.0719 80.4 47.4819 80.56C46.9219 80.72 45.6819 80.9899 41.4119 79.8199C41.4119 79.8199 37.4318 78.7299 29.9918 75.5199C29.9818 75.5199 29.2919 75.2199 29.2919 75.2199C28.3319 74.7999 27.4019 74.37 26.5019 73.93C23.7919 72.62 21.3718 71.2399 19.2418 69.8999C18.0618 68.4999 17.7019 66.67 18.2519 65.19C18.3119 65.02 18.3919 64.8599 18.4719 64.6999C18.6919 64.2899 18.9819 63.96 19.2919 63.69C19.5819 63.49 19.8818 63.3099 20.1818 63.1599C21.0818 62.7099 22.0218 62.4799 22.9318 62.5299C23.1618 62.5499 23.3719 62.58 23.5719 62.61C23.6119 62.62 23.6519 62.6199 23.6919 62.6299C23.6919 62.6299 23.6919 62.6299 23.7019 62.6299C24.8319 62.8099 25.7218 62.9499 26.4918 63.0999C27.5818 63.2999 28.4219 63.5099 29.2819 63.8199C32.5119 64.3799 36.2019 65.3099 40.1219 66.8399C40.3919 66.9499 40.8119 67.1199 41.3119 67.3199C45.2519 68.9199 47.2518 69.7299 48.4018 70.4499C50.1918 71.5799 52.1318 72.7999 52.3318 74.7699C52.4618 75.9599 51.9019 76.92 51.5719 77.5Z" stroke="black" stroke-width="0.75" stroke-miterlimit="10"/>
<path d="M26.5019 59.6499V63.1099C25.7319 62.9699 24.8419 62.8199 23.7119 62.6399C23.7119 62.6399 23.7119 62.6399 23.7019 62.6399C23.5219 62.5999 23.3619 62.5699 23.2019 62.5599C23.1119 62.5499 23.0219 62.5399 22.9319 62.5399C22.0119 62.4899 21.0819 62.7099 20.1819 63.1699C20.2319 63.1199 20.2719 63.0699 20.3219 63.0199C20.5819 62.7399 20.8519 62.4699 21.1119 62.1899C22.7319 61.3299 24.5319 60.4699 26.5019 59.6499Z" fill="#E83661" stroke="black" stroke-width="0.75" stroke-miterlimit="10"/>
<path d="M47.782 64.71C45.232 65.42 42.682 66.13 40.132 66.85C36.212 65.32 32.522 64.39 29.292 63.83V58.5699C29.752 58.4099 30.212 58.24 30.692 58.09C35.182 59.95 39.362 61.26 43.052 62.19C46.092 63.18 49.062 61.35 49.532 58.96C49.762 57.79 49.392 56.5 48.552 55.45C50.022 56.09 50.562 57.01 50.752 57.39C51.752 59.43 50.682 62.56 47.782 64.71Z" fill="#E83660" stroke="black" stroke-width="0.75" stroke-miterlimit="10"/>
<path d="M46.4018 78.8599C48.622 78.8599 50.4218 77.1764 50.4218 75.0999C50.4218 73.0233 48.622 71.3398 46.4018 71.3398C44.1816 71.3398 42.3818 73.0233 42.3818 75.0999C42.3818 77.1764 44.1816 78.8599 46.4018 78.8599Z" fill="#E83661" stroke="black" stroke-width="0.75" stroke-miterlimit="10"/>
</svg>
