<svg width="132" height="132" viewBox="0 0 132 132" fill="none" xmlns="http://www.w3.org/2000/svg">
<g filter="url(#filter0_d_505_1518)">
<rect x="11" y="11" width="106" height="106" rx="17" fill="#FFB7C5"/>
<rect x="11.05" y="11.05" width="105.9" height="105.9" rx="16.95" stroke="#929292" stroke-width="0.1"/>
</g>
<path d="M97.4358 90.1011C95.9388 81.6523 77.5446 78.5134 68.5346 78H59.5939C27.6571 80.2882 28.8214 90.8345 33.3957 95.8216C41.0473 102.334 60.4207 103.793 69.4999 103.5C77.6505 111.597 97.1536 109.661 105.886 107.68C117.696 100.464 103.743 96.335 94.9407 95.3815C97.2694 93.2694 97.5744 90.9812 97.4358 90.1011Z" fill="#3799BE" stroke="black" stroke-width="0.3"/>
<path d="M74.6086 58.1631H73.9846V54.2571H74.6086V58.1631Z" stroke="black" stroke-width="0.3"/>
<path d="M92.9106 107.077C93.909 107.077 97.0705 108.217 98.5264 108.786C81.2213 111.13 72.1805 106.393 69.8232 103.382C55.1804 104.164 42.5066 100.453 38.0001 98.5C39.4977 95.7658 45.4186 91.9418 48.1918 90.7212C52.0189 88.1823 64.4847 87.873 70.2392 88.0358C79.0582 88.2311 87.3641 92.3487 90.4147 94.383C97.2369 98.6796 94.9212 104.636 92.9106 107.077Z" fill="#8BBACF" stroke="black" stroke-width="0.3"/>
<path d="M93.5981 82.5598C86.663 77.312 74.0588 76 68.6235 76V77.1714H67.5915V76H60.9866V77.1714H59.7482V76C53.4736 76.3748 48.2491 77.049 46.5979 77.4395C39.8279 78.7515 34.2975 82.4934 32.4399 83.9771C25.6699 89.0375 30.1101 95.501 32.9998 98C43.5675 105.684 61.6059 105.753 69.2427 105.051C75.3522 111.798 88.0253 112.391 93.5981 111.845C108.624 111.282 112.105 106.456 111.968 104.113C112.628 98.1159 102.886 95.5232 97.9325 94.9766C101.73 89.1665 96.6253 84.2778 93.5981 82.5598Z" stroke="black" stroke-width="0.3"/>
<path d="M97.8274 64.6634H117V102.375C117 105.708 114.128 110.408 110.885 113.077C107.376 115.964 103.433 116.687 102.221 116.644H26.7984C25.5445 116.552 23.4303 116.559 21.1938 115.625C18.9713 114.697 16.6273 112.834 15.0774 111.038C13.6585 109.394 12.6343 107.776 12.0207 105.942C11.0597 103.069 10.98 100.133 11.0032 99.3172L11.0032 64.6634H30.6716C33.4356 64.6634 35.842 62.7752 36.4995 60.0905L37.5011 56C39.8008 56.3254 44.8983 57.3186 45.1453 57.5288L44.8443 68.2307H46.6742V58.0385L49.7319 59.0577V62.1154H51.2607V59.5673C52.6175 59.7656 52.4213 61.0275 52.2799 61.6058C51.0928 63.9848 52.8901 65.3522 53.8088 65.6827V69.25H54.6567V65.6827C55.8439 65.8809 56.6545 64.3877 56.8665 63.6442C57.3752 62.4547 57.3206 59.608 57.2499 58.2863L59.7938 58.0385V76.0427C42.8344 76.4392 34.8893 81.2227 32.2747 84.1965C26.5085 90.9372 28.9574 95.985 32.9146 98.2979C44.1079 104.444 62.3841 106.011 69.0972 105.433C72.4891 108.803 78.9104 109.441 80.8183 110.019C100.491 113.588 109.371 110.103 112.127 107.295C116.537 98.9678 104.944 95.9837 98.6548 95.2403C102.725 88.8961 96.8606 84.0555 93.2567 81.9903C86.1337 77.2322 74.036 76.0427 68.8775 76.0427L68.5876 58.0385L71.6453 58.5481L71.1356 59.5673C71.1356 63.6442 73.1891 66.4401 73.6837 66.1923H74.7029C76.3989 65.7958 76.4438 61.4126 76.2318 60.5865L76.4099 60.3108C76.5795 59.9142 76.6776 60.1595 76.9603 60.0769L77.0908 62.1154H78.1508V59.4228L81.8375 58.0385V59.5673V68.7403H83.3664V57.7344L85.9144 57.0192L88.9721 56.5096H91.0106L92.0429 60.2569C92.7599 62.86 95.1274 64.6634 97.8274 64.6634Z" fill="#F4EBE2"/>
<path d="M74.7029 66.1923C76.3989 65.7958 76.4438 61.4126 76.2318 60.5865L76.4099 60.3108C76.5795 59.9142 76.6776 60.1595 76.9603 60.0769L77.0908 62.1154H78.1508V59.4228L81.8375 58.0385V59.5673V68.7403H83.3664V57.7344L85.9144 57.0192L88.9721 56.5096H91.0106L92.0429 60.2569C92.7599 62.86 95.1274 64.6634 97.8274 64.6634H117V102.375C117 105.708 114.128 110.408 110.885 113.077C107.376 115.964 103.433 116.687 102.221 116.644H26.7984C25.5445 116.552 23.4303 116.559 21.1938 115.625C18.9712 114.697 16.6273 112.834 15.0774 111.038C13.6585 109.394 12.6343 107.776 12.0207 105.942C11.0597 103.069 10.98 100.133 11.0032 99.3172L11.0032 64.6634H30.6716C33.4356 64.6634 35.842 62.7752 36.4995 60.0905L37.5011 56C39.8008 56.3254 44.8983 57.3186 45.1453 57.5288L44.8443 68.2307H46.6742V58.0385L49.7319 59.0577V62.1154H51.2607V59.5673C52.6175 59.7656 52.4213 61.0275 52.2799 61.6058C51.0928 63.9848 52.8901 65.3522 53.8088 65.6827V69.25H54.6567V65.6827C55.8439 65.8809 56.6545 64.3877 56.8665 63.6442C57.3752 62.4547 57.3206 59.608 57.2499 58.2863L59.7938 58.0385V76.0427C42.8344 76.4392 34.8893 81.2227 32.2747 84.1965C26.5085 90.9372 28.9574 95.985 32.9146 98.2979C44.1079 104.444 62.3841 106.011 69.0972 105.433C72.4891 108.803 78.9104 109.441 80.8183 110.019C100.491 113.588 109.371 110.103 112.127 107.295C116.537 98.9678 104.944 95.9837 98.6548 95.2403C102.725 88.8961 96.8606 84.0555 93.2567 81.9903C86.1337 77.2322 74.036 76.0427 68.8775 76.0427L68.5876 58.0385L71.6453 58.5481L71.1356 59.5673C71.1356 63.6442 73.1891 66.4401 73.6837 66.1923M74.7029 66.1923L73.6837 69.7596M74.7029 66.1923V69.7596H73.6837M74.7029 66.1923H73.6837M73.6837 69.7596V66.1923" stroke="#929292" stroke-width="0.1"/>
<path d="M67.9533 68.7309H61.2975V67.5103H67.9533V68.7309Z" stroke="black" stroke-width="0.2"/>
<path d="M77.0798 31H74.9998C75.6654 31 76.6638 31.4882 77.0798 31.7324V31Z" fill="#56A2BA" stroke="black" stroke-width="0.2"/>
<path d="M60.1671 32.3237H56.6312V33.5444H57.2552V35.9856H56.6312V36.9621H60.1671V35.9856H59.5431V33.5444H60.1671V32.3237Z" fill="#56A2BA" stroke="black" stroke-width="0.2"/>
<path d="M68.0714 36.9621H71.8153V36.2297V35.9856H71.1913V33.5444H71.3993H71.8153V32.3237H68.0714V33.5444H68.6954V35.9856H68.0714V36.9621Z" fill="#56A2BA" stroke="black" stroke-width="0.2"/>
<path d="M76.599 28.906L77.223 31.5914C77.0566 32.3726 77.9856 32.5679 78.471 32.5679L76.807 25H65.9913V28.6619L76.599 28.906Z" fill="#56A2BA" stroke="black" stroke-width="0.2"/>
<path d="M48.1042 53.3184C51.2935 54.1321 57.5888 56.5408 57.256 59.6656C57.3253 60.8049 57.2976 63.3763 56.632 64.5481C56.7013 63.5716 56.3824 61.5698 54.5521 61.3745C54.0059 61.3211 53.1191 61.464 52.6214 62.1763C52.5475 62.7613 52.3985 63.3741 52.2641 63.8157C52.207 63.0777 52.3609 62.5491 52.6214 62.1763C52.7381 61.2524 52.6675 60.398 52.0561 60.398C50.3922 59.5842 45.5667 57.7126 39.5765 56.7361C38.8832 55.841 38.0373 53.709 40.2005 52.3419C40.6164 52.0164 42.7796 51.756 48.1042 53.3184Z" fill="#59AFDD" stroke="black" stroke-width="0.2"/>
<path d="M75.7668 61.6187C75.2676 59.6657 84.4332 57.7127 89.0784 56.9803C90.4095 54.0508 89.0784 52.993 88.2465 52.8302C87.4145 52.049 82.3533 53.1557 79.9267 53.8067C75.7668 54.7832 73.4789 56.4921 72.8549 57.2245C70.0261 59.9586 70.9829 63.0834 71.8149 64.3041C72.1477 62.1558 73.3402 61.7814 73.8948 61.8628C74.8932 61.4722 75.6975 63.0021 75.9748 63.8158C76.1412 63.6205 75.9055 62.2697 75.7668 61.6187Z" fill="#5AB0D9" stroke="black" stroke-width="0.2"/>
<path d="M52.6797 31.103H55.3837L56.6316 32.5678V35.009C56.1463 35.4159 54.9677 36.2785 54.1357 36.4738C49.8655 37.4462 41.8808 39.3539 41.395 39.8073C41.4132 39.8356 41.4309 39.8637 41.4481 39.8915C41.3674 39.8757 41.3523 39.8471 41.395 39.8073C40.4528 38.3489 38.028 36.3904 35.4162 39.6474C35.2083 38.5895 35.749 36.0832 39.5761 34.5208C43.2507 33.6256 50.683 31.7866 51.0158 31.5913C51.3486 31.396 52.2638 31.1844 52.6797 31.103Z" fill="#F5C578" stroke="black" stroke-width="0.2"/>
<path d="M71.8156 35.4972C72.1484 36.0831 73.2022 36.8806 73.6875 37.2061C80.5097 37.9873 85.6819 39.4846 87.4152 40.1356C89.5783 37.2061 92.0604 38.9149 93.031 40.1356C93.031 38.7685 92.199 37.613 91.7831 37.2061C91.7831 35.4484 82.0767 33.2187 77.2235 32.3236C77.0571 32.1283 75.9062 31.754 75.3515 31.5912C74.6859 31.3959 73.6876 31.5099 73.2716 31.5912C72.9388 31.5912 72.1622 32.405 71.8156 32.8119C71.6492 33.5931 71.7462 34.9276 71.8156 35.4972Z" fill="#F5C578" stroke="black" stroke-width="0.2"/>
<path d="M71.8154 37.6945V37.2063V36.9622H68.2795V37.6945H71.8154Z" fill="#D85B7B" stroke="black" stroke-width="0.2"/>
<path d="M60.1675 37.6945V36.9621H56.6316V36.4739H53.9277L52.0557 36.9621L55.1756 37.6945H60.1675Z" fill="#D85B7B" stroke="black" stroke-width="0.2"/>
<path d="M76.391 28.6619H51.8476H51.6396L51.0157 31.1031H56.6315V32.3237H60.1674V32.812H61.4154V34.2767C63.7449 35.4485 66.1299 34.765 67.0312 34.2767V32.812H68.0712V32.3237H71.8151V31.5914C73.6454 31.3961 76.0443 31.51 77.0149 31.5914L76.391 28.6619Z" fill="#D85B7B" stroke="black" stroke-width="0.2"/>
<path d="M62.0394 25V28.6619H51.6397L51.0157 31.1031V31.3472L50.1837 31.5914L51.6397 25H62.0394Z" fill="#56A2BA" stroke="black" stroke-width="0.2"/>
<path d="M51.6395 38.1828L59.9593 39.4034V38.4269L51.6395 37.2063V38.1828Z" fill="#56A2BA" stroke="black" stroke-width="0.2"/>
<path d="M59.9597 40.8681L51.4319 42.0887V41.3564L59.9597 40.1357V40.8681Z" fill="#56A2BA" stroke="black" stroke-width="0.2"/>
<path d="M59.9596 45.2621L56.4237 45.5063L55.7997 44.5298L59.9596 44.2856V45.2621Z" fill="#56A2BA" stroke="black" stroke-width="0.2"/>
<path d="M51.6395 51.6096L59.9593 52.5861V51.8537L53.5114 50.8772L51.6395 51.6096Z" fill="#56A2BA" stroke="black" stroke-width="0.2"/>
<path d="M59.9597 58.445L57.2558 58.6891L56.8398 57.9568L59.9597 57.4685V58.445Z" fill="#56A2BA" stroke="black" stroke-width="0.2"/>
<path d="M49.9756 37.4504V42.0888L51.4315 42.3329V36.9622L49.9756 37.4504Z" fill="#56A2BA" stroke="black" stroke-width="0.2"/>
<path d="M50.1837 52.342V54.0509L51.4317 54.295V51.8538L50.1837 52.342Z" fill="#56A2BA" stroke="black" stroke-width="0.2"/>
<path d="M54.8319 69.6619H53.9999V66H54.8319V69.6619Z" fill="#56A2BA" stroke="black" stroke-width="0.2"/>
<path d="M51.4315 62.5952H49.9756V59.4216L51.4315 60.154V62.5952Z" fill="#56A2BA" stroke="black" stroke-width="0.2"/>
<path d="M45.4001 38.6709V40.868L46.8561 41.1121V38.1826L45.4001 38.6709Z" fill="#56A2BA" stroke="black" stroke-width="0.2"/>
<path d="M45.4001 46.4829V48.4359L46.8561 47.9477V46.727L45.4001 46.4829Z" fill="#56A2BA" stroke="black" stroke-width="0.2"/>
<path d="M45.4001 68.4544H46.8561V58.4453L45.4001 57.957V68.4544Z" fill="#56A2BA" stroke="black" stroke-width="0.2"/>
<path d="M40.4079 38.6711L41.4479 39.6476C41.6143 39.4523 50.3916 37.2877 54.7595 36.2298C56.7563 35.4486 56.8394 34.4396 56.6315 34.0327C56.4651 34.6186 45.7464 37.3691 40.4079 38.6711Z" fill="#FFA46B" stroke="black" stroke-width="0.2"/>
<path d="M56.6317 64.304C56.6317 62.351 55.2451 61.5372 54.5518 61.3745C52.8878 61.1792 52.3332 62.7579 52.2638 63.5716C52.2638 65.3293 53.6505 65.9315 54.3438 66.0129C55.8413 66.2082 56.493 64.955 56.6317 64.304Z" fill="#777777" stroke="black" stroke-width="0.2"/>
<path d="M51.8477 58.6892C53.8445 59.2751 54.0663 60.7236 53.9277 61.3746L52.6797 61.8628C52.8461 60.691 52.0557 60.2353 51.6397 60.154C46.8143 58.0057 41.5867 56.9804 39.5761 56.7362L38.9521 55.2715C41.1152 55.2715 48.4505 57.55 51.8477 58.6892Z" fill="#4AA4BC" stroke="black" stroke-width="0.2"/>
<path d="M55.5912 49.9007C57.7543 47.1665 56.2152 44.8555 55.1752 44.0417C51.1817 42.8699 49.3513 45.6692 48.9353 47.2154C48.7689 47.606 41.9329 49.4939 38.5356 50.389C35.8733 50.5843 35.0691 52.4234 34.9997 53.3185C34.9997 56.0527 38.0503 56.7362 39.5756 56.7362C37.9117 54.3926 39.2983 52.8302 40.1996 52.342C41.3644 51.5608 45.9541 52.6675 48.1034 53.3185C49.4345 52.7326 53.6499 50.7959 55.5912 49.9007Z" fill="#F5C578" stroke="black" stroke-width="0.2"/>
<path d="M55.3839 44.0419C55.7166 43.2607 46.2321 40.9496 41.4482 39.8918C39.1187 36.5717 36.4564 38.3456 35.4164 39.6476C33.7524 43.7489 43.7362 46.4017 48.936 47.2155C49.9344 43.3095 53.6506 43.4722 55.3839 44.0419Z" fill="#59AFDD" stroke="black" stroke-width="0.2"/>
<path d="M76.8073 38.4267L68.2795 39.4032V38.4267L75.9753 37.4502L76.8073 37.6943V38.4267Z" fill="#56A2BA" stroke="black" stroke-width="0.2"/>
<path d="M68.2795 40.8681L76.8073 41.6005V40.8681L68.2795 40.1357V40.8681Z" fill="#56A2BA" stroke="black" stroke-width="0.2"/>
<path d="M68.2795 45.2621L72.2314 45.7504L72.6474 45.018L68.2795 44.2856V45.2621Z" fill="#56A2BA" stroke="black" stroke-width="0.2"/>
<path d="M75.5593 51.8537L68.4875 52.5861L68.2795 51.6096L73.6874 50.8772L75.5593 51.8537Z" fill="#56A2BA" stroke="black" stroke-width="0.2"/>
<path d="M68.4872 57.7126L72.0231 57.9568L71.6071 58.9333L68.4872 58.445V57.7126Z" fill="#56A2BA" stroke="black" stroke-width="0.2"/>
<path d="M78.0551 37.9385V42.8209L76.8072 43.3092V37.6943L78.0551 37.9385Z" fill="#56A2BA" stroke="black" stroke-width="0.2"/>
<path d="M77.8471 52.83V54.2948L76.8072 54.783V52.3418L77.8471 52.83Z" fill="#56A2BA" stroke="black" stroke-width="0.2"/>
<path d="M77.8471 62.595H76.8072V60.3979L77.8471 59.9097V62.595Z" fill="#56A2BA" stroke="black" stroke-width="0.2"/>
<path d="M83.0467 38.9151V41.3563L81.5908 41.8446V38.6709L83.0467 38.9151Z" fill="#56A2BA" stroke="black" stroke-width="0.2"/>
<path d="M83.0466 46.9712V48.9242L81.3827 48.4359V47.2153L83.0466 46.9712Z" fill="#56A2BA" stroke="black" stroke-width="0.2"/>
<path d="M83.0467 68.9424H81.5908V58.6892L83.0467 58.2009V68.9424Z" fill="#56A2BA" stroke="black" stroke-width="0.2"/>
<path d="M88.8705 38.6711C86.0418 38.0852 76.3215 35.6602 71.8149 34.521V35.4975L73.4789 37.2064C78.9699 37.597 84.9186 39.3221 87.2065 40.1359C87.5393 39.7453 88.4545 38.9966 88.8705 38.6711Z" fill="#FFA46B" stroke="black" stroke-width="0.2"/>
<path d="M77.8476 58.2008C74.8525 59.1773 74.3811 61.0489 74.5197 61.8626C75.0189 61.8626 75.6984 63.0019 75.9757 63.5715C76.3085 63.9621 75.9757 62.1068 75.7677 61.1303C77.2653 59.1773 85.2662 57.5498 89.0794 56.9802C89.4122 56.0037 89.4954 55.5968 89.4954 55.5154C89.1626 55.3201 81.5916 57.2243 77.8476 58.2008Z" fill="#4AA4BC" stroke="black" stroke-width="0.2"/>
<path d="M73.2712 50.6331C70.1097 48.4848 71.9539 45.6692 73.2712 44.53C77.0984 42.9676 79.0257 45.832 79.511 47.4595C79.3446 48.0454 86.3749 49.9821 89.9108 50.8772C93.5715 51.0725 93.6547 53.7253 93.2387 55.0273C92.5731 56.5897 90.1881 56.9803 89.0788 56.9803C90.9091 53.6602 88.7321 52.6675 87.4148 52.5861C85.4181 52.3908 81.591 53.3185 79.927 53.8067L73.2712 50.6331Z" fill="#F5C578" stroke="black" stroke-width="0.2"/>
<path d="M87.4152 40.1358C88.1779 38.8338 90.3688 37.011 93.0311 40.1358C93.1004 41.926 92.0743 45.6042 87.4152 45.9948C84.7806 46.5644 79.5115 47.6548 79.5115 47.4595C79.1693 45.8533 77.4361 43.0424 73.2322 44.4709C73.1735 44.4914 73.1174 44.5111 73.0636 44.53C73.1202 44.5096 73.1764 44.4899 73.2322 44.4709C75.4427 43.6994 81.0934 41.848 87.4152 40.1358Z" fill="#59AFDD" stroke="black" stroke-width="0.2"/>
<path d="M60.1674 32.812H61.4154L60.9994 77.7309H59.7514L60.1674 32.812Z" fill="#FFEAA0" stroke="black" stroke-width="0.2"/>
<path d="M61.4152 34.2769C64.0775 35.644 66.3067 34.5696 67 34L67.447 76.5104H61.2072L61.4152 34.2769Z" fill="#FCC07A" stroke="black" stroke-width="0.2"/>
<path d="M68.6953 77.7309L68.0713 32.812H67.0314L67.6554 77.7309H68.6953Z" fill="#FFEAA0" stroke="black" stroke-width="0.2"/>
<path d="M73.8949 66.257C72.3973 66.6476 71.8843 65.1177 71.8149 64.304C72.1477 62.1557 73.3402 61.7814 73.8949 61.8627C74.7269 61.4721 75.6282 63.002 75.9748 63.8157C76.3076 65.964 74.7269 66.3384 73.8949 66.257Z" fill="#777777" stroke="black" stroke-width="0.2"/>
<path d="M56.6316 36.4738V34.7649C56.1324 35.7414 54.4823 36.311 53.7196 36.4738H56.6316Z" fill="#56A2BA" stroke="black" stroke-width="0.2"/>
<path d="M74.311 70.1631H73.687V66.2571H74.311V70.1631Z" fill="#56A2BA" stroke="black" stroke-width="0.2"/>
<defs>
<filter id="filter0_d_505_1518" x="0" y="0" width="132" height="132" filterUnits="userSpaceOnUse" color-interpolation-filters="sRGB">
<feFlood flood-opacity="0" result="BackgroundImageFix"/>
<feColorMatrix in="SourceAlpha" type="matrix" values="0 0 0 0 0 0 0 0 0 0 0 0 0 0 0 0 0 0 127 0" result="hardAlpha"/>
<feMorphology radius="1" operator="erode" in="SourceAlpha" result="effect1_dropShadow_505_1518"/>
<feOffset dx="2" dy="2"/>
<feGaussianBlur stdDeviation="7"/>
<feComposite in2="hardAlpha" operator="out"/>
<feColorMatrix type="matrix" values="0 0 0 0 0 0 0 0 0 0 0 0 0 0 0 0 0 0 0.18 0"/>
<feBlend mode="normal" in2="BackgroundImageFix" result="effect1_dropShadow_505_1518"/>
<feBlend mode="normal" in="SourceGraphic" in2="effect1_dropShadow_505_1518" result="shape"/>
</filter>
</defs>
</svg>
