<svg width="132" height="132" viewBox="0 0 132 132" fill="none" xmlns="http://www.w3.org/2000/svg">
<g filter="url(#filter0_d_505_1653)">
<rect x="11" y="11" width="106" height="106" rx="17" fill="#FFB7C5"/>
<rect x="11.05" y="11.05" width="105.9" height="105.9" rx="16.95" stroke="#929292" stroke-width="0.1"/>
</g>
<path d="M74.9039 80.8163C75.2932 83.9903 93.1903 105.268 102.51 116.01C110.399 114.257 116.012 107.26 116.012 99.1792V93.5082C114.994 93.628 106.532 86.9423 101.928 83.399L89.4265 72.8065L73.3319 56.0381L66.4074 48.5148L64.0868 45.4456C62.7094 44.3377 62.7892 41.8648 63.0013 40.7669C63.69 40.4076 63.6876 38.4962 63.6002 37.5854C62.9714 36.2679 60.9926 38.6833 60.0819 40.0557C59.8124 42.1219 59.6701 42.9378 59.6327 43.0875C59.1536 42.9378 58.41 41.7775 58.0981 41.2161C58.4874 41.3358 59.0588 39.3945 59.2958 38.4088C58.8467 36.2829 57.2871 36.7495 56.5635 37.2485C55.0064 39.3745 52.6459 41.7026 51.6602 42.6009C49.8636 42.4512 48.9404 43.5367 48.7033 44.0981C46.9965 42.8405 43.9498 46.4686 42.6398 48.4399C42.7595 50.3862 38.3479 53.2434 36.1271 54.4286C32.6536 55.3868 31.1115 57.1984 30.7747 57.9844C27.6605 58.9725 26.882 61.091 26.882 62.0268C26.7023 63.5838 28.6038 63.5739 29.5769 63.3742C29.3673 64.003 29.6643 64.5845 29.8389 64.7966C31.7553 66.2937 34.6549 65.62 35.8651 65.096C37.2125 63.4491 41.1426 62.9625 42.9392 62.9251C49.2872 63.4042 56.8879 61.2283 59.8947 60.0804C61.1823 58.9725 70.4373 73.4427 74.9039 80.8163Z" fill="#F8BC90" stroke="black" stroke-width="0.3"/>
<path d="M70.8608 51.2846C70.3817 50.3863 67.6169 48.964 66.2944 48.3651L71.0105 53.5678L76.1758 58.9951L81.5282 64.5346L86.8057 70.0742C86.7458 70.4335 90.5487 73.7922 92.4576 75.4266L99.8312 81.6399L108.402 88.3023C113.134 91.9554 115.113 93.5424 116.011 93.8793V92.0078C116.011 91.4389 113.293 89.6248 111.434 88.7889C110.985 87.651 108.777 86.593 107.729 86.2062C107.339 85.1882 105.221 84.235 104.21 83.8856C103.971 82.8975 101.366 81.3279 100.093 80.6667C99.7039 79.7684 96.9616 77.6973 95.6391 76.774C95.4893 76.0853 92.9566 74.1914 91.709 73.3305C91.5593 71.9831 89.2262 70.0742 88.0783 69.2882C87.8388 68.0605 85.7577 66.3063 84.7471 65.5827C84.7172 64.5646 82.3891 62.4635 81.2288 61.5403C80.9892 60.1928 78.7834 58.6582 77.7104 58.0594C77.5008 56.7718 75.3024 55.1523 74.2295 54.5036C74.0199 53.6352 71.8964 51.9958 70.8608 51.2846Z" fill="#C99171" stroke="black" stroke-width="0.3"/>
<path d="M45.5591 60.6041C46.1879 60.3646 46.0207 57.9344 45.8585 56.7493C45.4393 56.2403 44.6358 56.5372 44.2865 56.7493C43.8074 57.5278 44.0869 59.6436 44.2865 60.6041C44.3763 60.9036 45.1723 60.7289 45.5591 60.6041Z" fill="#424749" stroke="black" stroke-width="0.3"/>
<path d="M57.4618 48.44H55.8149C55.3657 47.6915 56.4886 46.8681 57.0875 46.943C57.5666 47.0029 57.5366 47.966 57.4618 48.44Z" fill="#424749" stroke="black" stroke-width="0.3"/>
<path d="M56.1895 55.2893V53.6052L54.2058 54.2414C53.7566 54.0618 52.9207 54.6905 52.5589 55.0273C52.0498 55.8657 52.771 56.7489 53.1952 57.0858C53.9737 57.9241 54.5676 56.9111 54.7672 56.2998L56.1895 55.2893Z" fill="#424749" stroke="black" stroke-width="0.3"/>
<path d="M67.1183 51.6211C66.3996 51.2917 66.2699 49.2633 66.2948 48.2902L69.888 52.3696C68.9598 52.9684 67.6547 52.1201 67.1183 51.6211Z" fill="#424749" stroke="black" stroke-width="0.3"/>
<path d="M62.3276 49.7126C62.6895 50.1492 63.6152 50.8279 64.4237 50.0494C63.725 49.1138 62.3276 47.7365 62.3276 49.7126Z" fill="#424749" stroke="black" stroke-width="0.3"/>
<path d="M59.8569 44.9213C59.8989 44.8946 59.9433 44.8644 59.9897 44.8304C60.6851 44.2314 60.8419 42.0362 60.8301 40.9542C61.2493 41.1638 62.1027 40.0934 62.477 39.532C62.2786 42.4796 60.8124 44.2288 59.9897 44.8304C59.9474 44.8668 59.9032 44.8973 59.8569 44.9213Z" fill="#8F8282" stroke="black" stroke-width="0.3"/>
<path d="M29.8765 61.0909C28.8585 61.8993 29.7019 62.3759 30.2508 62.5131C30.2508 61.5849 34.5427 60.0555 36.6887 59.4068C35.3712 59.5265 34.3431 59.7311 33.9938 59.8185C32.9458 59.9083 30.8123 60.7042 29.8765 61.0909Z" fill="#8F8282" stroke="black" stroke-width="0.3"/>
<path d="M35.1845 61.9896C37.1405 62.2867 36.827 64.037 36.4258 64.8751C36.1249 65.3093 34.1188 65.6274 33.1534 65.7321C30.7761 65.7321 30.3072 64.8941 30.3699 64.4751C30.1893 63.0123 33.5044 62.2086 35.1845 61.9896Z" fill="#424749" stroke="black" stroke-width="0.3"/>
<path d="M50.1626 48.4771C48.7253 47.9381 47.318 48.5769 46.7939 48.9636C47.1533 47.4965 48.7403 46.3812 49.4889 46.007C49.968 45.5878 51.9842 45.7325 52.9324 45.8573C53.0222 46.007 51.1233 47.6662 50.1626 48.4771Z" fill="#8F8282" stroke="black" stroke-width="0.3"/>
<path d="M88.4125 92.2171C85.8842 92.4673 81.3224 89.6814 81.0265 86.6908C80.7305 83.7001 81.7958 82.1901 84.3241 81.9398C86.8524 81.6896 87.6273 84.2836 87.9233 87.2743C88.2193 90.2649 90.9408 91.9669 88.4125 92.2171Z" fill="#424749"/>
<path d="M70.5034 65.7316C71.7199 65.7041 73.7971 67.2004 73.8296 68.6393C73.862 70.0782 73.2983 70.7605 72.0818 70.7879C70.8652 70.8154 70.5896 69.5485 70.5571 68.1097C70.5246 66.6708 69.2869 65.759 70.5034 65.7316Z" fill="#424749"/>
<path d="M79.7597 65.9846C78.8555 66.7989 76.3051 67.0193 75.342 65.9497C74.3788 64.8802 74.3611 63.9953 75.2653 63.181C76.1695 62.3668 77.2048 63.1474 78.1679 64.2169C79.131 65.2865 80.6639 65.1704 79.7597 65.9846Z" fill="#424749"/>
<path d="M84.5744 72.9285C83.4566 73.0391 81.4397 71.8076 81.3088 70.4854C81.178 69.1633 81.649 68.4957 82.7669 68.3851C83.8847 68.2744 84.2273 69.4212 84.3581 70.7434C84.489 72.0655 85.6922 72.8179 84.5744 72.9285Z" fill="#424749"/>
<path d="M74.3012 76.961C74.4621 75.564 76.5037 73.4228 78.1564 73.6131C79.809 73.8034 80.5011 74.5567 80.3402 75.9536C80.1793 77.3506 78.6852 77.4659 77.0326 77.2756C75.38 77.0852 74.1403 78.358 74.3012 76.961Z" fill="#424749"/>
<path d="M88.7383 79.1915C90.389 78.1636 94.4637 78.531 95.6795 80.4836C96.8954 82.4361 96.6754 83.8334 95.0247 84.8613C93.3739 85.8892 91.9636 84.3711 90.7478 82.4186C89.5319 80.466 87.0875 80.2194 88.7383 79.1915Z" fill="#424749"/>
<path d="M109.881 93.7754C108.173 95.6563 102.921 96.6486 100.696 94.6286C98.4713 92.6086 98.249 90.774 99.9567 88.8931C101.664 87.0122 103.979 88.4168 106.204 90.4368C108.429 92.4568 111.589 91.8944 109.881 93.7754Z" fill="#424749"/>
<path d="M90.9028 96.2814C93.2132 95.2246 98.4317 96.3801 99.6816 99.1129C100.931 101.846 100.414 103.619 98.1031 104.676C95.7927 105.733 94.2184 103.531 92.9685 100.798C91.7186 98.0652 88.5923 97.3381 90.9028 96.2814Z" fill="#424749"/>
<path d="M68.0167 61.2406C68.0167 62.5221 67.5302 62.8873 66.1452 62.8873C64.7602 62.8873 64.3486 62.8964 64.3486 61.6149C64.3486 60.3333 64.7602 59.9681 66.1452 59.9681C67.5302 59.9681 68.0167 59.9591 68.0167 61.2406Z" fill="#424749"/>
<path d="M73.0321 57.9757C73.0321 59.06 72.6251 59.369 71.4662 59.369C70.3073 59.369 69.9629 59.3767 69.9629 58.2924C69.9629 57.208 70.3073 56.899 71.4662 56.899C72.6251 56.899 73.0321 56.8913 73.0321 57.9757Z" fill="#424749"/>
<path d="M62.7767 56.8987L61.2421 55.252C60.4635 54.5634 61.2171 54.0918 61.6912 53.9421L63.0012 55.4766C63.5103 56.4945 63.0636 56.8488 62.7767 56.8987Z" fill="#424749" stroke="black" stroke-width="0.3"/>
<path d="M52.6328 59.9681C53.5311 60.028 53.606 61.3404 53.5311 61.9891L50.9859 62.4756C50.3272 61.5774 51.8094 60.4297 52.6328 59.9681Z" fill="#424749" stroke="black" stroke-width="0.3"/>
<defs>
<filter id="filter0_d_505_1653" x="0" y="0" width="132" height="132" filterUnits="userSpaceOnUse" color-interpolation-filters="sRGB">
<feFlood flood-opacity="0" result="BackgroundImageFix"/>
<feColorMatrix in="SourceAlpha" type="matrix" values="0 0 0 0 0 0 0 0 0 0 0 0 0 0 0 0 0 0 127 0" result="hardAlpha"/>
<feMorphology radius="1" operator="erode" in="SourceAlpha" result="effect1_dropShadow_505_1653"/>
<feOffset dx="2" dy="2"/>
<feGaussianBlur stdDeviation="7"/>
<feComposite in2="hardAlpha" operator="out"/>
<feColorMatrix type="matrix" values="0 0 0 0 0 0 0 0 0 0 0 0 0 0 0 0 0 0 0.18 0"/>
<feBlend mode="normal" in2="BackgroundImageFix" result="effect1_dropShadow_505_1653"/>
<feBlend mode="normal" in="SourceGraphic" in2="effect1_dropShadow_505_1653" result="shape"/>
</filter>
</defs>
</svg>
