<svg width="96" height="96" viewBox="0 0 96 96" fill="none" xmlns="http://www.w3.org/2000/svg">
<circle cx="48" cy="48" r="48" fill="#E2E2E2"/>
<path d="M71.9919 80.2238C65.3419 80.3438 58.6919 80.4738 52.0419 80.5938L45.2119 65.7438C48.8419 65.8238 51.7919 62.4138 52.9219 59.7638C53.2119 59.0938 53.9919 57.1938 53.5519 54.8138C53.5019 54.5438 53.4319 54.2738 53.3519 54.0038L54.3319 53.4038C56.2219 57.0438 58.3919 60.8638 60.8919 64.8138C64.5819 70.6638 68.3619 75.7838 71.9919 80.2238Z" fill="#E83560" stroke="black" stroke-width="0.75" stroke-miterlimit="10"/>
<path d="M27.4419 30.3539C26.8019 28.8839 24.4019 29.2639 24.0419 27.9939C23.8819 27.4239 24.2019 26.7438 24.6319 26.4438C25.2119 26.0438 25.8419 26.4339 27.6619 26.9639C30.3719 27.7539 31.5319 27.6439 31.8719 28.5139C31.9819 28.7839 32.0719 29.2939 31.8719 29.7739C31.6519 30.3139 31.2619 30.3039 31.2119 30.6639C31.1219 31.2639 32.1619 31.4939 32.5419 32.6539C32.6119 32.8839 32.7819 33.3639 32.5419 33.6839C32.3319 33.9739 31.8819 34.0039 31.3619 33.9839C30.0619 33.9139 28.1319 33.8039 27.5219 32.5839C27.0719 31.6839 27.8319 31.2439 27.4419 30.3539Z" fill="#E83560" stroke="black" stroke-width="0.75" stroke-miterlimit="10"/>
<path d="M60.9318 29.3739C61.3718 27.8339 63.8018 27.8839 63.9818 26.5739C64.0618 25.9839 63.6618 25.3539 63.1818 25.1139C62.5518 24.7939 61.9818 25.2639 60.2518 26.0339C57.6818 27.1839 56.5118 27.2339 56.2918 28.1439C56.2218 28.4239 56.2018 28.9439 56.4618 29.3839C56.7518 29.8839 57.1418 29.8239 57.2418 30.1739C57.4118 30.7539 56.4218 31.1239 56.1918 32.3339C56.1518 32.5639 56.0518 33.0739 56.3318 33.3539C56.5818 33.6139 57.0318 33.5839 57.5418 33.4839C58.8218 33.2339 60.7218 32.8739 61.1618 31.5739C61.4718 30.6439 60.6718 30.3139 60.9318 29.3739Z" fill="#E83560" stroke="black" stroke-width="0.75" stroke-miterlimit="10"/>
<path d="M37.5619 16.3138C36.7719 16.8938 36.8319 18.1339 36.9019 19.3439C36.9619 20.5039 37.2419 20.7439 37.3419 22.0039C37.3919 22.5539 37.3819 23.1139 37.1919 24.6639C36.9119 26.9739 36.7619 28.1639 36.3019 29.8339C35.7619 31.8239 35.4919 32.8139 34.7519 33.8239C33.6419 35.3439 32.5819 35.5639 32.6819 36.1839C32.8519 37.2639 35.9819 36.6039 38.4419 38.6939C39.5919 39.6739 40.0719 40.8239 41.0319 43.1239C41.8119 45.0139 42.5019 46.6639 42.2919 48.8139C42.1419 50.3439 41.5819 51.6839 41.3319 52.2839C40.6219 53.9839 40.2219 54.0139 39.9319 55.0939C39.5619 56.4439 39.6518 58.3839 40.8218 59.9739C42.3918 62.0939 44.9219 62.2539 45.6219 62.2639C46.0519 62.2739 48.7118 62.3139 50.3518 60.2739C51.9918 58.2339 51.6719 55.2939 50.6519 53.6239C50.1119 52.7439 49.7019 52.7339 49.0919 51.5939C48.4019 50.2939 48.3018 49.1139 48.2118 47.9339C48.1318 46.9139 48.0219 45.1739 48.6519 43.0539C49.1319 41.4539 49.7118 39.5239 51.3818 38.3239C53.4918 36.8139 55.8319 37.5439 56.1119 36.5539C56.2919 35.9139 55.3918 35.3139 54.4118 34.1939C52.6818 32.1939 52.0819 30.1139 51.5819 28.3939C51.1419 26.8939 50.1919 23.6039 50.9419 19.7839C51.1519 18.6839 51.4719 17.7539 50.9419 17.1239C50.1919 16.2339 47.9719 16.2139 46.9519 17.2739C45.5519 18.7339 47.5418 21.0839 45.9918 23.9939C45.7818 24.3839 44.9519 25.9439 43.7019 25.9839C42.7019 26.0139 41.6919 25.0638 41.2619 24.0638C40.5419 22.3638 41.4319 20.3339 41.1119 17.7839C41.1019 17.6839 41.0719 17.4439 40.9219 17.1839C40.3419 16.1639 38.5219 15.6138 37.5619 16.3138Z" stroke="black" stroke-width="0.75" stroke-miterlimit="10"/>
<path d="M43.945 54.9645C44.0801 54.8686 43.9175 54.4074 43.5819 53.9345C43.2463 53.4616 42.8646 53.156 42.7295 53.2519C42.5944 53.3478 42.757 53.8089 43.0926 54.2818C43.4282 54.7547 43.8099 55.0604 43.945 54.9645Z" stroke="black" stroke-width="0.75" stroke-miterlimit="10"/>
<path d="M47.3458 54.1817C47.6358 53.6795 47.7545 53.2053 47.6111 53.1224C47.4676 53.0396 47.1162 53.3795 46.8263 53.8817C46.5363 54.3839 46.4176 54.8582 46.5611 54.941C46.7045 55.0239 47.0559 54.6839 47.3458 54.1817Z" stroke="black" stroke-width="0.75" stroke-miterlimit="10"/>
<path d="M55.9219 41.004C55.9219 41.704 56.2719 42.314 56.8219 42.704C54.3519 42.544 52.4719 41.754 52.4719 40.794C52.4719 39.724 54.8419 38.854 57.7619 38.854C57.8819 38.854 57.9919 38.854 58.1119 38.864C56.8919 38.914 55.9219 39.854 55.9219 41.004Z" stroke="black" stroke-width="0.75" stroke-miterlimit="10"/>
<path d="M34.3118 41.684C34.3118 42.384 33.9618 42.9939 33.4118 43.3839C35.8818 43.2239 37.7618 42.4339 37.7618 41.4739C37.7618 40.4039 35.3918 39.5339 32.4718 39.5339C32.3518 39.5339 32.2418 39.5339 32.1218 39.5439C33.3418 39.5939 34.3118 40.534 34.3118 41.684Z" stroke="black" stroke-width="0.75" stroke-miterlimit="10"/>
</svg>
