<svg width="32" height="32" viewBox="0 0 32 32" fill="none" xmlns="http://www.w3.org/2000/svg">
<g clip-path="url(#clip0_697_756)">
<rect x="0.05" y="0.05" width="31.9" height="31.9" rx="6.95" fill="#C6FFFC" stroke="#929292" stroke-width="0.1"/>
<path d="M7.22195 21.7018C7.836 21.5372 10.4065 19.4388 11.615 18.4101L19.1435 17.2272L24.794 19.8159C25.5173 20.0158 25.7698 20.9003 25.4145 21.5612C24.2405 23.7449 20.4123 27.6229 15.3058 27.9765C12.848 28.1467 10.7499 27.7326 9.12221 27.143C6.84066 26.3166 4.87808 22.33 7.22195 21.7018Z" fill="#E0E0E0" stroke="#7B7B7B" stroke-width="0.4"/>
<path d="M13.0049 14.9979C13.0566 14.421 12.714 14.0756 12.5363 13.975L14.2975 13.3546L18.838 17.7479C18.8326 17.8653 18.447 18.7473 16.9475 21.3364C11.9707 21.6449 10.6081 20.0899 10.5488 19.2739C10.7104 19.1397 11.3147 18.6467 12.4393 17.7479C12.9176 17.5869 13.0156 17.0884 13.0049 16.8592V14.9979Z" fill="#C7C7C7"/>
<path d="M11.9511 12.8032C12.0054 12.8585 12.2315 13.5463 12.4124 13.84C13.0638 14.4447 12.9282 14.237 12.9553 15.5675C11.6254 14.6171 11.8833 12.7341 11.9511 12.8032Z" fill="#CDCDCD" stroke="#7B7B7B" stroke-width="0.5"/>
<path d="M21.4487 8.05358C21.6321 9.09886 21.3723 10.6159 21.2195 11.2437C21.2195 9.92016 20.6627 9.86925 20.2042 9.41109C19.9553 9.12602 19.7075 8.98687 19.6147 8.95293C19.5165 9.03212 19.2348 9.28213 18.8942 9.64866C18.5504 9.42806 17.6661 10.0729 17.1258 10.4123C16.628 10.4801 15.7285 11.3682 15.3409 11.8037C14.8388 12.0865 13.7624 12.7336 13.4742 13.0594C12.8323 13.1816 12.4535 13.6759 12.3444 13.9079C11.9732 13.3139 11.2014 11.8716 11.0835 10.8535C11.0999 10.6159 11.2964 9.69956 11.6894 9.64866C11.6075 9.41109 11.3127 7.90086 12.3444 5.9664C13.376 4.03195 16.1597 4.18467 16.9129 4.26951C20.499 4.30345 21.2195 6.74697 21.4487 8.05358Z" fill="#E3E3E3" stroke="#7B7B7B" stroke-width="0.4"/>
<path d="M13.3097 14.3673C13.012 14.3673 12.6248 14.0643 12.4684 13.9127C12.3875 13.9127 12.3519 13.8184 12.8567 13.4413C13.3614 13.0641 14.1994 12.4871 14.5877 12.3132C15.3373 11.6565 17.0564 10.4071 17.6776 10.1243C18.3192 9.69022 18.4099 9.68124 18.6896 9.65355L18.6968 9.65283C19.0366 9.61915 19.1336 9.48445 19.7322 8.92882C20.0687 8.9827 20.8107 9.98397 21.1396 10.4779L21.2044 11.2524C21.3661 11.4208 20.994 12.1953 20.9455 12.1616C20.897 12.1279 20.7676 12.532 20.7837 12.8351C20.9132 13.1449 19.9856 15.5123 19.5057 16.6572C19.3277 16.9828 18.9767 17.7174 18.8101 17.9032C18.5836 18.1558 17.6291 18.0547 16.804 17.9032C13.8112 17.4991 13.7303 14.6367 13.3097 14.3673Z" fill="#DCDCDC" stroke="#7B7B7B" stroke-width="0.4"/>
</g>
<defs>
<clipPath id="clip0_697_756">
<rect width="32" height="32" fill="white"/>
</clipPath>
</defs>
</svg>
