<svg width="512" height="512" viewBox="0 0 512 512" fill="none" xmlns="http://www.w3.org/2000/svg">
<g clip-path="url(#clip0_667_709)">
<rect x="0.05" y="0.05" width="511.9" height="511.9" rx="53.95" fill="#C6FFFC" stroke="#929292" stroke-width="0.1"/>
<path d="M115.551 347.229C125.376 344.596 166.504 311.021 185.84 294.562L306.296 275.635L396.704 317.055C398.109 317.443 402.287 319.426 408.888 324.31C411.299 326.095 412.734 328.948 412.029 331.864C404.998 360.96 338.316 441.155 244.892 447.625C171.125 452.733 117.61 424.943 96.0329 407.435C93.3062 405.223 92.2149 401.635 93.032 398.22C97.5283 379.427 106.661 349.612 115.551 347.229Z" fill="#E0E0E0" stroke="#7B7B7B" stroke-width="0.4"/>
<path d="M208.08 239.966C208.907 230.737 203.426 225.21 200.583 223.6L228.762 213.673L301.41 283.967C301.324 285.845 295.153 299.957 271.162 341.382C191.534 346.319 169.731 321.439 168.783 308.382C171.369 306.235 181.038 298.347 199.031 283.967C206.684 281.391 208.252 273.414 208.08 269.747V239.966Z" fill="#C7C7C7"/>
<path d="M191.221 204.852C192.089 205.736 195.707 216.741 198.602 221.44C209.024 231.115 206.854 227.792 207.288 249.08C186.01 233.873 190.135 203.746 191.221 204.852Z" fill="#CDCDCD" stroke="#7B7B7B" stroke-width="0.5"/>
<path d="M343.183 128.857C346.118 145.582 341.961 169.854 339.515 179.9C339.515 158.723 330.607 157.908 323.271 150.578C319.289 146.016 315.324 143.79 313.84 143.247C312.268 144.514 307.761 148.514 302.312 154.379C296.81 150.849 282.662 161.166 274.016 166.596C266.052 167.682 251.659 181.891 245.459 188.859C237.424 193.384 220.202 203.738 215.591 208.951C205.321 210.905 199.26 218.815 197.514 222.526C191.575 213.023 179.226 189.945 177.34 173.655C177.602 169.854 180.746 155.193 187.034 154.379C185.724 150.578 181.008 126.414 197.514 95.4625C214.019 64.5112 258.559 66.9548 270.61 68.3123C327.988 68.8553 339.515 107.952 343.183 128.857Z" fill="#E3E3E3" stroke="#7B7B7B" stroke-width="0.4"/>
<path d="M212.951 229.877C208.188 229.877 201.993 225.028 199.491 222.604C198.197 222.604 197.628 221.095 205.704 215.06C213.779 209.026 227.187 199.794 233.4 197.01C245.393 186.504 272.899 166.514 282.839 161.989C293.104 155.044 294.555 154.9 299.03 154.457L299.146 154.445C304.581 153.907 306.134 151.751 315.712 142.861C321.096 143.723 332.968 159.744 338.231 167.646L339.266 180.038C341.855 182.732 335.901 195.125 335.125 194.586C334.348 194.047 332.278 200.513 332.536 205.362C334.607 210.319 319.767 248.196 312.088 266.516C309.241 271.724 303.623 283.479 300.958 286.451C297.334 290.492 282.062 288.876 268.861 286.451C220.975 279.986 219.681 234.188 212.951 229.877Z" fill="#DCDCDC" stroke="#7B7B7B" stroke-width="0.4"/>
</g>
<defs>
<clipPath id="clip0_667_709">
<rect width="512" height="512" fill="white"/>
</clipPath>
</defs>
</svg>
