<svg width="50" height="50" viewBox="0 0 50 50" fill="none" xmlns="http://www.w3.org/2000/svg">
<rect x="0.25" y="0.25" width="49.5" height="49.5" rx="15.75" fill="#F7F7F6" stroke="#BABABA" stroke-width="0.5"/>
<path d="M13.9639 20.917H38.0232C38.563 20.917 39 20.498 39 19.9648C39 19.4316 38.563 19 38.0232 19H13.9639C13.4241 19 13 19.4316 13 19.9648C13 20.498 13.4241 20.917 13.9639 20.917ZM13.9639 26.4521H38.0232C38.563 26.4521 39 26.0332 39 25.5C39 24.9541 38.563 24.5225 38.0232 24.5225H13.9639C13.4241 24.5225 13 24.9541 13 25.5C13 26.0332 13.4241 26.4521 13.9639 26.4521ZM13.9639 32H38.0232C38.563 32 39 31.5684 39 31.0225C39 30.4893 38.563 30.0703 38.0232 30.0703H13.9639C13.4241 30.0703 13 30.4893 13 31.0225C13 31.5684 13.4241 32 13.9639 32Z" fill="#6C6C6C"/>
</svg>
