<svg width="60" height="61" viewBox="0 0 60 61" fill="none" xmlns="http://www.w3.org/2000/svg">
<path d="M51.6312 40.7668V20.7668C51.6303 19.89 51.4027 19.0289 50.9712 18.2698C50.5396 17.5106 49.9193 16.8803 49.1726 16.4418L31.9622 6.44185C31.2147 6.003 30.3667 5.77197 29.5035 5.77197C28.6404 5.77197 27.7924 6.003 27.0449 6.44185L9.83451 16.4418C9.08774 16.8803 8.46747 17.5106 8.03593 18.2698C7.6044 19.0289 7.37677 19.89 7.37589 20.7668V40.7668C7.37677 41.6437 7.6044 42.5048 8.03593 43.2639C8.46747 44.0231 9.08774 44.6534 9.83451 45.0918L27.0449 55.0919C27.7924 55.5307 28.6404 55.7617 29.5035 55.7617C30.3667 55.7617 31.2147 55.5307 31.9622 55.0919L49.1726 45.0918C49.9193 44.6534 50.5396 44.0231 50.9712 43.2639C51.4027 42.5048 51.6303 41.6437 51.6312 40.7668Z" stroke="white" stroke-width="4" stroke-linecap="round" stroke-linejoin="round"/>
<path d="M8.0397 18.1669L29.5035 30.7919L50.9674 18.1669" stroke="white" stroke-width="4" stroke-linecap="round" stroke-linejoin="round"/>
<path d="M29.5035 55.9668V30.7668" stroke="white" stroke-width="5" stroke-linecap="round" stroke-linejoin="round"/>
</svg>
