<svg width="44" height="44" viewBox="0 0 44 44" fill="none" xmlns="http://www.w3.org/2000/svg">
<path fill-rule="evenodd" clip-rule="evenodd" d="M30.2507 14.1176C29.5578 13.4246 28.4341 13.4247 27.7411 14.1178L21.8877 19.9712L16.1463 14.2298C15.4533 13.5368 14.3297 13.5369 13.6366 14.23C12.9435 14.9231 12.9434 16.0467 13.6364 16.7397L19.3778 22.481L13.5244 28.3344C12.8313 29.0275 12.8312 30.1511 13.5242 30.8441C14.2171 31.5371 15.3408 31.537 16.0338 30.8439L21.8872 24.9905L27.6286 30.7319C28.3216 31.4249 29.4452 31.4248 30.1383 30.7317C30.8314 30.0386 30.8315 28.915 30.1385 28.222L24.3971 22.4806L30.2505 16.6272C30.9436 15.9341 30.9437 14.8105 30.2507 14.1176Z" fill="#8E8E93"/>
</svg>
