<svg width="60" height="60" viewBox="0 0 60 60" fill="none" xmlns="http://www.w3.org/2000/svg">
<path d="M44.2553 20H46.7139C49.3222 20 51.8237 21.0536 53.668 22.9289C55.5123 24.8043 56.5485 27.3478 56.5485 30C56.5485 32.6522 55.5123 35.1957 53.668 37.0711C51.8237 38.9464 49.3222 40 46.7139 40H44.2553" stroke="white" stroke-width="4" stroke-linecap="round" stroke-linejoin="round"/>
<path d="M4.91727 20H44.2553V42.5C44.2553 45.1522 43.2192 47.6957 41.3749 49.5711C39.5305 51.4464 37.0291 52.5 34.4208 52.5H14.7518C12.1435 52.5 9.64206 51.4464 7.79773 49.5711C5.9534 47.6957 4.91727 45.1522 4.91727 42.5V20Z" stroke="white" stroke-width="4" stroke-linecap="round" stroke-linejoin="round"/>
<path d="M14.7518 2.5V10" stroke="white" stroke-width="4" stroke-linecap="round" stroke-linejoin="round"/>
<path d="M24.5863 2.5V10" stroke="white" stroke-width="4" stroke-linecap="round" stroke-linejoin="round"/>
<path d="M34.4208 2.5V10" stroke="white" stroke-width="4" stroke-linecap="round" stroke-linejoin="round"/>
</svg>
