<svg width="25" height="25" viewBox="0 0 25 25" fill="none" xmlns="http://www.w3.org/2000/svg">
<circle cx="12.5" cy="12.5" r="12.5" fill="#E53B00"/>
<path fill-rule="evenodd" clip-rule="evenodd" d="M16.7111 8.86857C16.3862 8.54366 15.8594 8.5437 15.5344 8.86867L12.7899 11.6131L10.0979 8.92119C9.77304 8.59628 9.24621 8.59632 8.92124 8.92129C8.59628 9.24625 8.59623 9.77308 8.92115 10.098L11.6131 12.79L8.86864 15.5344C8.54368 15.8594 8.54363 16.3862 8.86854 16.7111C9.19346 17.036 9.72029 17.036 10.0453 16.711L12.7897 13.9666L15.4817 16.6585C15.8066 16.9834 16.3334 16.9834 16.6584 16.6584C16.9833 16.3334 16.9834 15.8066 16.6585 15.4817L13.9665 12.7898L16.711 10.0453C17.036 9.72031 17.036 9.19348 16.7111 8.86857Z" fill="white"/>
</svg>
